G04 #@! TF.GenerationSoftware,KiCad,Pcbnew,5.1.5+dfsg1-2build2*
G04 #@! TF.CreationDate,2020-09-27T17:25:33+02:00*
G04 #@! TF.ProjectId,tdr,7464722e-6b69-4636-9164-5f7063625858,rev?*
G04 #@! TF.SameCoordinates,Original*
G04 #@! TF.FileFunction,Legend,Top*
G04 #@! TF.FilePolarity,Positive*
%FSLAX46Y46*%
G04 Gerber Fmt 4.6, Leading zero omitted, Abs format (unit mm)*
G04 Created by KiCad (PCBNEW 5.1.5+dfsg1-2build2) date 2020-09-27 17:25:33*
%MOMM*%
%LPD*%
G04 APERTURE LIST*
%ADD10C,0.120000*%
%ADD11C,0.150000*%
%ADD12C,0.127000*%
%ADD13C,0.100000*%
G04 APERTURE END LIST*
D10*
X114150000Y-86750000D02*
X114350000Y-87850000D01*
D11*
X112283333Y-89004761D02*
X112426190Y-89052380D01*
X112664285Y-89052380D01*
X112759523Y-89004761D01*
X112807142Y-88957142D01*
X112854761Y-88861904D01*
X112854761Y-88766666D01*
X112807142Y-88671428D01*
X112759523Y-88623809D01*
X112664285Y-88576190D01*
X112473809Y-88528571D01*
X112378571Y-88480952D01*
X112330952Y-88433333D01*
X112283333Y-88338095D01*
X112283333Y-88242857D01*
X112330952Y-88147619D01*
X112378571Y-88100000D01*
X112473809Y-88052380D01*
X112711904Y-88052380D01*
X112854761Y-88100000D01*
X113140476Y-88385714D02*
X113521428Y-88385714D01*
X113283333Y-88052380D02*
X113283333Y-88909523D01*
X113330952Y-89004761D01*
X113426190Y-89052380D01*
X113521428Y-89052380D01*
X114283333Y-89052380D02*
X114283333Y-88528571D01*
X114235714Y-88433333D01*
X114140476Y-88385714D01*
X113950000Y-88385714D01*
X113854761Y-88433333D01*
X114283333Y-89004761D02*
X114188095Y-89052380D01*
X113950000Y-89052380D01*
X113854761Y-89004761D01*
X113807142Y-88909523D01*
X113807142Y-88814285D01*
X113854761Y-88719047D01*
X113950000Y-88671428D01*
X114188095Y-88671428D01*
X114283333Y-88623809D01*
X114616666Y-88385714D02*
X114997619Y-88385714D01*
X114759523Y-88052380D02*
X114759523Y-88909523D01*
X114807142Y-89004761D01*
X114902380Y-89052380D01*
X114997619Y-89052380D01*
X115759523Y-88385714D02*
X115759523Y-89052380D01*
X115330952Y-88385714D02*
X115330952Y-88909523D01*
X115378571Y-89004761D01*
X115473809Y-89052380D01*
X115616666Y-89052380D01*
X115711904Y-89004761D01*
X115759523Y-88957142D01*
X116188095Y-89004761D02*
X116283333Y-89052380D01*
X116473809Y-89052380D01*
X116569047Y-89004761D01*
X116616666Y-88909523D01*
X116616666Y-88861904D01*
X116569047Y-88766666D01*
X116473809Y-88719047D01*
X116330952Y-88719047D01*
X116235714Y-88671428D01*
X116188095Y-88576190D01*
X116188095Y-88528571D01*
X116235714Y-88433333D01*
X116330952Y-88385714D01*
X116473809Y-88385714D01*
X116569047Y-88433333D01*
X124214285Y-88452380D02*
X124214285Y-89166666D01*
X124166666Y-89309523D01*
X124071428Y-89404761D01*
X123928571Y-89452380D01*
X123833333Y-89452380D01*
X125119047Y-89452380D02*
X125119047Y-88928571D01*
X125071428Y-88833333D01*
X124976190Y-88785714D01*
X124785714Y-88785714D01*
X124690476Y-88833333D01*
X125119047Y-89404761D02*
X125023809Y-89452380D01*
X124785714Y-89452380D01*
X124690476Y-89404761D01*
X124642857Y-89309523D01*
X124642857Y-89214285D01*
X124690476Y-89119047D01*
X124785714Y-89071428D01*
X125023809Y-89071428D01*
X125119047Y-89023809D01*
X125595238Y-88785714D02*
X125595238Y-89452380D01*
X125595238Y-88880952D02*
X125642857Y-88833333D01*
X125738095Y-88785714D01*
X125880952Y-88785714D01*
X125976190Y-88833333D01*
X126023809Y-88928571D01*
X126023809Y-89452380D01*
X127261904Y-89452380D02*
X127261904Y-88452380D01*
X127261904Y-88928571D02*
X127833333Y-88928571D01*
X127833333Y-89452380D02*
X127833333Y-88452380D01*
X128690476Y-89404761D02*
X128595238Y-89452380D01*
X128404761Y-89452380D01*
X128309523Y-89404761D01*
X128261904Y-89309523D01*
X128261904Y-88928571D01*
X128309523Y-88833333D01*
X128404761Y-88785714D01*
X128595238Y-88785714D01*
X128690476Y-88833333D01*
X128738095Y-88928571D01*
X128738095Y-89023809D01*
X128261904Y-89119047D01*
X129166666Y-88785714D02*
X129166666Y-89452380D01*
X129166666Y-88880952D02*
X129214285Y-88833333D01*
X129309523Y-88785714D01*
X129452380Y-88785714D01*
X129547619Y-88833333D01*
X129595238Y-88928571D01*
X129595238Y-89452380D01*
X130071428Y-89452380D02*
X130071428Y-88785714D01*
X130071428Y-88976190D02*
X130119047Y-88880952D01*
X130166666Y-88833333D01*
X130261904Y-88785714D01*
X130357142Y-88785714D01*
X130690476Y-89452380D02*
X130690476Y-88785714D01*
X130690476Y-88452380D02*
X130642857Y-88500000D01*
X130690476Y-88547619D01*
X130738095Y-88500000D01*
X130690476Y-88452380D01*
X130690476Y-88547619D01*
X131166666Y-89452380D02*
X131166666Y-88452380D01*
X131261904Y-89071428D02*
X131547619Y-89452380D01*
X131547619Y-88785714D02*
X131166666Y-89166666D01*
X132690476Y-88547619D02*
X132738095Y-88500000D01*
X132833333Y-88452380D01*
X133071428Y-88452380D01*
X133166666Y-88500000D01*
X133214285Y-88547619D01*
X133261904Y-88642857D01*
X133261904Y-88738095D01*
X133214285Y-88880952D01*
X132642857Y-89452380D01*
X133261904Y-89452380D01*
X133880952Y-88452380D02*
X133976190Y-88452380D01*
X134071428Y-88500000D01*
X134119047Y-88547619D01*
X134166666Y-88642857D01*
X134214285Y-88833333D01*
X134214285Y-89071428D01*
X134166666Y-89261904D01*
X134119047Y-89357142D01*
X134071428Y-89404761D01*
X133976190Y-89452380D01*
X133880952Y-89452380D01*
X133785714Y-89404761D01*
X133738095Y-89357142D01*
X133690476Y-89261904D01*
X133642857Y-89071428D01*
X133642857Y-88833333D01*
X133690476Y-88642857D01*
X133738095Y-88547619D01*
X133785714Y-88500000D01*
X133880952Y-88452380D01*
X134595238Y-88547619D02*
X134642857Y-88500000D01*
X134738095Y-88452380D01*
X134976190Y-88452380D01*
X135071428Y-88500000D01*
X135119047Y-88547619D01*
X135166666Y-88642857D01*
X135166666Y-88738095D01*
X135119047Y-88880952D01*
X134547619Y-89452380D01*
X135166666Y-89452380D01*
X135785714Y-88452380D02*
X135880952Y-88452380D01*
X135976190Y-88500000D01*
X136023809Y-88547619D01*
X136071428Y-88642857D01*
X136119047Y-88833333D01*
X136119047Y-89071428D01*
X136071428Y-89261904D01*
X136023809Y-89357142D01*
X135976190Y-89404761D01*
X135880952Y-89452380D01*
X135785714Y-89452380D01*
X135690476Y-89404761D01*
X135642857Y-89357142D01*
X135595238Y-89261904D01*
X135547619Y-89071428D01*
X135547619Y-88833333D01*
X135595238Y-88642857D01*
X135642857Y-88547619D01*
X135690476Y-88500000D01*
X135785714Y-88452380D01*
X125107142Y-87678571D02*
X125107142Y-86178571D01*
X125607142Y-87250000D01*
X126107142Y-86178571D01*
X126107142Y-87678571D01*
X126821428Y-87678571D02*
X126821428Y-86678571D01*
X126821428Y-86178571D02*
X126750000Y-86250000D01*
X126821428Y-86321428D01*
X126892857Y-86250000D01*
X126821428Y-86178571D01*
X126821428Y-86321428D01*
X127535714Y-86678571D02*
X127535714Y-87678571D01*
X127535714Y-86821428D02*
X127607142Y-86750000D01*
X127750000Y-86678571D01*
X127964285Y-86678571D01*
X128107142Y-86750000D01*
X128178571Y-86892857D01*
X128178571Y-87678571D01*
X128892857Y-87678571D02*
X128892857Y-86678571D01*
X128892857Y-86178571D02*
X128821428Y-86250000D01*
X128892857Y-86321428D01*
X128964285Y-86250000D01*
X128892857Y-86178571D01*
X128892857Y-86321428D01*
X129607142Y-87107142D02*
X130750000Y-87107142D01*
X131250000Y-86178571D02*
X132107142Y-86178571D01*
X131678571Y-87678571D02*
X131678571Y-86178571D01*
X132607142Y-87678571D02*
X132607142Y-86178571D01*
X132964285Y-86178571D01*
X133178571Y-86250000D01*
X133321428Y-86392857D01*
X133392857Y-86535714D01*
X133464285Y-86821428D01*
X133464285Y-87035714D01*
X133392857Y-87321428D01*
X133321428Y-87464285D01*
X133178571Y-87607142D01*
X132964285Y-87678571D01*
X132607142Y-87678571D01*
X134964285Y-87678571D02*
X134464285Y-86964285D01*
X134107142Y-87678571D02*
X134107142Y-86178571D01*
X134678571Y-86178571D01*
X134821428Y-86250000D01*
X134892857Y-86321428D01*
X134964285Y-86464285D01*
X134964285Y-86678571D01*
X134892857Y-86821428D01*
X134821428Y-86892857D01*
X134678571Y-86964285D01*
X134107142Y-86964285D01*
X111485714Y-65252380D02*
X111485714Y-64252380D01*
X111723809Y-64252380D01*
X111866666Y-64300000D01*
X111961904Y-64395238D01*
X112009523Y-64490476D01*
X112057142Y-64680952D01*
X112057142Y-64823809D01*
X112009523Y-65014285D01*
X111961904Y-65109523D01*
X111866666Y-65204761D01*
X111723809Y-65252380D01*
X111485714Y-65252380D01*
X112819047Y-64728571D02*
X112485714Y-64728571D01*
X112485714Y-65252380D02*
X112485714Y-64252380D01*
X112961904Y-64252380D01*
X113342857Y-64252380D02*
X113342857Y-65061904D01*
X113390476Y-65157142D01*
X113438095Y-65204761D01*
X113533333Y-65252380D01*
X113723809Y-65252380D01*
X113819047Y-65204761D01*
X113866666Y-65157142D01*
X113914285Y-65061904D01*
X113914285Y-64252380D01*
X130000000Y-79916666D02*
X130400000Y-79916666D01*
X130200000Y-80616666D02*
X130200000Y-79916666D01*
X130633333Y-80616666D02*
X130633333Y-79916666D01*
X130800000Y-79916666D01*
X130900000Y-79950000D01*
X130966666Y-80016666D01*
X131000000Y-80083333D01*
X131033333Y-80216666D01*
X131033333Y-80316666D01*
X131000000Y-80450000D01*
X130966666Y-80516666D01*
X130900000Y-80583333D01*
X130800000Y-80616666D01*
X130633333Y-80616666D01*
X131733333Y-80616666D02*
X131500000Y-80283333D01*
X131333333Y-80616666D02*
X131333333Y-79916666D01*
X131600000Y-79916666D01*
X131666666Y-79950000D01*
X131700000Y-79983333D01*
X131733333Y-80050000D01*
X131733333Y-80150000D01*
X131700000Y-80216666D01*
X131666666Y-80250000D01*
X131600000Y-80283333D01*
X131333333Y-80283333D01*
X133100000Y-80250000D02*
X133333333Y-80250000D01*
X133433333Y-80616666D02*
X133100000Y-80616666D01*
X133100000Y-79916666D01*
X133433333Y-79916666D01*
X133666666Y-79916666D02*
X134133333Y-80616666D01*
X134133333Y-79916666D02*
X133666666Y-80616666D01*
X134300000Y-79916666D02*
X134700000Y-79916666D01*
X134500000Y-80616666D02*
X134500000Y-79916666D01*
X130000000Y-74266666D02*
X130400000Y-74266666D01*
X130200000Y-74966666D02*
X130200000Y-74266666D01*
X130633333Y-74966666D02*
X130633333Y-74266666D01*
X130800000Y-74266666D01*
X130900000Y-74300000D01*
X130966666Y-74366666D01*
X131000000Y-74433333D01*
X131033333Y-74566666D01*
X131033333Y-74666666D01*
X131000000Y-74800000D01*
X130966666Y-74866666D01*
X130900000Y-74933333D01*
X130800000Y-74966666D01*
X130633333Y-74966666D01*
X131733333Y-74966666D02*
X131500000Y-74633333D01*
X131333333Y-74966666D02*
X131333333Y-74266666D01*
X131600000Y-74266666D01*
X131666666Y-74300000D01*
X131700000Y-74333333D01*
X131733333Y-74400000D01*
X131733333Y-74500000D01*
X131700000Y-74566666D01*
X131666666Y-74600000D01*
X131600000Y-74633333D01*
X131333333Y-74633333D01*
X133100000Y-74600000D02*
X133333333Y-74600000D01*
X133433333Y-74966666D02*
X133100000Y-74966666D01*
X133100000Y-74266666D01*
X133433333Y-74266666D01*
X133666666Y-74266666D02*
X134133333Y-74966666D01*
X134133333Y-74266666D02*
X133666666Y-74966666D01*
X134300000Y-74266666D02*
X134700000Y-74266666D01*
X134500000Y-74966666D02*
X134500000Y-74266666D01*
D10*
X134300000Y-73850000D02*
X132950000Y-73850001D01*
X132350000Y-73250001D02*
X132950000Y-73850001D01*
X134900000Y-73250000D02*
X134300000Y-73850000D01*
X129800000Y-73250000D02*
X130400000Y-73850000D01*
X132350000Y-73250001D02*
X131750000Y-73850001D01*
X131750000Y-73850001D02*
X130400000Y-73850000D01*
X132950000Y-81000000D02*
X134300000Y-81000000D01*
X134900000Y-81600000D02*
X134300000Y-81000000D01*
X132350000Y-81600000D02*
X132950000Y-81000000D01*
X130400000Y-81000000D02*
X131750000Y-81000000D01*
X129800000Y-81600000D02*
X130400000Y-81000000D01*
X132350000Y-81600000D02*
X131750000Y-81000000D01*
D11*
X113178571Y-92307142D02*
X113130952Y-92354761D01*
X112988095Y-92402380D01*
X112892857Y-92402380D01*
X112750000Y-92354761D01*
X112654761Y-92259523D01*
X112607142Y-92164285D01*
X112559523Y-91973809D01*
X112559523Y-91830952D01*
X112607142Y-91640476D01*
X112654761Y-91545238D01*
X112750000Y-91450000D01*
X112892857Y-91402380D01*
X112988095Y-91402380D01*
X113130952Y-91450000D01*
X113178571Y-91497619D01*
X113607142Y-92402380D02*
X113607142Y-91402380D01*
X113607142Y-91878571D02*
X114178571Y-91878571D01*
X114178571Y-92402380D02*
X114178571Y-91402380D01*
X115988095Y-92307142D02*
X115940476Y-92354761D01*
X115797619Y-92402380D01*
X115702380Y-92402380D01*
X115559523Y-92354761D01*
X115464285Y-92259523D01*
X115416666Y-92164285D01*
X115369047Y-91973809D01*
X115369047Y-91830952D01*
X115416666Y-91640476D01*
X115464285Y-91545238D01*
X115559523Y-91450000D01*
X115702380Y-91402380D01*
X115797619Y-91402380D01*
X115940476Y-91450000D01*
X115988095Y-91497619D01*
X116940476Y-92402380D02*
X116369047Y-92402380D01*
X116654761Y-92402380D02*
X116654761Y-91402380D01*
X116559523Y-91545238D01*
X116464285Y-91640476D01*
X116369047Y-91688095D01*
X123228571Y-92307142D02*
X123180952Y-92354761D01*
X123038095Y-92402380D01*
X122942857Y-92402380D01*
X122800000Y-92354761D01*
X122704761Y-92259523D01*
X122657142Y-92164285D01*
X122609523Y-91973809D01*
X122609523Y-91830952D01*
X122657142Y-91640476D01*
X122704761Y-91545238D01*
X122800000Y-91450000D01*
X122942857Y-91402380D01*
X123038095Y-91402380D01*
X123180952Y-91450000D01*
X123228571Y-91497619D01*
X123657142Y-92402380D02*
X123657142Y-91402380D01*
X123657142Y-91878571D02*
X124228571Y-91878571D01*
X124228571Y-92402380D02*
X124228571Y-91402380D01*
X126038095Y-92307142D02*
X125990476Y-92354761D01*
X125847619Y-92402380D01*
X125752380Y-92402380D01*
X125609523Y-92354761D01*
X125514285Y-92259523D01*
X125466666Y-92164285D01*
X125419047Y-91973809D01*
X125419047Y-91830952D01*
X125466666Y-91640476D01*
X125514285Y-91545238D01*
X125609523Y-91450000D01*
X125752380Y-91402380D01*
X125847619Y-91402380D01*
X125990476Y-91450000D01*
X126038095Y-91497619D01*
X126419047Y-91497619D02*
X126466666Y-91450000D01*
X126561904Y-91402380D01*
X126800000Y-91402380D01*
X126895238Y-91450000D01*
X126942857Y-91497619D01*
X126990476Y-91592857D01*
X126990476Y-91688095D01*
X126942857Y-91830952D01*
X126371428Y-92402380D01*
X126990476Y-92402380D01*
X133228571Y-92357142D02*
X133180952Y-92404761D01*
X133038095Y-92452380D01*
X132942857Y-92452380D01*
X132800000Y-92404761D01*
X132704761Y-92309523D01*
X132657142Y-92214285D01*
X132609523Y-92023809D01*
X132609523Y-91880952D01*
X132657142Y-91690476D01*
X132704761Y-91595238D01*
X132800000Y-91500000D01*
X132942857Y-91452380D01*
X133038095Y-91452380D01*
X133180952Y-91500000D01*
X133228571Y-91547619D01*
X133657142Y-92452380D02*
X133657142Y-91452380D01*
X133657142Y-91928571D02*
X134228571Y-91928571D01*
X134228571Y-92452380D02*
X134228571Y-91452380D01*
X135466666Y-92452380D02*
X135466666Y-91452380D01*
X135704761Y-91452380D01*
X135847619Y-91500000D01*
X135942857Y-91595238D01*
X135990476Y-91690476D01*
X136038095Y-91880952D01*
X136038095Y-92023809D01*
X135990476Y-92214285D01*
X135942857Y-92309523D01*
X135847619Y-92404761D01*
X135704761Y-92452380D01*
X135466666Y-92452380D01*
X136990476Y-92452380D02*
X136419047Y-92452380D01*
X136704761Y-92452380D02*
X136704761Y-91452380D01*
X136609523Y-91595238D01*
X136514285Y-91690476D01*
X136419047Y-91738095D01*
X143228571Y-92357142D02*
X143180952Y-92404761D01*
X143038095Y-92452380D01*
X142942857Y-92452380D01*
X142800000Y-92404761D01*
X142704761Y-92309523D01*
X142657142Y-92214285D01*
X142609523Y-92023809D01*
X142609523Y-91880952D01*
X142657142Y-91690476D01*
X142704761Y-91595238D01*
X142800000Y-91500000D01*
X142942857Y-91452380D01*
X143038095Y-91452380D01*
X143180952Y-91500000D01*
X143228571Y-91547619D01*
X143657142Y-92452380D02*
X143657142Y-91452380D01*
X143657142Y-91928571D02*
X144228571Y-91928571D01*
X144228571Y-92452380D02*
X144228571Y-91452380D01*
X145466666Y-92452380D02*
X145466666Y-91452380D01*
X145704761Y-91452380D01*
X145847619Y-91500000D01*
X145942857Y-91595238D01*
X145990476Y-91690476D01*
X146038095Y-91880952D01*
X146038095Y-92023809D01*
X145990476Y-92214285D01*
X145942857Y-92309523D01*
X145847619Y-92404761D01*
X145704761Y-92452380D01*
X145466666Y-92452380D01*
X146419047Y-91547619D02*
X146466666Y-91500000D01*
X146561904Y-91452380D01*
X146800000Y-91452380D01*
X146895238Y-91500000D01*
X146942857Y-91547619D01*
X146990476Y-91642857D01*
X146990476Y-91738095D01*
X146942857Y-91880952D01*
X146371428Y-92452380D01*
X146990476Y-92452380D01*
X141764285Y-79107142D02*
X141716666Y-79154761D01*
X141573809Y-79202380D01*
X141478571Y-79202380D01*
X141335714Y-79154761D01*
X141240476Y-79059523D01*
X141192857Y-78964285D01*
X141145238Y-78773809D01*
X141145238Y-78630952D01*
X141192857Y-78440476D01*
X141240476Y-78345238D01*
X141335714Y-78250000D01*
X141478571Y-78202380D01*
X141573809Y-78202380D01*
X141716666Y-78250000D01*
X141764285Y-78297619D01*
X142192857Y-79202380D02*
X142192857Y-78202380D01*
X142192857Y-78678571D02*
X142764285Y-78678571D01*
X142764285Y-79202380D02*
X142764285Y-78202380D01*
X143954761Y-78916666D02*
X144430952Y-78916666D01*
X143859523Y-79202380D02*
X144192857Y-78202380D01*
X144526190Y-79202380D01*
X145383333Y-79202380D02*
X144811904Y-79202380D01*
X145097619Y-79202380D02*
X145097619Y-78202380D01*
X145002380Y-78345238D01*
X144907142Y-78440476D01*
X144811904Y-78488095D01*
X146526190Y-78916666D02*
X147002380Y-78916666D01*
X146430952Y-79202380D02*
X146764285Y-78202380D01*
X147097619Y-79202380D01*
X147383333Y-78297619D02*
X147430952Y-78250000D01*
X147526190Y-78202380D01*
X147764285Y-78202380D01*
X147859523Y-78250000D01*
X147907142Y-78297619D01*
X147954761Y-78392857D01*
X147954761Y-78488095D01*
X147907142Y-78630952D01*
X147335714Y-79202380D01*
X147954761Y-79202380D01*
X142978571Y-67107142D02*
X142930952Y-67154761D01*
X142788095Y-67202380D01*
X142692857Y-67202380D01*
X142550000Y-67154761D01*
X142454761Y-67059523D01*
X142407142Y-66964285D01*
X142359523Y-66773809D01*
X142359523Y-66630952D01*
X142407142Y-66440476D01*
X142454761Y-66345238D01*
X142550000Y-66250000D01*
X142692857Y-66202380D01*
X142788095Y-66202380D01*
X142930952Y-66250000D01*
X142978571Y-66297619D01*
X143407142Y-67202380D02*
X143407142Y-66202380D01*
X143407142Y-66678571D02*
X143978571Y-66678571D01*
X143978571Y-67202380D02*
X143978571Y-66202380D01*
X145550000Y-66678571D02*
X145692857Y-66726190D01*
X145740476Y-66773809D01*
X145788095Y-66869047D01*
X145788095Y-67011904D01*
X145740476Y-67107142D01*
X145692857Y-67154761D01*
X145597619Y-67202380D01*
X145216666Y-67202380D01*
X145216666Y-66202380D01*
X145550000Y-66202380D01*
X145645238Y-66250000D01*
X145692857Y-66297619D01*
X145740476Y-66392857D01*
X145740476Y-66488095D01*
X145692857Y-66583333D01*
X145645238Y-66630952D01*
X145550000Y-66678571D01*
X145216666Y-66678571D01*
X146740476Y-67202380D02*
X146169047Y-67202380D01*
X146454761Y-67202380D02*
X146454761Y-66202380D01*
X146359523Y-66345238D01*
X146264285Y-66440476D01*
X146169047Y-66488095D01*
D10*
X141300000Y-55900000D02*
X141500000Y-57000000D01*
D11*
X138200000Y-55352380D02*
X137866666Y-54876190D01*
X137628571Y-55352380D02*
X137628571Y-54352380D01*
X138009523Y-54352380D01*
X138104761Y-54400000D01*
X138152380Y-54447619D01*
X138200000Y-54542857D01*
X138200000Y-54685714D01*
X138152380Y-54780952D01*
X138104761Y-54828571D01*
X138009523Y-54876190D01*
X137628571Y-54876190D01*
X138628571Y-54971428D02*
X139390476Y-54971428D01*
X139866666Y-55352380D02*
X139866666Y-54352380D01*
X140200000Y-55066666D01*
X140533333Y-54352380D01*
X140533333Y-55352380D01*
X141438095Y-55352380D02*
X141438095Y-54828571D01*
X141390476Y-54733333D01*
X141295238Y-54685714D01*
X141104761Y-54685714D01*
X141009523Y-54733333D01*
X141438095Y-55304761D02*
X141342857Y-55352380D01*
X141104761Y-55352380D01*
X141009523Y-55304761D01*
X140961904Y-55209523D01*
X140961904Y-55114285D01*
X141009523Y-55019047D01*
X141104761Y-54971428D01*
X141342857Y-54971428D01*
X141438095Y-54923809D01*
X141771428Y-54685714D02*
X142152380Y-54685714D01*
X141914285Y-54352380D02*
X141914285Y-55209523D01*
X141961904Y-55304761D01*
X142057142Y-55352380D01*
X142152380Y-55352380D01*
X142914285Y-55304761D02*
X142819047Y-55352380D01*
X142628571Y-55352380D01*
X142533333Y-55304761D01*
X142485714Y-55257142D01*
X142438095Y-55161904D01*
X142438095Y-54876190D01*
X142485714Y-54780952D01*
X142533333Y-54733333D01*
X142628571Y-54685714D01*
X142819047Y-54685714D01*
X142914285Y-54733333D01*
X143342857Y-55352380D02*
X143342857Y-54352380D01*
X143771428Y-55352380D02*
X143771428Y-54828571D01*
X143723809Y-54733333D01*
X143628571Y-54685714D01*
X143485714Y-54685714D01*
X143390476Y-54733333D01*
X143342857Y-54780952D01*
D10*
X142000000Y-53000000D02*
X144300000Y-53700000D01*
D11*
X137066666Y-53104761D02*
X137066666Y-51104761D01*
X137542857Y-51104761D01*
X137828571Y-51200000D01*
X138019047Y-51390476D01*
X138114285Y-51580952D01*
X138209523Y-51961904D01*
X138209523Y-52247619D01*
X138114285Y-52628571D01*
X138019047Y-52819047D01*
X137828571Y-53009523D01*
X137542857Y-53104761D01*
X137066666Y-53104761D01*
X139066666Y-51104761D02*
X139066666Y-52723809D01*
X139161904Y-52914285D01*
X139257142Y-53009523D01*
X139447619Y-53104761D01*
X139828571Y-53104761D01*
X140019047Y-53009523D01*
X140114285Y-52914285D01*
X140209523Y-52723809D01*
X140209523Y-51104761D01*
X140876190Y-51104761D02*
X142019047Y-51104761D01*
X141447619Y-53104761D02*
X141447619Y-51104761D01*
D10*
X131200000Y-68750000D02*
X131200000Y-68450000D01*
X135600000Y-55150000D02*
X135600000Y-55450000D01*
X135600000Y-53750000D02*
X135600000Y-54450000D01*
X142890000Y-79890000D02*
X146210000Y-79890000D01*
X142890000Y-87110000D02*
X146210000Y-87110000D01*
X148160000Y-81840000D02*
X148160000Y-85160000D01*
X140940000Y-81840000D02*
X140940000Y-85160000D01*
X118610000Y-97380000D02*
X118610000Y-100700000D01*
X111390000Y-97380000D02*
X111390000Y-100700000D01*
X116660000Y-102650000D02*
X113340000Y-102650000D01*
X116660000Y-95430000D02*
X113340000Y-95430000D01*
X128610000Y-97390000D02*
X128610000Y-100710000D01*
X121390000Y-97390000D02*
X121390000Y-100710000D01*
X126660000Y-102660000D02*
X123340000Y-102660000D01*
X126660000Y-95440000D02*
X123340000Y-95440000D01*
X138610000Y-97390000D02*
X138610000Y-100710000D01*
X131390000Y-97390000D02*
X131390000Y-100710000D01*
X136660000Y-102660000D02*
X133340000Y-102660000D01*
X136660000Y-95440000D02*
X133340000Y-95440000D01*
X148610000Y-97390000D02*
X148610000Y-100710000D01*
X141390000Y-97390000D02*
X141390000Y-100710000D01*
X146660000Y-102660000D02*
X143340000Y-102660000D01*
X146660000Y-95440000D02*
X143340000Y-95440000D01*
X142890000Y-67890000D02*
X146210000Y-67890000D01*
X142890000Y-75110000D02*
X146210000Y-75110000D01*
X148160000Y-69840000D02*
X148160000Y-73160000D01*
X140940000Y-69840000D02*
X140940000Y-73160000D01*
X110775379Y-74035786D02*
X110775379Y-78035786D01*
X114075379Y-74035786D02*
X110775379Y-74035786D01*
X135300000Y-56040000D02*
X131850000Y-56040000D01*
X135300000Y-56040000D02*
X137250000Y-56040000D01*
X135300000Y-61160000D02*
X133350000Y-61160000D01*
X135300000Y-61160000D02*
X137250000Y-61160000D01*
X126440000Y-57750000D02*
X126440000Y-60200000D01*
X129660000Y-59550000D02*
X129660000Y-57750000D01*
X133200000Y-64790000D02*
X130275000Y-64790000D01*
X133200000Y-64790000D02*
X134700000Y-64790000D01*
X133200000Y-68010000D02*
X131700000Y-68010000D01*
X133200000Y-68010000D02*
X134700000Y-68010000D01*
X121610000Y-91400000D02*
X121610000Y-88950000D01*
X118390000Y-89600000D02*
X118390000Y-91400000D01*
X141610000Y-91400000D02*
X141610000Y-88950000D01*
X138390000Y-89600000D02*
X138390000Y-91400000D01*
X133200000Y-75790000D02*
X130750000Y-75790000D01*
X131400000Y-79010000D02*
X133200000Y-79010000D01*
X120143223Y-84547436D02*
X120143223Y-83087436D01*
X123303223Y-84547436D02*
X123303223Y-82387436D01*
X123303223Y-84547436D02*
X122373223Y-84547436D01*
X120143223Y-84547436D02*
X121073223Y-84547436D01*
D11*
X116712437Y-73426776D02*
X115337437Y-73426776D01*
X123962437Y-73001776D02*
X123437437Y-73001776D01*
X123962437Y-80251776D02*
X123437437Y-80251776D01*
X116712437Y-80251776D02*
X117237437Y-80251776D01*
X116712437Y-73001776D02*
X117237437Y-73001776D01*
X116712437Y-80251776D02*
X116712437Y-79726776D01*
X123962437Y-80251776D02*
X123962437Y-79726776D01*
X123962437Y-73001776D02*
X123962437Y-73526776D01*
X116712437Y-73001776D02*
X116712437Y-73426776D01*
D10*
X121850000Y-60060000D02*
X124300000Y-60060000D01*
X123650000Y-56840000D02*
X121850000Y-56840000D01*
X121530000Y-64850000D02*
X121530000Y-66050000D01*
X117530000Y-64850000D02*
X121530000Y-64850000D01*
X121530000Y-69650000D02*
X118830000Y-69650000D01*
X121530000Y-68450000D02*
X121530000Y-69650000D01*
X111000000Y-66100000D02*
X111000000Y-70500000D01*
X111000000Y-70500000D02*
X111120000Y-70500000D01*
X112130000Y-70500000D02*
X113270000Y-70500000D01*
X114280000Y-70500000D02*
X114400000Y-70500000D01*
X114400000Y-70500000D02*
X114400000Y-66100000D01*
X114400000Y-66100000D02*
X114280000Y-66100000D01*
X113270000Y-66100000D02*
X112130000Y-66100000D01*
X111120000Y-66100000D02*
X111000000Y-66100000D01*
X128400000Y-55650000D02*
X128400000Y-55950000D01*
X126300000Y-55650000D02*
X126300000Y-55950000D01*
X141750000Y-63930000D02*
X142050000Y-63930000D01*
X141750000Y-62100000D02*
X142050000Y-62100000D01*
X141500000Y-57500000D02*
X141500000Y-58500000D01*
X137600000Y-63150000D02*
X137600000Y-62850000D01*
X137900000Y-83250000D02*
X137900000Y-83550000D01*
X134700000Y-61950000D02*
X134700000Y-62250000D01*
X135950000Y-62500000D02*
X136250000Y-62500000D01*
X137500000Y-66250000D02*
X137500000Y-66550000D01*
X137500000Y-65250000D02*
X137500000Y-65550000D01*
X134600000Y-62950000D02*
X134600000Y-63250000D01*
X134600000Y-63950000D02*
X134600000Y-64250000D01*
X129650000Y-64900000D02*
X129350000Y-64900000D01*
X115406066Y-93706066D02*
X115193934Y-93493934D01*
X124806066Y-93593934D02*
X124593934Y-93806066D01*
X135406066Y-93806066D02*
X135193934Y-93593934D01*
X144806066Y-93593934D02*
X144593934Y-93806066D01*
X131050000Y-63700000D02*
X131350000Y-63700000D01*
X129650000Y-63000000D02*
X129350000Y-63000000D01*
X127850000Y-65400000D02*
X128150000Y-65400000D01*
X130750000Y-61800000D02*
X130450000Y-61800000D01*
X127850000Y-63100000D02*
X128150000Y-63100000D01*
X130650000Y-57400000D02*
X130950000Y-57400000D01*
X129100000Y-61350000D02*
X129100000Y-61650000D01*
X137900000Y-71250000D02*
X137900000Y-71550000D01*
X119623224Y-84200000D02*
X119323224Y-84200000D01*
X118550000Y-59900000D02*
X118850000Y-59900000D01*
X118600000Y-55700000D02*
X118900000Y-55700000D01*
X115650000Y-84550000D02*
X115650000Y-84250000D01*
X115650000Y-83550000D02*
X115650000Y-83250000D01*
X115650000Y-82550000D02*
X115650000Y-82250000D01*
X118612563Y-70405709D02*
X118612563Y-70705709D01*
D12*
X118544000Y-63652500D02*
G75*
G03X119496500Y-64605000I952500J0D01*
G01*
X119496500Y-60795000D02*
G75*
G03X118544000Y-61747500I0J-952500D01*
G01*
X118544000Y-63652500D02*
X118544000Y-61747500D01*
X125363900Y-63423900D02*
G75*
G03X125363900Y-61976100I-723900J723900D01*
G01*
X125363900Y-63423900D02*
X124182800Y-64605000D01*
X125363900Y-61976100D02*
X124182800Y-60795000D01*
X119496500Y-64605000D02*
X124182800Y-64605000D01*
X119496500Y-60795000D02*
X124182800Y-60795000D01*
D10*
X136230000Y-82070000D02*
X136230000Y-83400000D01*
X134900000Y-82070000D02*
X136230000Y-82070000D01*
X133630000Y-82070000D02*
X133630000Y-84730000D01*
X133630000Y-84730000D02*
X128490000Y-84730000D01*
X133630000Y-82070000D02*
X128490000Y-82070000D01*
X128490000Y-82070000D02*
X128490000Y-84730000D01*
X136230000Y-70070000D02*
X136230000Y-71400000D01*
X134900000Y-70070000D02*
X136230000Y-70070000D01*
X133630000Y-70070000D02*
X133630000Y-72730000D01*
X133630000Y-72730000D02*
X128490000Y-72730000D01*
X133630000Y-70070000D02*
X128490000Y-70070000D01*
X128490000Y-70070000D02*
X128490000Y-72730000D01*
X144040000Y-58000000D02*
X143540000Y-57750000D01*
X143540000Y-57750000D02*
X143540000Y-58250000D01*
X143540000Y-58250000D02*
X144040000Y-58000000D01*
X132260000Y-55510000D02*
X132260000Y-54260000D01*
X131010000Y-55510000D02*
X132260000Y-55510000D01*
X122900000Y-51100000D02*
X122900000Y-51600000D01*
X122800000Y-51600000D02*
X122800000Y-51100000D01*
X123000000Y-51600000D02*
X122800000Y-51600000D01*
X123000000Y-51100000D02*
X123000000Y-51600000D01*
X124900000Y-51100000D02*
X124900000Y-51600000D01*
X124800000Y-51600000D02*
X124800000Y-51100000D01*
X125000000Y-51600000D02*
X124800000Y-51600000D01*
X125000000Y-51100000D02*
X125000000Y-51600000D01*
X126900000Y-51100000D02*
X126900000Y-51600000D01*
X126800000Y-51600000D02*
X126800000Y-51100000D01*
X127000000Y-51600000D02*
X126800000Y-51600000D01*
X127000000Y-51100000D02*
X127000000Y-51600000D01*
X128900000Y-51100000D02*
X128900000Y-51600000D01*
X128800000Y-51600000D02*
X128800000Y-51100000D01*
X129000000Y-51600000D02*
X128800000Y-51600000D01*
X129000000Y-51100000D02*
X129000000Y-51600000D01*
X119840000Y-52600000D02*
X120450000Y-52600000D01*
X119840000Y-53900000D02*
X120450000Y-53900000D01*
X131960000Y-52600000D02*
X131350000Y-52600000D01*
X131960000Y-53900000D02*
X131350000Y-53900000D01*
X122400000Y-54600000D02*
X122400000Y-55210000D01*
X120450000Y-54600000D02*
X122400000Y-54600000D01*
X120450000Y-51100000D02*
X120450000Y-54600000D01*
X131350000Y-51100000D02*
X120450000Y-51100000D01*
X131350000Y-54600000D02*
X131350000Y-51100000D01*
X129400000Y-54600000D02*
X131350000Y-54600000D01*
X129400000Y-55210000D02*
X129400000Y-54600000D01*
X130200000Y-55310000D02*
X130500000Y-55310000D01*
X130500000Y-55410000D02*
X130500000Y-55210000D01*
X130200000Y-55410000D02*
X130500000Y-55410000D01*
X130200000Y-55210000D02*
X130200000Y-55410000D01*
X119840000Y-55210000D02*
X131960000Y-55210000D01*
X119840000Y-50490000D02*
X119840000Y-55210000D01*
X131960000Y-50490000D02*
X119840000Y-50490000D01*
X131960000Y-55210000D02*
X131960000Y-50490000D01*
D11*
X117500000Y-61950000D02*
X117500000Y-62450000D01*
X117500000Y-53450000D02*
X117500000Y-53950000D01*
X115000000Y-53450000D02*
X113000000Y-53450000D01*
X113000000Y-62450000D02*
X115000000Y-62450000D01*
D10*
X141200000Y-62000000D02*
X141200000Y-65850000D01*
X139200000Y-62000000D02*
X139200000Y-65850000D01*
X141200000Y-62000000D02*
X139200000Y-62000000D01*
X114200000Y-85750000D02*
X114200000Y-81850000D01*
X111200000Y-86300044D02*
X111200000Y-81850000D01*
X112000000Y-86300000D02*
X111200000Y-86300000D01*
X137600000Y-61850000D02*
X137600000Y-62150000D01*
X132700000Y-63950000D02*
X132700000Y-64250000D01*
X132400000Y-62450000D02*
X132400000Y-61750000D01*
X131150000Y-59600000D02*
X130450000Y-59600000D01*
X129050000Y-67200000D02*
X129350000Y-67200000D01*
X124150000Y-83900000D02*
X123850000Y-83900000D01*
X125600000Y-73050000D02*
X125600000Y-72750000D01*
X123850000Y-81600000D02*
X124150000Y-81600000D01*
X116850000Y-71150000D02*
X116150000Y-71150000D01*
X116850000Y-68500000D02*
X116150000Y-68500000D01*
X112602155Y-79598097D02*
X112602155Y-79898097D01*
X116150000Y-66000000D02*
X116850000Y-66000000D01*
X112625127Y-78514466D02*
X112625127Y-78814466D01*
X112602155Y-73534136D02*
X112602155Y-73234136D01*
D13*
X130910714Y-69660714D02*
X130889285Y-69682142D01*
X130825000Y-69703571D01*
X130782142Y-69703571D01*
X130717857Y-69682142D01*
X130675000Y-69639285D01*
X130653571Y-69596428D01*
X130632142Y-69510714D01*
X130632142Y-69446428D01*
X130653571Y-69360714D01*
X130675000Y-69317857D01*
X130717857Y-69275000D01*
X130782142Y-69253571D01*
X130825000Y-69253571D01*
X130889285Y-69275000D01*
X130910714Y-69296428D01*
X131339285Y-69703571D02*
X131082142Y-69703571D01*
X131210714Y-69703571D02*
X131210714Y-69253571D01*
X131167857Y-69317857D01*
X131125000Y-69360714D01*
X131082142Y-69382142D01*
X131489285Y-69253571D02*
X131789285Y-69253571D01*
X131596428Y-69703571D01*
X133310714Y-54960714D02*
X133289285Y-54982142D01*
X133225000Y-55003571D01*
X133182142Y-55003571D01*
X133117857Y-54982142D01*
X133075000Y-54939285D01*
X133053571Y-54896428D01*
X133032142Y-54810714D01*
X133032142Y-54746428D01*
X133053571Y-54660714D01*
X133075000Y-54617857D01*
X133117857Y-54575000D01*
X133182142Y-54553571D01*
X133225000Y-54553571D01*
X133289285Y-54575000D01*
X133310714Y-54596428D01*
X133739285Y-55003571D02*
X133482142Y-55003571D01*
X133610714Y-55003571D02*
X133610714Y-54553571D01*
X133567857Y-54617857D01*
X133525000Y-54660714D01*
X133482142Y-54682142D01*
X134125000Y-54553571D02*
X134039285Y-54553571D01*
X133996428Y-54575000D01*
X133975000Y-54596428D01*
X133932142Y-54660714D01*
X133910714Y-54746428D01*
X133910714Y-54917857D01*
X133932142Y-54960714D01*
X133953571Y-54982142D01*
X133996428Y-55003571D01*
X134082142Y-55003571D01*
X134125000Y-54982142D01*
X134146428Y-54960714D01*
X134167857Y-54917857D01*
X134167857Y-54810714D01*
X134146428Y-54767857D01*
X134125000Y-54746428D01*
X134082142Y-54725000D01*
X133996428Y-54725000D01*
X133953571Y-54746428D01*
X133932142Y-54767857D01*
X133910714Y-54810714D01*
X133310714Y-54260714D02*
X133289285Y-54282142D01*
X133225000Y-54303571D01*
X133182142Y-54303571D01*
X133117857Y-54282142D01*
X133075000Y-54239285D01*
X133053571Y-54196428D01*
X133032142Y-54110714D01*
X133032142Y-54046428D01*
X133053571Y-53960714D01*
X133075000Y-53917857D01*
X133117857Y-53875000D01*
X133182142Y-53853571D01*
X133225000Y-53853571D01*
X133289285Y-53875000D01*
X133310714Y-53896428D01*
X133739285Y-54303571D02*
X133482142Y-54303571D01*
X133610714Y-54303571D02*
X133610714Y-53853571D01*
X133567857Y-53917857D01*
X133525000Y-53960714D01*
X133482142Y-53982142D01*
X134146428Y-53853571D02*
X133932142Y-53853571D01*
X133910714Y-54067857D01*
X133932142Y-54046428D01*
X133975000Y-54025000D01*
X134082142Y-54025000D01*
X134125000Y-54046428D01*
X134146428Y-54067857D01*
X134167857Y-54110714D01*
X134167857Y-54217857D01*
X134146428Y-54260714D01*
X134125000Y-54282142D01*
X134082142Y-54303571D01*
X133975000Y-54303571D01*
X133932142Y-54282142D01*
X133910714Y-54260714D01*
X110985714Y-73489285D02*
X110985714Y-73703571D01*
X110835714Y-73253571D02*
X110985714Y-73489285D01*
X111135714Y-73253571D01*
X111521428Y-73703571D02*
X111264285Y-73703571D01*
X111392857Y-73703571D02*
X111392857Y-73253571D01*
X111350000Y-73317857D01*
X111307142Y-73360714D01*
X111264285Y-73382142D01*
X133342857Y-55253571D02*
X133342857Y-55617857D01*
X133364285Y-55660714D01*
X133385714Y-55682142D01*
X133428571Y-55703571D01*
X133514285Y-55703571D01*
X133557142Y-55682142D01*
X133578571Y-55660714D01*
X133600000Y-55617857D01*
X133600000Y-55253571D01*
X134050000Y-55703571D02*
X133792857Y-55703571D01*
X133921428Y-55703571D02*
X133921428Y-55253571D01*
X133878571Y-55317857D01*
X133835714Y-55360714D01*
X133792857Y-55382142D01*
X134328571Y-55253571D02*
X134371428Y-55253571D01*
X134414285Y-55275000D01*
X134435714Y-55296428D01*
X134457142Y-55339285D01*
X134478571Y-55425000D01*
X134478571Y-55532142D01*
X134457142Y-55617857D01*
X134435714Y-55660714D01*
X134414285Y-55682142D01*
X134371428Y-55703571D01*
X134328571Y-55703571D01*
X134285714Y-55682142D01*
X134264285Y-55660714D01*
X134242857Y-55617857D01*
X134221428Y-55532142D01*
X134221428Y-55425000D01*
X134242857Y-55339285D01*
X134264285Y-55296428D01*
X134285714Y-55275000D01*
X134328571Y-55253571D01*
X125557142Y-58353571D02*
X125557142Y-58717857D01*
X125578571Y-58760714D01*
X125600000Y-58782142D01*
X125642857Y-58803571D01*
X125728571Y-58803571D01*
X125771428Y-58782142D01*
X125792857Y-58760714D01*
X125814285Y-58717857D01*
X125814285Y-58353571D01*
X126050000Y-58803571D02*
X126135714Y-58803571D01*
X126178571Y-58782142D01*
X126200000Y-58760714D01*
X126242857Y-58696428D01*
X126264285Y-58610714D01*
X126264285Y-58439285D01*
X126242857Y-58396428D01*
X126221428Y-58375000D01*
X126178571Y-58353571D01*
X126092857Y-58353571D01*
X126050000Y-58375000D01*
X126028571Y-58396428D01*
X126007142Y-58439285D01*
X126007142Y-58546428D01*
X126028571Y-58589285D01*
X126050000Y-58610714D01*
X126092857Y-58632142D01*
X126178571Y-58632142D01*
X126221428Y-58610714D01*
X126242857Y-58589285D01*
X126264285Y-58546428D01*
X132857142Y-68253571D02*
X132857142Y-68617857D01*
X132878571Y-68660714D01*
X132900000Y-68682142D01*
X132942857Y-68703571D01*
X133028571Y-68703571D01*
X133071428Y-68682142D01*
X133092857Y-68660714D01*
X133114285Y-68617857D01*
X133114285Y-68253571D01*
X133392857Y-68446428D02*
X133350000Y-68425000D01*
X133328571Y-68403571D01*
X133307142Y-68360714D01*
X133307142Y-68339285D01*
X133328571Y-68296428D01*
X133350000Y-68275000D01*
X133392857Y-68253571D01*
X133478571Y-68253571D01*
X133521428Y-68275000D01*
X133542857Y-68296428D01*
X133564285Y-68339285D01*
X133564285Y-68360714D01*
X133542857Y-68403571D01*
X133521428Y-68425000D01*
X133478571Y-68446428D01*
X133392857Y-68446428D01*
X133350000Y-68467857D01*
X133328571Y-68489285D01*
X133307142Y-68532142D01*
X133307142Y-68617857D01*
X133328571Y-68660714D01*
X133350000Y-68682142D01*
X133392857Y-68703571D01*
X133478571Y-68703571D01*
X133521428Y-68682142D01*
X133542857Y-68660714D01*
X133564285Y-68617857D01*
X133564285Y-68532142D01*
X133542857Y-68489285D01*
X133521428Y-68467857D01*
X133478571Y-68446428D01*
X119657142Y-92453571D02*
X119657142Y-92817857D01*
X119678571Y-92860714D01*
X119700000Y-92882142D01*
X119742857Y-92903571D01*
X119828571Y-92903571D01*
X119871428Y-92882142D01*
X119892857Y-92860714D01*
X119914285Y-92817857D01*
X119914285Y-92453571D01*
X120085714Y-92453571D02*
X120385714Y-92453571D01*
X120192857Y-92903571D01*
X139657142Y-92453571D02*
X139657142Y-92817857D01*
X139678571Y-92860714D01*
X139700000Y-92882142D01*
X139742857Y-92903571D01*
X139828571Y-92903571D01*
X139871428Y-92882142D01*
X139892857Y-92860714D01*
X139914285Y-92817857D01*
X139914285Y-92453571D01*
X140321428Y-92453571D02*
X140235714Y-92453571D01*
X140192857Y-92475000D01*
X140171428Y-92496428D01*
X140128571Y-92560714D01*
X140107142Y-92646428D01*
X140107142Y-92817857D01*
X140128571Y-92860714D01*
X140150000Y-92882142D01*
X140192857Y-92903571D01*
X140278571Y-92903571D01*
X140321428Y-92882142D01*
X140342857Y-92860714D01*
X140364285Y-92817857D01*
X140364285Y-92710714D01*
X140342857Y-92667857D01*
X140321428Y-92646428D01*
X140278571Y-92625000D01*
X140192857Y-92625000D01*
X140150000Y-92646428D01*
X140128571Y-92667857D01*
X140107142Y-92710714D01*
X129557142Y-77153571D02*
X129557142Y-77517857D01*
X129578571Y-77560714D01*
X129600000Y-77582142D01*
X129642857Y-77603571D01*
X129728571Y-77603571D01*
X129771428Y-77582142D01*
X129792857Y-77560714D01*
X129814285Y-77517857D01*
X129814285Y-77153571D01*
X130242857Y-77153571D02*
X130028571Y-77153571D01*
X130007142Y-77367857D01*
X130028571Y-77346428D01*
X130071428Y-77325000D01*
X130178571Y-77325000D01*
X130221428Y-77346428D01*
X130242857Y-77367857D01*
X130264285Y-77410714D01*
X130264285Y-77517857D01*
X130242857Y-77560714D01*
X130221428Y-77582142D01*
X130178571Y-77603571D01*
X130071428Y-77603571D01*
X130028571Y-77582142D01*
X130007142Y-77560714D01*
X120257142Y-84753571D02*
X120257142Y-85117857D01*
X120278571Y-85160714D01*
X120300000Y-85182142D01*
X120342857Y-85203571D01*
X120428571Y-85203571D01*
X120471428Y-85182142D01*
X120492857Y-85160714D01*
X120514285Y-85117857D01*
X120514285Y-84753571D01*
X120921428Y-84903571D02*
X120921428Y-85203571D01*
X120814285Y-84732142D02*
X120707142Y-85053571D01*
X120985714Y-85053571D01*
X115557142Y-72753571D02*
X115557142Y-73117857D01*
X115578571Y-73160714D01*
X115600000Y-73182142D01*
X115642857Y-73203571D01*
X115728571Y-73203571D01*
X115771428Y-73182142D01*
X115792857Y-73160714D01*
X115814285Y-73117857D01*
X115814285Y-72753571D01*
X115985714Y-72753571D02*
X116264285Y-72753571D01*
X116114285Y-72925000D01*
X116178571Y-72925000D01*
X116221428Y-72946428D01*
X116242857Y-72967857D01*
X116264285Y-73010714D01*
X116264285Y-73117857D01*
X116242857Y-73160714D01*
X116221428Y-73182142D01*
X116178571Y-73203571D01*
X116050000Y-73203571D01*
X116007142Y-73182142D01*
X115985714Y-73160714D01*
X124657142Y-58353571D02*
X124657142Y-58717857D01*
X124678571Y-58760714D01*
X124700000Y-58782142D01*
X124742857Y-58803571D01*
X124828571Y-58803571D01*
X124871428Y-58782142D01*
X124892857Y-58760714D01*
X124914285Y-58717857D01*
X124914285Y-58353571D01*
X125107142Y-58396428D02*
X125128571Y-58375000D01*
X125171428Y-58353571D01*
X125278571Y-58353571D01*
X125321428Y-58375000D01*
X125342857Y-58396428D01*
X125364285Y-58439285D01*
X125364285Y-58482142D01*
X125342857Y-58546428D01*
X125085714Y-58803571D01*
X125364285Y-58803571D01*
X121757142Y-65253571D02*
X121757142Y-65617857D01*
X121778571Y-65660714D01*
X121800000Y-65682142D01*
X121842857Y-65703571D01*
X121928571Y-65703571D01*
X121971428Y-65682142D01*
X121992857Y-65660714D01*
X122014285Y-65617857D01*
X122014285Y-65253571D01*
X122464285Y-65703571D02*
X122207142Y-65703571D01*
X122335714Y-65703571D02*
X122335714Y-65253571D01*
X122292857Y-65317857D01*
X122250000Y-65360714D01*
X122207142Y-65382142D01*
X124410714Y-56003571D02*
X124260714Y-55789285D01*
X124153571Y-56003571D02*
X124153571Y-55553571D01*
X124325000Y-55553571D01*
X124367857Y-55575000D01*
X124389285Y-55596428D01*
X124410714Y-55639285D01*
X124410714Y-55703571D01*
X124389285Y-55746428D01*
X124367857Y-55767857D01*
X124325000Y-55789285D01*
X124153571Y-55789285D01*
X124560714Y-55553571D02*
X124839285Y-55553571D01*
X124689285Y-55725000D01*
X124753571Y-55725000D01*
X124796428Y-55746428D01*
X124817857Y-55767857D01*
X124839285Y-55810714D01*
X124839285Y-55917857D01*
X124817857Y-55960714D01*
X124796428Y-55982142D01*
X124753571Y-56003571D01*
X124625000Y-56003571D01*
X124582142Y-55982142D01*
X124560714Y-55960714D01*
X125225000Y-55553571D02*
X125139285Y-55553571D01*
X125096428Y-55575000D01*
X125075000Y-55596428D01*
X125032142Y-55660714D01*
X125010714Y-55746428D01*
X125010714Y-55917857D01*
X125032142Y-55960714D01*
X125053571Y-55982142D01*
X125096428Y-56003571D01*
X125182142Y-56003571D01*
X125225000Y-55982142D01*
X125246428Y-55960714D01*
X125267857Y-55917857D01*
X125267857Y-55810714D01*
X125246428Y-55767857D01*
X125225000Y-55746428D01*
X125182142Y-55725000D01*
X125096428Y-55725000D01*
X125053571Y-55746428D01*
X125032142Y-55767857D01*
X125010714Y-55810714D01*
X123110714Y-56003571D02*
X122960714Y-55789285D01*
X122853571Y-56003571D02*
X122853571Y-55553571D01*
X123025000Y-55553571D01*
X123067857Y-55575000D01*
X123089285Y-55596428D01*
X123110714Y-55639285D01*
X123110714Y-55703571D01*
X123089285Y-55746428D01*
X123067857Y-55767857D01*
X123025000Y-55789285D01*
X122853571Y-55789285D01*
X123260714Y-55553571D02*
X123539285Y-55553571D01*
X123389285Y-55725000D01*
X123453571Y-55725000D01*
X123496428Y-55746428D01*
X123517857Y-55767857D01*
X123539285Y-55810714D01*
X123539285Y-55917857D01*
X123517857Y-55960714D01*
X123496428Y-55982142D01*
X123453571Y-56003571D01*
X123325000Y-56003571D01*
X123282142Y-55982142D01*
X123260714Y-55960714D01*
X123946428Y-55553571D02*
X123732142Y-55553571D01*
X123710714Y-55767857D01*
X123732142Y-55746428D01*
X123775000Y-55725000D01*
X123882142Y-55725000D01*
X123925000Y-55746428D01*
X123946428Y-55767857D01*
X123967857Y-55810714D01*
X123967857Y-55917857D01*
X123946428Y-55960714D01*
X123925000Y-55982142D01*
X123882142Y-56003571D01*
X123775000Y-56003571D01*
X123732142Y-55982142D01*
X123710714Y-55960714D01*
X142910714Y-64103571D02*
X142760714Y-63889285D01*
X142653571Y-64103571D02*
X142653571Y-63653571D01*
X142825000Y-63653571D01*
X142867857Y-63675000D01*
X142889285Y-63696428D01*
X142910714Y-63739285D01*
X142910714Y-63803571D01*
X142889285Y-63846428D01*
X142867857Y-63867857D01*
X142825000Y-63889285D01*
X142653571Y-63889285D01*
X143060714Y-63653571D02*
X143339285Y-63653571D01*
X143189285Y-63825000D01*
X143253571Y-63825000D01*
X143296428Y-63846428D01*
X143317857Y-63867857D01*
X143339285Y-63910714D01*
X143339285Y-64017857D01*
X143317857Y-64060714D01*
X143296428Y-64082142D01*
X143253571Y-64103571D01*
X143125000Y-64103571D01*
X143082142Y-64082142D01*
X143060714Y-64060714D01*
X143725000Y-63803571D02*
X143725000Y-64103571D01*
X143617857Y-63632142D02*
X143510714Y-63953571D01*
X143789285Y-63953571D01*
X142910714Y-62303571D02*
X142760714Y-62089285D01*
X142653571Y-62303571D02*
X142653571Y-61853571D01*
X142825000Y-61853571D01*
X142867857Y-61875000D01*
X142889285Y-61896428D01*
X142910714Y-61939285D01*
X142910714Y-62003571D01*
X142889285Y-62046428D01*
X142867857Y-62067857D01*
X142825000Y-62089285D01*
X142653571Y-62089285D01*
X143060714Y-61853571D02*
X143339285Y-61853571D01*
X143189285Y-62025000D01*
X143253571Y-62025000D01*
X143296428Y-62046428D01*
X143317857Y-62067857D01*
X143339285Y-62110714D01*
X143339285Y-62217857D01*
X143317857Y-62260714D01*
X143296428Y-62282142D01*
X143253571Y-62303571D01*
X143125000Y-62303571D01*
X143082142Y-62282142D01*
X143060714Y-62260714D01*
X143489285Y-61853571D02*
X143767857Y-61853571D01*
X143617857Y-62025000D01*
X143682142Y-62025000D01*
X143725000Y-62046428D01*
X143746428Y-62067857D01*
X143767857Y-62110714D01*
X143767857Y-62217857D01*
X143746428Y-62260714D01*
X143725000Y-62282142D01*
X143682142Y-62303571D01*
X143553571Y-62303571D01*
X143510714Y-62282142D01*
X143489285Y-62260714D01*
X141210714Y-59503571D02*
X141060714Y-59289285D01*
X140953571Y-59503571D02*
X140953571Y-59053571D01*
X141125000Y-59053571D01*
X141167857Y-59075000D01*
X141189285Y-59096428D01*
X141210714Y-59139285D01*
X141210714Y-59203571D01*
X141189285Y-59246428D01*
X141167857Y-59267857D01*
X141125000Y-59289285D01*
X140953571Y-59289285D01*
X141360714Y-59053571D02*
X141639285Y-59053571D01*
X141489285Y-59225000D01*
X141553571Y-59225000D01*
X141596428Y-59246428D01*
X141617857Y-59267857D01*
X141639285Y-59310714D01*
X141639285Y-59417857D01*
X141617857Y-59460714D01*
X141596428Y-59482142D01*
X141553571Y-59503571D01*
X141425000Y-59503571D01*
X141382142Y-59482142D01*
X141360714Y-59460714D01*
X141810714Y-59096428D02*
X141832142Y-59075000D01*
X141875000Y-59053571D01*
X141982142Y-59053571D01*
X142025000Y-59075000D01*
X142046428Y-59096428D01*
X142067857Y-59139285D01*
X142067857Y-59182142D01*
X142046428Y-59246428D01*
X141789285Y-59503571D01*
X142067857Y-59503571D01*
X137310714Y-64703571D02*
X137160714Y-64489285D01*
X137053571Y-64703571D02*
X137053571Y-64253571D01*
X137225000Y-64253571D01*
X137267857Y-64275000D01*
X137289285Y-64296428D01*
X137310714Y-64339285D01*
X137310714Y-64403571D01*
X137289285Y-64446428D01*
X137267857Y-64467857D01*
X137225000Y-64489285D01*
X137053571Y-64489285D01*
X137460714Y-64253571D02*
X137739285Y-64253571D01*
X137589285Y-64425000D01*
X137653571Y-64425000D01*
X137696428Y-64446428D01*
X137717857Y-64467857D01*
X137739285Y-64510714D01*
X137739285Y-64617857D01*
X137717857Y-64660714D01*
X137696428Y-64682142D01*
X137653571Y-64703571D01*
X137525000Y-64703571D01*
X137482142Y-64682142D01*
X137460714Y-64660714D01*
X138167857Y-64703571D02*
X137910714Y-64703571D01*
X138039285Y-64703571D02*
X138039285Y-64253571D01*
X137996428Y-64317857D01*
X137953571Y-64360714D01*
X137910714Y-64382142D01*
X137610714Y-84503571D02*
X137460714Y-84289285D01*
X137353571Y-84503571D02*
X137353571Y-84053571D01*
X137525000Y-84053571D01*
X137567857Y-84075000D01*
X137589285Y-84096428D01*
X137610714Y-84139285D01*
X137610714Y-84203571D01*
X137589285Y-84246428D01*
X137567857Y-84267857D01*
X137525000Y-84289285D01*
X137353571Y-84289285D01*
X137760714Y-84053571D02*
X138039285Y-84053571D01*
X137889285Y-84225000D01*
X137953571Y-84225000D01*
X137996428Y-84246428D01*
X138017857Y-84267857D01*
X138039285Y-84310714D01*
X138039285Y-84417857D01*
X138017857Y-84460714D01*
X137996428Y-84482142D01*
X137953571Y-84503571D01*
X137825000Y-84503571D01*
X137782142Y-84482142D01*
X137760714Y-84460714D01*
X138317857Y-84053571D02*
X138360714Y-84053571D01*
X138403571Y-84075000D01*
X138425000Y-84096428D01*
X138446428Y-84139285D01*
X138467857Y-84225000D01*
X138467857Y-84332142D01*
X138446428Y-84417857D01*
X138425000Y-84460714D01*
X138403571Y-84482142D01*
X138360714Y-84503571D01*
X138317857Y-84503571D01*
X138275000Y-84482142D01*
X138253571Y-84460714D01*
X138232142Y-84417857D01*
X138210714Y-84332142D01*
X138210714Y-84225000D01*
X138232142Y-84139285D01*
X138253571Y-84096428D01*
X138275000Y-84075000D01*
X138317857Y-84053571D01*
X134510714Y-61003571D02*
X134360714Y-60789285D01*
X134253571Y-61003571D02*
X134253571Y-60553571D01*
X134425000Y-60553571D01*
X134467857Y-60575000D01*
X134489285Y-60596428D01*
X134510714Y-60639285D01*
X134510714Y-60703571D01*
X134489285Y-60746428D01*
X134467857Y-60767857D01*
X134425000Y-60789285D01*
X134253571Y-60789285D01*
X134682142Y-60596428D02*
X134703571Y-60575000D01*
X134746428Y-60553571D01*
X134853571Y-60553571D01*
X134896428Y-60575000D01*
X134917857Y-60596428D01*
X134939285Y-60639285D01*
X134939285Y-60682142D01*
X134917857Y-60746428D01*
X134660714Y-61003571D01*
X134939285Y-61003571D01*
X135153571Y-61003571D02*
X135239285Y-61003571D01*
X135282142Y-60982142D01*
X135303571Y-60960714D01*
X135346428Y-60896428D01*
X135367857Y-60810714D01*
X135367857Y-60639285D01*
X135346428Y-60596428D01*
X135325000Y-60575000D01*
X135282142Y-60553571D01*
X135196428Y-60553571D01*
X135153571Y-60575000D01*
X135132142Y-60596428D01*
X135110714Y-60639285D01*
X135110714Y-60746428D01*
X135132142Y-60789285D01*
X135153571Y-60810714D01*
X135196428Y-60832142D01*
X135282142Y-60832142D01*
X135325000Y-60810714D01*
X135346428Y-60789285D01*
X135367857Y-60746428D01*
X136010714Y-64103571D02*
X135860714Y-63889285D01*
X135753571Y-64103571D02*
X135753571Y-63653571D01*
X135925000Y-63653571D01*
X135967857Y-63675000D01*
X135989285Y-63696428D01*
X136010714Y-63739285D01*
X136010714Y-63803571D01*
X135989285Y-63846428D01*
X135967857Y-63867857D01*
X135925000Y-63889285D01*
X135753571Y-63889285D01*
X136182142Y-63696428D02*
X136203571Y-63675000D01*
X136246428Y-63653571D01*
X136353571Y-63653571D01*
X136396428Y-63675000D01*
X136417857Y-63696428D01*
X136439285Y-63739285D01*
X136439285Y-63782142D01*
X136417857Y-63846428D01*
X136160714Y-64103571D01*
X136439285Y-64103571D01*
X136696428Y-63846428D02*
X136653571Y-63825000D01*
X136632142Y-63803571D01*
X136610714Y-63760714D01*
X136610714Y-63739285D01*
X136632142Y-63696428D01*
X136653571Y-63675000D01*
X136696428Y-63653571D01*
X136782142Y-63653571D01*
X136825000Y-63675000D01*
X136846428Y-63696428D01*
X136867857Y-63739285D01*
X136867857Y-63760714D01*
X136846428Y-63803571D01*
X136825000Y-63825000D01*
X136782142Y-63846428D01*
X136696428Y-63846428D01*
X136653571Y-63867857D01*
X136632142Y-63889285D01*
X136610714Y-63932142D01*
X136610714Y-64017857D01*
X136632142Y-64060714D01*
X136653571Y-64082142D01*
X136696428Y-64103571D01*
X136782142Y-64103571D01*
X136825000Y-64082142D01*
X136846428Y-64060714D01*
X136867857Y-64017857D01*
X136867857Y-63932142D01*
X136846428Y-63889285D01*
X136825000Y-63867857D01*
X136782142Y-63846428D01*
X137210714Y-68103571D02*
X137060714Y-67889285D01*
X136953571Y-68103571D02*
X136953571Y-67653571D01*
X137125000Y-67653571D01*
X137167857Y-67675000D01*
X137189285Y-67696428D01*
X137210714Y-67739285D01*
X137210714Y-67803571D01*
X137189285Y-67846428D01*
X137167857Y-67867857D01*
X137125000Y-67889285D01*
X136953571Y-67889285D01*
X137382142Y-67696428D02*
X137403571Y-67675000D01*
X137446428Y-67653571D01*
X137553571Y-67653571D01*
X137596428Y-67675000D01*
X137617857Y-67696428D01*
X137639285Y-67739285D01*
X137639285Y-67782142D01*
X137617857Y-67846428D01*
X137360714Y-68103571D01*
X137639285Y-68103571D01*
X137789285Y-67653571D02*
X138089285Y-67653571D01*
X137896428Y-68103571D01*
X137210714Y-67503571D02*
X137060714Y-67289285D01*
X136953571Y-67503571D02*
X136953571Y-67053571D01*
X137125000Y-67053571D01*
X137167857Y-67075000D01*
X137189285Y-67096428D01*
X137210714Y-67139285D01*
X137210714Y-67203571D01*
X137189285Y-67246428D01*
X137167857Y-67267857D01*
X137125000Y-67289285D01*
X136953571Y-67289285D01*
X137382142Y-67096428D02*
X137403571Y-67075000D01*
X137446428Y-67053571D01*
X137553571Y-67053571D01*
X137596428Y-67075000D01*
X137617857Y-67096428D01*
X137639285Y-67139285D01*
X137639285Y-67182142D01*
X137617857Y-67246428D01*
X137360714Y-67503571D01*
X137639285Y-67503571D01*
X138025000Y-67053571D02*
X137939285Y-67053571D01*
X137896428Y-67075000D01*
X137875000Y-67096428D01*
X137832142Y-67160714D01*
X137810714Y-67246428D01*
X137810714Y-67417857D01*
X137832142Y-67460714D01*
X137853571Y-67482142D01*
X137896428Y-67503571D01*
X137982142Y-67503571D01*
X138025000Y-67482142D01*
X138046428Y-67460714D01*
X138067857Y-67417857D01*
X138067857Y-67310714D01*
X138046428Y-67267857D01*
X138025000Y-67246428D01*
X137982142Y-67225000D01*
X137896428Y-67225000D01*
X137853571Y-67246428D01*
X137832142Y-67267857D01*
X137810714Y-67310714D01*
X136010714Y-64703571D02*
X135860714Y-64489285D01*
X135753571Y-64703571D02*
X135753571Y-64253571D01*
X135925000Y-64253571D01*
X135967857Y-64275000D01*
X135989285Y-64296428D01*
X136010714Y-64339285D01*
X136010714Y-64403571D01*
X135989285Y-64446428D01*
X135967857Y-64467857D01*
X135925000Y-64489285D01*
X135753571Y-64489285D01*
X136182142Y-64296428D02*
X136203571Y-64275000D01*
X136246428Y-64253571D01*
X136353571Y-64253571D01*
X136396428Y-64275000D01*
X136417857Y-64296428D01*
X136439285Y-64339285D01*
X136439285Y-64382142D01*
X136417857Y-64446428D01*
X136160714Y-64703571D01*
X136439285Y-64703571D01*
X136846428Y-64253571D02*
X136632142Y-64253571D01*
X136610714Y-64467857D01*
X136632142Y-64446428D01*
X136675000Y-64425000D01*
X136782142Y-64425000D01*
X136825000Y-64446428D01*
X136846428Y-64467857D01*
X136867857Y-64510714D01*
X136867857Y-64617857D01*
X136846428Y-64660714D01*
X136825000Y-64682142D01*
X136782142Y-64703571D01*
X136675000Y-64703571D01*
X136632142Y-64682142D01*
X136610714Y-64660714D01*
X133310714Y-65503571D02*
X133160714Y-65289285D01*
X133053571Y-65503571D02*
X133053571Y-65053571D01*
X133225000Y-65053571D01*
X133267857Y-65075000D01*
X133289285Y-65096428D01*
X133310714Y-65139285D01*
X133310714Y-65203571D01*
X133289285Y-65246428D01*
X133267857Y-65267857D01*
X133225000Y-65289285D01*
X133053571Y-65289285D01*
X133482142Y-65096428D02*
X133503571Y-65075000D01*
X133546428Y-65053571D01*
X133653571Y-65053571D01*
X133696428Y-65075000D01*
X133717857Y-65096428D01*
X133739285Y-65139285D01*
X133739285Y-65182142D01*
X133717857Y-65246428D01*
X133460714Y-65503571D01*
X133739285Y-65503571D01*
X134125000Y-65203571D02*
X134125000Y-65503571D01*
X134017857Y-65032142D02*
X133910714Y-65353571D01*
X134189285Y-65353571D01*
X126410714Y-65103571D02*
X126260714Y-64889285D01*
X126153571Y-65103571D02*
X126153571Y-64653571D01*
X126325000Y-64653571D01*
X126367857Y-64675000D01*
X126389285Y-64696428D01*
X126410714Y-64739285D01*
X126410714Y-64803571D01*
X126389285Y-64846428D01*
X126367857Y-64867857D01*
X126325000Y-64889285D01*
X126153571Y-64889285D01*
X126582142Y-64696428D02*
X126603571Y-64675000D01*
X126646428Y-64653571D01*
X126753571Y-64653571D01*
X126796428Y-64675000D01*
X126817857Y-64696428D01*
X126839285Y-64739285D01*
X126839285Y-64782142D01*
X126817857Y-64846428D01*
X126560714Y-65103571D01*
X126839285Y-65103571D01*
X126989285Y-64653571D02*
X127267857Y-64653571D01*
X127117857Y-64825000D01*
X127182142Y-64825000D01*
X127225000Y-64846428D01*
X127246428Y-64867857D01*
X127267857Y-64910714D01*
X127267857Y-65017857D01*
X127246428Y-65060714D01*
X127225000Y-65082142D01*
X127182142Y-65103571D01*
X127053571Y-65103571D01*
X127010714Y-65082142D01*
X126989285Y-65060714D01*
X116010714Y-94803571D02*
X115860714Y-94589285D01*
X115753571Y-94803571D02*
X115753571Y-94353571D01*
X115925000Y-94353571D01*
X115967857Y-94375000D01*
X115989285Y-94396428D01*
X116010714Y-94439285D01*
X116010714Y-94503571D01*
X115989285Y-94546428D01*
X115967857Y-94567857D01*
X115925000Y-94589285D01*
X115753571Y-94589285D01*
X116182142Y-94396428D02*
X116203571Y-94375000D01*
X116246428Y-94353571D01*
X116353571Y-94353571D01*
X116396428Y-94375000D01*
X116417857Y-94396428D01*
X116439285Y-94439285D01*
X116439285Y-94482142D01*
X116417857Y-94546428D01*
X116160714Y-94803571D01*
X116439285Y-94803571D01*
X116610714Y-94396428D02*
X116632142Y-94375000D01*
X116675000Y-94353571D01*
X116782142Y-94353571D01*
X116825000Y-94375000D01*
X116846428Y-94396428D01*
X116867857Y-94439285D01*
X116867857Y-94482142D01*
X116846428Y-94546428D01*
X116589285Y-94803571D01*
X116867857Y-94803571D01*
X123510714Y-94803571D02*
X123360714Y-94589285D01*
X123253571Y-94803571D02*
X123253571Y-94353571D01*
X123425000Y-94353571D01*
X123467857Y-94375000D01*
X123489285Y-94396428D01*
X123510714Y-94439285D01*
X123510714Y-94503571D01*
X123489285Y-94546428D01*
X123467857Y-94567857D01*
X123425000Y-94589285D01*
X123253571Y-94589285D01*
X123682142Y-94396428D02*
X123703571Y-94375000D01*
X123746428Y-94353571D01*
X123853571Y-94353571D01*
X123896428Y-94375000D01*
X123917857Y-94396428D01*
X123939285Y-94439285D01*
X123939285Y-94482142D01*
X123917857Y-94546428D01*
X123660714Y-94803571D01*
X123939285Y-94803571D01*
X124367857Y-94803571D02*
X124110714Y-94803571D01*
X124239285Y-94803571D02*
X124239285Y-94353571D01*
X124196428Y-94417857D01*
X124153571Y-94460714D01*
X124110714Y-94482142D01*
X135910714Y-94803571D02*
X135760714Y-94589285D01*
X135653571Y-94803571D02*
X135653571Y-94353571D01*
X135825000Y-94353571D01*
X135867857Y-94375000D01*
X135889285Y-94396428D01*
X135910714Y-94439285D01*
X135910714Y-94503571D01*
X135889285Y-94546428D01*
X135867857Y-94567857D01*
X135825000Y-94589285D01*
X135653571Y-94589285D01*
X136082142Y-94396428D02*
X136103571Y-94375000D01*
X136146428Y-94353571D01*
X136253571Y-94353571D01*
X136296428Y-94375000D01*
X136317857Y-94396428D01*
X136339285Y-94439285D01*
X136339285Y-94482142D01*
X136317857Y-94546428D01*
X136060714Y-94803571D01*
X136339285Y-94803571D01*
X136617857Y-94353571D02*
X136660714Y-94353571D01*
X136703571Y-94375000D01*
X136725000Y-94396428D01*
X136746428Y-94439285D01*
X136767857Y-94525000D01*
X136767857Y-94632142D01*
X136746428Y-94717857D01*
X136725000Y-94760714D01*
X136703571Y-94782142D01*
X136660714Y-94803571D01*
X136617857Y-94803571D01*
X136575000Y-94782142D01*
X136553571Y-94760714D01*
X136532142Y-94717857D01*
X136510714Y-94632142D01*
X136510714Y-94525000D01*
X136532142Y-94439285D01*
X136553571Y-94396428D01*
X136575000Y-94375000D01*
X136617857Y-94353571D01*
X143510714Y-94803571D02*
X143360714Y-94589285D01*
X143253571Y-94803571D02*
X143253571Y-94353571D01*
X143425000Y-94353571D01*
X143467857Y-94375000D01*
X143489285Y-94396428D01*
X143510714Y-94439285D01*
X143510714Y-94503571D01*
X143489285Y-94546428D01*
X143467857Y-94567857D01*
X143425000Y-94589285D01*
X143253571Y-94589285D01*
X143939285Y-94803571D02*
X143682142Y-94803571D01*
X143810714Y-94803571D02*
X143810714Y-94353571D01*
X143767857Y-94417857D01*
X143725000Y-94460714D01*
X143682142Y-94482142D01*
X144153571Y-94803571D02*
X144239285Y-94803571D01*
X144282142Y-94782142D01*
X144303571Y-94760714D01*
X144346428Y-94696428D01*
X144367857Y-94610714D01*
X144367857Y-94439285D01*
X144346428Y-94396428D01*
X144325000Y-94375000D01*
X144282142Y-94353571D01*
X144196428Y-94353571D01*
X144153571Y-94375000D01*
X144132142Y-94396428D01*
X144110714Y-94439285D01*
X144110714Y-94546428D01*
X144132142Y-94589285D01*
X144153571Y-94610714D01*
X144196428Y-94632142D01*
X144282142Y-94632142D01*
X144325000Y-94610714D01*
X144346428Y-94589285D01*
X144367857Y-94546428D01*
X130603571Y-63989285D02*
X130389285Y-64139285D01*
X130603571Y-64246428D02*
X130153571Y-64246428D01*
X130153571Y-64075000D01*
X130175000Y-64032142D01*
X130196428Y-64010714D01*
X130239285Y-63989285D01*
X130303571Y-63989285D01*
X130346428Y-64010714D01*
X130367857Y-64032142D01*
X130389285Y-64075000D01*
X130389285Y-64246428D01*
X130603571Y-63560714D02*
X130603571Y-63817857D01*
X130603571Y-63689285D02*
X130153571Y-63689285D01*
X130217857Y-63732142D01*
X130260714Y-63775000D01*
X130282142Y-63817857D01*
X130346428Y-63303571D02*
X130325000Y-63346428D01*
X130303571Y-63367857D01*
X130260714Y-63389285D01*
X130239285Y-63389285D01*
X130196428Y-63367857D01*
X130175000Y-63346428D01*
X130153571Y-63303571D01*
X130153571Y-63217857D01*
X130175000Y-63175000D01*
X130196428Y-63153571D01*
X130239285Y-63132142D01*
X130260714Y-63132142D01*
X130303571Y-63153571D01*
X130325000Y-63175000D01*
X130346428Y-63217857D01*
X130346428Y-63303571D01*
X130367857Y-63346428D01*
X130389285Y-63367857D01*
X130432142Y-63389285D01*
X130517857Y-63389285D01*
X130560714Y-63367857D01*
X130582142Y-63346428D01*
X130603571Y-63303571D01*
X130603571Y-63217857D01*
X130582142Y-63175000D01*
X130560714Y-63153571D01*
X130517857Y-63132142D01*
X130432142Y-63132142D01*
X130389285Y-63153571D01*
X130367857Y-63175000D01*
X130346428Y-63217857D01*
X126410714Y-62703571D02*
X126260714Y-62489285D01*
X126153571Y-62703571D02*
X126153571Y-62253571D01*
X126325000Y-62253571D01*
X126367857Y-62275000D01*
X126389285Y-62296428D01*
X126410714Y-62339285D01*
X126410714Y-62403571D01*
X126389285Y-62446428D01*
X126367857Y-62467857D01*
X126325000Y-62489285D01*
X126153571Y-62489285D01*
X126839285Y-62703571D02*
X126582142Y-62703571D01*
X126710714Y-62703571D02*
X126710714Y-62253571D01*
X126667857Y-62317857D01*
X126625000Y-62360714D01*
X126582142Y-62382142D01*
X126989285Y-62253571D02*
X127289285Y-62253571D01*
X127096428Y-62703571D01*
X126110714Y-65703571D02*
X125960714Y-65489285D01*
X125853571Y-65703571D02*
X125853571Y-65253571D01*
X126025000Y-65253571D01*
X126067857Y-65275000D01*
X126089285Y-65296428D01*
X126110714Y-65339285D01*
X126110714Y-65403571D01*
X126089285Y-65446428D01*
X126067857Y-65467857D01*
X126025000Y-65489285D01*
X125853571Y-65489285D01*
X126539285Y-65703571D02*
X126282142Y-65703571D01*
X126410714Y-65703571D02*
X126410714Y-65253571D01*
X126367857Y-65317857D01*
X126325000Y-65360714D01*
X126282142Y-65382142D01*
X126925000Y-65253571D02*
X126839285Y-65253571D01*
X126796428Y-65275000D01*
X126775000Y-65296428D01*
X126732142Y-65360714D01*
X126710714Y-65446428D01*
X126710714Y-65617857D01*
X126732142Y-65660714D01*
X126753571Y-65682142D01*
X126796428Y-65703571D01*
X126882142Y-65703571D01*
X126925000Y-65682142D01*
X126946428Y-65660714D01*
X126967857Y-65617857D01*
X126967857Y-65510714D01*
X126946428Y-65467857D01*
X126925000Y-65446428D01*
X126882142Y-65425000D01*
X126796428Y-65425000D01*
X126753571Y-65446428D01*
X126732142Y-65467857D01*
X126710714Y-65510714D01*
X127210714Y-61603571D02*
X127060714Y-61389285D01*
X126953571Y-61603571D02*
X126953571Y-61153571D01*
X127125000Y-61153571D01*
X127167857Y-61175000D01*
X127189285Y-61196428D01*
X127210714Y-61239285D01*
X127210714Y-61303571D01*
X127189285Y-61346428D01*
X127167857Y-61367857D01*
X127125000Y-61389285D01*
X126953571Y-61389285D01*
X127639285Y-61603571D02*
X127382142Y-61603571D01*
X127510714Y-61603571D02*
X127510714Y-61153571D01*
X127467857Y-61217857D01*
X127425000Y-61260714D01*
X127382142Y-61282142D01*
X128046428Y-61153571D02*
X127832142Y-61153571D01*
X127810714Y-61367857D01*
X127832142Y-61346428D01*
X127875000Y-61325000D01*
X127982142Y-61325000D01*
X128025000Y-61346428D01*
X128046428Y-61367857D01*
X128067857Y-61410714D01*
X128067857Y-61517857D01*
X128046428Y-61560714D01*
X128025000Y-61582142D01*
X127982142Y-61603571D01*
X127875000Y-61603571D01*
X127832142Y-61582142D01*
X127810714Y-61560714D01*
X126110714Y-63303571D02*
X125960714Y-63089285D01*
X125853571Y-63303571D02*
X125853571Y-62853571D01*
X126025000Y-62853571D01*
X126067857Y-62875000D01*
X126089285Y-62896428D01*
X126110714Y-62939285D01*
X126110714Y-63003571D01*
X126089285Y-63046428D01*
X126067857Y-63067857D01*
X126025000Y-63089285D01*
X125853571Y-63089285D01*
X126539285Y-63303571D02*
X126282142Y-63303571D01*
X126410714Y-63303571D02*
X126410714Y-62853571D01*
X126367857Y-62917857D01*
X126325000Y-62960714D01*
X126282142Y-62982142D01*
X126925000Y-63003571D02*
X126925000Y-63303571D01*
X126817857Y-62832142D02*
X126710714Y-63153571D01*
X126989285Y-63153571D01*
X130610714Y-56403571D02*
X130460714Y-56189285D01*
X130353571Y-56403571D02*
X130353571Y-55953571D01*
X130525000Y-55953571D01*
X130567857Y-55975000D01*
X130589285Y-55996428D01*
X130610714Y-56039285D01*
X130610714Y-56103571D01*
X130589285Y-56146428D01*
X130567857Y-56167857D01*
X130525000Y-56189285D01*
X130353571Y-56189285D01*
X131039285Y-56403571D02*
X130782142Y-56403571D01*
X130910714Y-56403571D02*
X130910714Y-55953571D01*
X130867857Y-56017857D01*
X130825000Y-56060714D01*
X130782142Y-56082142D01*
X131189285Y-55953571D02*
X131467857Y-55953571D01*
X131317857Y-56125000D01*
X131382142Y-56125000D01*
X131425000Y-56146428D01*
X131446428Y-56167857D01*
X131467857Y-56210714D01*
X131467857Y-56317857D01*
X131446428Y-56360714D01*
X131425000Y-56382142D01*
X131382142Y-56403571D01*
X131253571Y-56403571D01*
X131210714Y-56382142D01*
X131189285Y-56360714D01*
X125910714Y-61603571D02*
X125760714Y-61389285D01*
X125653571Y-61603571D02*
X125653571Y-61153571D01*
X125825000Y-61153571D01*
X125867857Y-61175000D01*
X125889285Y-61196428D01*
X125910714Y-61239285D01*
X125910714Y-61303571D01*
X125889285Y-61346428D01*
X125867857Y-61367857D01*
X125825000Y-61389285D01*
X125653571Y-61389285D01*
X126339285Y-61603571D02*
X126082142Y-61603571D01*
X126210714Y-61603571D02*
X126210714Y-61153571D01*
X126167857Y-61217857D01*
X126125000Y-61260714D01*
X126082142Y-61282142D01*
X126510714Y-61196428D02*
X126532142Y-61175000D01*
X126575000Y-61153571D01*
X126682142Y-61153571D01*
X126725000Y-61175000D01*
X126746428Y-61196428D01*
X126767857Y-61239285D01*
X126767857Y-61282142D01*
X126746428Y-61346428D01*
X126489285Y-61603571D01*
X126767857Y-61603571D01*
X137610714Y-72503571D02*
X137460714Y-72289285D01*
X137353571Y-72503571D02*
X137353571Y-72053571D01*
X137525000Y-72053571D01*
X137567857Y-72075000D01*
X137589285Y-72096428D01*
X137610714Y-72139285D01*
X137610714Y-72203571D01*
X137589285Y-72246428D01*
X137567857Y-72267857D01*
X137525000Y-72289285D01*
X137353571Y-72289285D01*
X138039285Y-72503571D02*
X137782142Y-72503571D01*
X137910714Y-72503571D02*
X137910714Y-72053571D01*
X137867857Y-72117857D01*
X137825000Y-72160714D01*
X137782142Y-72182142D01*
X138467857Y-72503571D02*
X138210714Y-72503571D01*
X138339285Y-72503571D02*
X138339285Y-72053571D01*
X138296428Y-72117857D01*
X138253571Y-72160714D01*
X138210714Y-72182142D01*
X118960714Y-83153571D02*
X118810714Y-82939285D01*
X118703571Y-83153571D02*
X118703571Y-82703571D01*
X118875000Y-82703571D01*
X118917857Y-82725000D01*
X118939285Y-82746428D01*
X118960714Y-82789285D01*
X118960714Y-82853571D01*
X118939285Y-82896428D01*
X118917857Y-82917857D01*
X118875000Y-82939285D01*
X118703571Y-82939285D01*
X119389285Y-83153571D02*
X119132142Y-83153571D01*
X119260714Y-83153571D02*
X119260714Y-82703571D01*
X119217857Y-82767857D01*
X119175000Y-82810714D01*
X119132142Y-82832142D01*
X119667857Y-82703571D02*
X119710714Y-82703571D01*
X119753571Y-82725000D01*
X119775000Y-82746428D01*
X119796428Y-82789285D01*
X119817857Y-82875000D01*
X119817857Y-82982142D01*
X119796428Y-83067857D01*
X119775000Y-83110714D01*
X119753571Y-83132142D01*
X119710714Y-83153571D01*
X119667857Y-83153571D01*
X119625000Y-83132142D01*
X119603571Y-83110714D01*
X119582142Y-83067857D01*
X119560714Y-82982142D01*
X119560714Y-82875000D01*
X119582142Y-82789285D01*
X119603571Y-82746428D01*
X119625000Y-82725000D01*
X119667857Y-82703571D01*
X118625000Y-58803571D02*
X118475000Y-58589285D01*
X118367857Y-58803571D02*
X118367857Y-58353571D01*
X118539285Y-58353571D01*
X118582142Y-58375000D01*
X118603571Y-58396428D01*
X118625000Y-58439285D01*
X118625000Y-58503571D01*
X118603571Y-58546428D01*
X118582142Y-58567857D01*
X118539285Y-58589285D01*
X118367857Y-58589285D01*
X118839285Y-58803571D02*
X118925000Y-58803571D01*
X118967857Y-58782142D01*
X118989285Y-58760714D01*
X119032142Y-58696428D01*
X119053571Y-58610714D01*
X119053571Y-58439285D01*
X119032142Y-58396428D01*
X119010714Y-58375000D01*
X118967857Y-58353571D01*
X118882142Y-58353571D01*
X118839285Y-58375000D01*
X118817857Y-58396428D01*
X118796428Y-58439285D01*
X118796428Y-58546428D01*
X118817857Y-58589285D01*
X118839285Y-58610714D01*
X118882142Y-58632142D01*
X118967857Y-58632142D01*
X119010714Y-58610714D01*
X119032142Y-58589285D01*
X119053571Y-58546428D01*
X118625000Y-57203571D02*
X118475000Y-56989285D01*
X118367857Y-57203571D02*
X118367857Y-56753571D01*
X118539285Y-56753571D01*
X118582142Y-56775000D01*
X118603571Y-56796428D01*
X118625000Y-56839285D01*
X118625000Y-56903571D01*
X118603571Y-56946428D01*
X118582142Y-56967857D01*
X118539285Y-56989285D01*
X118367857Y-56989285D01*
X118882142Y-56946428D02*
X118839285Y-56925000D01*
X118817857Y-56903571D01*
X118796428Y-56860714D01*
X118796428Y-56839285D01*
X118817857Y-56796428D01*
X118839285Y-56775000D01*
X118882142Y-56753571D01*
X118967857Y-56753571D01*
X119010714Y-56775000D01*
X119032142Y-56796428D01*
X119053571Y-56839285D01*
X119053571Y-56860714D01*
X119032142Y-56903571D01*
X119010714Y-56925000D01*
X118967857Y-56946428D01*
X118882142Y-56946428D01*
X118839285Y-56967857D01*
X118817857Y-56989285D01*
X118796428Y-57032142D01*
X118796428Y-57117857D01*
X118817857Y-57160714D01*
X118839285Y-57182142D01*
X118882142Y-57203571D01*
X118967857Y-57203571D01*
X119010714Y-57182142D01*
X119032142Y-57160714D01*
X119053571Y-57117857D01*
X119053571Y-57032142D01*
X119032142Y-56989285D01*
X119010714Y-56967857D01*
X118967857Y-56946428D01*
X117025000Y-84603571D02*
X116875000Y-84389285D01*
X116767857Y-84603571D02*
X116767857Y-84153571D01*
X116939285Y-84153571D01*
X116982142Y-84175000D01*
X117003571Y-84196428D01*
X117025000Y-84239285D01*
X117025000Y-84303571D01*
X117003571Y-84346428D01*
X116982142Y-84367857D01*
X116939285Y-84389285D01*
X116767857Y-84389285D01*
X117410714Y-84303571D02*
X117410714Y-84603571D01*
X117303571Y-84132142D02*
X117196428Y-84453571D01*
X117475000Y-84453571D01*
X117025000Y-83603571D02*
X116875000Y-83389285D01*
X116767857Y-83603571D02*
X116767857Y-83153571D01*
X116939285Y-83153571D01*
X116982142Y-83175000D01*
X117003571Y-83196428D01*
X117025000Y-83239285D01*
X117025000Y-83303571D01*
X117003571Y-83346428D01*
X116982142Y-83367857D01*
X116939285Y-83389285D01*
X116767857Y-83389285D01*
X117175000Y-83153571D02*
X117453571Y-83153571D01*
X117303571Y-83325000D01*
X117367857Y-83325000D01*
X117410714Y-83346428D01*
X117432142Y-83367857D01*
X117453571Y-83410714D01*
X117453571Y-83517857D01*
X117432142Y-83560714D01*
X117410714Y-83582142D01*
X117367857Y-83603571D01*
X117239285Y-83603571D01*
X117196428Y-83582142D01*
X117175000Y-83560714D01*
X117025000Y-82603571D02*
X116875000Y-82389285D01*
X116767857Y-82603571D02*
X116767857Y-82153571D01*
X116939285Y-82153571D01*
X116982142Y-82175000D01*
X117003571Y-82196428D01*
X117025000Y-82239285D01*
X117025000Y-82303571D01*
X117003571Y-82346428D01*
X116982142Y-82367857D01*
X116939285Y-82389285D01*
X116767857Y-82389285D01*
X117196428Y-82196428D02*
X117217857Y-82175000D01*
X117260714Y-82153571D01*
X117367857Y-82153571D01*
X117410714Y-82175000D01*
X117432142Y-82196428D01*
X117453571Y-82239285D01*
X117453571Y-82282142D01*
X117432142Y-82346428D01*
X117175000Y-82603571D01*
X117453571Y-82603571D01*
X119925000Y-70803571D02*
X119775000Y-70589285D01*
X119667857Y-70803571D02*
X119667857Y-70353571D01*
X119839285Y-70353571D01*
X119882142Y-70375000D01*
X119903571Y-70396428D01*
X119925000Y-70439285D01*
X119925000Y-70503571D01*
X119903571Y-70546428D01*
X119882142Y-70567857D01*
X119839285Y-70589285D01*
X119667857Y-70589285D01*
X120353571Y-70803571D02*
X120096428Y-70803571D01*
X120225000Y-70803571D02*
X120225000Y-70353571D01*
X120182142Y-70417857D01*
X120139285Y-70460714D01*
X120096428Y-70482142D01*
X139867857Y-61803571D02*
X139867857Y-61353571D01*
X139975000Y-61353571D01*
X140039285Y-61375000D01*
X140082142Y-61417857D01*
X140103571Y-61460714D01*
X140125000Y-61546428D01*
X140125000Y-61610714D01*
X140103571Y-61696428D01*
X140082142Y-61739285D01*
X140039285Y-61782142D01*
X139975000Y-61803571D01*
X139867857Y-61803571D01*
X140275000Y-61353571D02*
X140553571Y-61353571D01*
X140403571Y-61525000D01*
X140467857Y-61525000D01*
X140510714Y-61546428D01*
X140532142Y-61567857D01*
X140553571Y-61610714D01*
X140553571Y-61717857D01*
X140532142Y-61760714D01*
X140510714Y-61782142D01*
X140467857Y-61803571D01*
X140339285Y-61803571D01*
X140296428Y-61782142D01*
X140275000Y-61760714D01*
X137310714Y-64060714D02*
X137289285Y-64082142D01*
X137225000Y-64103571D01*
X137182142Y-64103571D01*
X137117857Y-64082142D01*
X137075000Y-64039285D01*
X137053571Y-63996428D01*
X137032142Y-63910714D01*
X137032142Y-63846428D01*
X137053571Y-63760714D01*
X137075000Y-63717857D01*
X137117857Y-63675000D01*
X137182142Y-63653571D01*
X137225000Y-63653571D01*
X137289285Y-63675000D01*
X137310714Y-63696428D01*
X137739285Y-64103571D02*
X137482142Y-64103571D01*
X137610714Y-64103571D02*
X137610714Y-63653571D01*
X137567857Y-63717857D01*
X137525000Y-63760714D01*
X137482142Y-63782142D01*
X138125000Y-63803571D02*
X138125000Y-64103571D01*
X138017857Y-63632142D02*
X137910714Y-63953571D01*
X138189285Y-63953571D01*
X132410714Y-66060714D02*
X132389285Y-66082142D01*
X132325000Y-66103571D01*
X132282142Y-66103571D01*
X132217857Y-66082142D01*
X132175000Y-66039285D01*
X132153571Y-65996428D01*
X132132142Y-65910714D01*
X132132142Y-65846428D01*
X132153571Y-65760714D01*
X132175000Y-65717857D01*
X132217857Y-65675000D01*
X132282142Y-65653571D01*
X132325000Y-65653571D01*
X132389285Y-65675000D01*
X132410714Y-65696428D01*
X132839285Y-66103571D02*
X132582142Y-66103571D01*
X132710714Y-66103571D02*
X132710714Y-65653571D01*
X132667857Y-65717857D01*
X132625000Y-65760714D01*
X132582142Y-65782142D01*
X132989285Y-65653571D02*
X133267857Y-65653571D01*
X133117857Y-65825000D01*
X133182142Y-65825000D01*
X133225000Y-65846428D01*
X133246428Y-65867857D01*
X133267857Y-65910714D01*
X133267857Y-66017857D01*
X133246428Y-66060714D01*
X133225000Y-66082142D01*
X133182142Y-66103571D01*
X133053571Y-66103571D01*
X133010714Y-66082142D01*
X132989285Y-66060714D01*
X132110714Y-63260714D02*
X132089285Y-63282142D01*
X132025000Y-63303571D01*
X131982142Y-63303571D01*
X131917857Y-63282142D01*
X131875000Y-63239285D01*
X131853571Y-63196428D01*
X131832142Y-63110714D01*
X131832142Y-63046428D01*
X131853571Y-62960714D01*
X131875000Y-62917857D01*
X131917857Y-62875000D01*
X131982142Y-62853571D01*
X132025000Y-62853571D01*
X132089285Y-62875000D01*
X132110714Y-62896428D01*
X132539285Y-63303571D02*
X132282142Y-63303571D01*
X132410714Y-63303571D02*
X132410714Y-62853571D01*
X132367857Y-62917857D01*
X132325000Y-62960714D01*
X132282142Y-62982142D01*
X132710714Y-62896428D02*
X132732142Y-62875000D01*
X132775000Y-62853571D01*
X132882142Y-62853571D01*
X132925000Y-62875000D01*
X132946428Y-62896428D01*
X132967857Y-62939285D01*
X132967857Y-62982142D01*
X132946428Y-63046428D01*
X132689285Y-63303571D01*
X132967857Y-63303571D01*
X127210714Y-60960714D02*
X127189285Y-60982142D01*
X127125000Y-61003571D01*
X127082142Y-61003571D01*
X127017857Y-60982142D01*
X126975000Y-60939285D01*
X126953571Y-60896428D01*
X126932142Y-60810714D01*
X126932142Y-60746428D01*
X126953571Y-60660714D01*
X126975000Y-60617857D01*
X127017857Y-60575000D01*
X127082142Y-60553571D01*
X127125000Y-60553571D01*
X127189285Y-60575000D01*
X127210714Y-60596428D01*
X127639285Y-61003571D02*
X127382142Y-61003571D01*
X127510714Y-61003571D02*
X127510714Y-60553571D01*
X127467857Y-60617857D01*
X127425000Y-60660714D01*
X127382142Y-60682142D01*
X128067857Y-61003571D02*
X127810714Y-61003571D01*
X127939285Y-61003571D02*
X127939285Y-60553571D01*
X127896428Y-60617857D01*
X127853571Y-60660714D01*
X127810714Y-60682142D01*
X127710714Y-67360714D02*
X127689285Y-67382142D01*
X127625000Y-67403571D01*
X127582142Y-67403571D01*
X127517857Y-67382142D01*
X127475000Y-67339285D01*
X127453571Y-67296428D01*
X127432142Y-67210714D01*
X127432142Y-67146428D01*
X127453571Y-67060714D01*
X127475000Y-67017857D01*
X127517857Y-66975000D01*
X127582142Y-66953571D01*
X127625000Y-66953571D01*
X127689285Y-66975000D01*
X127710714Y-66996428D01*
X128139285Y-67403571D02*
X127882142Y-67403571D01*
X128010714Y-67403571D02*
X128010714Y-66953571D01*
X127967857Y-67017857D01*
X127925000Y-67060714D01*
X127882142Y-67082142D01*
X128417857Y-66953571D02*
X128460714Y-66953571D01*
X128503571Y-66975000D01*
X128525000Y-66996428D01*
X128546428Y-67039285D01*
X128567857Y-67125000D01*
X128567857Y-67232142D01*
X128546428Y-67317857D01*
X128525000Y-67360714D01*
X128503571Y-67382142D01*
X128460714Y-67403571D01*
X128417857Y-67403571D01*
X128375000Y-67382142D01*
X128353571Y-67360714D01*
X128332142Y-67317857D01*
X128310714Y-67232142D01*
X128310714Y-67125000D01*
X128332142Y-67039285D01*
X128353571Y-66996428D01*
X128375000Y-66975000D01*
X128417857Y-66953571D01*
X124925000Y-84060714D02*
X124903571Y-84082142D01*
X124839285Y-84103571D01*
X124796428Y-84103571D01*
X124732142Y-84082142D01*
X124689285Y-84039285D01*
X124667857Y-83996428D01*
X124646428Y-83910714D01*
X124646428Y-83846428D01*
X124667857Y-83760714D01*
X124689285Y-83717857D01*
X124732142Y-83675000D01*
X124796428Y-83653571D01*
X124839285Y-83653571D01*
X124903571Y-83675000D01*
X124925000Y-83696428D01*
X125139285Y-84103571D02*
X125225000Y-84103571D01*
X125267857Y-84082142D01*
X125289285Y-84060714D01*
X125332142Y-83996428D01*
X125353571Y-83910714D01*
X125353571Y-83739285D01*
X125332142Y-83696428D01*
X125310714Y-83675000D01*
X125267857Y-83653571D01*
X125182142Y-83653571D01*
X125139285Y-83675000D01*
X125117857Y-83696428D01*
X125096428Y-83739285D01*
X125096428Y-83846428D01*
X125117857Y-83889285D01*
X125139285Y-83910714D01*
X125182142Y-83932142D01*
X125267857Y-83932142D01*
X125310714Y-83910714D01*
X125332142Y-83889285D01*
X125353571Y-83846428D01*
X125525000Y-72310714D02*
X125503571Y-72332142D01*
X125439285Y-72353571D01*
X125396428Y-72353571D01*
X125332142Y-72332142D01*
X125289285Y-72289285D01*
X125267857Y-72246428D01*
X125246428Y-72160714D01*
X125246428Y-72096428D01*
X125267857Y-72010714D01*
X125289285Y-71967857D01*
X125332142Y-71925000D01*
X125396428Y-71903571D01*
X125439285Y-71903571D01*
X125503571Y-71925000D01*
X125525000Y-71946428D01*
X125782142Y-72096428D02*
X125739285Y-72075000D01*
X125717857Y-72053571D01*
X125696428Y-72010714D01*
X125696428Y-71989285D01*
X125717857Y-71946428D01*
X125739285Y-71925000D01*
X125782142Y-71903571D01*
X125867857Y-71903571D01*
X125910714Y-71925000D01*
X125932142Y-71946428D01*
X125953571Y-71989285D01*
X125953571Y-72010714D01*
X125932142Y-72053571D01*
X125910714Y-72075000D01*
X125867857Y-72096428D01*
X125782142Y-72096428D01*
X125739285Y-72117857D01*
X125717857Y-72139285D01*
X125696428Y-72182142D01*
X125696428Y-72267857D01*
X125717857Y-72310714D01*
X125739285Y-72332142D01*
X125782142Y-72353571D01*
X125867857Y-72353571D01*
X125910714Y-72332142D01*
X125932142Y-72310714D01*
X125953571Y-72267857D01*
X125953571Y-72182142D01*
X125932142Y-72139285D01*
X125910714Y-72117857D01*
X125867857Y-72096428D01*
X124925000Y-81760714D02*
X124903571Y-81782142D01*
X124839285Y-81803571D01*
X124796428Y-81803571D01*
X124732142Y-81782142D01*
X124689285Y-81739285D01*
X124667857Y-81696428D01*
X124646428Y-81610714D01*
X124646428Y-81546428D01*
X124667857Y-81460714D01*
X124689285Y-81417857D01*
X124732142Y-81375000D01*
X124796428Y-81353571D01*
X124839285Y-81353571D01*
X124903571Y-81375000D01*
X124925000Y-81396428D01*
X125075000Y-81353571D02*
X125375000Y-81353571D01*
X125182142Y-81803571D01*
X115325000Y-71310714D02*
X115303571Y-71332142D01*
X115239285Y-71353571D01*
X115196428Y-71353571D01*
X115132142Y-71332142D01*
X115089285Y-71289285D01*
X115067857Y-71246428D01*
X115046428Y-71160714D01*
X115046428Y-71096428D01*
X115067857Y-71010714D01*
X115089285Y-70967857D01*
X115132142Y-70925000D01*
X115196428Y-70903571D01*
X115239285Y-70903571D01*
X115303571Y-70925000D01*
X115325000Y-70946428D01*
X115710714Y-70903571D02*
X115625000Y-70903571D01*
X115582142Y-70925000D01*
X115560714Y-70946428D01*
X115517857Y-71010714D01*
X115496428Y-71096428D01*
X115496428Y-71267857D01*
X115517857Y-71310714D01*
X115539285Y-71332142D01*
X115582142Y-71353571D01*
X115667857Y-71353571D01*
X115710714Y-71332142D01*
X115732142Y-71310714D01*
X115753571Y-71267857D01*
X115753571Y-71160714D01*
X115732142Y-71117857D01*
X115710714Y-71096428D01*
X115667857Y-71075000D01*
X115582142Y-71075000D01*
X115539285Y-71096428D01*
X115517857Y-71117857D01*
X115496428Y-71160714D01*
X115325000Y-68660714D02*
X115303571Y-68682142D01*
X115239285Y-68703571D01*
X115196428Y-68703571D01*
X115132142Y-68682142D01*
X115089285Y-68639285D01*
X115067857Y-68596428D01*
X115046428Y-68510714D01*
X115046428Y-68446428D01*
X115067857Y-68360714D01*
X115089285Y-68317857D01*
X115132142Y-68275000D01*
X115196428Y-68253571D01*
X115239285Y-68253571D01*
X115303571Y-68275000D01*
X115325000Y-68296428D01*
X115732142Y-68253571D02*
X115517857Y-68253571D01*
X115496428Y-68467857D01*
X115517857Y-68446428D01*
X115560714Y-68425000D01*
X115667857Y-68425000D01*
X115710714Y-68446428D01*
X115732142Y-68467857D01*
X115753571Y-68510714D01*
X115753571Y-68617857D01*
X115732142Y-68660714D01*
X115710714Y-68682142D01*
X115667857Y-68703571D01*
X115560714Y-68703571D01*
X115517857Y-68682142D01*
X115496428Y-68660714D01*
X113925000Y-79960714D02*
X113903571Y-79982142D01*
X113839285Y-80003571D01*
X113796428Y-80003571D01*
X113732142Y-79982142D01*
X113689285Y-79939285D01*
X113667857Y-79896428D01*
X113646428Y-79810714D01*
X113646428Y-79746428D01*
X113667857Y-79660714D01*
X113689285Y-79617857D01*
X113732142Y-79575000D01*
X113796428Y-79553571D01*
X113839285Y-79553571D01*
X113903571Y-79575000D01*
X113925000Y-79596428D01*
X114310714Y-79703571D02*
X114310714Y-80003571D01*
X114203571Y-79532142D02*
X114096428Y-79853571D01*
X114375000Y-79853571D01*
X115225000Y-66160714D02*
X115203571Y-66182142D01*
X115139285Y-66203571D01*
X115096428Y-66203571D01*
X115032142Y-66182142D01*
X114989285Y-66139285D01*
X114967857Y-66096428D01*
X114946428Y-66010714D01*
X114946428Y-65946428D01*
X114967857Y-65860714D01*
X114989285Y-65817857D01*
X115032142Y-65775000D01*
X115096428Y-65753571D01*
X115139285Y-65753571D01*
X115203571Y-65775000D01*
X115225000Y-65796428D01*
X115375000Y-65753571D02*
X115653571Y-65753571D01*
X115503571Y-65925000D01*
X115567857Y-65925000D01*
X115610714Y-65946428D01*
X115632142Y-65967857D01*
X115653571Y-66010714D01*
X115653571Y-66117857D01*
X115632142Y-66160714D01*
X115610714Y-66182142D01*
X115567857Y-66203571D01*
X115439285Y-66203571D01*
X115396428Y-66182142D01*
X115375000Y-66160714D01*
X113925000Y-78860714D02*
X113903571Y-78882142D01*
X113839285Y-78903571D01*
X113796428Y-78903571D01*
X113732142Y-78882142D01*
X113689285Y-78839285D01*
X113667857Y-78796428D01*
X113646428Y-78710714D01*
X113646428Y-78646428D01*
X113667857Y-78560714D01*
X113689285Y-78517857D01*
X113732142Y-78475000D01*
X113796428Y-78453571D01*
X113839285Y-78453571D01*
X113903571Y-78475000D01*
X113925000Y-78496428D01*
X114096428Y-78496428D02*
X114117857Y-78475000D01*
X114160714Y-78453571D01*
X114267857Y-78453571D01*
X114310714Y-78475000D01*
X114332142Y-78496428D01*
X114353571Y-78539285D01*
X114353571Y-78582142D01*
X114332142Y-78646428D01*
X114075000Y-78903571D01*
X114353571Y-78903571D01*
X113925000Y-73560714D02*
X113903571Y-73582142D01*
X113839285Y-73603571D01*
X113796428Y-73603571D01*
X113732142Y-73582142D01*
X113689285Y-73539285D01*
X113667857Y-73496428D01*
X113646428Y-73410714D01*
X113646428Y-73346428D01*
X113667857Y-73260714D01*
X113689285Y-73217857D01*
X113732142Y-73175000D01*
X113796428Y-73153571D01*
X113839285Y-73153571D01*
X113903571Y-73175000D01*
X113925000Y-73196428D01*
X114353571Y-73603571D02*
X114096428Y-73603571D01*
X114225000Y-73603571D02*
X114225000Y-73153571D01*
X114182142Y-73217857D01*
X114139285Y-73260714D01*
X114096428Y-73282142D01*
M02*
