G04 #@! TF.GenerationSoftware,KiCad,Pcbnew,5.1.5+dfsg1-2build2*
G04 #@! TF.CreationDate,2020-09-27T17:25:33+02:00*
G04 #@! TF.ProjectId,tdr,7464722e-6b69-4636-9164-5f7063625858,rev?*
G04 #@! TF.SameCoordinates,Original*
G04 #@! TF.FileFunction,Legend,Bot*
G04 #@! TF.FilePolarity,Positive*
%FSLAX46Y46*%
G04 Gerber Fmt 4.6, Leading zero omitted, Abs format (unit mm)*
G04 Created by KiCad (PCBNEW 5.1.5+dfsg1-2build2) date 2020-09-27 17:25:33*
%MOMM*%
%LPD*%
G04 APERTURE LIST*
%ADD10C,0.100000*%
G04 APERTURE END LIST*
D10*
X122014285Y-51521428D02*
X122300000Y-51521428D01*
X122328571Y-51807142D01*
X122300000Y-51778571D01*
X122242857Y-51750000D01*
X122100000Y-51750000D01*
X122042857Y-51778571D01*
X122014285Y-51807142D01*
X121985714Y-51864285D01*
X121985714Y-52007142D01*
X122014285Y-52064285D01*
X122042857Y-52092857D01*
X122100000Y-52121428D01*
X122242857Y-52121428D01*
X122300000Y-52092857D01*
X122328571Y-52064285D01*
X121814285Y-51521428D02*
X121614285Y-52121428D01*
X121414285Y-51521428D01*
X124642857Y-51521428D02*
X124271428Y-51521428D01*
X124471428Y-51750000D01*
X124385714Y-51750000D01*
X124328571Y-51778571D01*
X124300000Y-51807142D01*
X124271428Y-51864285D01*
X124271428Y-52007142D01*
X124300000Y-52064285D01*
X124328571Y-52092857D01*
X124385714Y-52121428D01*
X124557142Y-52121428D01*
X124614285Y-52092857D01*
X124642857Y-52064285D01*
X124100000Y-51521428D02*
X123900000Y-52121428D01*
X123700000Y-51521428D01*
X123557142Y-51521428D02*
X123185714Y-51521428D01*
X123385714Y-51750000D01*
X123300000Y-51750000D01*
X123242857Y-51778571D01*
X123214285Y-51807142D01*
X123185714Y-51864285D01*
X123185714Y-52007142D01*
X123214285Y-52064285D01*
X123242857Y-52092857D01*
X123300000Y-52121428D01*
X123471428Y-52121428D01*
X123528571Y-52092857D01*
X123557142Y-52064285D01*
X126673809Y-51807142D02*
X126507142Y-51807142D01*
X126435714Y-52121428D02*
X126673809Y-52121428D01*
X126673809Y-51521428D01*
X126435714Y-51521428D01*
X126269047Y-51521428D02*
X125935714Y-52121428D01*
X125935714Y-51521428D02*
X126269047Y-52121428D01*
X125816666Y-51521428D02*
X125530952Y-51521428D01*
X125673809Y-52121428D02*
X125673809Y-51521428D01*
X125102380Y-52121428D02*
X125388095Y-52121428D01*
X125245238Y-52121428D02*
X125245238Y-51521428D01*
X125292857Y-51607142D01*
X125340476Y-51664285D01*
X125388095Y-51692857D01*
X128673809Y-51807142D02*
X128507142Y-51807142D01*
X128435714Y-52121428D02*
X128673809Y-52121428D01*
X128673809Y-51521428D01*
X128435714Y-51521428D01*
X128269047Y-51521428D02*
X127935714Y-52121428D01*
X127935714Y-51521428D02*
X128269047Y-52121428D01*
X127816666Y-51521428D02*
X127530952Y-51521428D01*
X127673809Y-52121428D02*
X127673809Y-51521428D01*
X127388095Y-51578571D02*
X127364285Y-51550000D01*
X127316666Y-51521428D01*
X127197619Y-51521428D01*
X127150000Y-51550000D01*
X127126190Y-51578571D01*
X127102380Y-51635714D01*
X127102380Y-51692857D01*
X127126190Y-51778571D01*
X127411904Y-52121428D01*
X127102380Y-52121428D01*
X130357142Y-51550000D02*
X130414285Y-51521428D01*
X130500000Y-51521428D01*
X130585714Y-51550000D01*
X130642857Y-51607142D01*
X130671428Y-51664285D01*
X130700000Y-51778571D01*
X130700000Y-51864285D01*
X130671428Y-51978571D01*
X130642857Y-52035714D01*
X130585714Y-52092857D01*
X130500000Y-52121428D01*
X130442857Y-52121428D01*
X130357142Y-52092857D01*
X130328571Y-52064285D01*
X130328571Y-51864285D01*
X130442857Y-51864285D01*
X130071428Y-52121428D02*
X130071428Y-51521428D01*
X129728571Y-52121428D01*
X129728571Y-51521428D01*
X129442857Y-52121428D02*
X129442857Y-51521428D01*
X129300000Y-51521428D01*
X129214285Y-51550000D01*
X129157142Y-51607142D01*
X129128571Y-51664285D01*
X129100000Y-51778571D01*
X129100000Y-51864285D01*
X129128571Y-51978571D01*
X129157142Y-52035714D01*
X129214285Y-52092857D01*
X129300000Y-52121428D01*
X129442857Y-52121428D01*
M02*
