G04 #@! TF.GenerationSoftware,KiCad,Pcbnew,5.1.5+dfsg1-2build2*
G04 #@! TF.CreationDate,2020-09-27T17:25:33+02:00*
G04 #@! TF.ProjectId,tdr,7464722e-6b69-4636-9164-5f7063625858,rev?*
G04 #@! TF.SameCoordinates,Original*
G04 #@! TF.FileFunction,Paste,Top*
G04 #@! TF.FilePolarity,Positive*
%FSLAX46Y46*%
G04 Gerber Fmt 4.6, Leading zero omitted, Abs format (unit mm)*
G04 Created by KiCad (PCBNEW 5.1.5+dfsg1-2build2) date 2020-09-27 17:25:33*
%MOMM*%
%LPD*%
G04 APERTURE LIST*
%ADD10R,0.500000X0.600000*%
%ADD11R,0.600000X0.900000*%
%ADD12R,1.200000X1.400000*%
%ADD13C,0.100000*%
%ADD14R,0.650000X1.060000*%
%ADD15R,1.060000X0.650000*%
%ADD16R,0.800000X0.900000*%
%ADD17R,0.250000X1.300000*%
%ADD18R,1.300000X0.250000*%
%ADD19R,1.840000X2.200000*%
%ADD20R,1.500000X1.000000*%
%ADD21R,1.800000X1.000000*%
%ADD22R,0.650000X1.050000*%
%ADD23R,0.600000X0.500000*%
%ADD24R,0.700000X1.300000*%
%ADD25R,5.080000X1.500000*%
%ADD26R,1.450000X0.600000*%
%ADD27R,1.450000X0.300000*%
%ADD28R,1.100000X1.100000*%
%ADD29R,1.100000X1.500000*%
%ADD30R,0.900000X0.600000*%
G04 APERTURE END LIST*
D10*
X131670000Y-68600000D03*
X130730000Y-68600000D03*
X135130000Y-55300000D03*
X136070000Y-55300000D03*
D11*
X134850000Y-54100000D03*
X136350000Y-54100000D03*
D12*
X113275379Y-74935786D03*
X113275379Y-77135786D03*
X111575379Y-77135786D03*
X111575379Y-74935786D03*
D13*
G36*
X138614703Y-56395722D02*
G01*
X138629264Y-56397882D01*
X138643543Y-56401459D01*
X138657403Y-56406418D01*
X138670710Y-56412712D01*
X138683336Y-56420280D01*
X138695159Y-56429048D01*
X138706066Y-56438934D01*
X138715952Y-56449841D01*
X138724720Y-56461664D01*
X138732288Y-56474290D01*
X138738582Y-56487597D01*
X138743541Y-56501457D01*
X138747118Y-56515736D01*
X138749278Y-56530297D01*
X138750000Y-56545000D01*
X138750000Y-56845000D01*
X138749278Y-56859703D01*
X138747118Y-56874264D01*
X138743541Y-56888543D01*
X138738582Y-56902403D01*
X138732288Y-56915710D01*
X138724720Y-56928336D01*
X138715952Y-56940159D01*
X138706066Y-56951066D01*
X138695159Y-56960952D01*
X138683336Y-56969720D01*
X138670710Y-56977288D01*
X138657403Y-56983582D01*
X138643543Y-56988541D01*
X138629264Y-56992118D01*
X138614703Y-56994278D01*
X138600000Y-56995000D01*
X136950000Y-56995000D01*
X136935297Y-56994278D01*
X136920736Y-56992118D01*
X136906457Y-56988541D01*
X136892597Y-56983582D01*
X136879290Y-56977288D01*
X136866664Y-56969720D01*
X136854841Y-56960952D01*
X136843934Y-56951066D01*
X136834048Y-56940159D01*
X136825280Y-56928336D01*
X136817712Y-56915710D01*
X136811418Y-56902403D01*
X136806459Y-56888543D01*
X136802882Y-56874264D01*
X136800722Y-56859703D01*
X136800000Y-56845000D01*
X136800000Y-56545000D01*
X136800722Y-56530297D01*
X136802882Y-56515736D01*
X136806459Y-56501457D01*
X136811418Y-56487597D01*
X136817712Y-56474290D01*
X136825280Y-56461664D01*
X136834048Y-56449841D01*
X136843934Y-56438934D01*
X136854841Y-56429048D01*
X136866664Y-56420280D01*
X136879290Y-56412712D01*
X136892597Y-56406418D01*
X136906457Y-56401459D01*
X136920736Y-56397882D01*
X136935297Y-56395722D01*
X136950000Y-56395000D01*
X138600000Y-56395000D01*
X138614703Y-56395722D01*
G37*
G36*
X138614703Y-57665722D02*
G01*
X138629264Y-57667882D01*
X138643543Y-57671459D01*
X138657403Y-57676418D01*
X138670710Y-57682712D01*
X138683336Y-57690280D01*
X138695159Y-57699048D01*
X138706066Y-57708934D01*
X138715952Y-57719841D01*
X138724720Y-57731664D01*
X138732288Y-57744290D01*
X138738582Y-57757597D01*
X138743541Y-57771457D01*
X138747118Y-57785736D01*
X138749278Y-57800297D01*
X138750000Y-57815000D01*
X138750000Y-58115000D01*
X138749278Y-58129703D01*
X138747118Y-58144264D01*
X138743541Y-58158543D01*
X138738582Y-58172403D01*
X138732288Y-58185710D01*
X138724720Y-58198336D01*
X138715952Y-58210159D01*
X138706066Y-58221066D01*
X138695159Y-58230952D01*
X138683336Y-58239720D01*
X138670710Y-58247288D01*
X138657403Y-58253582D01*
X138643543Y-58258541D01*
X138629264Y-58262118D01*
X138614703Y-58264278D01*
X138600000Y-58265000D01*
X136950000Y-58265000D01*
X136935297Y-58264278D01*
X136920736Y-58262118D01*
X136906457Y-58258541D01*
X136892597Y-58253582D01*
X136879290Y-58247288D01*
X136866664Y-58239720D01*
X136854841Y-58230952D01*
X136843934Y-58221066D01*
X136834048Y-58210159D01*
X136825280Y-58198336D01*
X136817712Y-58185710D01*
X136811418Y-58172403D01*
X136806459Y-58158543D01*
X136802882Y-58144264D01*
X136800722Y-58129703D01*
X136800000Y-58115000D01*
X136800000Y-57815000D01*
X136800722Y-57800297D01*
X136802882Y-57785736D01*
X136806459Y-57771457D01*
X136811418Y-57757597D01*
X136817712Y-57744290D01*
X136825280Y-57731664D01*
X136834048Y-57719841D01*
X136843934Y-57708934D01*
X136854841Y-57699048D01*
X136866664Y-57690280D01*
X136879290Y-57682712D01*
X136892597Y-57676418D01*
X136906457Y-57671459D01*
X136920736Y-57667882D01*
X136935297Y-57665722D01*
X136950000Y-57665000D01*
X138600000Y-57665000D01*
X138614703Y-57665722D01*
G37*
G36*
X138614703Y-58935722D02*
G01*
X138629264Y-58937882D01*
X138643543Y-58941459D01*
X138657403Y-58946418D01*
X138670710Y-58952712D01*
X138683336Y-58960280D01*
X138695159Y-58969048D01*
X138706066Y-58978934D01*
X138715952Y-58989841D01*
X138724720Y-59001664D01*
X138732288Y-59014290D01*
X138738582Y-59027597D01*
X138743541Y-59041457D01*
X138747118Y-59055736D01*
X138749278Y-59070297D01*
X138750000Y-59085000D01*
X138750000Y-59385000D01*
X138749278Y-59399703D01*
X138747118Y-59414264D01*
X138743541Y-59428543D01*
X138738582Y-59442403D01*
X138732288Y-59455710D01*
X138724720Y-59468336D01*
X138715952Y-59480159D01*
X138706066Y-59491066D01*
X138695159Y-59500952D01*
X138683336Y-59509720D01*
X138670710Y-59517288D01*
X138657403Y-59523582D01*
X138643543Y-59528541D01*
X138629264Y-59532118D01*
X138614703Y-59534278D01*
X138600000Y-59535000D01*
X136950000Y-59535000D01*
X136935297Y-59534278D01*
X136920736Y-59532118D01*
X136906457Y-59528541D01*
X136892597Y-59523582D01*
X136879290Y-59517288D01*
X136866664Y-59509720D01*
X136854841Y-59500952D01*
X136843934Y-59491066D01*
X136834048Y-59480159D01*
X136825280Y-59468336D01*
X136817712Y-59455710D01*
X136811418Y-59442403D01*
X136806459Y-59428543D01*
X136802882Y-59414264D01*
X136800722Y-59399703D01*
X136800000Y-59385000D01*
X136800000Y-59085000D01*
X136800722Y-59070297D01*
X136802882Y-59055736D01*
X136806459Y-59041457D01*
X136811418Y-59027597D01*
X136817712Y-59014290D01*
X136825280Y-59001664D01*
X136834048Y-58989841D01*
X136843934Y-58978934D01*
X136854841Y-58969048D01*
X136866664Y-58960280D01*
X136879290Y-58952712D01*
X136892597Y-58946418D01*
X136906457Y-58941459D01*
X136920736Y-58937882D01*
X136935297Y-58935722D01*
X136950000Y-58935000D01*
X138600000Y-58935000D01*
X138614703Y-58935722D01*
G37*
G36*
X138614703Y-60205722D02*
G01*
X138629264Y-60207882D01*
X138643543Y-60211459D01*
X138657403Y-60216418D01*
X138670710Y-60222712D01*
X138683336Y-60230280D01*
X138695159Y-60239048D01*
X138706066Y-60248934D01*
X138715952Y-60259841D01*
X138724720Y-60271664D01*
X138732288Y-60284290D01*
X138738582Y-60297597D01*
X138743541Y-60311457D01*
X138747118Y-60325736D01*
X138749278Y-60340297D01*
X138750000Y-60355000D01*
X138750000Y-60655000D01*
X138749278Y-60669703D01*
X138747118Y-60684264D01*
X138743541Y-60698543D01*
X138738582Y-60712403D01*
X138732288Y-60725710D01*
X138724720Y-60738336D01*
X138715952Y-60750159D01*
X138706066Y-60761066D01*
X138695159Y-60770952D01*
X138683336Y-60779720D01*
X138670710Y-60787288D01*
X138657403Y-60793582D01*
X138643543Y-60798541D01*
X138629264Y-60802118D01*
X138614703Y-60804278D01*
X138600000Y-60805000D01*
X136950000Y-60805000D01*
X136935297Y-60804278D01*
X136920736Y-60802118D01*
X136906457Y-60798541D01*
X136892597Y-60793582D01*
X136879290Y-60787288D01*
X136866664Y-60779720D01*
X136854841Y-60770952D01*
X136843934Y-60761066D01*
X136834048Y-60750159D01*
X136825280Y-60738336D01*
X136817712Y-60725710D01*
X136811418Y-60712403D01*
X136806459Y-60698543D01*
X136802882Y-60684264D01*
X136800722Y-60669703D01*
X136800000Y-60655000D01*
X136800000Y-60355000D01*
X136800722Y-60340297D01*
X136802882Y-60325736D01*
X136806459Y-60311457D01*
X136811418Y-60297597D01*
X136817712Y-60284290D01*
X136825280Y-60271664D01*
X136834048Y-60259841D01*
X136843934Y-60248934D01*
X136854841Y-60239048D01*
X136866664Y-60230280D01*
X136879290Y-60222712D01*
X136892597Y-60216418D01*
X136906457Y-60211459D01*
X136920736Y-60207882D01*
X136935297Y-60205722D01*
X136950000Y-60205000D01*
X138600000Y-60205000D01*
X138614703Y-60205722D01*
G37*
G36*
X133664703Y-60205722D02*
G01*
X133679264Y-60207882D01*
X133693543Y-60211459D01*
X133707403Y-60216418D01*
X133720710Y-60222712D01*
X133733336Y-60230280D01*
X133745159Y-60239048D01*
X133756066Y-60248934D01*
X133765952Y-60259841D01*
X133774720Y-60271664D01*
X133782288Y-60284290D01*
X133788582Y-60297597D01*
X133793541Y-60311457D01*
X133797118Y-60325736D01*
X133799278Y-60340297D01*
X133800000Y-60355000D01*
X133800000Y-60655000D01*
X133799278Y-60669703D01*
X133797118Y-60684264D01*
X133793541Y-60698543D01*
X133788582Y-60712403D01*
X133782288Y-60725710D01*
X133774720Y-60738336D01*
X133765952Y-60750159D01*
X133756066Y-60761066D01*
X133745159Y-60770952D01*
X133733336Y-60779720D01*
X133720710Y-60787288D01*
X133707403Y-60793582D01*
X133693543Y-60798541D01*
X133679264Y-60802118D01*
X133664703Y-60804278D01*
X133650000Y-60805000D01*
X132000000Y-60805000D01*
X131985297Y-60804278D01*
X131970736Y-60802118D01*
X131956457Y-60798541D01*
X131942597Y-60793582D01*
X131929290Y-60787288D01*
X131916664Y-60779720D01*
X131904841Y-60770952D01*
X131893934Y-60761066D01*
X131884048Y-60750159D01*
X131875280Y-60738336D01*
X131867712Y-60725710D01*
X131861418Y-60712403D01*
X131856459Y-60698543D01*
X131852882Y-60684264D01*
X131850722Y-60669703D01*
X131850000Y-60655000D01*
X131850000Y-60355000D01*
X131850722Y-60340297D01*
X131852882Y-60325736D01*
X131856459Y-60311457D01*
X131861418Y-60297597D01*
X131867712Y-60284290D01*
X131875280Y-60271664D01*
X131884048Y-60259841D01*
X131893934Y-60248934D01*
X131904841Y-60239048D01*
X131916664Y-60230280D01*
X131929290Y-60222712D01*
X131942597Y-60216418D01*
X131956457Y-60211459D01*
X131970736Y-60207882D01*
X131985297Y-60205722D01*
X132000000Y-60205000D01*
X133650000Y-60205000D01*
X133664703Y-60205722D01*
G37*
G36*
X133664703Y-58935722D02*
G01*
X133679264Y-58937882D01*
X133693543Y-58941459D01*
X133707403Y-58946418D01*
X133720710Y-58952712D01*
X133733336Y-58960280D01*
X133745159Y-58969048D01*
X133756066Y-58978934D01*
X133765952Y-58989841D01*
X133774720Y-59001664D01*
X133782288Y-59014290D01*
X133788582Y-59027597D01*
X133793541Y-59041457D01*
X133797118Y-59055736D01*
X133799278Y-59070297D01*
X133800000Y-59085000D01*
X133800000Y-59385000D01*
X133799278Y-59399703D01*
X133797118Y-59414264D01*
X133793541Y-59428543D01*
X133788582Y-59442403D01*
X133782288Y-59455710D01*
X133774720Y-59468336D01*
X133765952Y-59480159D01*
X133756066Y-59491066D01*
X133745159Y-59500952D01*
X133733336Y-59509720D01*
X133720710Y-59517288D01*
X133707403Y-59523582D01*
X133693543Y-59528541D01*
X133679264Y-59532118D01*
X133664703Y-59534278D01*
X133650000Y-59535000D01*
X132000000Y-59535000D01*
X131985297Y-59534278D01*
X131970736Y-59532118D01*
X131956457Y-59528541D01*
X131942597Y-59523582D01*
X131929290Y-59517288D01*
X131916664Y-59509720D01*
X131904841Y-59500952D01*
X131893934Y-59491066D01*
X131884048Y-59480159D01*
X131875280Y-59468336D01*
X131867712Y-59455710D01*
X131861418Y-59442403D01*
X131856459Y-59428543D01*
X131852882Y-59414264D01*
X131850722Y-59399703D01*
X131850000Y-59385000D01*
X131850000Y-59085000D01*
X131850722Y-59070297D01*
X131852882Y-59055736D01*
X131856459Y-59041457D01*
X131861418Y-59027597D01*
X131867712Y-59014290D01*
X131875280Y-59001664D01*
X131884048Y-58989841D01*
X131893934Y-58978934D01*
X131904841Y-58969048D01*
X131916664Y-58960280D01*
X131929290Y-58952712D01*
X131942597Y-58946418D01*
X131956457Y-58941459D01*
X131970736Y-58937882D01*
X131985297Y-58935722D01*
X132000000Y-58935000D01*
X133650000Y-58935000D01*
X133664703Y-58935722D01*
G37*
G36*
X133664703Y-57665722D02*
G01*
X133679264Y-57667882D01*
X133693543Y-57671459D01*
X133707403Y-57676418D01*
X133720710Y-57682712D01*
X133733336Y-57690280D01*
X133745159Y-57699048D01*
X133756066Y-57708934D01*
X133765952Y-57719841D01*
X133774720Y-57731664D01*
X133782288Y-57744290D01*
X133788582Y-57757597D01*
X133793541Y-57771457D01*
X133797118Y-57785736D01*
X133799278Y-57800297D01*
X133800000Y-57815000D01*
X133800000Y-58115000D01*
X133799278Y-58129703D01*
X133797118Y-58144264D01*
X133793541Y-58158543D01*
X133788582Y-58172403D01*
X133782288Y-58185710D01*
X133774720Y-58198336D01*
X133765952Y-58210159D01*
X133756066Y-58221066D01*
X133745159Y-58230952D01*
X133733336Y-58239720D01*
X133720710Y-58247288D01*
X133707403Y-58253582D01*
X133693543Y-58258541D01*
X133679264Y-58262118D01*
X133664703Y-58264278D01*
X133650000Y-58265000D01*
X132000000Y-58265000D01*
X131985297Y-58264278D01*
X131970736Y-58262118D01*
X131956457Y-58258541D01*
X131942597Y-58253582D01*
X131929290Y-58247288D01*
X131916664Y-58239720D01*
X131904841Y-58230952D01*
X131893934Y-58221066D01*
X131884048Y-58210159D01*
X131875280Y-58198336D01*
X131867712Y-58185710D01*
X131861418Y-58172403D01*
X131856459Y-58158543D01*
X131852882Y-58144264D01*
X131850722Y-58129703D01*
X131850000Y-58115000D01*
X131850000Y-57815000D01*
X131850722Y-57800297D01*
X131852882Y-57785736D01*
X131856459Y-57771457D01*
X131861418Y-57757597D01*
X131867712Y-57744290D01*
X131875280Y-57731664D01*
X131884048Y-57719841D01*
X131893934Y-57708934D01*
X131904841Y-57699048D01*
X131916664Y-57690280D01*
X131929290Y-57682712D01*
X131942597Y-57676418D01*
X131956457Y-57671459D01*
X131970736Y-57667882D01*
X131985297Y-57665722D01*
X132000000Y-57665000D01*
X133650000Y-57665000D01*
X133664703Y-57665722D01*
G37*
G36*
X133664703Y-56395722D02*
G01*
X133679264Y-56397882D01*
X133693543Y-56401459D01*
X133707403Y-56406418D01*
X133720710Y-56412712D01*
X133733336Y-56420280D01*
X133745159Y-56429048D01*
X133756066Y-56438934D01*
X133765952Y-56449841D01*
X133774720Y-56461664D01*
X133782288Y-56474290D01*
X133788582Y-56487597D01*
X133793541Y-56501457D01*
X133797118Y-56515736D01*
X133799278Y-56530297D01*
X133800000Y-56545000D01*
X133800000Y-56845000D01*
X133799278Y-56859703D01*
X133797118Y-56874264D01*
X133793541Y-56888543D01*
X133788582Y-56902403D01*
X133782288Y-56915710D01*
X133774720Y-56928336D01*
X133765952Y-56940159D01*
X133756066Y-56951066D01*
X133745159Y-56960952D01*
X133733336Y-56969720D01*
X133720710Y-56977288D01*
X133707403Y-56983582D01*
X133693543Y-56988541D01*
X133679264Y-56992118D01*
X133664703Y-56994278D01*
X133650000Y-56995000D01*
X132000000Y-56995000D01*
X131985297Y-56994278D01*
X131970736Y-56992118D01*
X131956457Y-56988541D01*
X131942597Y-56983582D01*
X131929290Y-56977288D01*
X131916664Y-56969720D01*
X131904841Y-56960952D01*
X131893934Y-56951066D01*
X131884048Y-56940159D01*
X131875280Y-56928336D01*
X131867712Y-56915710D01*
X131861418Y-56902403D01*
X131856459Y-56888543D01*
X131852882Y-56874264D01*
X131850722Y-56859703D01*
X131850000Y-56845000D01*
X131850000Y-56545000D01*
X131850722Y-56530297D01*
X131852882Y-56515736D01*
X131856459Y-56501457D01*
X131861418Y-56487597D01*
X131867712Y-56474290D01*
X131875280Y-56461664D01*
X131884048Y-56449841D01*
X131893934Y-56438934D01*
X131904841Y-56429048D01*
X131916664Y-56420280D01*
X131929290Y-56412712D01*
X131942597Y-56406418D01*
X131956457Y-56401459D01*
X131970736Y-56397882D01*
X131985297Y-56395722D01*
X132000000Y-56395000D01*
X133650000Y-56395000D01*
X133664703Y-56395722D01*
G37*
D14*
X128050000Y-57550000D03*
X127100000Y-57550000D03*
X129000000Y-57550000D03*
X129000000Y-59750000D03*
X128050000Y-59750000D03*
X127100000Y-59750000D03*
D13*
G36*
X136012252Y-65175602D02*
G01*
X136024386Y-65177402D01*
X136036286Y-65180382D01*
X136047835Y-65184515D01*
X136058925Y-65189760D01*
X136069446Y-65196066D01*
X136079299Y-65203374D01*
X136088388Y-65211612D01*
X136096626Y-65220701D01*
X136103934Y-65230554D01*
X136110240Y-65241075D01*
X136115485Y-65252165D01*
X136119618Y-65263714D01*
X136122598Y-65275614D01*
X136124398Y-65287748D01*
X136125000Y-65300000D01*
X136125000Y-65550000D01*
X136124398Y-65562252D01*
X136122598Y-65574386D01*
X136119618Y-65586286D01*
X136115485Y-65597835D01*
X136110240Y-65608925D01*
X136103934Y-65619446D01*
X136096626Y-65629299D01*
X136088388Y-65638388D01*
X136079299Y-65646626D01*
X136069446Y-65653934D01*
X136058925Y-65660240D01*
X136047835Y-65665485D01*
X136036286Y-65669618D01*
X136024386Y-65672598D01*
X136012252Y-65674398D01*
X136000000Y-65675000D01*
X134625000Y-65675000D01*
X134612748Y-65674398D01*
X134600614Y-65672598D01*
X134588714Y-65669618D01*
X134577165Y-65665485D01*
X134566075Y-65660240D01*
X134555554Y-65653934D01*
X134545701Y-65646626D01*
X134536612Y-65638388D01*
X134528374Y-65629299D01*
X134521066Y-65619446D01*
X134514760Y-65608925D01*
X134509515Y-65597835D01*
X134505382Y-65586286D01*
X134502402Y-65574386D01*
X134500602Y-65562252D01*
X134500000Y-65550000D01*
X134500000Y-65300000D01*
X134500602Y-65287748D01*
X134502402Y-65275614D01*
X134505382Y-65263714D01*
X134509515Y-65252165D01*
X134514760Y-65241075D01*
X134521066Y-65230554D01*
X134528374Y-65220701D01*
X134536612Y-65211612D01*
X134545701Y-65203374D01*
X134555554Y-65196066D01*
X134566075Y-65189760D01*
X134577165Y-65184515D01*
X134588714Y-65180382D01*
X134600614Y-65177402D01*
X134612748Y-65175602D01*
X134625000Y-65175000D01*
X136000000Y-65175000D01*
X136012252Y-65175602D01*
G37*
G36*
X136012252Y-65825602D02*
G01*
X136024386Y-65827402D01*
X136036286Y-65830382D01*
X136047835Y-65834515D01*
X136058925Y-65839760D01*
X136069446Y-65846066D01*
X136079299Y-65853374D01*
X136088388Y-65861612D01*
X136096626Y-65870701D01*
X136103934Y-65880554D01*
X136110240Y-65891075D01*
X136115485Y-65902165D01*
X136119618Y-65913714D01*
X136122598Y-65925614D01*
X136124398Y-65937748D01*
X136125000Y-65950000D01*
X136125000Y-66200000D01*
X136124398Y-66212252D01*
X136122598Y-66224386D01*
X136119618Y-66236286D01*
X136115485Y-66247835D01*
X136110240Y-66258925D01*
X136103934Y-66269446D01*
X136096626Y-66279299D01*
X136088388Y-66288388D01*
X136079299Y-66296626D01*
X136069446Y-66303934D01*
X136058925Y-66310240D01*
X136047835Y-66315485D01*
X136036286Y-66319618D01*
X136024386Y-66322598D01*
X136012252Y-66324398D01*
X136000000Y-66325000D01*
X134625000Y-66325000D01*
X134612748Y-66324398D01*
X134600614Y-66322598D01*
X134588714Y-66319618D01*
X134577165Y-66315485D01*
X134566075Y-66310240D01*
X134555554Y-66303934D01*
X134545701Y-66296626D01*
X134536612Y-66288388D01*
X134528374Y-66279299D01*
X134521066Y-66269446D01*
X134514760Y-66258925D01*
X134509515Y-66247835D01*
X134505382Y-66236286D01*
X134502402Y-66224386D01*
X134500602Y-66212252D01*
X134500000Y-66200000D01*
X134500000Y-65950000D01*
X134500602Y-65937748D01*
X134502402Y-65925614D01*
X134505382Y-65913714D01*
X134509515Y-65902165D01*
X134514760Y-65891075D01*
X134521066Y-65880554D01*
X134528374Y-65870701D01*
X134536612Y-65861612D01*
X134545701Y-65853374D01*
X134555554Y-65846066D01*
X134566075Y-65839760D01*
X134577165Y-65834515D01*
X134588714Y-65830382D01*
X134600614Y-65827402D01*
X134612748Y-65825602D01*
X134625000Y-65825000D01*
X136000000Y-65825000D01*
X136012252Y-65825602D01*
G37*
G36*
X136012252Y-66475602D02*
G01*
X136024386Y-66477402D01*
X136036286Y-66480382D01*
X136047835Y-66484515D01*
X136058925Y-66489760D01*
X136069446Y-66496066D01*
X136079299Y-66503374D01*
X136088388Y-66511612D01*
X136096626Y-66520701D01*
X136103934Y-66530554D01*
X136110240Y-66541075D01*
X136115485Y-66552165D01*
X136119618Y-66563714D01*
X136122598Y-66575614D01*
X136124398Y-66587748D01*
X136125000Y-66600000D01*
X136125000Y-66850000D01*
X136124398Y-66862252D01*
X136122598Y-66874386D01*
X136119618Y-66886286D01*
X136115485Y-66897835D01*
X136110240Y-66908925D01*
X136103934Y-66919446D01*
X136096626Y-66929299D01*
X136088388Y-66938388D01*
X136079299Y-66946626D01*
X136069446Y-66953934D01*
X136058925Y-66960240D01*
X136047835Y-66965485D01*
X136036286Y-66969618D01*
X136024386Y-66972598D01*
X136012252Y-66974398D01*
X136000000Y-66975000D01*
X134625000Y-66975000D01*
X134612748Y-66974398D01*
X134600614Y-66972598D01*
X134588714Y-66969618D01*
X134577165Y-66965485D01*
X134566075Y-66960240D01*
X134555554Y-66953934D01*
X134545701Y-66946626D01*
X134536612Y-66938388D01*
X134528374Y-66929299D01*
X134521066Y-66919446D01*
X134514760Y-66908925D01*
X134509515Y-66897835D01*
X134505382Y-66886286D01*
X134502402Y-66874386D01*
X134500602Y-66862252D01*
X134500000Y-66850000D01*
X134500000Y-66600000D01*
X134500602Y-66587748D01*
X134502402Y-66575614D01*
X134505382Y-66563714D01*
X134509515Y-66552165D01*
X134514760Y-66541075D01*
X134521066Y-66530554D01*
X134528374Y-66520701D01*
X134536612Y-66511612D01*
X134545701Y-66503374D01*
X134555554Y-66496066D01*
X134566075Y-66489760D01*
X134577165Y-66484515D01*
X134588714Y-66480382D01*
X134600614Y-66477402D01*
X134612748Y-66475602D01*
X134625000Y-66475000D01*
X136000000Y-66475000D01*
X136012252Y-66475602D01*
G37*
G36*
X136012252Y-67125602D02*
G01*
X136024386Y-67127402D01*
X136036286Y-67130382D01*
X136047835Y-67134515D01*
X136058925Y-67139760D01*
X136069446Y-67146066D01*
X136079299Y-67153374D01*
X136088388Y-67161612D01*
X136096626Y-67170701D01*
X136103934Y-67180554D01*
X136110240Y-67191075D01*
X136115485Y-67202165D01*
X136119618Y-67213714D01*
X136122598Y-67225614D01*
X136124398Y-67237748D01*
X136125000Y-67250000D01*
X136125000Y-67500000D01*
X136124398Y-67512252D01*
X136122598Y-67524386D01*
X136119618Y-67536286D01*
X136115485Y-67547835D01*
X136110240Y-67558925D01*
X136103934Y-67569446D01*
X136096626Y-67579299D01*
X136088388Y-67588388D01*
X136079299Y-67596626D01*
X136069446Y-67603934D01*
X136058925Y-67610240D01*
X136047835Y-67615485D01*
X136036286Y-67619618D01*
X136024386Y-67622598D01*
X136012252Y-67624398D01*
X136000000Y-67625000D01*
X134625000Y-67625000D01*
X134612748Y-67624398D01*
X134600614Y-67622598D01*
X134588714Y-67619618D01*
X134577165Y-67615485D01*
X134566075Y-67610240D01*
X134555554Y-67603934D01*
X134545701Y-67596626D01*
X134536612Y-67588388D01*
X134528374Y-67579299D01*
X134521066Y-67569446D01*
X134514760Y-67558925D01*
X134509515Y-67547835D01*
X134505382Y-67536286D01*
X134502402Y-67524386D01*
X134500602Y-67512252D01*
X134500000Y-67500000D01*
X134500000Y-67250000D01*
X134500602Y-67237748D01*
X134502402Y-67225614D01*
X134505382Y-67213714D01*
X134509515Y-67202165D01*
X134514760Y-67191075D01*
X134521066Y-67180554D01*
X134528374Y-67170701D01*
X134536612Y-67161612D01*
X134545701Y-67153374D01*
X134555554Y-67146066D01*
X134566075Y-67139760D01*
X134577165Y-67134515D01*
X134588714Y-67130382D01*
X134600614Y-67127402D01*
X134612748Y-67125602D01*
X134625000Y-67125000D01*
X136000000Y-67125000D01*
X136012252Y-67125602D01*
G37*
G36*
X131787252Y-67125602D02*
G01*
X131799386Y-67127402D01*
X131811286Y-67130382D01*
X131822835Y-67134515D01*
X131833925Y-67139760D01*
X131844446Y-67146066D01*
X131854299Y-67153374D01*
X131863388Y-67161612D01*
X131871626Y-67170701D01*
X131878934Y-67180554D01*
X131885240Y-67191075D01*
X131890485Y-67202165D01*
X131894618Y-67213714D01*
X131897598Y-67225614D01*
X131899398Y-67237748D01*
X131900000Y-67250000D01*
X131900000Y-67500000D01*
X131899398Y-67512252D01*
X131897598Y-67524386D01*
X131894618Y-67536286D01*
X131890485Y-67547835D01*
X131885240Y-67558925D01*
X131878934Y-67569446D01*
X131871626Y-67579299D01*
X131863388Y-67588388D01*
X131854299Y-67596626D01*
X131844446Y-67603934D01*
X131833925Y-67610240D01*
X131822835Y-67615485D01*
X131811286Y-67619618D01*
X131799386Y-67622598D01*
X131787252Y-67624398D01*
X131775000Y-67625000D01*
X130400000Y-67625000D01*
X130387748Y-67624398D01*
X130375614Y-67622598D01*
X130363714Y-67619618D01*
X130352165Y-67615485D01*
X130341075Y-67610240D01*
X130330554Y-67603934D01*
X130320701Y-67596626D01*
X130311612Y-67588388D01*
X130303374Y-67579299D01*
X130296066Y-67569446D01*
X130289760Y-67558925D01*
X130284515Y-67547835D01*
X130280382Y-67536286D01*
X130277402Y-67524386D01*
X130275602Y-67512252D01*
X130275000Y-67500000D01*
X130275000Y-67250000D01*
X130275602Y-67237748D01*
X130277402Y-67225614D01*
X130280382Y-67213714D01*
X130284515Y-67202165D01*
X130289760Y-67191075D01*
X130296066Y-67180554D01*
X130303374Y-67170701D01*
X130311612Y-67161612D01*
X130320701Y-67153374D01*
X130330554Y-67146066D01*
X130341075Y-67139760D01*
X130352165Y-67134515D01*
X130363714Y-67130382D01*
X130375614Y-67127402D01*
X130387748Y-67125602D01*
X130400000Y-67125000D01*
X131775000Y-67125000D01*
X131787252Y-67125602D01*
G37*
G36*
X131787252Y-66475602D02*
G01*
X131799386Y-66477402D01*
X131811286Y-66480382D01*
X131822835Y-66484515D01*
X131833925Y-66489760D01*
X131844446Y-66496066D01*
X131854299Y-66503374D01*
X131863388Y-66511612D01*
X131871626Y-66520701D01*
X131878934Y-66530554D01*
X131885240Y-66541075D01*
X131890485Y-66552165D01*
X131894618Y-66563714D01*
X131897598Y-66575614D01*
X131899398Y-66587748D01*
X131900000Y-66600000D01*
X131900000Y-66850000D01*
X131899398Y-66862252D01*
X131897598Y-66874386D01*
X131894618Y-66886286D01*
X131890485Y-66897835D01*
X131885240Y-66908925D01*
X131878934Y-66919446D01*
X131871626Y-66929299D01*
X131863388Y-66938388D01*
X131854299Y-66946626D01*
X131844446Y-66953934D01*
X131833925Y-66960240D01*
X131822835Y-66965485D01*
X131811286Y-66969618D01*
X131799386Y-66972598D01*
X131787252Y-66974398D01*
X131775000Y-66975000D01*
X130400000Y-66975000D01*
X130387748Y-66974398D01*
X130375614Y-66972598D01*
X130363714Y-66969618D01*
X130352165Y-66965485D01*
X130341075Y-66960240D01*
X130330554Y-66953934D01*
X130320701Y-66946626D01*
X130311612Y-66938388D01*
X130303374Y-66929299D01*
X130296066Y-66919446D01*
X130289760Y-66908925D01*
X130284515Y-66897835D01*
X130280382Y-66886286D01*
X130277402Y-66874386D01*
X130275602Y-66862252D01*
X130275000Y-66850000D01*
X130275000Y-66600000D01*
X130275602Y-66587748D01*
X130277402Y-66575614D01*
X130280382Y-66563714D01*
X130284515Y-66552165D01*
X130289760Y-66541075D01*
X130296066Y-66530554D01*
X130303374Y-66520701D01*
X130311612Y-66511612D01*
X130320701Y-66503374D01*
X130330554Y-66496066D01*
X130341075Y-66489760D01*
X130352165Y-66484515D01*
X130363714Y-66480382D01*
X130375614Y-66477402D01*
X130387748Y-66475602D01*
X130400000Y-66475000D01*
X131775000Y-66475000D01*
X131787252Y-66475602D01*
G37*
G36*
X131787252Y-65825602D02*
G01*
X131799386Y-65827402D01*
X131811286Y-65830382D01*
X131822835Y-65834515D01*
X131833925Y-65839760D01*
X131844446Y-65846066D01*
X131854299Y-65853374D01*
X131863388Y-65861612D01*
X131871626Y-65870701D01*
X131878934Y-65880554D01*
X131885240Y-65891075D01*
X131890485Y-65902165D01*
X131894618Y-65913714D01*
X131897598Y-65925614D01*
X131899398Y-65937748D01*
X131900000Y-65950000D01*
X131900000Y-66200000D01*
X131899398Y-66212252D01*
X131897598Y-66224386D01*
X131894618Y-66236286D01*
X131890485Y-66247835D01*
X131885240Y-66258925D01*
X131878934Y-66269446D01*
X131871626Y-66279299D01*
X131863388Y-66288388D01*
X131854299Y-66296626D01*
X131844446Y-66303934D01*
X131833925Y-66310240D01*
X131822835Y-66315485D01*
X131811286Y-66319618D01*
X131799386Y-66322598D01*
X131787252Y-66324398D01*
X131775000Y-66325000D01*
X130400000Y-66325000D01*
X130387748Y-66324398D01*
X130375614Y-66322598D01*
X130363714Y-66319618D01*
X130352165Y-66315485D01*
X130341075Y-66310240D01*
X130330554Y-66303934D01*
X130320701Y-66296626D01*
X130311612Y-66288388D01*
X130303374Y-66279299D01*
X130296066Y-66269446D01*
X130289760Y-66258925D01*
X130284515Y-66247835D01*
X130280382Y-66236286D01*
X130277402Y-66224386D01*
X130275602Y-66212252D01*
X130275000Y-66200000D01*
X130275000Y-65950000D01*
X130275602Y-65937748D01*
X130277402Y-65925614D01*
X130280382Y-65913714D01*
X130284515Y-65902165D01*
X130289760Y-65891075D01*
X130296066Y-65880554D01*
X130303374Y-65870701D01*
X130311612Y-65861612D01*
X130320701Y-65853374D01*
X130330554Y-65846066D01*
X130341075Y-65839760D01*
X130352165Y-65834515D01*
X130363714Y-65830382D01*
X130375614Y-65827402D01*
X130387748Y-65825602D01*
X130400000Y-65825000D01*
X131775000Y-65825000D01*
X131787252Y-65825602D01*
G37*
G36*
X131787252Y-65175602D02*
G01*
X131799386Y-65177402D01*
X131811286Y-65180382D01*
X131822835Y-65184515D01*
X131833925Y-65189760D01*
X131844446Y-65196066D01*
X131854299Y-65203374D01*
X131863388Y-65211612D01*
X131871626Y-65220701D01*
X131878934Y-65230554D01*
X131885240Y-65241075D01*
X131890485Y-65252165D01*
X131894618Y-65263714D01*
X131897598Y-65275614D01*
X131899398Y-65287748D01*
X131900000Y-65300000D01*
X131900000Y-65550000D01*
X131899398Y-65562252D01*
X131897598Y-65574386D01*
X131894618Y-65586286D01*
X131890485Y-65597835D01*
X131885240Y-65608925D01*
X131878934Y-65619446D01*
X131871626Y-65629299D01*
X131863388Y-65638388D01*
X131854299Y-65646626D01*
X131844446Y-65653934D01*
X131833925Y-65660240D01*
X131822835Y-65665485D01*
X131811286Y-65669618D01*
X131799386Y-65672598D01*
X131787252Y-65674398D01*
X131775000Y-65675000D01*
X130400000Y-65675000D01*
X130387748Y-65674398D01*
X130375614Y-65672598D01*
X130363714Y-65669618D01*
X130352165Y-65665485D01*
X130341075Y-65660240D01*
X130330554Y-65653934D01*
X130320701Y-65646626D01*
X130311612Y-65638388D01*
X130303374Y-65629299D01*
X130296066Y-65619446D01*
X130289760Y-65608925D01*
X130284515Y-65597835D01*
X130280382Y-65586286D01*
X130277402Y-65574386D01*
X130275602Y-65562252D01*
X130275000Y-65550000D01*
X130275000Y-65300000D01*
X130275602Y-65287748D01*
X130277402Y-65275614D01*
X130280382Y-65263714D01*
X130284515Y-65252165D01*
X130289760Y-65241075D01*
X130296066Y-65230554D01*
X130303374Y-65220701D01*
X130311612Y-65211612D01*
X130320701Y-65203374D01*
X130330554Y-65196066D01*
X130341075Y-65189760D01*
X130352165Y-65184515D01*
X130363714Y-65180382D01*
X130375614Y-65177402D01*
X130387748Y-65175602D01*
X130400000Y-65175000D01*
X131775000Y-65175000D01*
X131787252Y-65175602D01*
G37*
D14*
X120000000Y-91600000D03*
X120950000Y-91600000D03*
X119050000Y-91600000D03*
X119050000Y-89400000D03*
X120000000Y-89400000D03*
X120950000Y-89400000D03*
X140000000Y-91600000D03*
X140950000Y-91600000D03*
X139050000Y-91600000D03*
X139050000Y-89400000D03*
X140000000Y-89400000D03*
X140950000Y-89400000D03*
D15*
X133400000Y-77400000D03*
X133400000Y-76450000D03*
X133400000Y-78350000D03*
X131200000Y-78350000D03*
X131200000Y-77400000D03*
X131200000Y-76450000D03*
D16*
X121723223Y-84787436D03*
X120773223Y-82787436D03*
X122673223Y-82787436D03*
D17*
X117587437Y-72276776D03*
X118087437Y-72276776D03*
X118587437Y-72276776D03*
X119087437Y-72276776D03*
X119587437Y-72276776D03*
X120087437Y-72276776D03*
X120587437Y-72276776D03*
X121087437Y-72276776D03*
X121587437Y-72276776D03*
X122087437Y-72276776D03*
X122587437Y-72276776D03*
X123087437Y-72276776D03*
D18*
X124687437Y-73876776D03*
X124687437Y-74376776D03*
X124687437Y-74876776D03*
X124687437Y-75376776D03*
X124687437Y-75876776D03*
X124687437Y-76376776D03*
X124687437Y-76876776D03*
X124687437Y-77376776D03*
X124687437Y-77876776D03*
X124687437Y-78376776D03*
X124687437Y-78876776D03*
X124687437Y-79376776D03*
D17*
X123087437Y-80976776D03*
X122587437Y-80976776D03*
X122087437Y-80976776D03*
X121587437Y-80976776D03*
X121087437Y-80976776D03*
X120587437Y-80976776D03*
X120087437Y-80976776D03*
X119587437Y-80976776D03*
X119087437Y-80976776D03*
X118587437Y-80976776D03*
X118087437Y-80976776D03*
X117587437Y-80976776D03*
D18*
X115987437Y-79376776D03*
X115987437Y-78876776D03*
X115987437Y-78376776D03*
X115987437Y-77876776D03*
X115987437Y-77376776D03*
X115987437Y-76876776D03*
X115987437Y-76376776D03*
X115987437Y-75876776D03*
X115987437Y-75376776D03*
X115987437Y-74876776D03*
X115987437Y-74376776D03*
X115987437Y-73876776D03*
D15*
X121650000Y-58450000D03*
X121650000Y-59400000D03*
X121650000Y-57500000D03*
X123850000Y-57500000D03*
X123850000Y-58450000D03*
X123850000Y-59400000D03*
D13*
G36*
X120173800Y-68350000D02*
G01*
X119173800Y-67650000D01*
X119173800Y-66850000D01*
X120173800Y-66150000D01*
X120173800Y-68350000D01*
G37*
D19*
X121083500Y-67250000D03*
D20*
X118270000Y-68750000D03*
D21*
X118416500Y-67250000D03*
D20*
X118270000Y-65750000D03*
D13*
G36*
X121992000Y-66150000D02*
G01*
X122842000Y-66750000D01*
X122842000Y-67750000D01*
X121992000Y-68350000D01*
X121992000Y-66150000D01*
G37*
D22*
X113775000Y-66225000D03*
X113775000Y-70375000D03*
X111625000Y-66225000D03*
X111625000Y-70375000D03*
D10*
X127930000Y-55800000D03*
X128870000Y-55800000D03*
X125830000Y-55800000D03*
X126770000Y-55800000D03*
D23*
X141900000Y-64400000D03*
X141900000Y-63460000D03*
X141900000Y-62570000D03*
X141900000Y-61630000D03*
D24*
X140550000Y-58000000D03*
X142450000Y-58000000D03*
D10*
X138070000Y-63000000D03*
X137130000Y-63000000D03*
X137430000Y-83400000D03*
X138370000Y-83400000D03*
X134230000Y-62100000D03*
X135170000Y-62100000D03*
D23*
X136100000Y-62970000D03*
X136100000Y-62030000D03*
D10*
X137030000Y-66400000D03*
X137970000Y-66400000D03*
X137030000Y-65400000D03*
X137970000Y-65400000D03*
X134130000Y-63100000D03*
X135070000Y-63100000D03*
X134130000Y-64100000D03*
X135070000Y-64100000D03*
D23*
X129500000Y-64430000D03*
X129500000Y-65370000D03*
D13*
G36*
X115667695Y-93656569D02*
G01*
X115243431Y-93232305D01*
X115596985Y-92878751D01*
X116021249Y-93303015D01*
X115667695Y-93656569D01*
G37*
G36*
X115003015Y-94321249D02*
G01*
X114578751Y-93896985D01*
X114932305Y-93543431D01*
X115356569Y-93967695D01*
X115003015Y-94321249D01*
G37*
G36*
X124756569Y-93332305D02*
G01*
X124332305Y-93756569D01*
X123978751Y-93403015D01*
X124403015Y-92978751D01*
X124756569Y-93332305D01*
G37*
G36*
X125421249Y-93996985D02*
G01*
X124996985Y-94421249D01*
X124643431Y-94067695D01*
X125067695Y-93643431D01*
X125421249Y-93996985D01*
G37*
G36*
X135667695Y-93756569D02*
G01*
X135243431Y-93332305D01*
X135596985Y-92978751D01*
X136021249Y-93403015D01*
X135667695Y-93756569D01*
G37*
G36*
X135003015Y-94421249D02*
G01*
X134578751Y-93996985D01*
X134932305Y-93643431D01*
X135356569Y-94067695D01*
X135003015Y-94421249D01*
G37*
G36*
X144756569Y-93332305D02*
G01*
X144332305Y-93756569D01*
X143978751Y-93403015D01*
X144403015Y-92978751D01*
X144756569Y-93332305D01*
G37*
G36*
X145421249Y-93996985D02*
G01*
X144996985Y-94421249D01*
X144643431Y-94067695D01*
X145067695Y-93643431D01*
X145421249Y-93996985D01*
G37*
D23*
X131200000Y-64170000D03*
X131200000Y-63230000D03*
X129500000Y-62530000D03*
X129500000Y-63470000D03*
X128000000Y-65870000D03*
X128000000Y-64930000D03*
X130600000Y-61330000D03*
X130600000Y-62270000D03*
X128000000Y-63570000D03*
X128000000Y-62630000D03*
X130800000Y-57870000D03*
X130800000Y-56930000D03*
D10*
X128630000Y-61500000D03*
X129570000Y-61500000D03*
X137430000Y-71400000D03*
X138370000Y-71400000D03*
D23*
X119473224Y-83730000D03*
X119473224Y-84670000D03*
X118700000Y-60370000D03*
X118700000Y-59430000D03*
X118750000Y-56170000D03*
X118750000Y-55230000D03*
D10*
X116120000Y-84400000D03*
X115180000Y-84400000D03*
X116120000Y-83400000D03*
X115180000Y-83400000D03*
X116120000Y-82400000D03*
X115180000Y-82400000D03*
X118142563Y-70555709D03*
X119082563Y-70555709D03*
D25*
X147250000Y-58000000D03*
X147250000Y-53750000D03*
X147250000Y-62250000D03*
D26*
X117000000Y-55550000D03*
X117000000Y-60350000D03*
X117000000Y-61150000D03*
X117000000Y-54750000D03*
X117000000Y-61150000D03*
X117000000Y-60350000D03*
D27*
X117000000Y-59700000D03*
X117000000Y-59200000D03*
X117000000Y-58700000D03*
X117000000Y-58200000D03*
X117000000Y-57700000D03*
X117000000Y-57200000D03*
X117000000Y-56700000D03*
X117000000Y-56200000D03*
D26*
X117000000Y-55550000D03*
X117000000Y-54750000D03*
D28*
X140200000Y-65600000D03*
X140200000Y-62800000D03*
D29*
X113450000Y-85300000D03*
X113450000Y-82300000D03*
X111950000Y-82300000D03*
X111950000Y-85300000D03*
D10*
X137130000Y-62000000D03*
X138070000Y-62000000D03*
X132230000Y-64100000D03*
X133170000Y-64100000D03*
D11*
X133150000Y-62100000D03*
X131650000Y-62100000D03*
D30*
X130800000Y-58850000D03*
X130800000Y-60350000D03*
D23*
X129200000Y-67670000D03*
X129200000Y-66730000D03*
X124000000Y-83430000D03*
X124000000Y-84370000D03*
D10*
X126070000Y-72900000D03*
X125130000Y-72900000D03*
D23*
X124000000Y-82070000D03*
X124000000Y-81130000D03*
D30*
X116500000Y-70400000D03*
X116500000Y-71900000D03*
X116500000Y-67750000D03*
X116500000Y-69250000D03*
D10*
X112132155Y-79748097D03*
X113072155Y-79748097D03*
D30*
X116500000Y-66750000D03*
X116500000Y-65250000D03*
D10*
X112155127Y-78664466D03*
X113095127Y-78664466D03*
X113072155Y-73384136D03*
X112132155Y-73384136D03*
M02*
