G04 #@! TF.GenerationSoftware,KiCad,Pcbnew,5.1.5+dfsg1-2build2*
G04 #@! TF.CreationDate,2020-09-27T17:25:33+02:00*
G04 #@! TF.ProjectId,tdr,7464722e-6b69-4636-9164-5f7063625858,rev?*
G04 #@! TF.SameCoordinates,Original*
G04 #@! TF.FileFunction,Soldermask,Top*
G04 #@! TF.FilePolarity,Negative*
%FSLAX46Y46*%
G04 Gerber Fmt 4.6, Leading zero omitted, Abs format (unit mm)*
G04 Created by KiCad (PCBNEW 5.1.5+dfsg1-2build2) date 2020-09-27 17:25:33*
%MOMM*%
%LPD*%
G04 APERTURE LIST*
%ADD10C,0.100000*%
G04 APERTURE END LIST*
D10*
G36*
X147731560Y-100429064D02*
G01*
X147883027Y-100459193D01*
X148097045Y-100547842D01*
X148097046Y-100547843D01*
X148289654Y-100676539D01*
X148453461Y-100840346D01*
X148539258Y-100968751D01*
X148582158Y-101032955D01*
X148670807Y-101246973D01*
X148716000Y-101474174D01*
X148716000Y-101705826D01*
X148670807Y-101933027D01*
X148582158Y-102147045D01*
X148582157Y-102147046D01*
X148453461Y-102339654D01*
X148289654Y-102503461D01*
X148161249Y-102589258D01*
X148097045Y-102632158D01*
X147883027Y-102720807D01*
X147731560Y-102750936D01*
X147655827Y-102766000D01*
X147424173Y-102766000D01*
X147348440Y-102750936D01*
X147196973Y-102720807D01*
X146982955Y-102632158D01*
X146918751Y-102589258D01*
X146790346Y-102503461D01*
X146626539Y-102339654D01*
X146497843Y-102147046D01*
X146497842Y-102147045D01*
X146409193Y-101933027D01*
X146364000Y-101705826D01*
X146364000Y-101474174D01*
X146409193Y-101246973D01*
X146497842Y-101032955D01*
X146540742Y-100968751D01*
X146626539Y-100840346D01*
X146790346Y-100676539D01*
X146982954Y-100547843D01*
X146982955Y-100547842D01*
X147196973Y-100459193D01*
X147348440Y-100429064D01*
X147424173Y-100414000D01*
X147655827Y-100414000D01*
X147731560Y-100429064D01*
G37*
G36*
X142651560Y-100429064D02*
G01*
X142803027Y-100459193D01*
X143017045Y-100547842D01*
X143017046Y-100547843D01*
X143209654Y-100676539D01*
X143373461Y-100840346D01*
X143459258Y-100968751D01*
X143502158Y-101032955D01*
X143590807Y-101246973D01*
X143636000Y-101474174D01*
X143636000Y-101705826D01*
X143590807Y-101933027D01*
X143502158Y-102147045D01*
X143502157Y-102147046D01*
X143373461Y-102339654D01*
X143209654Y-102503461D01*
X143081249Y-102589258D01*
X143017045Y-102632158D01*
X142803027Y-102720807D01*
X142651560Y-102750936D01*
X142575827Y-102766000D01*
X142344173Y-102766000D01*
X142268440Y-102750936D01*
X142116973Y-102720807D01*
X141902955Y-102632158D01*
X141838751Y-102589258D01*
X141710346Y-102503461D01*
X141546539Y-102339654D01*
X141417843Y-102147046D01*
X141417842Y-102147045D01*
X141329193Y-101933027D01*
X141284000Y-101705826D01*
X141284000Y-101474174D01*
X141329193Y-101246973D01*
X141417842Y-101032955D01*
X141460742Y-100968751D01*
X141546539Y-100840346D01*
X141710346Y-100676539D01*
X141902954Y-100547843D01*
X141902955Y-100547842D01*
X142116973Y-100459193D01*
X142268440Y-100429064D01*
X142344173Y-100414000D01*
X142575827Y-100414000D01*
X142651560Y-100429064D01*
G37*
G36*
X127731560Y-100429064D02*
G01*
X127883027Y-100459193D01*
X128097045Y-100547842D01*
X128097046Y-100547843D01*
X128289654Y-100676539D01*
X128453461Y-100840346D01*
X128539258Y-100968751D01*
X128582158Y-101032955D01*
X128670807Y-101246973D01*
X128716000Y-101474174D01*
X128716000Y-101705826D01*
X128670807Y-101933027D01*
X128582158Y-102147045D01*
X128582157Y-102147046D01*
X128453461Y-102339654D01*
X128289654Y-102503461D01*
X128161249Y-102589258D01*
X128097045Y-102632158D01*
X127883027Y-102720807D01*
X127731560Y-102750936D01*
X127655827Y-102766000D01*
X127424173Y-102766000D01*
X127348440Y-102750936D01*
X127196973Y-102720807D01*
X126982955Y-102632158D01*
X126918751Y-102589258D01*
X126790346Y-102503461D01*
X126626539Y-102339654D01*
X126497843Y-102147046D01*
X126497842Y-102147045D01*
X126409193Y-101933027D01*
X126364000Y-101705826D01*
X126364000Y-101474174D01*
X126409193Y-101246973D01*
X126497842Y-101032955D01*
X126540742Y-100968751D01*
X126626539Y-100840346D01*
X126790346Y-100676539D01*
X126982954Y-100547843D01*
X126982955Y-100547842D01*
X127196973Y-100459193D01*
X127348440Y-100429064D01*
X127424173Y-100414000D01*
X127655827Y-100414000D01*
X127731560Y-100429064D01*
G37*
G36*
X122651560Y-100429064D02*
G01*
X122803027Y-100459193D01*
X123017045Y-100547842D01*
X123017046Y-100547843D01*
X123209654Y-100676539D01*
X123373461Y-100840346D01*
X123459258Y-100968751D01*
X123502158Y-101032955D01*
X123590807Y-101246973D01*
X123636000Y-101474174D01*
X123636000Y-101705826D01*
X123590807Y-101933027D01*
X123502158Y-102147045D01*
X123502157Y-102147046D01*
X123373461Y-102339654D01*
X123209654Y-102503461D01*
X123081249Y-102589258D01*
X123017045Y-102632158D01*
X122803027Y-102720807D01*
X122651560Y-102750936D01*
X122575827Y-102766000D01*
X122344173Y-102766000D01*
X122268440Y-102750936D01*
X122116973Y-102720807D01*
X121902955Y-102632158D01*
X121838751Y-102589258D01*
X121710346Y-102503461D01*
X121546539Y-102339654D01*
X121417843Y-102147046D01*
X121417842Y-102147045D01*
X121329193Y-101933027D01*
X121284000Y-101705826D01*
X121284000Y-101474174D01*
X121329193Y-101246973D01*
X121417842Y-101032955D01*
X121460742Y-100968751D01*
X121546539Y-100840346D01*
X121710346Y-100676539D01*
X121902954Y-100547843D01*
X121902955Y-100547842D01*
X122116973Y-100459193D01*
X122268440Y-100429064D01*
X122344173Y-100414000D01*
X122575827Y-100414000D01*
X122651560Y-100429064D01*
G37*
G36*
X132651560Y-100429064D02*
G01*
X132803027Y-100459193D01*
X133017045Y-100547842D01*
X133017046Y-100547843D01*
X133209654Y-100676539D01*
X133373461Y-100840346D01*
X133459258Y-100968751D01*
X133502158Y-101032955D01*
X133590807Y-101246973D01*
X133636000Y-101474174D01*
X133636000Y-101705826D01*
X133590807Y-101933027D01*
X133502158Y-102147045D01*
X133502157Y-102147046D01*
X133373461Y-102339654D01*
X133209654Y-102503461D01*
X133081249Y-102589258D01*
X133017045Y-102632158D01*
X132803027Y-102720807D01*
X132651560Y-102750936D01*
X132575827Y-102766000D01*
X132344173Y-102766000D01*
X132268440Y-102750936D01*
X132116973Y-102720807D01*
X131902955Y-102632158D01*
X131838751Y-102589258D01*
X131710346Y-102503461D01*
X131546539Y-102339654D01*
X131417843Y-102147046D01*
X131417842Y-102147045D01*
X131329193Y-101933027D01*
X131284000Y-101705826D01*
X131284000Y-101474174D01*
X131329193Y-101246973D01*
X131417842Y-101032955D01*
X131460742Y-100968751D01*
X131546539Y-100840346D01*
X131710346Y-100676539D01*
X131902954Y-100547843D01*
X131902955Y-100547842D01*
X132116973Y-100459193D01*
X132268440Y-100429064D01*
X132344173Y-100414000D01*
X132575827Y-100414000D01*
X132651560Y-100429064D01*
G37*
G36*
X137731560Y-100429064D02*
G01*
X137883027Y-100459193D01*
X138097045Y-100547842D01*
X138097046Y-100547843D01*
X138289654Y-100676539D01*
X138453461Y-100840346D01*
X138539258Y-100968751D01*
X138582158Y-101032955D01*
X138670807Y-101246973D01*
X138716000Y-101474174D01*
X138716000Y-101705826D01*
X138670807Y-101933027D01*
X138582158Y-102147045D01*
X138582157Y-102147046D01*
X138453461Y-102339654D01*
X138289654Y-102503461D01*
X138161249Y-102589258D01*
X138097045Y-102632158D01*
X137883027Y-102720807D01*
X137731560Y-102750936D01*
X137655827Y-102766000D01*
X137424173Y-102766000D01*
X137348440Y-102750936D01*
X137196973Y-102720807D01*
X136982955Y-102632158D01*
X136918751Y-102589258D01*
X136790346Y-102503461D01*
X136626539Y-102339654D01*
X136497843Y-102147046D01*
X136497842Y-102147045D01*
X136409193Y-101933027D01*
X136364000Y-101705826D01*
X136364000Y-101474174D01*
X136409193Y-101246973D01*
X136497842Y-101032955D01*
X136540742Y-100968751D01*
X136626539Y-100840346D01*
X136790346Y-100676539D01*
X136982954Y-100547843D01*
X136982955Y-100547842D01*
X137196973Y-100459193D01*
X137348440Y-100429064D01*
X137424173Y-100414000D01*
X137655827Y-100414000D01*
X137731560Y-100429064D01*
G37*
G36*
X112651560Y-100419064D02*
G01*
X112803027Y-100449193D01*
X113017045Y-100537842D01*
X113081249Y-100580742D01*
X113209654Y-100666539D01*
X113373461Y-100830346D01*
X113459258Y-100958751D01*
X113502158Y-101022955D01*
X113590807Y-101236973D01*
X113636000Y-101464174D01*
X113636000Y-101695826D01*
X113590807Y-101923027D01*
X113502158Y-102137045D01*
X113459258Y-102201249D01*
X113373461Y-102329654D01*
X113209654Y-102493461D01*
X113081249Y-102579258D01*
X113017045Y-102622158D01*
X112803027Y-102710807D01*
X112651560Y-102740936D01*
X112575827Y-102756000D01*
X112344173Y-102756000D01*
X112268440Y-102740936D01*
X112116973Y-102710807D01*
X111902955Y-102622158D01*
X111838751Y-102579258D01*
X111710346Y-102493461D01*
X111546539Y-102329654D01*
X111460742Y-102201249D01*
X111417842Y-102137045D01*
X111329193Y-101923027D01*
X111284000Y-101695826D01*
X111284000Y-101464174D01*
X111329193Y-101236973D01*
X111417842Y-101022955D01*
X111460742Y-100958751D01*
X111546539Y-100830346D01*
X111710346Y-100666539D01*
X111838751Y-100580742D01*
X111902955Y-100537842D01*
X112116973Y-100449193D01*
X112268440Y-100419064D01*
X112344173Y-100404000D01*
X112575827Y-100404000D01*
X112651560Y-100419064D01*
G37*
G36*
X117731560Y-100419064D02*
G01*
X117883027Y-100449193D01*
X118097045Y-100537842D01*
X118161249Y-100580742D01*
X118289654Y-100666539D01*
X118453461Y-100830346D01*
X118539258Y-100958751D01*
X118582158Y-101022955D01*
X118670807Y-101236973D01*
X118716000Y-101464174D01*
X118716000Y-101695826D01*
X118670807Y-101923027D01*
X118582158Y-102137045D01*
X118539258Y-102201249D01*
X118453461Y-102329654D01*
X118289654Y-102493461D01*
X118161249Y-102579258D01*
X118097045Y-102622158D01*
X117883027Y-102710807D01*
X117731560Y-102740936D01*
X117655827Y-102756000D01*
X117424173Y-102756000D01*
X117348440Y-102740936D01*
X117196973Y-102710807D01*
X116982955Y-102622158D01*
X116918751Y-102579258D01*
X116790346Y-102493461D01*
X116626539Y-102329654D01*
X116540742Y-102201249D01*
X116497842Y-102137045D01*
X116409193Y-101923027D01*
X116364000Y-101695826D01*
X116364000Y-101464174D01*
X116409193Y-101236973D01*
X116497842Y-101022955D01*
X116540742Y-100958751D01*
X116626539Y-100830346D01*
X116790346Y-100666539D01*
X116918751Y-100580742D01*
X116982955Y-100537842D01*
X117196973Y-100449193D01*
X117348440Y-100419064D01*
X117424173Y-100404000D01*
X117655827Y-100404000D01*
X117731560Y-100419064D01*
G37*
G36*
X145175271Y-97987783D02*
G01*
X145313858Y-98015350D01*
X145509677Y-98096461D01*
X145685910Y-98214216D01*
X145835784Y-98364090D01*
X145953539Y-98540323D01*
X146034650Y-98736142D01*
X146076000Y-98944023D01*
X146076000Y-99155977D01*
X146034650Y-99363858D01*
X145953539Y-99559677D01*
X145835784Y-99735910D01*
X145685910Y-99885784D01*
X145509677Y-100003539D01*
X145313858Y-100084650D01*
X145175271Y-100112217D01*
X145105978Y-100126000D01*
X144894022Y-100126000D01*
X144824729Y-100112217D01*
X144686142Y-100084650D01*
X144490323Y-100003539D01*
X144314090Y-99885784D01*
X144164216Y-99735910D01*
X144046461Y-99559677D01*
X143965350Y-99363858D01*
X143924000Y-99155977D01*
X143924000Y-98944023D01*
X143965350Y-98736142D01*
X144046461Y-98540323D01*
X144164216Y-98364090D01*
X144314090Y-98214216D01*
X144490323Y-98096461D01*
X144686142Y-98015350D01*
X144824729Y-97987783D01*
X144894022Y-97974000D01*
X145105978Y-97974000D01*
X145175271Y-97987783D01*
G37*
G36*
X125175271Y-97987783D02*
G01*
X125313858Y-98015350D01*
X125509677Y-98096461D01*
X125685910Y-98214216D01*
X125835784Y-98364090D01*
X125953539Y-98540323D01*
X126034650Y-98736142D01*
X126076000Y-98944023D01*
X126076000Y-99155977D01*
X126034650Y-99363858D01*
X125953539Y-99559677D01*
X125835784Y-99735910D01*
X125685910Y-99885784D01*
X125509677Y-100003539D01*
X125313858Y-100084650D01*
X125175271Y-100112217D01*
X125105978Y-100126000D01*
X124894022Y-100126000D01*
X124824729Y-100112217D01*
X124686142Y-100084650D01*
X124490323Y-100003539D01*
X124314090Y-99885784D01*
X124164216Y-99735910D01*
X124046461Y-99559677D01*
X123965350Y-99363858D01*
X123924000Y-99155977D01*
X123924000Y-98944023D01*
X123965350Y-98736142D01*
X124046461Y-98540323D01*
X124164216Y-98364090D01*
X124314090Y-98214216D01*
X124490323Y-98096461D01*
X124686142Y-98015350D01*
X124824729Y-97987783D01*
X124894022Y-97974000D01*
X125105978Y-97974000D01*
X125175271Y-97987783D01*
G37*
G36*
X135175271Y-97987783D02*
G01*
X135313858Y-98015350D01*
X135509677Y-98096461D01*
X135685910Y-98214216D01*
X135835784Y-98364090D01*
X135953539Y-98540323D01*
X136034650Y-98736142D01*
X136076000Y-98944023D01*
X136076000Y-99155977D01*
X136034650Y-99363858D01*
X135953539Y-99559677D01*
X135835784Y-99735910D01*
X135685910Y-99885784D01*
X135509677Y-100003539D01*
X135313858Y-100084650D01*
X135175271Y-100112217D01*
X135105978Y-100126000D01*
X134894022Y-100126000D01*
X134824729Y-100112217D01*
X134686142Y-100084650D01*
X134490323Y-100003539D01*
X134314090Y-99885784D01*
X134164216Y-99735910D01*
X134046461Y-99559677D01*
X133965350Y-99363858D01*
X133924000Y-99155977D01*
X133924000Y-98944023D01*
X133965350Y-98736142D01*
X134046461Y-98540323D01*
X134164216Y-98364090D01*
X134314090Y-98214216D01*
X134490323Y-98096461D01*
X134686142Y-98015350D01*
X134824729Y-97987783D01*
X134894022Y-97974000D01*
X135105978Y-97974000D01*
X135175271Y-97987783D01*
G37*
G36*
X115156251Y-97974000D02*
G01*
X115313858Y-98005350D01*
X115509677Y-98086461D01*
X115685910Y-98204216D01*
X115835784Y-98354090D01*
X115953539Y-98530323D01*
X116034650Y-98726142D01*
X116076000Y-98934023D01*
X116076000Y-99145977D01*
X116034650Y-99353858D01*
X115953539Y-99549677D01*
X115835784Y-99725910D01*
X115685910Y-99875784D01*
X115509677Y-99993539D01*
X115313858Y-100074650D01*
X115175271Y-100102217D01*
X115105978Y-100116000D01*
X114894022Y-100116000D01*
X114824729Y-100102217D01*
X114686142Y-100074650D01*
X114490323Y-99993539D01*
X114314090Y-99875784D01*
X114164216Y-99725910D01*
X114046461Y-99549677D01*
X113965350Y-99353858D01*
X113924000Y-99145977D01*
X113924000Y-98934023D01*
X113965350Y-98726142D01*
X114046461Y-98530323D01*
X114164216Y-98354090D01*
X114314090Y-98204216D01*
X114490323Y-98086461D01*
X114686142Y-98005350D01*
X114843749Y-97974000D01*
X114894022Y-97964000D01*
X115105978Y-97964000D01*
X115156251Y-97974000D01*
G37*
G36*
X137731560Y-95349064D02*
G01*
X137883027Y-95379193D01*
X138097045Y-95467842D01*
X138097046Y-95467843D01*
X138289654Y-95596539D01*
X138453461Y-95760346D01*
X138539258Y-95888751D01*
X138582158Y-95952955D01*
X138670807Y-96166973D01*
X138716000Y-96394174D01*
X138716000Y-96625826D01*
X138670807Y-96853027D01*
X138582158Y-97067045D01*
X138582157Y-97067046D01*
X138453461Y-97259654D01*
X138289654Y-97423461D01*
X138161249Y-97509258D01*
X138097045Y-97552158D01*
X137883027Y-97640807D01*
X137731560Y-97670936D01*
X137655827Y-97686000D01*
X137424173Y-97686000D01*
X137348440Y-97670936D01*
X137196973Y-97640807D01*
X136982955Y-97552158D01*
X136918751Y-97509258D01*
X136790346Y-97423461D01*
X136626539Y-97259654D01*
X136497843Y-97067046D01*
X136497842Y-97067045D01*
X136409193Y-96853027D01*
X136364000Y-96625826D01*
X136364000Y-96394174D01*
X136409193Y-96166973D01*
X136497842Y-95952955D01*
X136540742Y-95888751D01*
X136626539Y-95760346D01*
X136790346Y-95596539D01*
X136982954Y-95467843D01*
X136982955Y-95467842D01*
X137196973Y-95379193D01*
X137348440Y-95349064D01*
X137424173Y-95334000D01*
X137655827Y-95334000D01*
X137731560Y-95349064D01*
G37*
G36*
X132651560Y-95349064D02*
G01*
X132803027Y-95379193D01*
X133017045Y-95467842D01*
X133017046Y-95467843D01*
X133209654Y-95596539D01*
X133373461Y-95760346D01*
X133459258Y-95888751D01*
X133502158Y-95952955D01*
X133590807Y-96166973D01*
X133636000Y-96394174D01*
X133636000Y-96625826D01*
X133590807Y-96853027D01*
X133502158Y-97067045D01*
X133502157Y-97067046D01*
X133373461Y-97259654D01*
X133209654Y-97423461D01*
X133081249Y-97509258D01*
X133017045Y-97552158D01*
X132803027Y-97640807D01*
X132651560Y-97670936D01*
X132575827Y-97686000D01*
X132344173Y-97686000D01*
X132268440Y-97670936D01*
X132116973Y-97640807D01*
X131902955Y-97552158D01*
X131838751Y-97509258D01*
X131710346Y-97423461D01*
X131546539Y-97259654D01*
X131417843Y-97067046D01*
X131417842Y-97067045D01*
X131329193Y-96853027D01*
X131284000Y-96625826D01*
X131284000Y-96394174D01*
X131329193Y-96166973D01*
X131417842Y-95952955D01*
X131460742Y-95888751D01*
X131546539Y-95760346D01*
X131710346Y-95596539D01*
X131902954Y-95467843D01*
X131902955Y-95467842D01*
X132116973Y-95379193D01*
X132268440Y-95349064D01*
X132344173Y-95334000D01*
X132575827Y-95334000D01*
X132651560Y-95349064D01*
G37*
G36*
X127731560Y-95349064D02*
G01*
X127883027Y-95379193D01*
X128097045Y-95467842D01*
X128097046Y-95467843D01*
X128289654Y-95596539D01*
X128453461Y-95760346D01*
X128539258Y-95888751D01*
X128582158Y-95952955D01*
X128670807Y-96166973D01*
X128716000Y-96394174D01*
X128716000Y-96625826D01*
X128670807Y-96853027D01*
X128582158Y-97067045D01*
X128582157Y-97067046D01*
X128453461Y-97259654D01*
X128289654Y-97423461D01*
X128161249Y-97509258D01*
X128097045Y-97552158D01*
X127883027Y-97640807D01*
X127731560Y-97670936D01*
X127655827Y-97686000D01*
X127424173Y-97686000D01*
X127348440Y-97670936D01*
X127196973Y-97640807D01*
X126982955Y-97552158D01*
X126918751Y-97509258D01*
X126790346Y-97423461D01*
X126626539Y-97259654D01*
X126497843Y-97067046D01*
X126497842Y-97067045D01*
X126409193Y-96853027D01*
X126364000Y-96625826D01*
X126364000Y-96394174D01*
X126409193Y-96166973D01*
X126497842Y-95952955D01*
X126540742Y-95888751D01*
X126626539Y-95760346D01*
X126790346Y-95596539D01*
X126982954Y-95467843D01*
X126982955Y-95467842D01*
X127196973Y-95379193D01*
X127348440Y-95349064D01*
X127424173Y-95334000D01*
X127655827Y-95334000D01*
X127731560Y-95349064D01*
G37*
G36*
X122651560Y-95349064D02*
G01*
X122803027Y-95379193D01*
X123017045Y-95467842D01*
X123017046Y-95467843D01*
X123209654Y-95596539D01*
X123373461Y-95760346D01*
X123459258Y-95888751D01*
X123502158Y-95952955D01*
X123590807Y-96166973D01*
X123636000Y-96394174D01*
X123636000Y-96625826D01*
X123590807Y-96853027D01*
X123502158Y-97067045D01*
X123502157Y-97067046D01*
X123373461Y-97259654D01*
X123209654Y-97423461D01*
X123081249Y-97509258D01*
X123017045Y-97552158D01*
X122803027Y-97640807D01*
X122651560Y-97670936D01*
X122575827Y-97686000D01*
X122344173Y-97686000D01*
X122268440Y-97670936D01*
X122116973Y-97640807D01*
X121902955Y-97552158D01*
X121838751Y-97509258D01*
X121710346Y-97423461D01*
X121546539Y-97259654D01*
X121417843Y-97067046D01*
X121417842Y-97067045D01*
X121329193Y-96853027D01*
X121284000Y-96625826D01*
X121284000Y-96394174D01*
X121329193Y-96166973D01*
X121417842Y-95952955D01*
X121460742Y-95888751D01*
X121546539Y-95760346D01*
X121710346Y-95596539D01*
X121902954Y-95467843D01*
X121902955Y-95467842D01*
X122116973Y-95379193D01*
X122268440Y-95349064D01*
X122344173Y-95334000D01*
X122575827Y-95334000D01*
X122651560Y-95349064D01*
G37*
G36*
X142651560Y-95349064D02*
G01*
X142803027Y-95379193D01*
X143017045Y-95467842D01*
X143017046Y-95467843D01*
X143209654Y-95596539D01*
X143373461Y-95760346D01*
X143459258Y-95888751D01*
X143502158Y-95952955D01*
X143590807Y-96166973D01*
X143636000Y-96394174D01*
X143636000Y-96625826D01*
X143590807Y-96853027D01*
X143502158Y-97067045D01*
X143502157Y-97067046D01*
X143373461Y-97259654D01*
X143209654Y-97423461D01*
X143081249Y-97509258D01*
X143017045Y-97552158D01*
X142803027Y-97640807D01*
X142651560Y-97670936D01*
X142575827Y-97686000D01*
X142344173Y-97686000D01*
X142268440Y-97670936D01*
X142116973Y-97640807D01*
X141902955Y-97552158D01*
X141838751Y-97509258D01*
X141710346Y-97423461D01*
X141546539Y-97259654D01*
X141417843Y-97067046D01*
X141417842Y-97067045D01*
X141329193Y-96853027D01*
X141284000Y-96625826D01*
X141284000Y-96394174D01*
X141329193Y-96166973D01*
X141417842Y-95952955D01*
X141460742Y-95888751D01*
X141546539Y-95760346D01*
X141710346Y-95596539D01*
X141902954Y-95467843D01*
X141902955Y-95467842D01*
X142116973Y-95379193D01*
X142268440Y-95349064D01*
X142344173Y-95334000D01*
X142575827Y-95334000D01*
X142651560Y-95349064D01*
G37*
G36*
X147731560Y-95349064D02*
G01*
X147883027Y-95379193D01*
X148097045Y-95467842D01*
X148097046Y-95467843D01*
X148289654Y-95596539D01*
X148453461Y-95760346D01*
X148539258Y-95888751D01*
X148582158Y-95952955D01*
X148670807Y-96166973D01*
X148716000Y-96394174D01*
X148716000Y-96625826D01*
X148670807Y-96853027D01*
X148582158Y-97067045D01*
X148582157Y-97067046D01*
X148453461Y-97259654D01*
X148289654Y-97423461D01*
X148161249Y-97509258D01*
X148097045Y-97552158D01*
X147883027Y-97640807D01*
X147731560Y-97670936D01*
X147655827Y-97686000D01*
X147424173Y-97686000D01*
X147348440Y-97670936D01*
X147196973Y-97640807D01*
X146982955Y-97552158D01*
X146918751Y-97509258D01*
X146790346Y-97423461D01*
X146626539Y-97259654D01*
X146497843Y-97067046D01*
X146497842Y-97067045D01*
X146409193Y-96853027D01*
X146364000Y-96625826D01*
X146364000Y-96394174D01*
X146409193Y-96166973D01*
X146497842Y-95952955D01*
X146540742Y-95888751D01*
X146626539Y-95760346D01*
X146790346Y-95596539D01*
X146982954Y-95467843D01*
X146982955Y-95467842D01*
X147196973Y-95379193D01*
X147348440Y-95349064D01*
X147424173Y-95334000D01*
X147655827Y-95334000D01*
X147731560Y-95349064D01*
G37*
G36*
X117731560Y-95339064D02*
G01*
X117883027Y-95369193D01*
X118097045Y-95457842D01*
X118161249Y-95500742D01*
X118289654Y-95586539D01*
X118453461Y-95750346D01*
X118539258Y-95878751D01*
X118582158Y-95942955D01*
X118670807Y-96156973D01*
X118716000Y-96384174D01*
X118716000Y-96615826D01*
X118670807Y-96843027D01*
X118582158Y-97057045D01*
X118539258Y-97121249D01*
X118453461Y-97249654D01*
X118289654Y-97413461D01*
X118161249Y-97499258D01*
X118097045Y-97542158D01*
X117883027Y-97630807D01*
X117731560Y-97660936D01*
X117655827Y-97676000D01*
X117424173Y-97676000D01*
X117348440Y-97660936D01*
X117196973Y-97630807D01*
X116982955Y-97542158D01*
X116918751Y-97499258D01*
X116790346Y-97413461D01*
X116626539Y-97249654D01*
X116540742Y-97121249D01*
X116497842Y-97057045D01*
X116409193Y-96843027D01*
X116364000Y-96615826D01*
X116364000Y-96384174D01*
X116409193Y-96156973D01*
X116497842Y-95942955D01*
X116540742Y-95878751D01*
X116626539Y-95750346D01*
X116790346Y-95586539D01*
X116918751Y-95500742D01*
X116982955Y-95457842D01*
X117196973Y-95369193D01*
X117348440Y-95339064D01*
X117424173Y-95324000D01*
X117655827Y-95324000D01*
X117731560Y-95339064D01*
G37*
G36*
X112651560Y-95339064D02*
G01*
X112803027Y-95369193D01*
X113017045Y-95457842D01*
X113081249Y-95500742D01*
X113209654Y-95586539D01*
X113373461Y-95750346D01*
X113459258Y-95878751D01*
X113502158Y-95942955D01*
X113590807Y-96156973D01*
X113636000Y-96384174D01*
X113636000Y-96615826D01*
X113590807Y-96843027D01*
X113502158Y-97057045D01*
X113459258Y-97121249D01*
X113373461Y-97249654D01*
X113209654Y-97413461D01*
X113081249Y-97499258D01*
X113017045Y-97542158D01*
X112803027Y-97630807D01*
X112651560Y-97660936D01*
X112575827Y-97676000D01*
X112344173Y-97676000D01*
X112268440Y-97660936D01*
X112116973Y-97630807D01*
X111902955Y-97542158D01*
X111838751Y-97499258D01*
X111710346Y-97413461D01*
X111546539Y-97249654D01*
X111460742Y-97121249D01*
X111417842Y-97057045D01*
X111329193Y-96843027D01*
X111284000Y-96615826D01*
X111284000Y-96384174D01*
X111329193Y-96156973D01*
X111417842Y-95942955D01*
X111460742Y-95878751D01*
X111546539Y-95750346D01*
X111710346Y-95586539D01*
X111838751Y-95500742D01*
X111902955Y-95457842D01*
X112116973Y-95369193D01*
X112268440Y-95339064D01*
X112344173Y-95324000D01*
X112575827Y-95324000D01*
X112651560Y-95339064D01*
G37*
G36*
X125493374Y-93996985D02*
G01*
X124996985Y-94493374D01*
X124571306Y-94067695D01*
X125067695Y-93571306D01*
X125493374Y-93996985D01*
G37*
G36*
X135428694Y-94067695D02*
G01*
X135003015Y-94493374D01*
X134506626Y-93996985D01*
X134932305Y-93571306D01*
X135428694Y-94067695D01*
G37*
G36*
X145493374Y-93996985D02*
G01*
X144996985Y-94493374D01*
X144571306Y-94067695D01*
X145067695Y-93571306D01*
X145493374Y-93996985D01*
G37*
G36*
X115428694Y-93967695D02*
G01*
X115003015Y-94393374D01*
X114506626Y-93896985D01*
X114932305Y-93471306D01*
X115428694Y-93967695D01*
G37*
G36*
X144828694Y-93332305D02*
G01*
X144332305Y-93828694D01*
X143906626Y-93403015D01*
X144403015Y-92906626D01*
X144828694Y-93332305D01*
G37*
G36*
X124828694Y-93332305D02*
G01*
X124332305Y-93828694D01*
X123906626Y-93403015D01*
X124403015Y-92906626D01*
X124828694Y-93332305D01*
G37*
G36*
X136093374Y-93403015D02*
G01*
X135667695Y-93828694D01*
X135171306Y-93332305D01*
X135596985Y-92906626D01*
X136093374Y-93403015D01*
G37*
G36*
X116093374Y-93303015D02*
G01*
X115667695Y-93728694D01*
X115171306Y-93232305D01*
X115596985Y-92806626D01*
X116093374Y-93303015D01*
G37*
G36*
X121326000Y-92181000D02*
G01*
X118674000Y-92181000D01*
X118674000Y-91019000D01*
X121326000Y-91019000D01*
X121326000Y-92181000D01*
G37*
G36*
X141326000Y-92181000D02*
G01*
X138674000Y-92181000D01*
X138674000Y-91019000D01*
X141326000Y-91019000D01*
X141326000Y-92181000D01*
G37*
G36*
X121326000Y-89981000D02*
G01*
X118674000Y-89981000D01*
X118674000Y-88819000D01*
X121326000Y-88819000D01*
X121326000Y-89981000D01*
G37*
G36*
X141326000Y-89981000D02*
G01*
X138674000Y-89981000D01*
X138674000Y-88819000D01*
X141326000Y-88819000D01*
X141326000Y-89981000D01*
G37*
G36*
X147281560Y-84879064D02*
G01*
X147433027Y-84909193D01*
X147647045Y-84997842D01*
X147647046Y-84997843D01*
X147839654Y-85126539D01*
X148003461Y-85290346D01*
X148089258Y-85418751D01*
X148132158Y-85482955D01*
X148220807Y-85696973D01*
X148266000Y-85924174D01*
X148266000Y-86155826D01*
X148220807Y-86383027D01*
X148132158Y-86597045D01*
X148132157Y-86597046D01*
X148003461Y-86789654D01*
X147839654Y-86953461D01*
X147711249Y-87039258D01*
X147647045Y-87082158D01*
X147433027Y-87170807D01*
X147281560Y-87200936D01*
X147205827Y-87216000D01*
X146974173Y-87216000D01*
X146898440Y-87200936D01*
X146746973Y-87170807D01*
X146532955Y-87082158D01*
X146468751Y-87039258D01*
X146340346Y-86953461D01*
X146176539Y-86789654D01*
X146047843Y-86597046D01*
X146047842Y-86597045D01*
X145959193Y-86383027D01*
X145914000Y-86155826D01*
X145914000Y-85924174D01*
X145959193Y-85696973D01*
X146047842Y-85482955D01*
X146090742Y-85418751D01*
X146176539Y-85290346D01*
X146340346Y-85126539D01*
X146532954Y-84997843D01*
X146532955Y-84997842D01*
X146746973Y-84909193D01*
X146898440Y-84879064D01*
X146974173Y-84864000D01*
X147205827Y-84864000D01*
X147281560Y-84879064D01*
G37*
G36*
X142201560Y-84879064D02*
G01*
X142353027Y-84909193D01*
X142567045Y-84997842D01*
X142567046Y-84997843D01*
X142759654Y-85126539D01*
X142923461Y-85290346D01*
X143009258Y-85418751D01*
X143052158Y-85482955D01*
X143140807Y-85696973D01*
X143186000Y-85924174D01*
X143186000Y-86155826D01*
X143140807Y-86383027D01*
X143052158Y-86597045D01*
X143052157Y-86597046D01*
X142923461Y-86789654D01*
X142759654Y-86953461D01*
X142631249Y-87039258D01*
X142567045Y-87082158D01*
X142353027Y-87170807D01*
X142201560Y-87200936D01*
X142125827Y-87216000D01*
X141894173Y-87216000D01*
X141818440Y-87200936D01*
X141666973Y-87170807D01*
X141452955Y-87082158D01*
X141388751Y-87039258D01*
X141260346Y-86953461D01*
X141096539Y-86789654D01*
X140967843Y-86597046D01*
X140967842Y-86597045D01*
X140879193Y-86383027D01*
X140834000Y-86155826D01*
X140834000Y-85924174D01*
X140879193Y-85696973D01*
X140967842Y-85482955D01*
X141010742Y-85418751D01*
X141096539Y-85290346D01*
X141260346Y-85126539D01*
X141452954Y-84997843D01*
X141452955Y-84997842D01*
X141666973Y-84909193D01*
X141818440Y-84879064D01*
X141894173Y-84864000D01*
X142125827Y-84864000D01*
X142201560Y-84879064D01*
G37*
G36*
X114051000Y-86101000D02*
G01*
X112849000Y-86101000D01*
X112849000Y-84499000D01*
X114051000Y-84499000D01*
X114051000Y-86101000D01*
G37*
G36*
X112551000Y-86101000D02*
G01*
X111349000Y-86101000D01*
X111349000Y-84499000D01*
X112551000Y-84499000D01*
X112551000Y-86101000D01*
G37*
G36*
X122174223Y-85288436D02*
G01*
X121272223Y-85288436D01*
X121272223Y-84286436D01*
X122174223Y-84286436D01*
X122174223Y-85288436D01*
G37*
G36*
X119824224Y-84971000D02*
G01*
X119122224Y-84971000D01*
X119122224Y-84369000D01*
X119824224Y-84369000D01*
X119824224Y-84971000D01*
G37*
G36*
X115481000Y-84751000D02*
G01*
X114879000Y-84751000D01*
X114879000Y-84049000D01*
X115481000Y-84049000D01*
X115481000Y-84751000D01*
G37*
G36*
X116421000Y-84751000D02*
G01*
X115819000Y-84751000D01*
X115819000Y-84049000D01*
X116421000Y-84049000D01*
X116421000Y-84751000D01*
G37*
G36*
X124351000Y-84671000D02*
G01*
X123649000Y-84671000D01*
X123649000Y-84069000D01*
X124351000Y-84069000D01*
X124351000Y-84671000D01*
G37*
G36*
X144725271Y-82437783D02*
G01*
X144863858Y-82465350D01*
X145059677Y-82546461D01*
X145235910Y-82664216D01*
X145385784Y-82814090D01*
X145503539Y-82990323D01*
X145584650Y-83186142D01*
X145626000Y-83394023D01*
X145626000Y-83605977D01*
X145584650Y-83813858D01*
X145503539Y-84009677D01*
X145385784Y-84185910D01*
X145235910Y-84335784D01*
X145059677Y-84453539D01*
X144863858Y-84534650D01*
X144725271Y-84562217D01*
X144655978Y-84576000D01*
X144444022Y-84576000D01*
X144374729Y-84562217D01*
X144236142Y-84534650D01*
X144040323Y-84453539D01*
X143864090Y-84335784D01*
X143714216Y-84185910D01*
X143596461Y-84009677D01*
X143515350Y-83813858D01*
X143474000Y-83605977D01*
X143474000Y-83394023D01*
X143515350Y-83186142D01*
X143596461Y-82990323D01*
X143714216Y-82814090D01*
X143864090Y-82664216D01*
X144040323Y-82546461D01*
X144236142Y-82465350D01*
X144374729Y-82437783D01*
X144444022Y-82424000D01*
X144655978Y-82424000D01*
X144725271Y-82437783D01*
G37*
G36*
X135801000Y-84301000D02*
G01*
X133999000Y-84301000D01*
X133999000Y-82499000D01*
X135801000Y-82499000D01*
X135801000Y-84301000D01*
G37*
G36*
X129933512Y-82503927D02*
G01*
X130082812Y-82533624D01*
X130246784Y-82601544D01*
X130394354Y-82700147D01*
X130519853Y-82825646D01*
X130618456Y-82973216D01*
X130686376Y-83137188D01*
X130721000Y-83311259D01*
X130721000Y-83488741D01*
X130686376Y-83662812D01*
X130618456Y-83826784D01*
X130519853Y-83974354D01*
X130394354Y-84099853D01*
X130246784Y-84198456D01*
X130082812Y-84266376D01*
X129933512Y-84296073D01*
X129908742Y-84301000D01*
X129731258Y-84301000D01*
X129706488Y-84296073D01*
X129557188Y-84266376D01*
X129393216Y-84198456D01*
X129245646Y-84099853D01*
X129120147Y-83974354D01*
X129021544Y-83826784D01*
X128953624Y-83662812D01*
X128919000Y-83488741D01*
X128919000Y-83311259D01*
X128953624Y-83137188D01*
X129021544Y-82973216D01*
X129120147Y-82825646D01*
X129245646Y-82700147D01*
X129393216Y-82601544D01*
X129557188Y-82533624D01*
X129706488Y-82503927D01*
X129731258Y-82499000D01*
X129908742Y-82499000D01*
X129933512Y-82503927D01*
G37*
G36*
X132473512Y-82503927D02*
G01*
X132622812Y-82533624D01*
X132786784Y-82601544D01*
X132934354Y-82700147D01*
X133059853Y-82825646D01*
X133158456Y-82973216D01*
X133226376Y-83137188D01*
X133261000Y-83311259D01*
X133261000Y-83488741D01*
X133226376Y-83662812D01*
X133158456Y-83826784D01*
X133059853Y-83974354D01*
X132934354Y-84099853D01*
X132786784Y-84198456D01*
X132622812Y-84266376D01*
X132473512Y-84296073D01*
X132448742Y-84301000D01*
X132271258Y-84301000D01*
X132246488Y-84296073D01*
X132097188Y-84266376D01*
X131933216Y-84198456D01*
X131785646Y-84099853D01*
X131660147Y-83974354D01*
X131561544Y-83826784D01*
X131493624Y-83662812D01*
X131459000Y-83488741D01*
X131459000Y-83311259D01*
X131493624Y-83137188D01*
X131561544Y-82973216D01*
X131660147Y-82825646D01*
X131785646Y-82700147D01*
X131933216Y-82601544D01*
X132097188Y-82533624D01*
X132246488Y-82503927D01*
X132271258Y-82499000D01*
X132448742Y-82499000D01*
X132473512Y-82503927D01*
G37*
G36*
X119824224Y-84031000D02*
G01*
X119122224Y-84031000D01*
X119122224Y-83429000D01*
X119824224Y-83429000D01*
X119824224Y-84031000D01*
G37*
G36*
X116421000Y-83751000D02*
G01*
X115819000Y-83751000D01*
X115819000Y-83049000D01*
X116421000Y-83049000D01*
X116421000Y-83751000D01*
G37*
G36*
X137731000Y-83751000D02*
G01*
X137129000Y-83751000D01*
X137129000Y-83049000D01*
X137731000Y-83049000D01*
X137731000Y-83751000D01*
G37*
G36*
X115481000Y-83751000D02*
G01*
X114879000Y-83751000D01*
X114879000Y-83049000D01*
X115481000Y-83049000D01*
X115481000Y-83751000D01*
G37*
G36*
X138671000Y-83751000D02*
G01*
X138069000Y-83751000D01*
X138069000Y-83049000D01*
X138671000Y-83049000D01*
X138671000Y-83751000D01*
G37*
G36*
X124351000Y-83731000D02*
G01*
X123649000Y-83731000D01*
X123649000Y-83129000D01*
X124351000Y-83129000D01*
X124351000Y-83731000D01*
G37*
G36*
X123124223Y-83288436D02*
G01*
X122222223Y-83288436D01*
X122222223Y-82286436D01*
X123124223Y-82286436D01*
X123124223Y-83288436D01*
G37*
G36*
X121224223Y-83288436D02*
G01*
X120322223Y-83288436D01*
X120322223Y-82286436D01*
X121224223Y-82286436D01*
X121224223Y-83288436D01*
G37*
G36*
X112551000Y-83101000D02*
G01*
X111349000Y-83101000D01*
X111349000Y-81499000D01*
X112551000Y-81499000D01*
X112551000Y-83101000D01*
G37*
G36*
X114051000Y-83101000D02*
G01*
X112849000Y-83101000D01*
X112849000Y-81499000D01*
X114051000Y-81499000D01*
X114051000Y-83101000D01*
G37*
G36*
X116421000Y-82751000D02*
G01*
X115819000Y-82751000D01*
X115819000Y-82049000D01*
X116421000Y-82049000D01*
X116421000Y-82751000D01*
G37*
G36*
X115481000Y-82751000D02*
G01*
X114879000Y-82751000D01*
X114879000Y-82049000D01*
X115481000Y-82049000D01*
X115481000Y-82751000D01*
G37*
G36*
X124351000Y-82371000D02*
G01*
X123649000Y-82371000D01*
X123649000Y-81769000D01*
X124351000Y-81769000D01*
X124351000Y-82371000D01*
G37*
G36*
X147281560Y-79799064D02*
G01*
X147433027Y-79829193D01*
X147647045Y-79917842D01*
X147647046Y-79917843D01*
X147839654Y-80046539D01*
X148003461Y-80210346D01*
X148089258Y-80338751D01*
X148132158Y-80402955D01*
X148220807Y-80616973D01*
X148266000Y-80844174D01*
X148266000Y-81075826D01*
X148220807Y-81303027D01*
X148132158Y-81517045D01*
X148132157Y-81517046D01*
X148003461Y-81709654D01*
X147839654Y-81873461D01*
X147711249Y-81959258D01*
X147647045Y-82002158D01*
X147433027Y-82090807D01*
X147281560Y-82120936D01*
X147205827Y-82136000D01*
X146974173Y-82136000D01*
X146898440Y-82120936D01*
X146746973Y-82090807D01*
X146532955Y-82002158D01*
X146468751Y-81959258D01*
X146340346Y-81873461D01*
X146176539Y-81709654D01*
X146047843Y-81517046D01*
X146047842Y-81517045D01*
X145959193Y-81303027D01*
X145914000Y-81075826D01*
X145914000Y-80844174D01*
X145959193Y-80616973D01*
X146047842Y-80402955D01*
X146090742Y-80338751D01*
X146176539Y-80210346D01*
X146340346Y-80046539D01*
X146532954Y-79917843D01*
X146532955Y-79917842D01*
X146746973Y-79829193D01*
X146898440Y-79799064D01*
X146974173Y-79784000D01*
X147205827Y-79784000D01*
X147281560Y-79799064D01*
G37*
G36*
X142201560Y-79799064D02*
G01*
X142353027Y-79829193D01*
X142567045Y-79917842D01*
X142567046Y-79917843D01*
X142759654Y-80046539D01*
X142923461Y-80210346D01*
X143009258Y-80338751D01*
X143052158Y-80402955D01*
X143140807Y-80616973D01*
X143186000Y-80844174D01*
X143186000Y-81075826D01*
X143140807Y-81303027D01*
X143052158Y-81517045D01*
X143052157Y-81517046D01*
X142923461Y-81709654D01*
X142759654Y-81873461D01*
X142631249Y-81959258D01*
X142567045Y-82002158D01*
X142353027Y-82090807D01*
X142201560Y-82120936D01*
X142125827Y-82136000D01*
X141894173Y-82136000D01*
X141818440Y-82120936D01*
X141666973Y-82090807D01*
X141452955Y-82002158D01*
X141388751Y-81959258D01*
X141260346Y-81873461D01*
X141096539Y-81709654D01*
X140967843Y-81517046D01*
X140967842Y-81517045D01*
X140879193Y-81303027D01*
X140834000Y-81075826D01*
X140834000Y-80844174D01*
X140879193Y-80616973D01*
X140967842Y-80402955D01*
X141010742Y-80338751D01*
X141096539Y-80210346D01*
X141260346Y-80046539D01*
X141452954Y-79917843D01*
X141452955Y-79917842D01*
X141666973Y-79829193D01*
X141818440Y-79799064D01*
X141894173Y-79784000D01*
X142125827Y-79784000D01*
X142201560Y-79799064D01*
G37*
G36*
X123263437Y-81677776D02*
G01*
X117411437Y-81677776D01*
X117411437Y-80275776D01*
X123263437Y-80275776D01*
X123263437Y-81677776D01*
G37*
G36*
X124351000Y-81431000D02*
G01*
X123649000Y-81431000D01*
X123649000Y-80829000D01*
X124351000Y-80829000D01*
X124351000Y-81431000D01*
G37*
G36*
X113373155Y-80099097D02*
G01*
X112771155Y-80099097D01*
X112771155Y-79397097D01*
X113373155Y-79397097D01*
X113373155Y-80099097D01*
G37*
G36*
X112433155Y-80099097D02*
G01*
X111831155Y-80099097D01*
X111831155Y-79397097D01*
X112433155Y-79397097D01*
X112433155Y-80099097D01*
G37*
G36*
X116688437Y-79552776D02*
G01*
X115286437Y-79552776D01*
X115286437Y-73700776D01*
X116688437Y-73700776D01*
X116688437Y-79552776D01*
G37*
G36*
X125388437Y-79552776D02*
G01*
X123986437Y-79552776D01*
X123986437Y-73700776D01*
X125388437Y-73700776D01*
X125388437Y-79552776D01*
G37*
G36*
X113396127Y-79015466D02*
G01*
X112794127Y-79015466D01*
X112794127Y-78313466D01*
X113396127Y-78313466D01*
X113396127Y-79015466D01*
G37*
G36*
X112456127Y-79015466D02*
G01*
X111854127Y-79015466D01*
X111854127Y-78313466D01*
X112456127Y-78313466D01*
X112456127Y-79015466D01*
G37*
G36*
X131781000Y-78726000D02*
G01*
X130619000Y-78726000D01*
X130619000Y-76074000D01*
X131781000Y-76074000D01*
X131781000Y-78726000D01*
G37*
G36*
X133981000Y-78726000D02*
G01*
X132819000Y-78726000D01*
X132819000Y-76074000D01*
X133981000Y-76074000D01*
X133981000Y-78726000D01*
G37*
G36*
X112226379Y-77886786D02*
G01*
X110924379Y-77886786D01*
X110924379Y-76384786D01*
X112226379Y-76384786D01*
X112226379Y-77886786D01*
G37*
G36*
X113926379Y-77886786D02*
G01*
X112624379Y-77886786D01*
X112624379Y-76384786D01*
X113926379Y-76384786D01*
X113926379Y-77886786D01*
G37*
G36*
X112226379Y-75686786D02*
G01*
X110924379Y-75686786D01*
X110924379Y-74184786D01*
X112226379Y-74184786D01*
X112226379Y-75686786D01*
G37*
G36*
X113926379Y-75686786D02*
G01*
X112624379Y-75686786D01*
X112624379Y-74184786D01*
X113926379Y-74184786D01*
X113926379Y-75686786D01*
G37*
G36*
X142201560Y-72879064D02*
G01*
X142353027Y-72909193D01*
X142567045Y-72997842D01*
X142567046Y-72997843D01*
X142759654Y-73126539D01*
X142923461Y-73290346D01*
X143009258Y-73418751D01*
X143052158Y-73482955D01*
X143140807Y-73696973D01*
X143186000Y-73924174D01*
X143186000Y-74155826D01*
X143140807Y-74383027D01*
X143052158Y-74597045D01*
X143052157Y-74597046D01*
X142923461Y-74789654D01*
X142759654Y-74953461D01*
X142631249Y-75039258D01*
X142567045Y-75082158D01*
X142353027Y-75170807D01*
X142202362Y-75200776D01*
X142125827Y-75216000D01*
X141894173Y-75216000D01*
X141817638Y-75200776D01*
X141666973Y-75170807D01*
X141452955Y-75082158D01*
X141388751Y-75039258D01*
X141260346Y-74953461D01*
X141096539Y-74789654D01*
X140967843Y-74597046D01*
X140967842Y-74597045D01*
X140879193Y-74383027D01*
X140834000Y-74155826D01*
X140834000Y-73924174D01*
X140879193Y-73696973D01*
X140967842Y-73482955D01*
X141010742Y-73418751D01*
X141096539Y-73290346D01*
X141260346Y-73126539D01*
X141452954Y-72997843D01*
X141452955Y-72997842D01*
X141666973Y-72909193D01*
X141818440Y-72879064D01*
X141894173Y-72864000D01*
X142125827Y-72864000D01*
X142201560Y-72879064D01*
G37*
G36*
X147281560Y-72879064D02*
G01*
X147433027Y-72909193D01*
X147647045Y-72997842D01*
X147647046Y-72997843D01*
X147839654Y-73126539D01*
X148003461Y-73290346D01*
X148089258Y-73418751D01*
X148132158Y-73482955D01*
X148220807Y-73696973D01*
X148266000Y-73924174D01*
X148266000Y-74155826D01*
X148220807Y-74383027D01*
X148132158Y-74597045D01*
X148132157Y-74597046D01*
X148003461Y-74789654D01*
X147839654Y-74953461D01*
X147711249Y-75039258D01*
X147647045Y-75082158D01*
X147433027Y-75170807D01*
X147282362Y-75200776D01*
X147205827Y-75216000D01*
X146974173Y-75216000D01*
X146897638Y-75200776D01*
X146746973Y-75170807D01*
X146532955Y-75082158D01*
X146468751Y-75039258D01*
X146340346Y-74953461D01*
X146176539Y-74789654D01*
X146047843Y-74597046D01*
X146047842Y-74597045D01*
X145959193Y-74383027D01*
X145914000Y-74155826D01*
X145914000Y-73924174D01*
X145959193Y-73696973D01*
X146047842Y-73482955D01*
X146090742Y-73418751D01*
X146176539Y-73290346D01*
X146340346Y-73126539D01*
X146532954Y-72997843D01*
X146532955Y-72997842D01*
X146746973Y-72909193D01*
X146898440Y-72879064D01*
X146974173Y-72864000D01*
X147205827Y-72864000D01*
X147281560Y-72879064D01*
G37*
G36*
X113373155Y-73735136D02*
G01*
X112771155Y-73735136D01*
X112771155Y-73033136D01*
X113373155Y-73033136D01*
X113373155Y-73735136D01*
G37*
G36*
X112433155Y-73735136D02*
G01*
X111831155Y-73735136D01*
X111831155Y-73033136D01*
X112433155Y-73033136D01*
X112433155Y-73735136D01*
G37*
G36*
X126371000Y-73251000D02*
G01*
X125769000Y-73251000D01*
X125769000Y-72549000D01*
X126371000Y-72549000D01*
X126371000Y-73251000D01*
G37*
G36*
X125431000Y-73251000D02*
G01*
X124829000Y-73251000D01*
X124829000Y-72549000D01*
X125431000Y-72549000D01*
X125431000Y-73251000D01*
G37*
G36*
X123263437Y-72977776D02*
G01*
X117411437Y-72977776D01*
X117411437Y-71575776D01*
X123263437Y-71575776D01*
X123263437Y-72977776D01*
G37*
G36*
X144725271Y-70437783D02*
G01*
X144863858Y-70465350D01*
X145059677Y-70546461D01*
X145235910Y-70664216D01*
X145385784Y-70814090D01*
X145503539Y-70990323D01*
X145584650Y-71186142D01*
X145626000Y-71394023D01*
X145626000Y-71605977D01*
X145584650Y-71813858D01*
X145503539Y-72009677D01*
X145385784Y-72185910D01*
X145235910Y-72335784D01*
X145059677Y-72453539D01*
X144863858Y-72534650D01*
X144725271Y-72562217D01*
X144655978Y-72576000D01*
X144444022Y-72576000D01*
X144374729Y-72562217D01*
X144236142Y-72534650D01*
X144040323Y-72453539D01*
X143864090Y-72335784D01*
X143714216Y-72185910D01*
X143596461Y-72009677D01*
X143515350Y-71813858D01*
X143474000Y-71605977D01*
X143474000Y-71394023D01*
X143515350Y-71186142D01*
X143596461Y-70990323D01*
X143714216Y-70814090D01*
X143864090Y-70664216D01*
X144040323Y-70546461D01*
X144236142Y-70465350D01*
X144374729Y-70437783D01*
X144444022Y-70424000D01*
X144655978Y-70424000D01*
X144725271Y-70437783D01*
G37*
G36*
X132473512Y-70503927D02*
G01*
X132622812Y-70533624D01*
X132786784Y-70601544D01*
X132934354Y-70700147D01*
X133059853Y-70825646D01*
X133158456Y-70973216D01*
X133226376Y-71137188D01*
X133261000Y-71311259D01*
X133261000Y-71488741D01*
X133226376Y-71662812D01*
X133158456Y-71826784D01*
X133059853Y-71974354D01*
X132934354Y-72099853D01*
X132786784Y-72198456D01*
X132622812Y-72266376D01*
X132473512Y-72296073D01*
X132448742Y-72301000D01*
X132271258Y-72301000D01*
X132246488Y-72296073D01*
X132097188Y-72266376D01*
X131933216Y-72198456D01*
X131785646Y-72099853D01*
X131660147Y-71974354D01*
X131561544Y-71826784D01*
X131493624Y-71662812D01*
X131459000Y-71488741D01*
X131459000Y-71311259D01*
X131493624Y-71137188D01*
X131561544Y-70973216D01*
X131660147Y-70825646D01*
X131785646Y-70700147D01*
X131933216Y-70601544D01*
X132097188Y-70533624D01*
X132246488Y-70503927D01*
X132271258Y-70499000D01*
X132448742Y-70499000D01*
X132473512Y-70503927D01*
G37*
G36*
X135801000Y-72301000D02*
G01*
X133999000Y-72301000D01*
X133999000Y-70499000D01*
X135801000Y-70499000D01*
X135801000Y-72301000D01*
G37*
G36*
X129933512Y-70503927D02*
G01*
X130082812Y-70533624D01*
X130246784Y-70601544D01*
X130394354Y-70700147D01*
X130519853Y-70825646D01*
X130618456Y-70973216D01*
X130686376Y-71137188D01*
X130721000Y-71311259D01*
X130721000Y-71488741D01*
X130686376Y-71662812D01*
X130618456Y-71826784D01*
X130519853Y-71974354D01*
X130394354Y-72099853D01*
X130246784Y-72198456D01*
X130082812Y-72266376D01*
X129933512Y-72296073D01*
X129908742Y-72301000D01*
X129731258Y-72301000D01*
X129706488Y-72296073D01*
X129557188Y-72266376D01*
X129393216Y-72198456D01*
X129245646Y-72099853D01*
X129120147Y-71974354D01*
X129021544Y-71826784D01*
X128953624Y-71662812D01*
X128919000Y-71488741D01*
X128919000Y-71311259D01*
X128953624Y-71137188D01*
X129021544Y-70973216D01*
X129120147Y-70825646D01*
X129245646Y-70700147D01*
X129393216Y-70601544D01*
X129557188Y-70533624D01*
X129706488Y-70503927D01*
X129731258Y-70499000D01*
X129908742Y-70499000D01*
X129933512Y-70503927D01*
G37*
G36*
X117001000Y-72251000D02*
G01*
X115999000Y-72251000D01*
X115999000Y-71549000D01*
X117001000Y-71549000D01*
X117001000Y-72251000D01*
G37*
G36*
X138671000Y-71751000D02*
G01*
X138069000Y-71751000D01*
X138069000Y-71049000D01*
X138671000Y-71049000D01*
X138671000Y-71751000D01*
G37*
G36*
X137731000Y-71751000D02*
G01*
X137129000Y-71751000D01*
X137129000Y-71049000D01*
X137731000Y-71049000D01*
X137731000Y-71751000D01*
G37*
G36*
X114151000Y-70951000D02*
G01*
X113399000Y-70951000D01*
X113399000Y-69799000D01*
X114151000Y-69799000D01*
X114151000Y-70951000D01*
G37*
G36*
X112001000Y-70951000D02*
G01*
X111249000Y-70951000D01*
X111249000Y-69799000D01*
X112001000Y-69799000D01*
X112001000Y-70951000D01*
G37*
G36*
X118443563Y-70906709D02*
G01*
X117841563Y-70906709D01*
X117841563Y-70204709D01*
X118443563Y-70204709D01*
X118443563Y-70906709D01*
G37*
G36*
X119383563Y-70906709D02*
G01*
X118781563Y-70906709D01*
X118781563Y-70204709D01*
X119383563Y-70204709D01*
X119383563Y-70906709D01*
G37*
G36*
X117001000Y-70751000D02*
G01*
X115999000Y-70751000D01*
X115999000Y-70049000D01*
X117001000Y-70049000D01*
X117001000Y-70751000D01*
G37*
G36*
X147281560Y-67799064D02*
G01*
X147433027Y-67829193D01*
X147647045Y-67917842D01*
X147647046Y-67917843D01*
X147839654Y-68046539D01*
X148003461Y-68210346D01*
X148084051Y-68330958D01*
X148132158Y-68402955D01*
X148220807Y-68616973D01*
X148266000Y-68844174D01*
X148266000Y-69075826D01*
X148220807Y-69303027D01*
X148132158Y-69517045D01*
X148132157Y-69517046D01*
X148003461Y-69709654D01*
X147839654Y-69873461D01*
X147711249Y-69959258D01*
X147647045Y-70002158D01*
X147433027Y-70090807D01*
X147281560Y-70120936D01*
X147205827Y-70136000D01*
X146974173Y-70136000D01*
X146898440Y-70120936D01*
X146746973Y-70090807D01*
X146532955Y-70002158D01*
X146468751Y-69959258D01*
X146340346Y-69873461D01*
X146176539Y-69709654D01*
X146047843Y-69517046D01*
X146047842Y-69517045D01*
X145959193Y-69303027D01*
X145914000Y-69075826D01*
X145914000Y-68844174D01*
X145959193Y-68616973D01*
X146047842Y-68402955D01*
X146095949Y-68330958D01*
X146176539Y-68210346D01*
X146340346Y-68046539D01*
X146532954Y-67917843D01*
X146532955Y-67917842D01*
X146746973Y-67829193D01*
X146898440Y-67799064D01*
X146974173Y-67784000D01*
X147205827Y-67784000D01*
X147281560Y-67799064D01*
G37*
G36*
X142201560Y-67799064D02*
G01*
X142353027Y-67829193D01*
X142567045Y-67917842D01*
X142567046Y-67917843D01*
X142759654Y-68046539D01*
X142923461Y-68210346D01*
X143004051Y-68330958D01*
X143052158Y-68402955D01*
X143140807Y-68616973D01*
X143186000Y-68844174D01*
X143186000Y-69075826D01*
X143140807Y-69303027D01*
X143052158Y-69517045D01*
X143052157Y-69517046D01*
X142923461Y-69709654D01*
X142759654Y-69873461D01*
X142631249Y-69959258D01*
X142567045Y-70002158D01*
X142353027Y-70090807D01*
X142201560Y-70120936D01*
X142125827Y-70136000D01*
X141894173Y-70136000D01*
X141818440Y-70120936D01*
X141666973Y-70090807D01*
X141452955Y-70002158D01*
X141388751Y-69959258D01*
X141260346Y-69873461D01*
X141096539Y-69709654D01*
X140967843Y-69517046D01*
X140967842Y-69517045D01*
X140879193Y-69303027D01*
X140834000Y-69075826D01*
X140834000Y-68844174D01*
X140879193Y-68616973D01*
X140967842Y-68402955D01*
X141015949Y-68330958D01*
X141096539Y-68210346D01*
X141260346Y-68046539D01*
X141452954Y-67917843D01*
X141452955Y-67917842D01*
X141666973Y-67829193D01*
X141818440Y-67799064D01*
X141894173Y-67784000D01*
X142125827Y-67784000D01*
X142201560Y-67799064D01*
G37*
G36*
X117001000Y-69601000D02*
G01*
X115999000Y-69601000D01*
X115999000Y-68899000D01*
X117001000Y-68899000D01*
X117001000Y-69601000D01*
G37*
G36*
X119071000Y-69301000D02*
G01*
X117469000Y-69301000D01*
X117469000Y-68199000D01*
X119071000Y-68199000D01*
X119071000Y-69301000D01*
G37*
G36*
X131031000Y-68951000D02*
G01*
X130429000Y-68951000D01*
X130429000Y-68249000D01*
X131031000Y-68249000D01*
X131031000Y-68951000D01*
G37*
G36*
X131971000Y-68951000D02*
G01*
X131369000Y-68951000D01*
X131369000Y-68249000D01*
X131971000Y-68249000D01*
X131971000Y-68951000D01*
G37*
G36*
X121975776Y-66076121D02*
G01*
X121997084Y-66088222D01*
X122020343Y-66095933D01*
X122047861Y-66099000D01*
X122059235Y-66099000D01*
X122064015Y-66114757D01*
X122075566Y-66136368D01*
X122091111Y-66155310D01*
X122107414Y-66169042D01*
X122893000Y-66723574D01*
X122893000Y-67776426D01*
X122107414Y-68330958D01*
X122088877Y-68346983D01*
X122073822Y-68366317D01*
X122062828Y-68388216D01*
X122059305Y-68401000D01*
X122047861Y-68401000D01*
X122023475Y-68403402D01*
X122000026Y-68410515D01*
X121975776Y-68423879D01*
X121922551Y-68461450D01*
X121919934Y-68456553D01*
X121904389Y-68437611D01*
X121885447Y-68422066D01*
X121863836Y-68410515D01*
X121840387Y-68403402D01*
X121816001Y-68401000D01*
X120349799Y-68401000D01*
X120325413Y-68403402D01*
X120301964Y-68410515D01*
X120280353Y-68422066D01*
X120261411Y-68437611D01*
X120245866Y-68456553D01*
X120243475Y-68461026D01*
X120190004Y-68423596D01*
X120168649Y-68411579D01*
X120145360Y-68403959D01*
X120118322Y-68401000D01*
X120107356Y-68401000D01*
X120102985Y-68386590D01*
X120091434Y-68364979D01*
X120075889Y-68346037D01*
X120059183Y-68332022D01*
X119332860Y-67823596D01*
X119311505Y-67811579D01*
X119288216Y-67803959D01*
X119261178Y-67801000D01*
X117465500Y-67801000D01*
X117465500Y-66699000D01*
X119261178Y-66699000D01*
X119285564Y-66696598D01*
X119309013Y-66689485D01*
X119332860Y-66676404D01*
X120059183Y-66167978D01*
X120077784Y-66152026D01*
X120092915Y-66132752D01*
X120103995Y-66110896D01*
X120107324Y-66099000D01*
X120118322Y-66099000D01*
X120142708Y-66096598D01*
X120166157Y-66089485D01*
X120190004Y-66076404D01*
X120243475Y-66038974D01*
X120245866Y-66043447D01*
X120261411Y-66062389D01*
X120280353Y-66077934D01*
X120301964Y-66089485D01*
X120325413Y-66096598D01*
X120349799Y-66099000D01*
X121816001Y-66099000D01*
X121840387Y-66096598D01*
X121863836Y-66089485D01*
X121885447Y-66077934D01*
X121904389Y-66062389D01*
X121919934Y-66043447D01*
X121922551Y-66038550D01*
X121975776Y-66076121D01*
G37*
G36*
X117001000Y-68101000D02*
G01*
X115999000Y-68101000D01*
X115999000Y-67399000D01*
X117001000Y-67399000D01*
X117001000Y-68101000D01*
G37*
G36*
X129551000Y-67971000D02*
G01*
X128849000Y-67971000D01*
X128849000Y-67369000D01*
X129551000Y-67369000D01*
X129551000Y-67971000D01*
G37*
G36*
X131880051Y-65126284D02*
G01*
X131896443Y-65131257D01*
X131911555Y-65139334D01*
X131924798Y-65150202D01*
X131935666Y-65163445D01*
X131943743Y-65178557D01*
X131948716Y-65194949D01*
X131951000Y-65218141D01*
X131951000Y-65631859D01*
X131948716Y-65655051D01*
X131943742Y-65671446D01*
X131933249Y-65691078D01*
X131923872Y-65713717D01*
X131919092Y-65737750D01*
X131919092Y-65762254D01*
X131923873Y-65786287D01*
X131933249Y-65808922D01*
X131943742Y-65828554D01*
X131948716Y-65844949D01*
X131951000Y-65868141D01*
X131951000Y-66281859D01*
X131948716Y-66305051D01*
X131943742Y-66321446D01*
X131933249Y-66341078D01*
X131923872Y-66363717D01*
X131919092Y-66387750D01*
X131919092Y-66412254D01*
X131923873Y-66436287D01*
X131933249Y-66458922D01*
X131943742Y-66478554D01*
X131948716Y-66494949D01*
X131951000Y-66518141D01*
X131951000Y-66931859D01*
X131948716Y-66955051D01*
X131943742Y-66971446D01*
X131933249Y-66991078D01*
X131923872Y-67013717D01*
X131919092Y-67037750D01*
X131919092Y-67062254D01*
X131923873Y-67086287D01*
X131933249Y-67108922D01*
X131943742Y-67128554D01*
X131948716Y-67144949D01*
X131951000Y-67168141D01*
X131951000Y-67581859D01*
X131948716Y-67605051D01*
X131943743Y-67621443D01*
X131935666Y-67636555D01*
X131924798Y-67649798D01*
X131911555Y-67660666D01*
X131896443Y-67668743D01*
X131880051Y-67673716D01*
X131856859Y-67676000D01*
X130318141Y-67676000D01*
X130294949Y-67673716D01*
X130278557Y-67668743D01*
X130263445Y-67660666D01*
X130250202Y-67649798D01*
X130239334Y-67636555D01*
X130231257Y-67621443D01*
X130226284Y-67605051D01*
X130224000Y-67581859D01*
X130224000Y-67168141D01*
X130226284Y-67144949D01*
X130231258Y-67128554D01*
X130241751Y-67108922D01*
X130251128Y-67086283D01*
X130255908Y-67062250D01*
X130255908Y-67037746D01*
X130251127Y-67013713D01*
X130241751Y-66991078D01*
X130231258Y-66971446D01*
X130226284Y-66955051D01*
X130224000Y-66931859D01*
X130224000Y-66518141D01*
X130226284Y-66494949D01*
X130231258Y-66478554D01*
X130241751Y-66458922D01*
X130251128Y-66436283D01*
X130255908Y-66412250D01*
X130255908Y-66387746D01*
X130251127Y-66363713D01*
X130241751Y-66341078D01*
X130231258Y-66321446D01*
X130226284Y-66305051D01*
X130224000Y-66281859D01*
X130224000Y-65868141D01*
X130226284Y-65844949D01*
X130231258Y-65828554D01*
X130241751Y-65808922D01*
X130251128Y-65786283D01*
X130255908Y-65762250D01*
X130255908Y-65737746D01*
X130251127Y-65713713D01*
X130241751Y-65691078D01*
X130231258Y-65671446D01*
X130226284Y-65655051D01*
X130224000Y-65631859D01*
X130224000Y-65218141D01*
X130226284Y-65194949D01*
X130231257Y-65178557D01*
X130239334Y-65163445D01*
X130250202Y-65150202D01*
X130263445Y-65139334D01*
X130278557Y-65131257D01*
X130294949Y-65126284D01*
X130318141Y-65124000D01*
X131856859Y-65124000D01*
X131880051Y-65126284D01*
G37*
G36*
X136105051Y-65126284D02*
G01*
X136121443Y-65131257D01*
X136136555Y-65139334D01*
X136149798Y-65150202D01*
X136160666Y-65163445D01*
X136168743Y-65178557D01*
X136173716Y-65194949D01*
X136176000Y-65218141D01*
X136176000Y-65631859D01*
X136173716Y-65655051D01*
X136168742Y-65671446D01*
X136158249Y-65691078D01*
X136148872Y-65713717D01*
X136144092Y-65737750D01*
X136144092Y-65762254D01*
X136148873Y-65786287D01*
X136158249Y-65808922D01*
X136168742Y-65828554D01*
X136173716Y-65844949D01*
X136176000Y-65868141D01*
X136176000Y-66281859D01*
X136173716Y-66305051D01*
X136168742Y-66321446D01*
X136158249Y-66341078D01*
X136148872Y-66363717D01*
X136144092Y-66387750D01*
X136144092Y-66412254D01*
X136148873Y-66436287D01*
X136158249Y-66458922D01*
X136168742Y-66478554D01*
X136173716Y-66494949D01*
X136176000Y-66518141D01*
X136176000Y-66931859D01*
X136173716Y-66955051D01*
X136168742Y-66971446D01*
X136158249Y-66991078D01*
X136148872Y-67013717D01*
X136144092Y-67037750D01*
X136144092Y-67062254D01*
X136148873Y-67086287D01*
X136158249Y-67108922D01*
X136168742Y-67128554D01*
X136173716Y-67144949D01*
X136176000Y-67168141D01*
X136176000Y-67581859D01*
X136173716Y-67605051D01*
X136168743Y-67621443D01*
X136160666Y-67636555D01*
X136149798Y-67649798D01*
X136136555Y-67660666D01*
X136121443Y-67668743D01*
X136105051Y-67673716D01*
X136081859Y-67676000D01*
X134543141Y-67676000D01*
X134519949Y-67673716D01*
X134503557Y-67668743D01*
X134488445Y-67660666D01*
X134475202Y-67649798D01*
X134464334Y-67636555D01*
X134456257Y-67621443D01*
X134451284Y-67605051D01*
X134449000Y-67581859D01*
X134449000Y-67168141D01*
X134451284Y-67144949D01*
X134456258Y-67128554D01*
X134466751Y-67108922D01*
X134476128Y-67086283D01*
X134480908Y-67062250D01*
X134480908Y-67037746D01*
X134476127Y-67013713D01*
X134466751Y-66991078D01*
X134456258Y-66971446D01*
X134451284Y-66955051D01*
X134449000Y-66931859D01*
X134449000Y-66518141D01*
X134451284Y-66494949D01*
X134456258Y-66478554D01*
X134466751Y-66458922D01*
X134476128Y-66436283D01*
X134480908Y-66412250D01*
X134480908Y-66387746D01*
X134476127Y-66363713D01*
X134466751Y-66341078D01*
X134456258Y-66321446D01*
X134451284Y-66305051D01*
X134449000Y-66281859D01*
X134449000Y-65868141D01*
X134451284Y-65844949D01*
X134456258Y-65828554D01*
X134466751Y-65808922D01*
X134476128Y-65786283D01*
X134480908Y-65762250D01*
X134480908Y-65737746D01*
X134476127Y-65713713D01*
X134466751Y-65691078D01*
X134456258Y-65671446D01*
X134451284Y-65655051D01*
X134449000Y-65631859D01*
X134449000Y-65218141D01*
X134451284Y-65194949D01*
X134456257Y-65178557D01*
X134464334Y-65163445D01*
X134475202Y-65150202D01*
X134488445Y-65139334D01*
X134503557Y-65131257D01*
X134519949Y-65126284D01*
X134543141Y-65124000D01*
X136081859Y-65124000D01*
X136105051Y-65126284D01*
G37*
G36*
X117001000Y-67101000D02*
G01*
X115999000Y-67101000D01*
X115999000Y-66399000D01*
X117001000Y-66399000D01*
X117001000Y-67101000D01*
G37*
G36*
X129551000Y-67031000D02*
G01*
X128849000Y-67031000D01*
X128849000Y-66429000D01*
X129551000Y-66429000D01*
X129551000Y-67031000D01*
G37*
G36*
X112001000Y-66801000D02*
G01*
X111249000Y-66801000D01*
X111249000Y-65649000D01*
X112001000Y-65649000D01*
X112001000Y-66801000D01*
G37*
G36*
X114151000Y-66801000D02*
G01*
X113399000Y-66801000D01*
X113399000Y-65649000D01*
X114151000Y-65649000D01*
X114151000Y-66801000D01*
G37*
G36*
X138271000Y-66751000D02*
G01*
X137669000Y-66751000D01*
X137669000Y-66049000D01*
X138271000Y-66049000D01*
X138271000Y-66751000D01*
G37*
G36*
X137331000Y-66751000D02*
G01*
X136729000Y-66751000D01*
X136729000Y-66049000D01*
X137331000Y-66049000D01*
X137331000Y-66751000D01*
G37*
G36*
X119071000Y-66301000D02*
G01*
X117469000Y-66301000D01*
X117469000Y-65199000D01*
X119071000Y-65199000D01*
X119071000Y-66301000D01*
G37*
G36*
X140801000Y-66201000D02*
G01*
X139599000Y-66201000D01*
X139599000Y-64999000D01*
X140801000Y-64999000D01*
X140801000Y-66201000D01*
G37*
G36*
X128351000Y-66171000D02*
G01*
X127649000Y-66171000D01*
X127649000Y-65569000D01*
X128351000Y-65569000D01*
X128351000Y-66171000D01*
G37*
G36*
X138271000Y-65751000D02*
G01*
X137669000Y-65751000D01*
X137669000Y-65049000D01*
X138271000Y-65049000D01*
X138271000Y-65751000D01*
G37*
G36*
X137331000Y-65751000D02*
G01*
X136729000Y-65751000D01*
X136729000Y-65049000D01*
X137331000Y-65049000D01*
X137331000Y-65751000D01*
G37*
G36*
X129851000Y-65671000D02*
G01*
X129149000Y-65671000D01*
X129149000Y-65069000D01*
X129851000Y-65069000D01*
X129851000Y-65671000D01*
G37*
G36*
X117001000Y-65601000D02*
G01*
X115999000Y-65601000D01*
X115999000Y-64899000D01*
X117001000Y-64899000D01*
X117001000Y-65601000D01*
G37*
G36*
X128351000Y-65231000D02*
G01*
X127649000Y-65231000D01*
X127649000Y-64629000D01*
X128351000Y-64629000D01*
X128351000Y-65231000D01*
G37*
G36*
X129851000Y-64731000D02*
G01*
X129149000Y-64731000D01*
X129149000Y-64129000D01*
X129851000Y-64129000D01*
X129851000Y-64731000D01*
G37*
G36*
X142251000Y-64701000D02*
G01*
X141549000Y-64701000D01*
X141549000Y-64099000D01*
X142251000Y-64099000D01*
X142251000Y-64701000D01*
G37*
G36*
X131551000Y-64471000D02*
G01*
X130849000Y-64471000D01*
X130849000Y-63869000D01*
X131551000Y-63869000D01*
X131551000Y-64471000D01*
G37*
G36*
X133471000Y-64451000D02*
G01*
X132869000Y-64451000D01*
X132869000Y-63749000D01*
X133471000Y-63749000D01*
X133471000Y-64451000D01*
G37*
G36*
X132531000Y-64451000D02*
G01*
X131929000Y-64451000D01*
X131929000Y-63749000D01*
X132531000Y-63749000D01*
X132531000Y-64451000D01*
G37*
G36*
X135371000Y-64451000D02*
G01*
X134769000Y-64451000D01*
X134769000Y-63749000D01*
X135371000Y-63749000D01*
X135371000Y-64451000D01*
G37*
G36*
X134431000Y-64451000D02*
G01*
X133829000Y-64451000D01*
X133829000Y-63749000D01*
X134431000Y-63749000D01*
X134431000Y-64451000D01*
G37*
G36*
X119718609Y-63193136D02*
G01*
X119817567Y-63234126D01*
X119906627Y-63293634D01*
X119982366Y-63369373D01*
X120003498Y-63401000D01*
X120041875Y-63458435D01*
X120071932Y-63531000D01*
X120082864Y-63557391D01*
X120103760Y-63662444D01*
X120103760Y-63769556D01*
X120082864Y-63874609D01*
X120041874Y-63973567D01*
X119982366Y-64062627D01*
X119906627Y-64138366D01*
X119817567Y-64197874D01*
X119817566Y-64197875D01*
X119817565Y-64197875D01*
X119718609Y-64238864D01*
X119613557Y-64259760D01*
X119506443Y-64259760D01*
X119401391Y-64238864D01*
X119302435Y-64197875D01*
X119302434Y-64197875D01*
X119302433Y-64197874D01*
X119213373Y-64138366D01*
X119137634Y-64062627D01*
X119078126Y-63973567D01*
X119037136Y-63874609D01*
X119016240Y-63769556D01*
X119016240Y-63662444D01*
X119037136Y-63557391D01*
X119048068Y-63531000D01*
X119078125Y-63458435D01*
X119116502Y-63401000D01*
X119137634Y-63369373D01*
X119213373Y-63293634D01*
X119302433Y-63234126D01*
X119401391Y-63193136D01*
X119506443Y-63172240D01*
X119613557Y-63172240D01*
X119718609Y-63193136D01*
G37*
G36*
X128351000Y-63871000D02*
G01*
X127649000Y-63871000D01*
X127649000Y-63269000D01*
X128351000Y-63269000D01*
X128351000Y-63871000D01*
G37*
G36*
X120959344Y-62908610D02*
G01*
X121040043Y-62942037D01*
X121112670Y-62990565D01*
X121174435Y-63052330D01*
X121222963Y-63124957D01*
X121256390Y-63205656D01*
X121273430Y-63291326D01*
X121273430Y-63378674D01*
X121256390Y-63464344D01*
X121222963Y-63545043D01*
X121174435Y-63617670D01*
X121112670Y-63679435D01*
X121040043Y-63727963D01*
X120959344Y-63761390D01*
X120873674Y-63778430D01*
X120786326Y-63778430D01*
X120700656Y-63761390D01*
X120619957Y-63727963D01*
X120547330Y-63679435D01*
X120485565Y-63617670D01*
X120437037Y-63545043D01*
X120403610Y-63464344D01*
X120386570Y-63378674D01*
X120386570Y-63291326D01*
X120403610Y-63205656D01*
X120437037Y-63124957D01*
X120485565Y-63052330D01*
X120547330Y-62990565D01*
X120619957Y-62942037D01*
X120700656Y-62908610D01*
X120786326Y-62891570D01*
X120873674Y-62891570D01*
X120959344Y-62908610D01*
G37*
G36*
X122229344Y-62908610D02*
G01*
X122310043Y-62942037D01*
X122382670Y-62990565D01*
X122444435Y-63052330D01*
X122492963Y-63124957D01*
X122526390Y-63205656D01*
X122543430Y-63291326D01*
X122543430Y-63378674D01*
X122526390Y-63464344D01*
X122492963Y-63545043D01*
X122444435Y-63617670D01*
X122382670Y-63679435D01*
X122310043Y-63727963D01*
X122229344Y-63761390D01*
X122143674Y-63778430D01*
X122056326Y-63778430D01*
X121970656Y-63761390D01*
X121889957Y-63727963D01*
X121817330Y-63679435D01*
X121755565Y-63617670D01*
X121707037Y-63545043D01*
X121673610Y-63464344D01*
X121656570Y-63378674D01*
X121656570Y-63291326D01*
X121673610Y-63205656D01*
X121707037Y-63124957D01*
X121755565Y-63052330D01*
X121817330Y-62990565D01*
X121889957Y-62942037D01*
X121970656Y-62908610D01*
X122056326Y-62891570D01*
X122143674Y-62891570D01*
X122229344Y-62908610D01*
G37*
G36*
X123499344Y-62908610D02*
G01*
X123580043Y-62942037D01*
X123652670Y-62990565D01*
X123714435Y-63052330D01*
X123762963Y-63124957D01*
X123796390Y-63205656D01*
X123813430Y-63291326D01*
X123813430Y-63378674D01*
X123796390Y-63464344D01*
X123762963Y-63545043D01*
X123714435Y-63617670D01*
X123652670Y-63679435D01*
X123580043Y-63727963D01*
X123499344Y-63761390D01*
X123413674Y-63778430D01*
X123326326Y-63778430D01*
X123240656Y-63761390D01*
X123159957Y-63727963D01*
X123087330Y-63679435D01*
X123025565Y-63617670D01*
X122977037Y-63545043D01*
X122943610Y-63464344D01*
X122926570Y-63378674D01*
X122926570Y-63291326D01*
X122943610Y-63205656D01*
X122977037Y-63124957D01*
X123025565Y-63052330D01*
X123087330Y-62990565D01*
X123159957Y-62942037D01*
X123240656Y-62908610D01*
X123326326Y-62891570D01*
X123413674Y-62891570D01*
X123499344Y-62908610D01*
G37*
G36*
X129851000Y-63771000D02*
G01*
X129149000Y-63771000D01*
X129149000Y-63169000D01*
X129851000Y-63169000D01*
X129851000Y-63771000D01*
G37*
G36*
X142251000Y-63761000D02*
G01*
X141549000Y-63761000D01*
X141549000Y-63159000D01*
X142251000Y-63159000D01*
X142251000Y-63761000D01*
G37*
G36*
X131551000Y-63531000D02*
G01*
X130849000Y-63531000D01*
X130849000Y-62929000D01*
X131551000Y-62929000D01*
X131551000Y-63531000D01*
G37*
G36*
X134431000Y-63451000D02*
G01*
X133829000Y-63451000D01*
X133829000Y-62749000D01*
X134431000Y-62749000D01*
X134431000Y-63451000D01*
G37*
G36*
X135371000Y-63451000D02*
G01*
X134769000Y-63451000D01*
X134769000Y-62749000D01*
X135371000Y-62749000D01*
X135371000Y-63451000D01*
G37*
G36*
X140801000Y-63401000D02*
G01*
X139599000Y-63401000D01*
X139599000Y-62199000D01*
X140801000Y-62199000D01*
X140801000Y-63401000D01*
G37*
G36*
X138371000Y-63351000D02*
G01*
X137769000Y-63351000D01*
X137769000Y-62649000D01*
X138371000Y-62649000D01*
X138371000Y-63351000D01*
G37*
G36*
X137431000Y-63351000D02*
G01*
X136829000Y-63351000D01*
X136829000Y-62649000D01*
X137431000Y-62649000D01*
X137431000Y-63351000D01*
G37*
G36*
X136451000Y-63271000D02*
G01*
X135749000Y-63271000D01*
X135749000Y-62669000D01*
X136451000Y-62669000D01*
X136451000Y-63271000D01*
G37*
G36*
X124728948Y-62161985D02*
G01*
X124798979Y-62175915D01*
X124832042Y-62189610D01*
X124898170Y-62217001D01*
X124987434Y-62276645D01*
X125063355Y-62352566D01*
X125122999Y-62441830D01*
X125143527Y-62491390D01*
X125164085Y-62541021D01*
X125185030Y-62646319D01*
X125185030Y-62753681D01*
X125164085Y-62858979D01*
X125150585Y-62891570D01*
X125122999Y-62958170D01*
X125063355Y-63047434D01*
X124987434Y-63123355D01*
X124898170Y-63182999D01*
X124843470Y-63205656D01*
X124798979Y-63224085D01*
X124748504Y-63234125D01*
X124693682Y-63245030D01*
X124586318Y-63245030D01*
X124531496Y-63234125D01*
X124481021Y-63224085D01*
X124436530Y-63205656D01*
X124381830Y-63182999D01*
X124292566Y-63123355D01*
X124216645Y-63047434D01*
X124157001Y-62958170D01*
X124129415Y-62891570D01*
X124115915Y-62858979D01*
X124094970Y-62753681D01*
X124094970Y-62646319D01*
X124115915Y-62541021D01*
X124136473Y-62491390D01*
X124157001Y-62441830D01*
X124216645Y-62352566D01*
X124292566Y-62276645D01*
X124381830Y-62217001D01*
X124447958Y-62189610D01*
X124481021Y-62175915D01*
X124551052Y-62161985D01*
X124586318Y-62154970D01*
X124693682Y-62154970D01*
X124728948Y-62161985D01*
G37*
G36*
X149841000Y-63051000D02*
G01*
X144659000Y-63051000D01*
X144659000Y-61449000D01*
X149841000Y-61449000D01*
X149841000Y-63051000D01*
G37*
G36*
X128351000Y-62931000D02*
G01*
X127649000Y-62931000D01*
X127649000Y-62329000D01*
X128351000Y-62329000D01*
X128351000Y-62931000D01*
G37*
G36*
X142251000Y-62871000D02*
G01*
X141549000Y-62871000D01*
X141549000Y-62269000D01*
X142251000Y-62269000D01*
X142251000Y-62871000D01*
G37*
G36*
X129851000Y-62831000D02*
G01*
X129149000Y-62831000D01*
X129149000Y-62229000D01*
X129851000Y-62229000D01*
X129851000Y-62831000D01*
G37*
G36*
X112313015Y-61726973D02*
G01*
X112416879Y-61758479D01*
X112444055Y-61773005D01*
X112512600Y-61809643D01*
X112596501Y-61878499D01*
X112665357Y-61962400D01*
X112696853Y-62021326D01*
X112716521Y-62058121D01*
X112748027Y-62161985D01*
X112758666Y-62270000D01*
X112748027Y-62378015D01*
X112716521Y-62481879D01*
X112711437Y-62491390D01*
X112665357Y-62577600D01*
X112596501Y-62661501D01*
X112512600Y-62730357D01*
X112444055Y-62766995D01*
X112416879Y-62781521D01*
X112313015Y-62813027D01*
X112232067Y-62821000D01*
X111577933Y-62821000D01*
X111496985Y-62813027D01*
X111393121Y-62781521D01*
X111365945Y-62766995D01*
X111297400Y-62730357D01*
X111213499Y-62661501D01*
X111144643Y-62577600D01*
X111098563Y-62491390D01*
X111093479Y-62481879D01*
X111061973Y-62378015D01*
X111051334Y-62270000D01*
X111061973Y-62161985D01*
X111093479Y-62058121D01*
X111113147Y-62021326D01*
X111144643Y-61962400D01*
X111213499Y-61878499D01*
X111297400Y-61809643D01*
X111365945Y-61773005D01*
X111393121Y-61758479D01*
X111496985Y-61726973D01*
X111577933Y-61719000D01*
X112232067Y-61719000D01*
X112313015Y-61726973D01*
G37*
G36*
X116743015Y-53086973D02*
G01*
X116846879Y-53118479D01*
X116874055Y-53133005D01*
X116942600Y-53169643D01*
X117026501Y-53238499D01*
X117095357Y-53322400D01*
X117131995Y-53390945D01*
X117146521Y-53418121D01*
X117178027Y-53521985D01*
X117188666Y-53630000D01*
X117178027Y-53738015D01*
X117146521Y-53841879D01*
X117146519Y-53841882D01*
X117095357Y-53937600D01*
X117026501Y-54021501D01*
X116942600Y-54090357D01*
X116874055Y-54126995D01*
X116846879Y-54141521D01*
X116804462Y-54154388D01*
X116781832Y-54163762D01*
X116761458Y-54177375D01*
X116744131Y-54194702D01*
X116730517Y-54215077D01*
X116721139Y-54237716D01*
X116716359Y-54261749D01*
X116716359Y-54286253D01*
X116721139Y-54310286D01*
X116730517Y-54332925D01*
X116744130Y-54353299D01*
X116761457Y-54370626D01*
X116781832Y-54384240D01*
X116804471Y-54393618D01*
X116828504Y-54398398D01*
X116840756Y-54399000D01*
X117776000Y-54399000D01*
X117776000Y-61501000D01*
X116840756Y-61501000D01*
X116816370Y-61503402D01*
X116792921Y-61510515D01*
X116771310Y-61522066D01*
X116752368Y-61537611D01*
X116736823Y-61556553D01*
X116725272Y-61578164D01*
X116718159Y-61601613D01*
X116715757Y-61625999D01*
X116718159Y-61650385D01*
X116725272Y-61673834D01*
X116736823Y-61695445D01*
X116752368Y-61714387D01*
X116771310Y-61729932D01*
X116792921Y-61741483D01*
X116804453Y-61745609D01*
X116846879Y-61758479D01*
X116874055Y-61773005D01*
X116942600Y-61809643D01*
X117026501Y-61878499D01*
X117095357Y-61962400D01*
X117126853Y-62021326D01*
X117146521Y-62058121D01*
X117178027Y-62161985D01*
X117188666Y-62270000D01*
X117178027Y-62378015D01*
X117146521Y-62481879D01*
X117141437Y-62491390D01*
X117095357Y-62577600D01*
X117026501Y-62661501D01*
X116942600Y-62730357D01*
X116874055Y-62766995D01*
X116846879Y-62781521D01*
X116743015Y-62813027D01*
X116662067Y-62821000D01*
X115507933Y-62821000D01*
X115426985Y-62813027D01*
X115323121Y-62781521D01*
X115295945Y-62766995D01*
X115227400Y-62730357D01*
X115143499Y-62661501D01*
X115074643Y-62577600D01*
X115028563Y-62491390D01*
X115023479Y-62481879D01*
X114991973Y-62378015D01*
X114981334Y-62270000D01*
X114991973Y-62161985D01*
X115023479Y-62058121D01*
X115043147Y-62021326D01*
X115074643Y-61962400D01*
X115143499Y-61878499D01*
X115227400Y-61809643D01*
X115295945Y-61773005D01*
X115323121Y-61758479D01*
X115426985Y-61726973D01*
X115507933Y-61719000D01*
X116099001Y-61719000D01*
X116123387Y-61716598D01*
X116146836Y-61709485D01*
X116168447Y-61697934D01*
X116187389Y-61682389D01*
X116202934Y-61663447D01*
X116214485Y-61641836D01*
X116221598Y-61618387D01*
X116224000Y-61594001D01*
X116224000Y-54305999D01*
X116221598Y-54281613D01*
X116214485Y-54258164D01*
X116202934Y-54236553D01*
X116187389Y-54217611D01*
X116168447Y-54202066D01*
X116146836Y-54190515D01*
X116123387Y-54183402D01*
X116099001Y-54181000D01*
X115507933Y-54181000D01*
X115426985Y-54173027D01*
X115323121Y-54141521D01*
X115295945Y-54126995D01*
X115227400Y-54090357D01*
X115143499Y-54021501D01*
X115074643Y-53937600D01*
X115023481Y-53841882D01*
X115023479Y-53841879D01*
X114991973Y-53738015D01*
X114981334Y-53630000D01*
X114991973Y-53521985D01*
X115023479Y-53418121D01*
X115038005Y-53390945D01*
X115074643Y-53322400D01*
X115143499Y-53238499D01*
X115227400Y-53169643D01*
X115295945Y-53133005D01*
X115323121Y-53118479D01*
X115426985Y-53086973D01*
X115507933Y-53079000D01*
X116662067Y-53079000D01*
X116743015Y-53086973D01*
G37*
G36*
X133501000Y-62601000D02*
G01*
X132799000Y-62601000D01*
X132799000Y-61599000D01*
X133501000Y-61599000D01*
X133501000Y-62601000D01*
G37*
G36*
X132001000Y-62601000D02*
G01*
X131299000Y-62601000D01*
X131299000Y-61599000D01*
X132001000Y-61599000D01*
X132001000Y-62601000D01*
G37*
G36*
X130951000Y-62571000D02*
G01*
X130249000Y-62571000D01*
X130249000Y-61969000D01*
X130951000Y-61969000D01*
X130951000Y-62571000D01*
G37*
G36*
X123499344Y-61638610D02*
G01*
X123580043Y-61672037D01*
X123652670Y-61720565D01*
X123714435Y-61782330D01*
X123762963Y-61854957D01*
X123796390Y-61935656D01*
X123813430Y-62021326D01*
X123813430Y-62108674D01*
X123796390Y-62194344D01*
X123762963Y-62275043D01*
X123714435Y-62347670D01*
X123652670Y-62409435D01*
X123580043Y-62457963D01*
X123499344Y-62491390D01*
X123413674Y-62508430D01*
X123326326Y-62508430D01*
X123240656Y-62491390D01*
X123159957Y-62457963D01*
X123087330Y-62409435D01*
X123025565Y-62347670D01*
X122977037Y-62275043D01*
X122943610Y-62194344D01*
X122926570Y-62108674D01*
X122926570Y-62021326D01*
X122943610Y-61935656D01*
X122977037Y-61854957D01*
X123025565Y-61782330D01*
X123087330Y-61720565D01*
X123159957Y-61672037D01*
X123240656Y-61638610D01*
X123326326Y-61621570D01*
X123413674Y-61621570D01*
X123499344Y-61638610D01*
G37*
G36*
X122229344Y-61638610D02*
G01*
X122310043Y-61672037D01*
X122382670Y-61720565D01*
X122444435Y-61782330D01*
X122492963Y-61854957D01*
X122526390Y-61935656D01*
X122543430Y-62021326D01*
X122543430Y-62108674D01*
X122526390Y-62194344D01*
X122492963Y-62275043D01*
X122444435Y-62347670D01*
X122382670Y-62409435D01*
X122310043Y-62457963D01*
X122229344Y-62491390D01*
X122143674Y-62508430D01*
X122056326Y-62508430D01*
X121970656Y-62491390D01*
X121889957Y-62457963D01*
X121817330Y-62409435D01*
X121755565Y-62347670D01*
X121707037Y-62275043D01*
X121673610Y-62194344D01*
X121656570Y-62108674D01*
X121656570Y-62021326D01*
X121673610Y-61935656D01*
X121707037Y-61854957D01*
X121755565Y-61782330D01*
X121817330Y-61720565D01*
X121889957Y-61672037D01*
X121970656Y-61638610D01*
X122056326Y-61621570D01*
X122143674Y-61621570D01*
X122229344Y-61638610D01*
G37*
G36*
X120959344Y-61638610D02*
G01*
X121040043Y-61672037D01*
X121112670Y-61720565D01*
X121174435Y-61782330D01*
X121222963Y-61854957D01*
X121256390Y-61935656D01*
X121273430Y-62021326D01*
X121273430Y-62108674D01*
X121256390Y-62194344D01*
X121222963Y-62275043D01*
X121174435Y-62347670D01*
X121112670Y-62409435D01*
X121040043Y-62457963D01*
X120959344Y-62491390D01*
X120873674Y-62508430D01*
X120786326Y-62508430D01*
X120700656Y-62491390D01*
X120619957Y-62457963D01*
X120547330Y-62409435D01*
X120485565Y-62347670D01*
X120437037Y-62275043D01*
X120403610Y-62194344D01*
X120386570Y-62108674D01*
X120386570Y-62021326D01*
X120403610Y-61935656D01*
X120437037Y-61854957D01*
X120485565Y-61782330D01*
X120547330Y-61720565D01*
X120619957Y-61672037D01*
X120700656Y-61638610D01*
X120786326Y-61621570D01*
X120873674Y-61621570D01*
X120959344Y-61638610D01*
G37*
G36*
X134531000Y-62451000D02*
G01*
X133929000Y-62451000D01*
X133929000Y-61749000D01*
X134531000Y-61749000D01*
X134531000Y-62451000D01*
G37*
G36*
X135471000Y-62451000D02*
G01*
X134869000Y-62451000D01*
X134869000Y-61749000D01*
X135471000Y-61749000D01*
X135471000Y-62451000D01*
G37*
G36*
X138371000Y-62351000D02*
G01*
X137769000Y-62351000D01*
X137769000Y-61649000D01*
X138371000Y-61649000D01*
X138371000Y-62351000D01*
G37*
G36*
X137431000Y-62351000D02*
G01*
X136829000Y-62351000D01*
X136829000Y-61649000D01*
X137431000Y-61649000D01*
X137431000Y-62351000D01*
G37*
G36*
X136451000Y-62331000D02*
G01*
X135749000Y-62331000D01*
X135749000Y-61729000D01*
X136451000Y-61729000D01*
X136451000Y-62331000D01*
G37*
G36*
X119718609Y-61161136D02*
G01*
X119816177Y-61201550D01*
X119817567Y-61202126D01*
X119906627Y-61261634D01*
X119982366Y-61337373D01*
X119982367Y-61337375D01*
X120041875Y-61426435D01*
X120082864Y-61525391D01*
X120103760Y-61630443D01*
X120103760Y-61737557D01*
X120082864Y-61842609D01*
X120044323Y-61935656D01*
X120041874Y-61941567D01*
X119982366Y-62030627D01*
X119906627Y-62106366D01*
X119817567Y-62165874D01*
X119817566Y-62165875D01*
X119817565Y-62165875D01*
X119718609Y-62206864D01*
X119613557Y-62227760D01*
X119506443Y-62227760D01*
X119401391Y-62206864D01*
X119302435Y-62165875D01*
X119302434Y-62165875D01*
X119302433Y-62165874D01*
X119213373Y-62106366D01*
X119137634Y-62030627D01*
X119078126Y-61941567D01*
X119075678Y-61935656D01*
X119037136Y-61842609D01*
X119016240Y-61737557D01*
X119016240Y-61630443D01*
X119037136Y-61525391D01*
X119078125Y-61426435D01*
X119137633Y-61337375D01*
X119137634Y-61337373D01*
X119213373Y-61261634D01*
X119302433Y-61202126D01*
X119303824Y-61201550D01*
X119401391Y-61161136D01*
X119506443Y-61140240D01*
X119613557Y-61140240D01*
X119718609Y-61161136D01*
G37*
G36*
X142251000Y-61931000D02*
G01*
X141549000Y-61931000D01*
X141549000Y-61329000D01*
X142251000Y-61329000D01*
X142251000Y-61931000D01*
G37*
G36*
X129871000Y-61851000D02*
G01*
X129269000Y-61851000D01*
X129269000Y-61149000D01*
X129871000Y-61149000D01*
X129871000Y-61851000D01*
G37*
G36*
X128931000Y-61851000D02*
G01*
X128329000Y-61851000D01*
X128329000Y-61149000D01*
X128931000Y-61149000D01*
X128931000Y-61851000D01*
G37*
G36*
X130951000Y-61631000D02*
G01*
X130249000Y-61631000D01*
X130249000Y-61029000D01*
X130951000Y-61029000D01*
X130951000Y-61631000D01*
G37*
G36*
X115664672Y-60478449D02*
G01*
X115664674Y-60478450D01*
X115664675Y-60478450D01*
X115733103Y-60506793D01*
X115794686Y-60547942D01*
X115847058Y-60600314D01*
X115888207Y-60661897D01*
X115916550Y-60730325D01*
X115916551Y-60730328D01*
X115926034Y-60778003D01*
X115931000Y-60802967D01*
X115931000Y-60877033D01*
X115916550Y-60949675D01*
X115888207Y-61018103D01*
X115847058Y-61079686D01*
X115794686Y-61132058D01*
X115733103Y-61173207D01*
X115664675Y-61201550D01*
X115664674Y-61201550D01*
X115664672Y-61201551D01*
X115592034Y-61216000D01*
X115517966Y-61216000D01*
X115445328Y-61201551D01*
X115445326Y-61201550D01*
X115445325Y-61201550D01*
X115376897Y-61173207D01*
X115315314Y-61132058D01*
X115262942Y-61079686D01*
X115221793Y-61018103D01*
X115193450Y-60949675D01*
X115179000Y-60877033D01*
X115179000Y-60802967D01*
X115183966Y-60778003D01*
X115193449Y-60730328D01*
X115193450Y-60730325D01*
X115221793Y-60661897D01*
X115262942Y-60600314D01*
X115315314Y-60547942D01*
X115376897Y-60506793D01*
X115445325Y-60478450D01*
X115445326Y-60478450D01*
X115445328Y-60478449D01*
X115517966Y-60464000D01*
X115592034Y-60464000D01*
X115664672Y-60478449D01*
G37*
G36*
X133759928Y-60156764D02*
G01*
X133781009Y-60163160D01*
X133800445Y-60173548D01*
X133817476Y-60187524D01*
X133831452Y-60204555D01*
X133841840Y-60223991D01*
X133848236Y-60245072D01*
X133851000Y-60273140D01*
X133851000Y-60736860D01*
X133848236Y-60764928D01*
X133841840Y-60786009D01*
X133831452Y-60805445D01*
X133817476Y-60822476D01*
X133800445Y-60836452D01*
X133781009Y-60846840D01*
X133759928Y-60853236D01*
X133731860Y-60856000D01*
X131918140Y-60856000D01*
X131890072Y-60853236D01*
X131868991Y-60846840D01*
X131849555Y-60836452D01*
X131832524Y-60822476D01*
X131818548Y-60805445D01*
X131808160Y-60786009D01*
X131801764Y-60764928D01*
X131799000Y-60736860D01*
X131799000Y-60273140D01*
X131801764Y-60245072D01*
X131808160Y-60223991D01*
X131818548Y-60204555D01*
X131832524Y-60187524D01*
X131849555Y-60173548D01*
X131868991Y-60163160D01*
X131890072Y-60156764D01*
X131918140Y-60154000D01*
X133731860Y-60154000D01*
X133759928Y-60156764D01*
G37*
G36*
X138709928Y-60156764D02*
G01*
X138731009Y-60163160D01*
X138750445Y-60173548D01*
X138767476Y-60187524D01*
X138781452Y-60204555D01*
X138791840Y-60223991D01*
X138798236Y-60245072D01*
X138801000Y-60273140D01*
X138801000Y-60736860D01*
X138798236Y-60764928D01*
X138791840Y-60786009D01*
X138781452Y-60805445D01*
X138767476Y-60822476D01*
X138750445Y-60836452D01*
X138731009Y-60846840D01*
X138709928Y-60853236D01*
X138681860Y-60856000D01*
X136868140Y-60856000D01*
X136840072Y-60853236D01*
X136818991Y-60846840D01*
X136799555Y-60836452D01*
X136782524Y-60822476D01*
X136768548Y-60805445D01*
X136758160Y-60786009D01*
X136751764Y-60764928D01*
X136749000Y-60736860D01*
X136749000Y-60273140D01*
X136751764Y-60245072D01*
X136758160Y-60223991D01*
X136768548Y-60204555D01*
X136782524Y-60187524D01*
X136799555Y-60173548D01*
X136818991Y-60163160D01*
X136840072Y-60156764D01*
X136868140Y-60154000D01*
X138681860Y-60154000D01*
X138709928Y-60156764D01*
G37*
G36*
X131301000Y-60701000D02*
G01*
X130299000Y-60701000D01*
X130299000Y-59999000D01*
X131301000Y-59999000D01*
X131301000Y-60701000D01*
G37*
G36*
X119051000Y-60671000D02*
G01*
X118349000Y-60671000D01*
X118349000Y-60069000D01*
X119051000Y-60069000D01*
X119051000Y-60671000D01*
G37*
G36*
X129376000Y-60331000D02*
G01*
X126724000Y-60331000D01*
X126724000Y-59169000D01*
X129376000Y-59169000D01*
X129376000Y-60331000D01*
G37*
G36*
X124431000Y-59776000D02*
G01*
X123269000Y-59776000D01*
X123269000Y-57124000D01*
X124431000Y-57124000D01*
X124431000Y-59776000D01*
G37*
G36*
X122231000Y-59776000D02*
G01*
X121069000Y-59776000D01*
X121069000Y-57124000D01*
X122231000Y-57124000D01*
X122231000Y-59776000D01*
G37*
G36*
X119051000Y-59731000D02*
G01*
X118349000Y-59731000D01*
X118349000Y-59129000D01*
X119051000Y-59129000D01*
X119051000Y-59731000D01*
G37*
G36*
X133759928Y-58886764D02*
G01*
X133781009Y-58893160D01*
X133800445Y-58903548D01*
X133817476Y-58917524D01*
X133831452Y-58934555D01*
X133841840Y-58953991D01*
X133848236Y-58975072D01*
X133851000Y-59003140D01*
X133851000Y-59466860D01*
X133848236Y-59494928D01*
X133841840Y-59516009D01*
X133831452Y-59535445D01*
X133817476Y-59552476D01*
X133800445Y-59566452D01*
X133781009Y-59576840D01*
X133759928Y-59583236D01*
X133731860Y-59586000D01*
X131918140Y-59586000D01*
X131890072Y-59583236D01*
X131868991Y-59576840D01*
X131849555Y-59566452D01*
X131832524Y-59552476D01*
X131818548Y-59535445D01*
X131808160Y-59516009D01*
X131801764Y-59494928D01*
X131799000Y-59466860D01*
X131799000Y-59003140D01*
X131801764Y-58975072D01*
X131808160Y-58953991D01*
X131818548Y-58934555D01*
X131832524Y-58917524D01*
X131849555Y-58903548D01*
X131868991Y-58893160D01*
X131890072Y-58886764D01*
X131918140Y-58884000D01*
X133731860Y-58884000D01*
X133759928Y-58886764D01*
G37*
G36*
X138709928Y-58886764D02*
G01*
X138731009Y-58893160D01*
X138750445Y-58903548D01*
X138767476Y-58917524D01*
X138781452Y-58934555D01*
X138791840Y-58953991D01*
X138798236Y-58975072D01*
X138801000Y-59003140D01*
X138801000Y-59466860D01*
X138798236Y-59494928D01*
X138791840Y-59516009D01*
X138781452Y-59535445D01*
X138767476Y-59552476D01*
X138750445Y-59566452D01*
X138731009Y-59576840D01*
X138709928Y-59583236D01*
X138681860Y-59586000D01*
X136868140Y-59586000D01*
X136840072Y-59583236D01*
X136818991Y-59576840D01*
X136799555Y-59566452D01*
X136782524Y-59552476D01*
X136768548Y-59535445D01*
X136758160Y-59516009D01*
X136751764Y-59494928D01*
X136749000Y-59466860D01*
X136749000Y-59003140D01*
X136751764Y-58975072D01*
X136758160Y-58953991D01*
X136768548Y-58934555D01*
X136782524Y-58917524D01*
X136799555Y-58903548D01*
X136818991Y-58893160D01*
X136840072Y-58886764D01*
X136868140Y-58884000D01*
X138681860Y-58884000D01*
X138709928Y-58886764D01*
G37*
G36*
X131301000Y-59201000D02*
G01*
X130299000Y-59201000D01*
X130299000Y-58499000D01*
X131301000Y-58499000D01*
X131301000Y-59201000D01*
G37*
G36*
X149841000Y-58801000D02*
G01*
X144659000Y-58801000D01*
X144659000Y-57199000D01*
X149841000Y-57199000D01*
X149841000Y-58801000D01*
G37*
G36*
X140951000Y-58701000D02*
G01*
X140149000Y-58701000D01*
X140149000Y-57299000D01*
X140951000Y-57299000D01*
X140951000Y-58701000D01*
G37*
G36*
X142851000Y-58701000D02*
G01*
X142049000Y-58701000D01*
X142049000Y-57299000D01*
X142851000Y-57299000D01*
X142851000Y-58701000D01*
G37*
G36*
X138709928Y-57616764D02*
G01*
X138731009Y-57623160D01*
X138750445Y-57633548D01*
X138767476Y-57647524D01*
X138781452Y-57664555D01*
X138791840Y-57683991D01*
X138798236Y-57705072D01*
X138801000Y-57733140D01*
X138801000Y-58196860D01*
X138798236Y-58224928D01*
X138791840Y-58246009D01*
X138781452Y-58265445D01*
X138767476Y-58282476D01*
X138750445Y-58296452D01*
X138731009Y-58306840D01*
X138709928Y-58313236D01*
X138681860Y-58316000D01*
X136868140Y-58316000D01*
X136840072Y-58313236D01*
X136818991Y-58306840D01*
X136799555Y-58296452D01*
X136782524Y-58282476D01*
X136768548Y-58265445D01*
X136758160Y-58246009D01*
X136751764Y-58224928D01*
X136749000Y-58196860D01*
X136749000Y-57733140D01*
X136751764Y-57705072D01*
X136758160Y-57683991D01*
X136768548Y-57664555D01*
X136782524Y-57647524D01*
X136799555Y-57633548D01*
X136818991Y-57623160D01*
X136840072Y-57616764D01*
X136868140Y-57614000D01*
X138681860Y-57614000D01*
X138709928Y-57616764D01*
G37*
G36*
X133759928Y-57616764D02*
G01*
X133781009Y-57623160D01*
X133800445Y-57633548D01*
X133817476Y-57647524D01*
X133831452Y-57664555D01*
X133841840Y-57683991D01*
X133848236Y-57705072D01*
X133851000Y-57733140D01*
X133851000Y-58196860D01*
X133848236Y-58224928D01*
X133841840Y-58246009D01*
X133831452Y-58265445D01*
X133817476Y-58282476D01*
X133800445Y-58296452D01*
X133781009Y-58306840D01*
X133759928Y-58313236D01*
X133731860Y-58316000D01*
X131918140Y-58316000D01*
X131890072Y-58313236D01*
X131868991Y-58306840D01*
X131849555Y-58296452D01*
X131832524Y-58282476D01*
X131818548Y-58265445D01*
X131808160Y-58246009D01*
X131801764Y-58224928D01*
X131799000Y-58196860D01*
X131799000Y-57733140D01*
X131801764Y-57705072D01*
X131808160Y-57683991D01*
X131818548Y-57664555D01*
X131832524Y-57647524D01*
X131849555Y-57633548D01*
X131868991Y-57623160D01*
X131890072Y-57616764D01*
X131918140Y-57614000D01*
X133731860Y-57614000D01*
X133759928Y-57616764D01*
G37*
G36*
X131151000Y-58171000D02*
G01*
X130449000Y-58171000D01*
X130449000Y-57569000D01*
X131151000Y-57569000D01*
X131151000Y-58171000D01*
G37*
G36*
X129376000Y-58131000D02*
G01*
X126724000Y-58131000D01*
X126724000Y-56969000D01*
X129376000Y-56969000D01*
X129376000Y-58131000D01*
G37*
G36*
X131151000Y-57231000D02*
G01*
X130449000Y-57231000D01*
X130449000Y-56629000D01*
X131151000Y-56629000D01*
X131151000Y-57231000D01*
G37*
G36*
X133759928Y-56346764D02*
G01*
X133781009Y-56353160D01*
X133800445Y-56363548D01*
X133817476Y-56377524D01*
X133831452Y-56394555D01*
X133841840Y-56413991D01*
X133848236Y-56435072D01*
X133851000Y-56463140D01*
X133851000Y-56926860D01*
X133848236Y-56954928D01*
X133841840Y-56976009D01*
X133831452Y-56995445D01*
X133817476Y-57012476D01*
X133800445Y-57026452D01*
X133781009Y-57036840D01*
X133759928Y-57043236D01*
X133731860Y-57046000D01*
X131918140Y-57046000D01*
X131890072Y-57043236D01*
X131868991Y-57036840D01*
X131849555Y-57026452D01*
X131832524Y-57012476D01*
X131818548Y-56995445D01*
X131808160Y-56976009D01*
X131801764Y-56954928D01*
X131799000Y-56926860D01*
X131799000Y-56463140D01*
X131801764Y-56435072D01*
X131808160Y-56413991D01*
X131818548Y-56394555D01*
X131832524Y-56377524D01*
X131849555Y-56363548D01*
X131868991Y-56353160D01*
X131890072Y-56346764D01*
X131918140Y-56344000D01*
X133731860Y-56344000D01*
X133759928Y-56346764D01*
G37*
G36*
X138709928Y-56346764D02*
G01*
X138731009Y-56353160D01*
X138750445Y-56363548D01*
X138767476Y-56377524D01*
X138781452Y-56394555D01*
X138791840Y-56413991D01*
X138798236Y-56435072D01*
X138801000Y-56463140D01*
X138801000Y-56926860D01*
X138798236Y-56954928D01*
X138791840Y-56976009D01*
X138781452Y-56995445D01*
X138767476Y-57012476D01*
X138750445Y-57026452D01*
X138731009Y-57036840D01*
X138709928Y-57043236D01*
X138681860Y-57046000D01*
X136868140Y-57046000D01*
X136840072Y-57043236D01*
X136818991Y-57036840D01*
X136799555Y-57026452D01*
X136782524Y-57012476D01*
X136768548Y-56995445D01*
X136758160Y-56976009D01*
X136751764Y-56954928D01*
X136749000Y-56926860D01*
X136749000Y-56463140D01*
X136751764Y-56435072D01*
X136758160Y-56413991D01*
X136768548Y-56394555D01*
X136782524Y-56377524D01*
X136799555Y-56363548D01*
X136818991Y-56353160D01*
X136840072Y-56346764D01*
X136868140Y-56344000D01*
X138681860Y-56344000D01*
X138709928Y-56346764D01*
G37*
G36*
X119101000Y-56471000D02*
G01*
X118399000Y-56471000D01*
X118399000Y-55869000D01*
X119101000Y-55869000D01*
X119101000Y-56471000D01*
G37*
G36*
X129171000Y-56151000D02*
G01*
X128569000Y-56151000D01*
X128569000Y-55449000D01*
X129171000Y-55449000D01*
X129171000Y-56151000D01*
G37*
G36*
X128231000Y-56151000D02*
G01*
X127629000Y-56151000D01*
X127629000Y-55449000D01*
X128231000Y-55449000D01*
X128231000Y-56151000D01*
G37*
G36*
X127071000Y-56151000D02*
G01*
X126469000Y-56151000D01*
X126469000Y-55449000D01*
X127071000Y-55449000D01*
X127071000Y-56151000D01*
G37*
G36*
X126131000Y-56151000D02*
G01*
X125529000Y-56151000D01*
X125529000Y-55449000D01*
X126131000Y-55449000D01*
X126131000Y-56151000D01*
G37*
G36*
X136371000Y-55651000D02*
G01*
X135769000Y-55651000D01*
X135769000Y-54949000D01*
X136371000Y-54949000D01*
X136371000Y-55651000D01*
G37*
G36*
X135431000Y-55651000D02*
G01*
X134829000Y-55651000D01*
X134829000Y-54949000D01*
X135431000Y-54949000D01*
X135431000Y-55651000D01*
G37*
G36*
X119101000Y-55531000D02*
G01*
X118399000Y-55531000D01*
X118399000Y-54929000D01*
X119101000Y-54929000D01*
X119101000Y-55531000D01*
G37*
G36*
X115664672Y-54698449D02*
G01*
X115664674Y-54698450D01*
X115664675Y-54698450D01*
X115733103Y-54726793D01*
X115794686Y-54767942D01*
X115847058Y-54820314D01*
X115888207Y-54881897D01*
X115916550Y-54950325D01*
X115931000Y-55022967D01*
X115931000Y-55097033D01*
X115916550Y-55169675D01*
X115888207Y-55238103D01*
X115847058Y-55299686D01*
X115794686Y-55352058D01*
X115733103Y-55393207D01*
X115664675Y-55421550D01*
X115664674Y-55421550D01*
X115664672Y-55421551D01*
X115592034Y-55436000D01*
X115517966Y-55436000D01*
X115445328Y-55421551D01*
X115445326Y-55421550D01*
X115445325Y-55421550D01*
X115376897Y-55393207D01*
X115315314Y-55352058D01*
X115262942Y-55299686D01*
X115221793Y-55238103D01*
X115193450Y-55169675D01*
X115179000Y-55097033D01*
X115179000Y-55022967D01*
X115193450Y-54950325D01*
X115221793Y-54881897D01*
X115262942Y-54820314D01*
X115315314Y-54767942D01*
X115376897Y-54726793D01*
X115445325Y-54698450D01*
X115445326Y-54698450D01*
X115445328Y-54698449D01*
X115517966Y-54684000D01*
X115592034Y-54684000D01*
X115664672Y-54698449D01*
G37*
G36*
X135201000Y-54601000D02*
G01*
X134499000Y-54601000D01*
X134499000Y-53599000D01*
X135201000Y-53599000D01*
X135201000Y-54601000D01*
G37*
G36*
X136701000Y-54601000D02*
G01*
X135999000Y-54601000D01*
X135999000Y-53599000D01*
X136701000Y-53599000D01*
X136701000Y-54601000D01*
G37*
G36*
X149841000Y-54551000D02*
G01*
X144659000Y-54551000D01*
X144659000Y-52949000D01*
X149841000Y-52949000D01*
X149841000Y-54551000D01*
G37*
G36*
X126027618Y-52483420D02*
G01*
X126108400Y-52507925D01*
X126150336Y-52520646D01*
X126263425Y-52581094D01*
X126362554Y-52662446D01*
X126443906Y-52761575D01*
X126504354Y-52874664D01*
X126504355Y-52874668D01*
X126541580Y-52997382D01*
X126541580Y-52997384D01*
X126549619Y-53079000D01*
X126551000Y-53093027D01*
X126551000Y-53706973D01*
X126541580Y-53802618D01*
X126529670Y-53841879D01*
X126504354Y-53925336D01*
X126443906Y-54038425D01*
X126362554Y-54137553D01*
X126263424Y-54218906D01*
X126150335Y-54279354D01*
X126118403Y-54289040D01*
X126027617Y-54316580D01*
X125900000Y-54329149D01*
X125772382Y-54316580D01*
X125681596Y-54289040D01*
X125649664Y-54279354D01*
X125536575Y-54218906D01*
X125437447Y-54137554D01*
X125356094Y-54038424D01*
X125295646Y-53925335D01*
X125270330Y-53841879D01*
X125258420Y-53802617D01*
X125249000Y-53706972D01*
X125249000Y-53093027D01*
X125250382Y-53079000D01*
X125258420Y-52997384D01*
X125258420Y-52997382D01*
X125295645Y-52874668D01*
X125295645Y-52874667D01*
X125327957Y-52814217D01*
X125356095Y-52761574D01*
X125369493Y-52745249D01*
X125437447Y-52662446D01*
X125536576Y-52581094D01*
X125649665Y-52520646D01*
X125691601Y-52507925D01*
X125772383Y-52483420D01*
X125900000Y-52470851D01*
X126027618Y-52483420D01*
G37*
G36*
X128027618Y-52483420D02*
G01*
X128108400Y-52507925D01*
X128150336Y-52520646D01*
X128263425Y-52581094D01*
X128362554Y-52662446D01*
X128443906Y-52761575D01*
X128504354Y-52874664D01*
X128504355Y-52874668D01*
X128541580Y-52997382D01*
X128541580Y-52997384D01*
X128549619Y-53079000D01*
X128551000Y-53093027D01*
X128551000Y-53706973D01*
X128541580Y-53802618D01*
X128529670Y-53841879D01*
X128504354Y-53925336D01*
X128443906Y-54038425D01*
X128362554Y-54137553D01*
X128263424Y-54218906D01*
X128150335Y-54279354D01*
X128118403Y-54289040D01*
X128027617Y-54316580D01*
X127900000Y-54329149D01*
X127772382Y-54316580D01*
X127681596Y-54289040D01*
X127649664Y-54279354D01*
X127536575Y-54218906D01*
X127437447Y-54137554D01*
X127356094Y-54038424D01*
X127295646Y-53925335D01*
X127270330Y-53841879D01*
X127258420Y-53802617D01*
X127249000Y-53706972D01*
X127249000Y-53093027D01*
X127250382Y-53079000D01*
X127258420Y-52997384D01*
X127258420Y-52997382D01*
X127295645Y-52874668D01*
X127295645Y-52874667D01*
X127327957Y-52814217D01*
X127356095Y-52761574D01*
X127369493Y-52745249D01*
X127437447Y-52662446D01*
X127536576Y-52581094D01*
X127649665Y-52520646D01*
X127691601Y-52507925D01*
X127772383Y-52483420D01*
X127900000Y-52470851D01*
X128027618Y-52483420D01*
G37*
G36*
X124027618Y-52483420D02*
G01*
X124108400Y-52507925D01*
X124150336Y-52520646D01*
X124263425Y-52581094D01*
X124362554Y-52662446D01*
X124443906Y-52761575D01*
X124504354Y-52874664D01*
X124504355Y-52874668D01*
X124541580Y-52997382D01*
X124541580Y-52997384D01*
X124549619Y-53079000D01*
X124551000Y-53093027D01*
X124551000Y-53706973D01*
X124541580Y-53802618D01*
X124529670Y-53841879D01*
X124504354Y-53925336D01*
X124443906Y-54038425D01*
X124362554Y-54137553D01*
X124263424Y-54218906D01*
X124150335Y-54279354D01*
X124118403Y-54289040D01*
X124027617Y-54316580D01*
X123900000Y-54329149D01*
X123772382Y-54316580D01*
X123681596Y-54289040D01*
X123649664Y-54279354D01*
X123536575Y-54218906D01*
X123437447Y-54137554D01*
X123356094Y-54038424D01*
X123295646Y-53925335D01*
X123270330Y-53841879D01*
X123258420Y-53802617D01*
X123249000Y-53706972D01*
X123249000Y-53093027D01*
X123250382Y-53079000D01*
X123258420Y-52997384D01*
X123258420Y-52997382D01*
X123295645Y-52874668D01*
X123295645Y-52874667D01*
X123327957Y-52814217D01*
X123356095Y-52761574D01*
X123369493Y-52745249D01*
X123437447Y-52662446D01*
X123536576Y-52581094D01*
X123649665Y-52520646D01*
X123691601Y-52507925D01*
X123772383Y-52483420D01*
X123900000Y-52470851D01*
X124027618Y-52483420D01*
G37*
G36*
X122027618Y-52483420D02*
G01*
X122108400Y-52507925D01*
X122150336Y-52520646D01*
X122263425Y-52581094D01*
X122362554Y-52662446D01*
X122443906Y-52761575D01*
X122504354Y-52874664D01*
X122504355Y-52874668D01*
X122541580Y-52997382D01*
X122541580Y-52997384D01*
X122549619Y-53079000D01*
X122551000Y-53093027D01*
X122551000Y-53706973D01*
X122541580Y-53802618D01*
X122529670Y-53841879D01*
X122504354Y-53925336D01*
X122443906Y-54038425D01*
X122362554Y-54137553D01*
X122263424Y-54218906D01*
X122150335Y-54279354D01*
X122118403Y-54289040D01*
X122027617Y-54316580D01*
X121900000Y-54329149D01*
X121772382Y-54316580D01*
X121681596Y-54289040D01*
X121649664Y-54279354D01*
X121536575Y-54218906D01*
X121437447Y-54137554D01*
X121356094Y-54038424D01*
X121295646Y-53925335D01*
X121270330Y-53841879D01*
X121258420Y-53802617D01*
X121249000Y-53706972D01*
X121249000Y-53093027D01*
X121250382Y-53079000D01*
X121258420Y-52997384D01*
X121258420Y-52997382D01*
X121295645Y-52874668D01*
X121295645Y-52874667D01*
X121327957Y-52814217D01*
X121356095Y-52761574D01*
X121369493Y-52745249D01*
X121437447Y-52662446D01*
X121536576Y-52581094D01*
X121649665Y-52520646D01*
X121691601Y-52507925D01*
X121772383Y-52483420D01*
X121900000Y-52470851D01*
X122027618Y-52483420D01*
G37*
G36*
X130391242Y-52478404D02*
G01*
X130428337Y-52489657D01*
X130462515Y-52507925D01*
X130492481Y-52532519D01*
X130517075Y-52562485D01*
X130535343Y-52596663D01*
X130546596Y-52633758D01*
X130551000Y-52678474D01*
X130551000Y-54121526D01*
X130546596Y-54166242D01*
X130535343Y-54203337D01*
X130517075Y-54237515D01*
X130492481Y-54267481D01*
X130462515Y-54292075D01*
X130428337Y-54310343D01*
X130391242Y-54321596D01*
X130346526Y-54326000D01*
X129453474Y-54326000D01*
X129408758Y-54321596D01*
X129371663Y-54310343D01*
X129337485Y-54292075D01*
X129307519Y-54267481D01*
X129282925Y-54237515D01*
X129264657Y-54203337D01*
X129253404Y-54166242D01*
X129249000Y-54121526D01*
X129249000Y-52678474D01*
X129253404Y-52633758D01*
X129264657Y-52596663D01*
X129282925Y-52562485D01*
X129307519Y-52532519D01*
X129337485Y-52507925D01*
X129371663Y-52489657D01*
X129408758Y-52478404D01*
X129453474Y-52474000D01*
X130346526Y-52474000D01*
X130391242Y-52478404D01*
G37*
G36*
X112313015Y-53086973D02*
G01*
X112416879Y-53118479D01*
X112444055Y-53133005D01*
X112512600Y-53169643D01*
X112596501Y-53238499D01*
X112665357Y-53322400D01*
X112701995Y-53390945D01*
X112716521Y-53418121D01*
X112748027Y-53521985D01*
X112758666Y-53630000D01*
X112748027Y-53738015D01*
X112716521Y-53841879D01*
X112716519Y-53841882D01*
X112665357Y-53937600D01*
X112596501Y-54021501D01*
X112512600Y-54090357D01*
X112444055Y-54126995D01*
X112416879Y-54141521D01*
X112313015Y-54173027D01*
X112232067Y-54181000D01*
X111577933Y-54181000D01*
X111496985Y-54173027D01*
X111393121Y-54141521D01*
X111365945Y-54126995D01*
X111297400Y-54090357D01*
X111213499Y-54021501D01*
X111144643Y-53937600D01*
X111093481Y-53841882D01*
X111093479Y-53841879D01*
X111061973Y-53738015D01*
X111051334Y-53630000D01*
X111061973Y-53521985D01*
X111093479Y-53418121D01*
X111108005Y-53390945D01*
X111144643Y-53322400D01*
X111213499Y-53238499D01*
X111297400Y-53169643D01*
X111365945Y-53133005D01*
X111393121Y-53118479D01*
X111496985Y-53086973D01*
X111577933Y-53079000D01*
X112232067Y-53079000D01*
X112313015Y-53086973D01*
G37*
M02*
