G04 #@! TF.GenerationSoftware,KiCad,Pcbnew,5.1.5+dfsg1-2build2*
G04 #@! TF.CreationDate,2020-09-27T17:25:33+02:00*
G04 #@! TF.ProjectId,tdr,7464722e-6b69-4636-9164-5f7063625858,rev?*
G04 #@! TF.SameCoordinates,Original*
G04 #@! TF.FileFunction,Copper,L2,Bot*
G04 #@! TF.FilePolarity,Positive*
%FSLAX46Y46*%
G04 Gerber Fmt 4.6, Leading zero omitted, Abs format (unit mm)*
G04 Created by KiCad (PCBNEW 5.1.5+dfsg1-2build2) date 2020-09-27 17:25:33*
%MOMM*%
%LPD*%
G04 APERTURE LIST*
%ADD10C,2.250000*%
%ADD11C,2.050000*%
%ADD12O,1.700000X1.700000*%
%ADD13R,1.700000X1.700000*%
%ADD14R,5.080000X1.500000*%
%ADD15O,1.200000X1.750000*%
%ADD16C,0.100000*%
%ADD17O,2.100000X1.000000*%
%ADD18O,1.600000X1.000000*%
%ADD19C,0.600000*%
%ADD20C,0.200000*%
%ADD21C,0.400000*%
%ADD22C,0.500000*%
%ADD23C,0.300000*%
%ADD24C,0.154000*%
G04 APERTURE END LIST*
D10*
X142010000Y-86040000D03*
X142010000Y-80960000D03*
X147090000Y-80960000D03*
X147090000Y-86040000D03*
D11*
X144550000Y-83500000D03*
D10*
X112460000Y-96500000D03*
X117540000Y-96500000D03*
X117540000Y-101580000D03*
X112460000Y-101580000D03*
D11*
X115000000Y-99040000D03*
D10*
X122460000Y-96510000D03*
X127540000Y-96510000D03*
X127540000Y-101590000D03*
X122460000Y-101590000D03*
D11*
X125000000Y-99050000D03*
D10*
X132460000Y-96510000D03*
X137540000Y-96510000D03*
X137540000Y-101590000D03*
X132460000Y-101590000D03*
D11*
X135000000Y-99050000D03*
D10*
X142460000Y-96510000D03*
X147540000Y-96510000D03*
X147540000Y-101590000D03*
X142460000Y-101590000D03*
D11*
X145000000Y-99050000D03*
D10*
X142010000Y-74040000D03*
X142010000Y-68960000D03*
X147090000Y-68960000D03*
X147090000Y-74040000D03*
D11*
X144550000Y-71500000D03*
D12*
X129820000Y-83400000D03*
X132360000Y-83400000D03*
D13*
X134900000Y-83400000D03*
D12*
X129820000Y-71400000D03*
X132360000Y-71400000D03*
D13*
X134900000Y-71400000D03*
D14*
X147250000Y-53750000D03*
X147250000Y-62250000D03*
D15*
X121900000Y-53400000D03*
X123900000Y-53400000D03*
X125900000Y-53400000D03*
X127900000Y-53400000D03*
G04 #@! TA.AperFunction,ComponentPad*
D16*
G36*
X130274505Y-52526204D02*
G01*
X130298773Y-52529804D01*
X130322572Y-52535765D01*
X130345671Y-52544030D01*
X130367850Y-52554520D01*
X130388893Y-52567132D01*
X130408599Y-52581747D01*
X130426777Y-52598223D01*
X130443253Y-52616401D01*
X130457868Y-52636107D01*
X130470480Y-52657150D01*
X130480970Y-52679329D01*
X130489235Y-52702428D01*
X130495196Y-52726227D01*
X130498796Y-52750495D01*
X130500000Y-52774999D01*
X130500000Y-54025001D01*
X130498796Y-54049505D01*
X130495196Y-54073773D01*
X130489235Y-54097572D01*
X130480970Y-54120671D01*
X130470480Y-54142850D01*
X130457868Y-54163893D01*
X130443253Y-54183599D01*
X130426777Y-54201777D01*
X130408599Y-54218253D01*
X130388893Y-54232868D01*
X130367850Y-54245480D01*
X130345671Y-54255970D01*
X130322572Y-54264235D01*
X130298773Y-54270196D01*
X130274505Y-54273796D01*
X130250001Y-54275000D01*
X129549999Y-54275000D01*
X129525495Y-54273796D01*
X129501227Y-54270196D01*
X129477428Y-54264235D01*
X129454329Y-54255970D01*
X129432150Y-54245480D01*
X129411107Y-54232868D01*
X129391401Y-54218253D01*
X129373223Y-54201777D01*
X129356747Y-54183599D01*
X129342132Y-54163893D01*
X129329520Y-54142850D01*
X129319030Y-54120671D01*
X129310765Y-54097572D01*
X129304804Y-54073773D01*
X129301204Y-54049505D01*
X129300000Y-54025001D01*
X129300000Y-52774999D01*
X129301204Y-52750495D01*
X129304804Y-52726227D01*
X129310765Y-52702428D01*
X129319030Y-52679329D01*
X129329520Y-52657150D01*
X129342132Y-52636107D01*
X129356747Y-52616401D01*
X129373223Y-52598223D01*
X129391401Y-52581747D01*
X129411107Y-52567132D01*
X129432150Y-52554520D01*
X129454329Y-52544030D01*
X129477428Y-52535765D01*
X129501227Y-52529804D01*
X129525495Y-52526204D01*
X129549999Y-52525000D01*
X130250001Y-52525000D01*
X130274505Y-52526204D01*
G37*
G04 #@! TD.AperFunction*
D17*
X116085000Y-53630000D03*
X116085000Y-62270000D03*
D18*
X111905000Y-53630000D03*
X111905000Y-62270000D03*
D19*
X128000000Y-59300000D03*
X120300000Y-67800000D03*
X121900000Y-67800000D03*
X121900000Y-66600000D03*
X120300000Y-66600000D03*
X117700000Y-91900000D03*
X122300000Y-90500000D03*
X125800000Y-93300000D03*
X114100000Y-93200000D03*
X115500000Y-91900000D03*
X117700000Y-90500000D03*
X122750000Y-58450000D03*
X132300000Y-75300000D03*
X132300000Y-79500000D03*
X132300000Y-81500000D03*
X134100000Y-79500000D03*
X134100000Y-81500000D03*
X134000000Y-85500000D03*
X133500000Y-69500000D03*
X132300000Y-73300000D03*
X134100000Y-75300000D03*
X134100000Y-73300000D03*
X136300000Y-69500000D03*
X136300000Y-73300000D03*
X137900000Y-70300000D03*
X137900000Y-72500000D03*
X139900000Y-72500000D03*
X139900000Y-70300000D03*
X139900000Y-82300000D03*
X139900000Y-84500000D03*
X137900000Y-82300000D03*
X137900000Y-84500000D03*
X136300000Y-81500000D03*
X136000000Y-85400000D03*
X142300000Y-90499999D03*
X137700000Y-90500000D03*
X137700000Y-91900000D03*
X142300000Y-91900000D03*
X135500000Y-91900000D03*
X144500000Y-92000000D03*
X139000000Y-93000000D03*
X141000000Y-93000000D03*
X132300000Y-77400000D03*
X130000000Y-77400000D03*
X130000000Y-79000000D03*
X130000000Y-75800000D03*
X128000000Y-75200000D03*
X128000000Y-77300000D03*
X126500000Y-77000000D03*
X128200000Y-80000000D03*
X125600000Y-80000000D03*
X121700000Y-83700000D03*
X123000000Y-84400000D03*
X124000000Y-82800000D03*
X120500000Y-84700000D03*
X118500000Y-84600000D03*
X121600000Y-79300000D03*
X120300000Y-79600000D03*
X121600000Y-78100000D03*
X123000000Y-79300000D03*
X123300000Y-77600000D03*
X128200000Y-81600000D03*
X128200000Y-83300000D03*
X138000000Y-87000000D03*
X130000000Y-87000000D03*
X139900000Y-88100000D03*
X140000000Y-90400000D03*
X120000000Y-90400000D03*
X116100000Y-94100000D03*
X123800000Y-94200000D03*
X119000000Y-93000000D03*
X121000000Y-93000000D03*
X136000000Y-94400000D03*
X144000000Y-94400000D03*
X134200000Y-93300000D03*
X145800000Y-93300000D03*
X136000000Y-88400000D03*
X130000000Y-88400000D03*
X138000000Y-88400000D03*
X130000000Y-85500000D03*
X132000000Y-85500000D03*
X139000000Y-85300000D03*
X128400000Y-87600000D03*
X130800000Y-59500000D03*
X131800000Y-61000000D03*
X134500000Y-60700000D03*
X139900000Y-68000000D03*
X137900000Y-68000000D03*
X140200000Y-64200000D03*
X138100000Y-63900000D03*
X141900000Y-65400000D03*
X138000000Y-76000000D03*
X140000000Y-76000000D03*
X136000000Y-78000000D03*
X137500000Y-79500000D03*
X129700000Y-80700000D03*
X118000000Y-94100000D03*
X122000000Y-94100000D03*
X138000000Y-94400000D03*
X141000000Y-94400000D03*
X130000000Y-92000000D03*
X130000000Y-94000000D03*
X112000000Y-88000000D03*
X111000000Y-90000000D03*
X115400000Y-66700000D03*
X115400000Y-67800000D03*
X117400000Y-70900000D03*
X124300000Y-64100000D03*
X124400000Y-68600000D03*
X125000000Y-66000000D03*
X126200000Y-70100000D03*
X124800000Y-71700000D03*
X126200000Y-74100000D03*
X123000000Y-75900000D03*
X119700000Y-75900000D03*
X117500000Y-74300000D03*
X117400000Y-77000000D03*
X117400000Y-79600000D03*
X111300000Y-83800000D03*
X111400000Y-80700000D03*
X114600000Y-79200000D03*
X114800000Y-81100000D03*
X114700000Y-73300000D03*
X111700000Y-71900000D03*
X112800000Y-68900000D03*
X132500000Y-62500000D03*
X131400000Y-64600000D03*
X124300000Y-92000000D03*
X122300000Y-91900000D03*
X136000000Y-87000000D03*
X132000000Y-87000000D03*
X132000000Y-89100000D03*
X134000000Y-89100000D03*
X125000000Y-87000000D03*
X127000000Y-87000000D03*
X125000000Y-89000000D03*
X122400000Y-89000000D03*
X121900000Y-87200000D03*
X124000000Y-85600000D03*
X118500000Y-88000000D03*
X119100000Y-86100000D03*
X127300000Y-88600000D03*
X123600000Y-90100000D03*
X121000000Y-58450000D03*
X115100000Y-58500000D03*
X128100000Y-58500000D03*
X130000000Y-68600000D03*
X130300000Y-64600000D03*
X123500000Y-51500000D03*
X135100000Y-58300000D03*
X127900000Y-62000000D03*
X131100000Y-75100000D03*
X134200000Y-77400000D03*
X140000000Y-92800000D03*
X120000000Y-93100000D03*
X112600000Y-58500000D03*
X114400000Y-92200000D03*
X115300000Y-63600000D03*
X113300000Y-63500000D03*
X139000000Y-64200000D03*
X123200000Y-74800000D03*
X124000000Y-73000000D03*
X123200000Y-76699992D03*
X119999990Y-76725728D03*
X112900000Y-69800000D03*
X119899996Y-70500000D03*
X130000000Y-62500000D03*
X128000000Y-64200000D03*
X121600000Y-74700000D03*
X127501776Y-68209659D03*
X120300000Y-74700000D03*
X126800000Y-66700000D03*
X121100000Y-75400000D03*
X127357096Y-67422838D03*
D20*
X115150000Y-58450000D02*
X115100000Y-58500000D01*
X121000000Y-58450000D02*
X115150000Y-58450000D01*
X128100000Y-58500000D02*
X127200000Y-57600000D01*
X121850000Y-57600000D02*
X121000000Y-58450000D01*
X127200000Y-57600000D02*
X121850000Y-57600000D01*
D21*
X130000000Y-64900000D02*
X130300000Y-64600000D01*
X130000000Y-68600000D02*
X130000000Y-64900000D01*
D22*
X121900000Y-53100000D02*
X123500000Y-51500000D01*
X121900000Y-53400000D02*
X121900000Y-53100000D01*
D21*
X135100000Y-58800000D02*
X135100000Y-58300000D01*
X130300000Y-64600000D02*
X130300000Y-63600000D01*
D20*
X128199999Y-61700001D02*
X130200001Y-61700001D01*
X127900000Y-62000000D02*
X128199999Y-61700001D01*
D21*
X131200000Y-62700000D02*
X135100000Y-58800000D01*
D20*
X130200001Y-61700001D02*
X131200000Y-62700000D01*
D21*
X130300000Y-63600000D02*
X131200000Y-62700000D01*
D23*
X133400000Y-77400000D02*
X134200000Y-77400000D01*
X131100000Y-75100000D02*
X133400000Y-77400000D01*
X120137998Y-93100000D02*
X120000000Y-93100000D01*
X120687999Y-93650001D02*
X120137998Y-93100000D01*
X121312001Y-93650001D02*
X120687999Y-93650001D01*
X125487999Y-92649999D02*
X125037998Y-93100000D01*
X134512001Y-92649999D02*
X125487999Y-92649999D01*
X121862002Y-93100000D02*
X121312001Y-93650001D01*
X138237998Y-93200000D02*
X135062002Y-93200000D01*
X125037998Y-93100000D02*
X121862002Y-93100000D01*
X135062002Y-93200000D02*
X134512001Y-92649999D01*
X138737998Y-93700000D02*
X138237998Y-93200000D01*
X139524264Y-93700000D02*
X138737998Y-93700000D01*
X140000000Y-93224264D02*
X139524264Y-93700000D01*
X140000000Y-92800000D02*
X140000000Y-93224264D01*
D21*
X115100000Y-58500000D02*
X112600000Y-58500000D01*
D23*
X119700001Y-93399999D02*
X120000000Y-93100000D01*
X119449999Y-93650001D02*
X119700001Y-93399999D01*
X118137998Y-93100000D02*
X118687999Y-93650001D01*
X118687999Y-93650001D02*
X119449999Y-93650001D01*
X115300000Y-93100000D02*
X118137998Y-93100000D01*
X114400000Y-92200000D02*
X115300000Y-93100000D01*
D20*
X113400000Y-63600000D02*
X113300000Y-63500000D01*
X115300000Y-63600000D02*
X113400000Y-63600000D01*
X139000000Y-64624264D02*
X139000000Y-64200000D01*
X139000000Y-76400000D02*
X139000000Y-64624264D01*
X129820000Y-82197919D02*
X131517919Y-80500000D01*
X134900000Y-80500000D02*
X139000000Y-76400000D01*
X129820000Y-83400000D02*
X129820000Y-82197919D01*
X131517919Y-80500000D02*
X134900000Y-80500000D01*
X123200000Y-73800000D02*
X124000000Y-73000000D01*
X123200000Y-74800000D02*
X123200000Y-73800000D01*
X123200000Y-76699992D02*
X120025726Y-76699992D01*
X120025726Y-76699992D02*
X119999990Y-76725728D01*
X112900000Y-69800000D02*
X119100000Y-69800000D01*
X119100000Y-69800000D02*
X119800000Y-70500000D01*
X119800000Y-70500000D02*
X119899996Y-70500000D01*
X128300000Y-64200000D02*
X128000000Y-64200000D01*
X130000000Y-62500000D02*
X128300000Y-64200000D01*
X127411435Y-68300000D02*
X127501776Y-68209659D01*
X127000000Y-68300000D02*
X127411435Y-68300000D01*
X121600000Y-73700000D02*
X127000000Y-68300000D01*
X121600000Y-74700000D02*
X121600000Y-73700000D01*
X126800000Y-66800000D02*
X126800000Y-66700000D01*
X126700000Y-66900000D02*
X126800000Y-66800000D01*
X126700000Y-67450000D02*
X126700000Y-66900000D01*
X120300000Y-73850000D02*
X126700000Y-67450000D01*
X120300000Y-74700000D02*
X120300000Y-73850000D01*
X127311462Y-67422838D02*
X127357096Y-67422838D01*
X120900001Y-73834299D02*
X127311462Y-67422838D01*
X120900001Y-75200001D02*
X120900001Y-73834299D01*
X121100000Y-75400000D02*
X120900001Y-75200001D01*
D24*
G36*
X147523763Y-50354805D02*
G01*
X148027576Y-50506914D01*
X148492248Y-50753984D01*
X148900083Y-51086606D01*
X149235543Y-51492107D01*
X149485851Y-51955043D01*
X149641475Y-52457782D01*
X149669218Y-52721737D01*
X147692250Y-52723000D01*
X147623000Y-52792250D01*
X147623000Y-53377000D01*
X147643000Y-53377000D01*
X147643000Y-54123000D01*
X147623000Y-54123000D01*
X147623000Y-54707750D01*
X147692250Y-54777000D01*
X149698001Y-54778281D01*
X149698001Y-61221719D01*
X147692250Y-61223000D01*
X147623000Y-61292250D01*
X147623000Y-61877000D01*
X147643000Y-61877000D01*
X147643000Y-62623000D01*
X147623000Y-62623000D01*
X147623000Y-63207750D01*
X147692250Y-63277000D01*
X149698001Y-63278281D01*
X149698000Y-101185226D01*
X149645196Y-101723763D01*
X149493085Y-102227579D01*
X149246016Y-102692248D01*
X148913394Y-103100083D01*
X148507893Y-103435543D01*
X148044957Y-103685851D01*
X147542219Y-103841475D01*
X147004586Y-103897982D01*
X146999521Y-103898000D01*
X113014774Y-103898000D01*
X112476237Y-103845196D01*
X111972421Y-103693085D01*
X111507752Y-103446016D01*
X111099917Y-103113394D01*
X110802172Y-102753482D01*
X111814020Y-102753482D01*
X111963253Y-102898299D01*
X112229985Y-102969879D01*
X112505557Y-102988047D01*
X112779378Y-102952104D01*
X112956747Y-102898299D01*
X113105980Y-102753482D01*
X116894020Y-102753482D01*
X117043253Y-102898299D01*
X117309985Y-102969879D01*
X117585557Y-102988047D01*
X117859378Y-102952104D01*
X118036747Y-102898299D01*
X118175675Y-102763482D01*
X121814020Y-102763482D01*
X121963253Y-102908299D01*
X122229985Y-102979879D01*
X122505557Y-102998047D01*
X122779378Y-102962104D01*
X122956747Y-102908299D01*
X123105980Y-102763482D01*
X126894020Y-102763482D01*
X127043253Y-102908299D01*
X127309985Y-102979879D01*
X127585557Y-102998047D01*
X127859378Y-102962104D01*
X128036747Y-102908299D01*
X128185980Y-102763482D01*
X131814020Y-102763482D01*
X131963253Y-102908299D01*
X132229985Y-102979879D01*
X132505557Y-102998047D01*
X132779378Y-102962104D01*
X132956747Y-102908299D01*
X133105980Y-102763482D01*
X136894020Y-102763482D01*
X137043253Y-102908299D01*
X137309985Y-102979879D01*
X137585557Y-102998047D01*
X137859378Y-102962104D01*
X138036747Y-102908299D01*
X138185980Y-102763482D01*
X141814020Y-102763482D01*
X141963253Y-102908299D01*
X142229985Y-102979879D01*
X142505557Y-102998047D01*
X142779378Y-102962104D01*
X142956747Y-102908299D01*
X143105980Y-102763482D01*
X146894020Y-102763482D01*
X147043253Y-102908299D01*
X147309985Y-102979879D01*
X147585557Y-102998047D01*
X147859378Y-102962104D01*
X148036747Y-102908299D01*
X148185980Y-102763482D01*
X147540000Y-102117502D01*
X146894020Y-102763482D01*
X143105980Y-102763482D01*
X142460000Y-102117502D01*
X141814020Y-102763482D01*
X138185980Y-102763482D01*
X137540000Y-102117502D01*
X136894020Y-102763482D01*
X133105980Y-102763482D01*
X132460000Y-102117502D01*
X131814020Y-102763482D01*
X128185980Y-102763482D01*
X127540000Y-102117502D01*
X126894020Y-102763482D01*
X123105980Y-102763482D01*
X122460000Y-102117502D01*
X121814020Y-102763482D01*
X118175675Y-102763482D01*
X118185980Y-102753482D01*
X117540000Y-102107502D01*
X116894020Y-102753482D01*
X113105980Y-102753482D01*
X112460000Y-102107502D01*
X111814020Y-102753482D01*
X110802172Y-102753482D01*
X110764457Y-102707893D01*
X110514149Y-102244957D01*
X110358525Y-101742219D01*
X110346264Y-101625557D01*
X111051953Y-101625557D01*
X111087896Y-101899378D01*
X111141701Y-102076747D01*
X111286518Y-102225980D01*
X111932498Y-101580000D01*
X112987502Y-101580000D01*
X113633482Y-102225980D01*
X113778299Y-102076747D01*
X113849879Y-101810015D01*
X113862040Y-101625557D01*
X116131953Y-101625557D01*
X116167896Y-101899378D01*
X116221701Y-102076747D01*
X116366518Y-102225980D01*
X117012498Y-101580000D01*
X118067502Y-101580000D01*
X118713482Y-102225980D01*
X118858299Y-102076747D01*
X118929879Y-101810015D01*
X118941380Y-101635557D01*
X121051953Y-101635557D01*
X121087896Y-101909378D01*
X121141701Y-102086747D01*
X121286518Y-102235980D01*
X121932498Y-101590000D01*
X122987502Y-101590000D01*
X123633482Y-102235980D01*
X123778299Y-102086747D01*
X123849879Y-101820015D01*
X123862040Y-101635557D01*
X126131953Y-101635557D01*
X126167896Y-101909378D01*
X126221701Y-102086747D01*
X126366518Y-102235980D01*
X127012498Y-101590000D01*
X128067502Y-101590000D01*
X128713482Y-102235980D01*
X128858299Y-102086747D01*
X128929879Y-101820015D01*
X128942040Y-101635557D01*
X131051953Y-101635557D01*
X131087896Y-101909378D01*
X131141701Y-102086747D01*
X131286518Y-102235980D01*
X131932498Y-101590000D01*
X132987502Y-101590000D01*
X133633482Y-102235980D01*
X133778299Y-102086747D01*
X133849879Y-101820015D01*
X133862040Y-101635557D01*
X136131953Y-101635557D01*
X136167896Y-101909378D01*
X136221701Y-102086747D01*
X136366518Y-102235980D01*
X137012498Y-101590000D01*
X138067502Y-101590000D01*
X138713482Y-102235980D01*
X138858299Y-102086747D01*
X138929879Y-101820015D01*
X138942040Y-101635557D01*
X141051953Y-101635557D01*
X141087896Y-101909378D01*
X141141701Y-102086747D01*
X141286518Y-102235980D01*
X141932498Y-101590000D01*
X142987502Y-101590000D01*
X143633482Y-102235980D01*
X143778299Y-102086747D01*
X143849879Y-101820015D01*
X143862040Y-101635557D01*
X146131953Y-101635557D01*
X146167896Y-101909378D01*
X146221701Y-102086747D01*
X146366518Y-102235980D01*
X147012498Y-101590000D01*
X148067502Y-101590000D01*
X148713482Y-102235980D01*
X148858299Y-102086747D01*
X148929879Y-101820015D01*
X148948047Y-101544443D01*
X148912104Y-101270622D01*
X148858299Y-101093253D01*
X148713482Y-100944020D01*
X148067502Y-101590000D01*
X147012498Y-101590000D01*
X146366518Y-100944020D01*
X146221701Y-101093253D01*
X146150121Y-101359985D01*
X146131953Y-101635557D01*
X143862040Y-101635557D01*
X143868047Y-101544443D01*
X143832104Y-101270622D01*
X143778299Y-101093253D01*
X143633482Y-100944020D01*
X142987502Y-101590000D01*
X141932498Y-101590000D01*
X141286518Y-100944020D01*
X141141701Y-101093253D01*
X141070121Y-101359985D01*
X141051953Y-101635557D01*
X138942040Y-101635557D01*
X138948047Y-101544443D01*
X138912104Y-101270622D01*
X138858299Y-101093253D01*
X138713482Y-100944020D01*
X138067502Y-101590000D01*
X137012498Y-101590000D01*
X136366518Y-100944020D01*
X136221701Y-101093253D01*
X136150121Y-101359985D01*
X136131953Y-101635557D01*
X133862040Y-101635557D01*
X133868047Y-101544443D01*
X133832104Y-101270622D01*
X133778299Y-101093253D01*
X133633482Y-100944020D01*
X132987502Y-101590000D01*
X131932498Y-101590000D01*
X131286518Y-100944020D01*
X131141701Y-101093253D01*
X131070121Y-101359985D01*
X131051953Y-101635557D01*
X128942040Y-101635557D01*
X128948047Y-101544443D01*
X128912104Y-101270622D01*
X128858299Y-101093253D01*
X128713482Y-100944020D01*
X128067502Y-101590000D01*
X127012498Y-101590000D01*
X126366518Y-100944020D01*
X126221701Y-101093253D01*
X126150121Y-101359985D01*
X126131953Y-101635557D01*
X123862040Y-101635557D01*
X123868047Y-101544443D01*
X123832104Y-101270622D01*
X123778299Y-101093253D01*
X123633482Y-100944020D01*
X122987502Y-101590000D01*
X121932498Y-101590000D01*
X121286518Y-100944020D01*
X121141701Y-101093253D01*
X121070121Y-101359985D01*
X121051953Y-101635557D01*
X118941380Y-101635557D01*
X118948047Y-101534443D01*
X118912104Y-101260622D01*
X118858299Y-101083253D01*
X118713482Y-100934020D01*
X118067502Y-101580000D01*
X117012498Y-101580000D01*
X116366518Y-100934020D01*
X116221701Y-101083253D01*
X116150121Y-101349985D01*
X116131953Y-101625557D01*
X113862040Y-101625557D01*
X113868047Y-101534443D01*
X113832104Y-101260622D01*
X113778299Y-101083253D01*
X113633482Y-100934020D01*
X112987502Y-101580000D01*
X111932498Y-101580000D01*
X111286518Y-100934020D01*
X111141701Y-101083253D01*
X111070121Y-101349985D01*
X111051953Y-101625557D01*
X110346264Y-101625557D01*
X110302018Y-101204586D01*
X110302000Y-101199521D01*
X110302000Y-100406518D01*
X111814020Y-100406518D01*
X112460000Y-101052498D01*
X113105980Y-100406518D01*
X116894020Y-100406518D01*
X117540000Y-101052498D01*
X118175980Y-100416518D01*
X121814020Y-100416518D01*
X122460000Y-101062498D01*
X123105980Y-100416518D01*
X126894020Y-100416518D01*
X127540000Y-101062498D01*
X128185980Y-100416518D01*
X131814020Y-100416518D01*
X132460000Y-101062498D01*
X133105980Y-100416518D01*
X136894020Y-100416518D01*
X137540000Y-101062498D01*
X138185980Y-100416518D01*
X141814020Y-100416518D01*
X142460000Y-101062498D01*
X143105980Y-100416518D01*
X146894020Y-100416518D01*
X147540000Y-101062498D01*
X148185980Y-100416518D01*
X148036747Y-100271701D01*
X147770015Y-100200121D01*
X147494443Y-100181953D01*
X147220622Y-100217896D01*
X147043253Y-100271701D01*
X146894020Y-100416518D01*
X143105980Y-100416518D01*
X142956747Y-100271701D01*
X142690015Y-100200121D01*
X142414443Y-100181953D01*
X142140622Y-100217896D01*
X141963253Y-100271701D01*
X141814020Y-100416518D01*
X138185980Y-100416518D01*
X138036747Y-100271701D01*
X137770015Y-100200121D01*
X137494443Y-100181953D01*
X137220622Y-100217896D01*
X137043253Y-100271701D01*
X136894020Y-100416518D01*
X133105980Y-100416518D01*
X132956747Y-100271701D01*
X132690015Y-100200121D01*
X132414443Y-100181953D01*
X132140622Y-100217896D01*
X131963253Y-100271701D01*
X131814020Y-100416518D01*
X128185980Y-100416518D01*
X128036747Y-100271701D01*
X127770015Y-100200121D01*
X127494443Y-100181953D01*
X127220622Y-100217896D01*
X127043253Y-100271701D01*
X126894020Y-100416518D01*
X123105980Y-100416518D01*
X122956747Y-100271701D01*
X122690015Y-100200121D01*
X122414443Y-100181953D01*
X122140622Y-100217896D01*
X121963253Y-100271701D01*
X121814020Y-100416518D01*
X118175980Y-100416518D01*
X118185980Y-100406518D01*
X118036747Y-100261701D01*
X117770015Y-100190121D01*
X117494443Y-100171953D01*
X117220622Y-100207896D01*
X117043253Y-100261701D01*
X116894020Y-100406518D01*
X113105980Y-100406518D01*
X112956747Y-100261701D01*
X112690015Y-100190121D01*
X112414443Y-100171953D01*
X112140622Y-100207896D01*
X111963253Y-100261701D01*
X111814020Y-100406518D01*
X110302000Y-100406518D01*
X110302000Y-98911764D01*
X113698000Y-98911764D01*
X113698000Y-99168236D01*
X113748035Y-99419779D01*
X113846182Y-99656728D01*
X113988670Y-99869977D01*
X114170023Y-100051330D01*
X114383272Y-100193818D01*
X114620221Y-100291965D01*
X114871764Y-100342000D01*
X115128236Y-100342000D01*
X115379779Y-100291965D01*
X115616728Y-100193818D01*
X115829977Y-100051330D01*
X116011330Y-99869977D01*
X116153818Y-99656728D01*
X116251965Y-99419779D01*
X116302000Y-99168236D01*
X116302000Y-98921764D01*
X123698000Y-98921764D01*
X123698000Y-99178236D01*
X123748035Y-99429779D01*
X123846182Y-99666728D01*
X123988670Y-99879977D01*
X124170023Y-100061330D01*
X124383272Y-100203818D01*
X124620221Y-100301965D01*
X124871764Y-100352000D01*
X125128236Y-100352000D01*
X125379779Y-100301965D01*
X125616728Y-100203818D01*
X125829977Y-100061330D01*
X126011330Y-99879977D01*
X126153818Y-99666728D01*
X126251965Y-99429779D01*
X126302000Y-99178236D01*
X126302000Y-98921764D01*
X133698000Y-98921764D01*
X133698000Y-99178236D01*
X133748035Y-99429779D01*
X133846182Y-99666728D01*
X133988670Y-99879977D01*
X134170023Y-100061330D01*
X134383272Y-100203818D01*
X134620221Y-100301965D01*
X134871764Y-100352000D01*
X135128236Y-100352000D01*
X135379779Y-100301965D01*
X135616728Y-100203818D01*
X135829977Y-100061330D01*
X136011330Y-99879977D01*
X136153818Y-99666728D01*
X136251965Y-99429779D01*
X136302000Y-99178236D01*
X136302000Y-98921764D01*
X143698000Y-98921764D01*
X143698000Y-99178236D01*
X143748035Y-99429779D01*
X143846182Y-99666728D01*
X143988670Y-99879977D01*
X144170023Y-100061330D01*
X144383272Y-100203818D01*
X144620221Y-100301965D01*
X144871764Y-100352000D01*
X145128236Y-100352000D01*
X145379779Y-100301965D01*
X145616728Y-100203818D01*
X145829977Y-100061330D01*
X146011330Y-99879977D01*
X146153818Y-99666728D01*
X146251965Y-99429779D01*
X146302000Y-99178236D01*
X146302000Y-98921764D01*
X146251965Y-98670221D01*
X146153818Y-98433272D01*
X146011330Y-98220023D01*
X145829977Y-98038670D01*
X145616728Y-97896182D01*
X145379779Y-97798035D01*
X145128236Y-97748000D01*
X144871764Y-97748000D01*
X144620221Y-97798035D01*
X144383272Y-97896182D01*
X144170023Y-98038670D01*
X143988670Y-98220023D01*
X143846182Y-98433272D01*
X143748035Y-98670221D01*
X143698000Y-98921764D01*
X136302000Y-98921764D01*
X136251965Y-98670221D01*
X136153818Y-98433272D01*
X136011330Y-98220023D01*
X135829977Y-98038670D01*
X135616728Y-97896182D01*
X135379779Y-97798035D01*
X135128236Y-97748000D01*
X134871764Y-97748000D01*
X134620221Y-97798035D01*
X134383272Y-97896182D01*
X134170023Y-98038670D01*
X133988670Y-98220023D01*
X133846182Y-98433272D01*
X133748035Y-98670221D01*
X133698000Y-98921764D01*
X126302000Y-98921764D01*
X126251965Y-98670221D01*
X126153818Y-98433272D01*
X126011330Y-98220023D01*
X125829977Y-98038670D01*
X125616728Y-97896182D01*
X125379779Y-97798035D01*
X125128236Y-97748000D01*
X124871764Y-97748000D01*
X124620221Y-97798035D01*
X124383272Y-97896182D01*
X124170023Y-98038670D01*
X123988670Y-98220023D01*
X123846182Y-98433272D01*
X123748035Y-98670221D01*
X123698000Y-98921764D01*
X116302000Y-98921764D01*
X116302000Y-98911764D01*
X116251965Y-98660221D01*
X116153818Y-98423272D01*
X116011330Y-98210023D01*
X115829977Y-98028670D01*
X115616728Y-97886182D01*
X115379779Y-97788035D01*
X115128236Y-97738000D01*
X114871764Y-97738000D01*
X114620221Y-97788035D01*
X114383272Y-97886182D01*
X114170023Y-98028670D01*
X113988670Y-98210023D01*
X113846182Y-98423272D01*
X113748035Y-98660221D01*
X113698000Y-98911764D01*
X110302000Y-98911764D01*
X110302000Y-97673482D01*
X111814020Y-97673482D01*
X111963253Y-97818299D01*
X112229985Y-97889879D01*
X112505557Y-97908047D01*
X112779378Y-97872104D01*
X112956747Y-97818299D01*
X113105980Y-97673482D01*
X116894020Y-97673482D01*
X117043253Y-97818299D01*
X117309985Y-97889879D01*
X117585557Y-97908047D01*
X117859378Y-97872104D01*
X118036747Y-97818299D01*
X118175675Y-97683482D01*
X121814020Y-97683482D01*
X121963253Y-97828299D01*
X122229985Y-97899879D01*
X122505557Y-97918047D01*
X122779378Y-97882104D01*
X122956747Y-97828299D01*
X123105980Y-97683482D01*
X126894020Y-97683482D01*
X127043253Y-97828299D01*
X127309985Y-97899879D01*
X127585557Y-97918047D01*
X127859378Y-97882104D01*
X128036747Y-97828299D01*
X128185980Y-97683482D01*
X131814020Y-97683482D01*
X131963253Y-97828299D01*
X132229985Y-97899879D01*
X132505557Y-97918047D01*
X132779378Y-97882104D01*
X132956747Y-97828299D01*
X133105980Y-97683482D01*
X136894020Y-97683482D01*
X137043253Y-97828299D01*
X137309985Y-97899879D01*
X137585557Y-97918047D01*
X137859378Y-97882104D01*
X138036747Y-97828299D01*
X138185980Y-97683482D01*
X141814020Y-97683482D01*
X141963253Y-97828299D01*
X142229985Y-97899879D01*
X142505557Y-97918047D01*
X142779378Y-97882104D01*
X142956747Y-97828299D01*
X143105980Y-97683482D01*
X146894020Y-97683482D01*
X147043253Y-97828299D01*
X147309985Y-97899879D01*
X147585557Y-97918047D01*
X147859378Y-97882104D01*
X148036747Y-97828299D01*
X148185980Y-97683482D01*
X147540000Y-97037502D01*
X146894020Y-97683482D01*
X143105980Y-97683482D01*
X142460000Y-97037502D01*
X141814020Y-97683482D01*
X138185980Y-97683482D01*
X137540000Y-97037502D01*
X136894020Y-97683482D01*
X133105980Y-97683482D01*
X132460000Y-97037502D01*
X131814020Y-97683482D01*
X128185980Y-97683482D01*
X127540000Y-97037502D01*
X126894020Y-97683482D01*
X123105980Y-97683482D01*
X122460000Y-97037502D01*
X121814020Y-97683482D01*
X118175675Y-97683482D01*
X118185980Y-97673482D01*
X117540000Y-97027502D01*
X116894020Y-97673482D01*
X113105980Y-97673482D01*
X112460000Y-97027502D01*
X111814020Y-97673482D01*
X110302000Y-97673482D01*
X110302000Y-96545557D01*
X111051953Y-96545557D01*
X111087896Y-96819378D01*
X111141701Y-96996747D01*
X111286518Y-97145980D01*
X111932498Y-96500000D01*
X112987502Y-96500000D01*
X113633482Y-97145980D01*
X113778299Y-96996747D01*
X113849879Y-96730015D01*
X113862040Y-96545557D01*
X116131953Y-96545557D01*
X116167896Y-96819378D01*
X116221701Y-96996747D01*
X116366518Y-97145980D01*
X117012498Y-96500000D01*
X118067502Y-96500000D01*
X118713482Y-97145980D01*
X118858299Y-96996747D01*
X118929879Y-96730015D01*
X118941380Y-96555557D01*
X121051953Y-96555557D01*
X121087896Y-96829378D01*
X121141701Y-97006747D01*
X121286518Y-97155980D01*
X121932498Y-96510000D01*
X122987502Y-96510000D01*
X123633482Y-97155980D01*
X123778299Y-97006747D01*
X123849879Y-96740015D01*
X123862040Y-96555557D01*
X126131953Y-96555557D01*
X126167896Y-96829378D01*
X126221701Y-97006747D01*
X126366518Y-97155980D01*
X127012498Y-96510000D01*
X128067502Y-96510000D01*
X128713482Y-97155980D01*
X128858299Y-97006747D01*
X128929879Y-96740015D01*
X128942040Y-96555557D01*
X131051953Y-96555557D01*
X131087896Y-96829378D01*
X131141701Y-97006747D01*
X131286518Y-97155980D01*
X131932498Y-96510000D01*
X132987502Y-96510000D01*
X133633482Y-97155980D01*
X133778299Y-97006747D01*
X133849879Y-96740015D01*
X133862040Y-96555557D01*
X136131953Y-96555557D01*
X136167896Y-96829378D01*
X136221701Y-97006747D01*
X136366518Y-97155980D01*
X137012498Y-96510000D01*
X138067502Y-96510000D01*
X138713482Y-97155980D01*
X138858299Y-97006747D01*
X138929879Y-96740015D01*
X138942040Y-96555557D01*
X141051953Y-96555557D01*
X141087896Y-96829378D01*
X141141701Y-97006747D01*
X141286518Y-97155980D01*
X141932498Y-96510000D01*
X142987502Y-96510000D01*
X143633482Y-97155980D01*
X143778299Y-97006747D01*
X143849879Y-96740015D01*
X143862040Y-96555557D01*
X146131953Y-96555557D01*
X146167896Y-96829378D01*
X146221701Y-97006747D01*
X146366518Y-97155980D01*
X147012498Y-96510000D01*
X148067502Y-96510000D01*
X148713482Y-97155980D01*
X148858299Y-97006747D01*
X148929879Y-96740015D01*
X148948047Y-96464443D01*
X148912104Y-96190622D01*
X148858299Y-96013253D01*
X148713482Y-95864020D01*
X148067502Y-96510000D01*
X147012498Y-96510000D01*
X146366518Y-95864020D01*
X146221701Y-96013253D01*
X146150121Y-96279985D01*
X146131953Y-96555557D01*
X143862040Y-96555557D01*
X143868047Y-96464443D01*
X143832104Y-96190622D01*
X143778299Y-96013253D01*
X143633482Y-95864020D01*
X142987502Y-96510000D01*
X141932498Y-96510000D01*
X141286518Y-95864020D01*
X141141701Y-96013253D01*
X141070121Y-96279985D01*
X141051953Y-96555557D01*
X138942040Y-96555557D01*
X138948047Y-96464443D01*
X138912104Y-96190622D01*
X138858299Y-96013253D01*
X138713482Y-95864020D01*
X138067502Y-96510000D01*
X137012498Y-96510000D01*
X136366518Y-95864020D01*
X136221701Y-96013253D01*
X136150121Y-96279985D01*
X136131953Y-96555557D01*
X133862040Y-96555557D01*
X133868047Y-96464443D01*
X133832104Y-96190622D01*
X133778299Y-96013253D01*
X133633482Y-95864020D01*
X132987502Y-96510000D01*
X131932498Y-96510000D01*
X131286518Y-95864020D01*
X131141701Y-96013253D01*
X131070121Y-96279985D01*
X131051953Y-96555557D01*
X128942040Y-96555557D01*
X128948047Y-96464443D01*
X128912104Y-96190622D01*
X128858299Y-96013253D01*
X128713482Y-95864020D01*
X128067502Y-96510000D01*
X127012498Y-96510000D01*
X126366518Y-95864020D01*
X126221701Y-96013253D01*
X126150121Y-96279985D01*
X126131953Y-96555557D01*
X123862040Y-96555557D01*
X123868047Y-96464443D01*
X123832104Y-96190622D01*
X123778299Y-96013253D01*
X123633482Y-95864020D01*
X122987502Y-96510000D01*
X121932498Y-96510000D01*
X121286518Y-95864020D01*
X121141701Y-96013253D01*
X121070121Y-96279985D01*
X121051953Y-96555557D01*
X118941380Y-96555557D01*
X118948047Y-96454443D01*
X118912104Y-96180622D01*
X118858299Y-96003253D01*
X118713482Y-95854020D01*
X118067502Y-96500000D01*
X117012498Y-96500000D01*
X116366518Y-95854020D01*
X116221701Y-96003253D01*
X116150121Y-96269985D01*
X116131953Y-96545557D01*
X113862040Y-96545557D01*
X113868047Y-96454443D01*
X113832104Y-96180622D01*
X113778299Y-96003253D01*
X113633482Y-95854020D01*
X112987502Y-96500000D01*
X111932498Y-96500000D01*
X111286518Y-95854020D01*
X111141701Y-96003253D01*
X111070121Y-96269985D01*
X111051953Y-96545557D01*
X110302000Y-96545557D01*
X110302000Y-95326518D01*
X111814020Y-95326518D01*
X112460000Y-95972498D01*
X113105980Y-95326518D01*
X116894020Y-95326518D01*
X117540000Y-95972498D01*
X118175980Y-95336518D01*
X121814020Y-95336518D01*
X122460000Y-95982498D01*
X123105980Y-95336518D01*
X126894020Y-95336518D01*
X127540000Y-95982498D01*
X128185980Y-95336518D01*
X131814020Y-95336518D01*
X132460000Y-95982498D01*
X133105980Y-95336518D01*
X136894020Y-95336518D01*
X137540000Y-95982498D01*
X138185980Y-95336518D01*
X141814020Y-95336518D01*
X142460000Y-95982498D01*
X143105980Y-95336518D01*
X146894020Y-95336518D01*
X147540000Y-95982498D01*
X148185980Y-95336518D01*
X148036747Y-95191701D01*
X147770015Y-95120121D01*
X147494443Y-95101953D01*
X147220622Y-95137896D01*
X147043253Y-95191701D01*
X146894020Y-95336518D01*
X143105980Y-95336518D01*
X142956747Y-95191701D01*
X142690015Y-95120121D01*
X142414443Y-95101953D01*
X142140622Y-95137896D01*
X141963253Y-95191701D01*
X141814020Y-95336518D01*
X138185980Y-95336518D01*
X138036747Y-95191701D01*
X137770015Y-95120121D01*
X137494443Y-95101953D01*
X137220622Y-95137896D01*
X137043253Y-95191701D01*
X136894020Y-95336518D01*
X133105980Y-95336518D01*
X132956747Y-95191701D01*
X132690015Y-95120121D01*
X132414443Y-95101953D01*
X132140622Y-95137896D01*
X131963253Y-95191701D01*
X131814020Y-95336518D01*
X128185980Y-95336518D01*
X128036747Y-95191701D01*
X127770015Y-95120121D01*
X127494443Y-95101953D01*
X127220622Y-95137896D01*
X127043253Y-95191701D01*
X126894020Y-95336518D01*
X123105980Y-95336518D01*
X122956747Y-95191701D01*
X122690015Y-95120121D01*
X122414443Y-95101953D01*
X122140622Y-95137896D01*
X121963253Y-95191701D01*
X121814020Y-95336518D01*
X118175980Y-95336518D01*
X118185980Y-95326518D01*
X118036747Y-95181701D01*
X117770015Y-95110121D01*
X117494443Y-95091953D01*
X117220622Y-95127896D01*
X117043253Y-95181701D01*
X116894020Y-95326518D01*
X113105980Y-95326518D01*
X112956747Y-95181701D01*
X112690015Y-95110121D01*
X112414443Y-95091953D01*
X112140622Y-95127896D01*
X111963253Y-95181701D01*
X111814020Y-95326518D01*
X110302000Y-95326518D01*
X110302000Y-92143170D01*
X113823000Y-92143170D01*
X113823000Y-92256830D01*
X113845174Y-92368305D01*
X113888669Y-92473312D01*
X113951815Y-92567816D01*
X114032184Y-92648185D01*
X114126688Y-92711331D01*
X114231695Y-92754826D01*
X114343170Y-92777000D01*
X114373131Y-92777000D01*
X114983241Y-93387111D01*
X114996605Y-93403395D01*
X115012889Y-93416759D01*
X115012898Y-93416768D01*
X115061623Y-93456755D01*
X115101273Y-93477948D01*
X115135804Y-93496405D01*
X115216293Y-93520822D01*
X115279022Y-93527000D01*
X115279032Y-93527000D01*
X115299999Y-93529065D01*
X115320966Y-93527000D01*
X117961130Y-93527000D01*
X118371235Y-93937106D01*
X118384604Y-93953396D01*
X118400894Y-93966765D01*
X118400898Y-93966769D01*
X118449622Y-94006756D01*
X118468354Y-94016768D01*
X118523803Y-94046406D01*
X118604292Y-94070823D01*
X118667021Y-94077001D01*
X118667032Y-94077001D01*
X118687999Y-94079066D01*
X118708966Y-94077001D01*
X119429032Y-94077001D01*
X119449999Y-94079066D01*
X119470966Y-94077001D01*
X119470977Y-94077001D01*
X119533706Y-94070823D01*
X119614195Y-94046406D01*
X119688375Y-94006756D01*
X119753394Y-93953396D01*
X119766767Y-93937101D01*
X120016769Y-93687100D01*
X120016773Y-93687095D01*
X120026868Y-93677000D01*
X120056830Y-93677000D01*
X120102121Y-93667991D01*
X120371235Y-93937106D01*
X120384604Y-93953396D01*
X120400894Y-93966765D01*
X120400898Y-93966769D01*
X120449622Y-94006756D01*
X120468354Y-94016768D01*
X120523803Y-94046406D01*
X120604292Y-94070823D01*
X120667021Y-94077001D01*
X120667032Y-94077001D01*
X120687999Y-94079066D01*
X120708966Y-94077001D01*
X121291034Y-94077001D01*
X121312001Y-94079066D01*
X121332968Y-94077001D01*
X121332979Y-94077001D01*
X121395708Y-94070823D01*
X121476197Y-94046406D01*
X121550377Y-94006756D01*
X121615396Y-93953396D01*
X121628769Y-93937101D01*
X122038871Y-93527000D01*
X125017031Y-93527000D01*
X125037998Y-93529065D01*
X125058965Y-93527000D01*
X125058976Y-93527000D01*
X125121705Y-93520822D01*
X125202194Y-93496405D01*
X125276374Y-93456755D01*
X125341393Y-93403395D01*
X125354766Y-93387100D01*
X125664868Y-93076999D01*
X134335133Y-93076999D01*
X134745238Y-93487105D01*
X134758607Y-93503395D01*
X134774897Y-93516764D01*
X134774901Y-93516768D01*
X134823625Y-93556755D01*
X134841472Y-93566294D01*
X134897806Y-93596405D01*
X134978295Y-93620822D01*
X135041024Y-93627000D01*
X135041035Y-93627000D01*
X135062002Y-93629065D01*
X135082969Y-93627000D01*
X138061130Y-93627000D01*
X138421234Y-93987105D01*
X138434603Y-94003395D01*
X138450893Y-94016764D01*
X138450897Y-94016768D01*
X138499621Y-94056756D01*
X138556536Y-94087176D01*
X138573802Y-94096405D01*
X138654291Y-94120822D01*
X138717020Y-94127000D01*
X138717031Y-94127000D01*
X138737998Y-94129065D01*
X138758965Y-94127000D01*
X139503297Y-94127000D01*
X139524264Y-94129065D01*
X139545231Y-94127000D01*
X139545242Y-94127000D01*
X139607971Y-94120822D01*
X139688460Y-94096405D01*
X139762640Y-94056755D01*
X139827659Y-94003395D01*
X139841032Y-93987100D01*
X140287110Y-93541024D01*
X140303395Y-93527659D01*
X140316759Y-93511375D01*
X140316768Y-93511366D01*
X140356755Y-93462641D01*
X140381274Y-93416768D01*
X140396405Y-93388460D01*
X140420822Y-93307971D01*
X140427000Y-93245242D01*
X140427000Y-93245230D01*
X140429065Y-93224265D01*
X140427000Y-93203300D01*
X140427000Y-93189001D01*
X140448185Y-93167816D01*
X140511331Y-93073312D01*
X140554826Y-92968305D01*
X140577000Y-92856830D01*
X140577000Y-92743170D01*
X140554826Y-92631695D01*
X140511331Y-92526688D01*
X140448185Y-92432184D01*
X140367816Y-92351815D01*
X140273312Y-92288669D01*
X140168305Y-92245174D01*
X140056830Y-92223000D01*
X139943170Y-92223000D01*
X139831695Y-92245174D01*
X139726688Y-92288669D01*
X139632184Y-92351815D01*
X139551815Y-92432184D01*
X139488669Y-92526688D01*
X139445174Y-92631695D01*
X139423000Y-92743170D01*
X139423000Y-92856830D01*
X139445174Y-92968305D01*
X139488669Y-93073312D01*
X139512066Y-93108328D01*
X139347395Y-93273000D01*
X138914867Y-93273000D01*
X138554765Y-92912899D01*
X138541393Y-92896605D01*
X138476374Y-92843245D01*
X138402194Y-92803595D01*
X138321705Y-92779178D01*
X138258976Y-92773000D01*
X138258965Y-92773000D01*
X138237998Y-92770935D01*
X138217031Y-92773000D01*
X135238871Y-92773000D01*
X134828769Y-92362899D01*
X134815396Y-92346604D01*
X134750377Y-92293244D01*
X134676197Y-92253594D01*
X134595708Y-92229177D01*
X134532979Y-92222999D01*
X134532968Y-92222999D01*
X134512001Y-92220934D01*
X134491034Y-92222999D01*
X125508966Y-92222999D01*
X125487999Y-92220934D01*
X125467032Y-92222999D01*
X125467021Y-92222999D01*
X125404292Y-92229177D01*
X125351559Y-92245174D01*
X125323802Y-92253594D01*
X125249623Y-92293243D01*
X125200898Y-92333231D01*
X125200894Y-92333235D01*
X125184604Y-92346604D01*
X125171235Y-92362894D01*
X124861130Y-92673000D01*
X121882969Y-92673000D01*
X121862002Y-92670935D01*
X121841035Y-92673000D01*
X121841024Y-92673000D01*
X121778295Y-92679178D01*
X121697806Y-92703595D01*
X121683333Y-92711331D01*
X121623625Y-92743245D01*
X121574901Y-92783232D01*
X121574897Y-92783236D01*
X121558607Y-92796605D01*
X121545238Y-92812895D01*
X121135133Y-93223001D01*
X120864868Y-93223001D01*
X120541578Y-92899712D01*
X120511331Y-92826688D01*
X120448185Y-92732184D01*
X120367816Y-92651815D01*
X120273312Y-92588669D01*
X120168305Y-92545174D01*
X120056830Y-92523000D01*
X119943170Y-92523000D01*
X119831695Y-92545174D01*
X119726688Y-92588669D01*
X119632184Y-92651815D01*
X119551815Y-92732184D01*
X119488669Y-92826688D01*
X119445174Y-92931695D01*
X119423000Y-93043170D01*
X119423000Y-93073132D01*
X119412905Y-93083227D01*
X119412900Y-93083231D01*
X119273130Y-93223001D01*
X118864868Y-93223001D01*
X118454764Y-92812898D01*
X118441393Y-92796605D01*
X118376374Y-92743245D01*
X118302194Y-92703595D01*
X118221705Y-92679178D01*
X118158976Y-92673000D01*
X118158965Y-92673000D01*
X118137998Y-92670935D01*
X118117031Y-92673000D01*
X115476870Y-92673000D01*
X114977000Y-92173131D01*
X114977000Y-92143170D01*
X114954826Y-92031695D01*
X114911331Y-91926688D01*
X114848185Y-91832184D01*
X114767816Y-91751815D01*
X114673312Y-91688669D01*
X114568305Y-91645174D01*
X114456830Y-91623000D01*
X114343170Y-91623000D01*
X114231695Y-91645174D01*
X114126688Y-91688669D01*
X114032184Y-91751815D01*
X113951815Y-91832184D01*
X113888669Y-91926688D01*
X113845174Y-92031695D01*
X113823000Y-92143170D01*
X110302000Y-92143170D01*
X110302000Y-87213482D01*
X141364020Y-87213482D01*
X141513253Y-87358299D01*
X141779985Y-87429879D01*
X142055557Y-87448047D01*
X142329378Y-87412104D01*
X142506747Y-87358299D01*
X142655980Y-87213482D01*
X146444020Y-87213482D01*
X146593253Y-87358299D01*
X146859985Y-87429879D01*
X147135557Y-87448047D01*
X147409378Y-87412104D01*
X147586747Y-87358299D01*
X147735980Y-87213482D01*
X147090000Y-86567502D01*
X146444020Y-87213482D01*
X142655980Y-87213482D01*
X142010000Y-86567502D01*
X141364020Y-87213482D01*
X110302000Y-87213482D01*
X110302000Y-86085557D01*
X140601953Y-86085557D01*
X140637896Y-86359378D01*
X140691701Y-86536747D01*
X140836518Y-86685980D01*
X141482498Y-86040000D01*
X142537502Y-86040000D01*
X143183482Y-86685980D01*
X143328299Y-86536747D01*
X143399879Y-86270015D01*
X143412040Y-86085557D01*
X145681953Y-86085557D01*
X145717896Y-86359378D01*
X145771701Y-86536747D01*
X145916518Y-86685980D01*
X146562498Y-86040000D01*
X147617502Y-86040000D01*
X148263482Y-86685980D01*
X148408299Y-86536747D01*
X148479879Y-86270015D01*
X148498047Y-85994443D01*
X148462104Y-85720622D01*
X148408299Y-85543253D01*
X148263482Y-85394020D01*
X147617502Y-86040000D01*
X146562498Y-86040000D01*
X145916518Y-85394020D01*
X145771701Y-85543253D01*
X145700121Y-85809985D01*
X145681953Y-86085557D01*
X143412040Y-86085557D01*
X143418047Y-85994443D01*
X143382104Y-85720622D01*
X143328299Y-85543253D01*
X143183482Y-85394020D01*
X142537502Y-86040000D01*
X141482498Y-86040000D01*
X140836518Y-85394020D01*
X140691701Y-85543253D01*
X140620121Y-85809985D01*
X140601953Y-86085557D01*
X110302000Y-86085557D01*
X110302000Y-84866518D01*
X141364020Y-84866518D01*
X142010000Y-85512498D01*
X142655980Y-84866518D01*
X146444020Y-84866518D01*
X147090000Y-85512498D01*
X147735980Y-84866518D01*
X147586747Y-84721701D01*
X147320015Y-84650121D01*
X147044443Y-84631953D01*
X146770622Y-84667896D01*
X146593253Y-84721701D01*
X146444020Y-84866518D01*
X142655980Y-84866518D01*
X142506747Y-84721701D01*
X142240015Y-84650121D01*
X141964443Y-84631953D01*
X141690622Y-84667896D01*
X141513253Y-84721701D01*
X141364020Y-84866518D01*
X110302000Y-84866518D01*
X110302000Y-83289000D01*
X128693000Y-83289000D01*
X128693000Y-83511000D01*
X128736310Y-83728734D01*
X128821266Y-83933835D01*
X128944602Y-84118421D01*
X129101579Y-84275398D01*
X129286165Y-84398734D01*
X129491266Y-84483690D01*
X129709000Y-84527000D01*
X129931000Y-84527000D01*
X130148734Y-84483690D01*
X130353835Y-84398734D01*
X130538421Y-84275398D01*
X130695398Y-84118421D01*
X130818734Y-83933835D01*
X130903690Y-83728734D01*
X130947000Y-83511000D01*
X130947000Y-83289000D01*
X131233000Y-83289000D01*
X131233000Y-83511000D01*
X131276310Y-83728734D01*
X131361266Y-83933835D01*
X131484602Y-84118421D01*
X131641579Y-84275398D01*
X131826165Y-84398734D01*
X132031266Y-84483690D01*
X132249000Y-84527000D01*
X132471000Y-84527000D01*
X132688734Y-84483690D01*
X132893835Y-84398734D01*
X133078421Y-84275398D01*
X133235398Y-84118421D01*
X133358734Y-83933835D01*
X133443690Y-83728734D01*
X133487000Y-83511000D01*
X133487000Y-83289000D01*
X133443690Y-83071266D01*
X133358734Y-82866165D01*
X133235398Y-82681579D01*
X133103819Y-82550000D01*
X133771660Y-82550000D01*
X133771660Y-84250000D01*
X133777008Y-84304301D01*
X133792847Y-84356516D01*
X133818569Y-84404637D01*
X133853184Y-84446816D01*
X133895363Y-84481431D01*
X133943484Y-84507153D01*
X133995699Y-84522992D01*
X134050000Y-84528340D01*
X135750000Y-84528340D01*
X135804301Y-84522992D01*
X135856516Y-84507153D01*
X135904637Y-84481431D01*
X135946816Y-84446816D01*
X135981431Y-84404637D01*
X136007153Y-84356516D01*
X136022992Y-84304301D01*
X136028340Y-84250000D01*
X136028340Y-83371764D01*
X143248000Y-83371764D01*
X143248000Y-83628236D01*
X143298035Y-83879779D01*
X143396182Y-84116728D01*
X143538670Y-84329977D01*
X143720023Y-84511330D01*
X143933272Y-84653818D01*
X144170221Y-84751965D01*
X144421764Y-84802000D01*
X144678236Y-84802000D01*
X144929779Y-84751965D01*
X145166728Y-84653818D01*
X145379977Y-84511330D01*
X145561330Y-84329977D01*
X145703818Y-84116728D01*
X145801965Y-83879779D01*
X145852000Y-83628236D01*
X145852000Y-83371764D01*
X145801965Y-83120221D01*
X145703818Y-82883272D01*
X145561330Y-82670023D01*
X145379977Y-82488670D01*
X145166728Y-82346182D01*
X144929779Y-82248035D01*
X144678236Y-82198000D01*
X144421764Y-82198000D01*
X144170221Y-82248035D01*
X143933272Y-82346182D01*
X143720023Y-82488670D01*
X143538670Y-82670023D01*
X143396182Y-82883272D01*
X143298035Y-83120221D01*
X143248000Y-83371764D01*
X136028340Y-83371764D01*
X136028340Y-82550000D01*
X136022992Y-82495699D01*
X136007153Y-82443484D01*
X135981431Y-82395363D01*
X135946816Y-82353184D01*
X135904637Y-82318569D01*
X135856516Y-82292847D01*
X135804301Y-82277008D01*
X135750000Y-82271660D01*
X134050000Y-82271660D01*
X133995699Y-82277008D01*
X133943484Y-82292847D01*
X133895363Y-82318569D01*
X133853184Y-82353184D01*
X133818569Y-82395363D01*
X133792847Y-82443484D01*
X133777008Y-82495699D01*
X133771660Y-82550000D01*
X133103819Y-82550000D01*
X133078421Y-82524602D01*
X132893835Y-82401266D01*
X132688734Y-82316310D01*
X132471000Y-82273000D01*
X132249000Y-82273000D01*
X132031266Y-82316310D01*
X131826165Y-82401266D01*
X131641579Y-82524602D01*
X131484602Y-82681579D01*
X131361266Y-82866165D01*
X131276310Y-83071266D01*
X131233000Y-83289000D01*
X130947000Y-83289000D01*
X130903690Y-83071266D01*
X130818734Y-82866165D01*
X130695398Y-82681579D01*
X130538421Y-82524602D01*
X130353835Y-82401266D01*
X130209568Y-82341509D01*
X130417595Y-82133482D01*
X141364020Y-82133482D01*
X141513253Y-82278299D01*
X141779985Y-82349879D01*
X142055557Y-82368047D01*
X142329378Y-82332104D01*
X142506747Y-82278299D01*
X142655980Y-82133482D01*
X146444020Y-82133482D01*
X146593253Y-82278299D01*
X146859985Y-82349879D01*
X147135557Y-82368047D01*
X147409378Y-82332104D01*
X147586747Y-82278299D01*
X147735980Y-82133482D01*
X147090000Y-81487502D01*
X146444020Y-82133482D01*
X142655980Y-82133482D01*
X142010000Y-81487502D01*
X141364020Y-82133482D01*
X130417595Y-82133482D01*
X131545520Y-81005557D01*
X140601953Y-81005557D01*
X140637896Y-81279378D01*
X140691701Y-81456747D01*
X140836518Y-81605980D01*
X141482498Y-80960000D01*
X142537502Y-80960000D01*
X143183482Y-81605980D01*
X143328299Y-81456747D01*
X143399879Y-81190015D01*
X143412040Y-81005557D01*
X145681953Y-81005557D01*
X145717896Y-81279378D01*
X145771701Y-81456747D01*
X145916518Y-81605980D01*
X146562498Y-80960000D01*
X147617502Y-80960000D01*
X148263482Y-81605980D01*
X148408299Y-81456747D01*
X148479879Y-81190015D01*
X148498047Y-80914443D01*
X148462104Y-80640622D01*
X148408299Y-80463253D01*
X148263482Y-80314020D01*
X147617502Y-80960000D01*
X146562498Y-80960000D01*
X145916518Y-80314020D01*
X145771701Y-80463253D01*
X145700121Y-80729985D01*
X145681953Y-81005557D01*
X143412040Y-81005557D01*
X143418047Y-80914443D01*
X143382104Y-80640622D01*
X143328299Y-80463253D01*
X143183482Y-80314020D01*
X142537502Y-80960000D01*
X141482498Y-80960000D01*
X140836518Y-80314020D01*
X140691701Y-80463253D01*
X140620121Y-80729985D01*
X140601953Y-81005557D01*
X131545520Y-81005557D01*
X131674078Y-80877000D01*
X134881488Y-80877000D01*
X134900000Y-80878823D01*
X134918512Y-80877000D01*
X134918519Y-80877000D01*
X134973905Y-80871545D01*
X135044970Y-80849988D01*
X135110463Y-80814981D01*
X135167869Y-80767869D01*
X135179677Y-80753481D01*
X136146640Y-79786518D01*
X141364020Y-79786518D01*
X142010000Y-80432498D01*
X142655980Y-79786518D01*
X146444020Y-79786518D01*
X147090000Y-80432498D01*
X147735980Y-79786518D01*
X147586747Y-79641701D01*
X147320015Y-79570121D01*
X147044443Y-79551953D01*
X146770622Y-79587896D01*
X146593253Y-79641701D01*
X146444020Y-79786518D01*
X142655980Y-79786518D01*
X142506747Y-79641701D01*
X142240015Y-79570121D01*
X141964443Y-79551953D01*
X141690622Y-79587896D01*
X141513253Y-79641701D01*
X141364020Y-79786518D01*
X136146640Y-79786518D01*
X139253488Y-76679671D01*
X139267869Y-76667869D01*
X139314981Y-76610463D01*
X139349988Y-76544970D01*
X139371545Y-76473905D01*
X139373662Y-76452416D01*
X139378824Y-76400000D01*
X139377000Y-76381481D01*
X139377000Y-75213482D01*
X141364020Y-75213482D01*
X141513253Y-75358299D01*
X141779985Y-75429879D01*
X142055557Y-75448047D01*
X142329378Y-75412104D01*
X142506747Y-75358299D01*
X142655980Y-75213482D01*
X146444020Y-75213482D01*
X146593253Y-75358299D01*
X146859985Y-75429879D01*
X147135557Y-75448047D01*
X147409378Y-75412104D01*
X147586747Y-75358299D01*
X147735980Y-75213482D01*
X147090000Y-74567502D01*
X146444020Y-75213482D01*
X142655980Y-75213482D01*
X142010000Y-74567502D01*
X141364020Y-75213482D01*
X139377000Y-75213482D01*
X139377000Y-74085557D01*
X140601953Y-74085557D01*
X140637896Y-74359378D01*
X140691701Y-74536747D01*
X140836518Y-74685980D01*
X141482498Y-74040000D01*
X142537502Y-74040000D01*
X143183482Y-74685980D01*
X143328299Y-74536747D01*
X143399879Y-74270015D01*
X143412040Y-74085557D01*
X145681953Y-74085557D01*
X145717896Y-74359378D01*
X145771701Y-74536747D01*
X145916518Y-74685980D01*
X146562498Y-74040000D01*
X147617502Y-74040000D01*
X148263482Y-74685980D01*
X148408299Y-74536747D01*
X148479879Y-74270015D01*
X148498047Y-73994443D01*
X148462104Y-73720622D01*
X148408299Y-73543253D01*
X148263482Y-73394020D01*
X147617502Y-74040000D01*
X146562498Y-74040000D01*
X145916518Y-73394020D01*
X145771701Y-73543253D01*
X145700121Y-73809985D01*
X145681953Y-74085557D01*
X143412040Y-74085557D01*
X143418047Y-73994443D01*
X143382104Y-73720622D01*
X143328299Y-73543253D01*
X143183482Y-73394020D01*
X142537502Y-74040000D01*
X141482498Y-74040000D01*
X140836518Y-73394020D01*
X140691701Y-73543253D01*
X140620121Y-73809985D01*
X140601953Y-74085557D01*
X139377000Y-74085557D01*
X139377000Y-72866518D01*
X141364020Y-72866518D01*
X142010000Y-73512498D01*
X142655980Y-72866518D01*
X146444020Y-72866518D01*
X147090000Y-73512498D01*
X147735980Y-72866518D01*
X147586747Y-72721701D01*
X147320015Y-72650121D01*
X147044443Y-72631953D01*
X146770622Y-72667896D01*
X146593253Y-72721701D01*
X146444020Y-72866518D01*
X142655980Y-72866518D01*
X142506747Y-72721701D01*
X142240015Y-72650121D01*
X141964443Y-72631953D01*
X141690622Y-72667896D01*
X141513253Y-72721701D01*
X141364020Y-72866518D01*
X139377000Y-72866518D01*
X139377000Y-71371764D01*
X143248000Y-71371764D01*
X143248000Y-71628236D01*
X143298035Y-71879779D01*
X143396182Y-72116728D01*
X143538670Y-72329977D01*
X143720023Y-72511330D01*
X143933272Y-72653818D01*
X144170221Y-72751965D01*
X144421764Y-72802000D01*
X144678236Y-72802000D01*
X144929779Y-72751965D01*
X145166728Y-72653818D01*
X145379977Y-72511330D01*
X145561330Y-72329977D01*
X145703818Y-72116728D01*
X145801965Y-71879779D01*
X145852000Y-71628236D01*
X145852000Y-71371764D01*
X145801965Y-71120221D01*
X145703818Y-70883272D01*
X145561330Y-70670023D01*
X145379977Y-70488670D01*
X145166728Y-70346182D01*
X144929779Y-70248035D01*
X144678236Y-70198000D01*
X144421764Y-70198000D01*
X144170221Y-70248035D01*
X143933272Y-70346182D01*
X143720023Y-70488670D01*
X143538670Y-70670023D01*
X143396182Y-70883272D01*
X143298035Y-71120221D01*
X143248000Y-71371764D01*
X139377000Y-71371764D01*
X139377000Y-70133482D01*
X141364020Y-70133482D01*
X141513253Y-70278299D01*
X141779985Y-70349879D01*
X142055557Y-70368047D01*
X142329378Y-70332104D01*
X142506747Y-70278299D01*
X142655980Y-70133482D01*
X146444020Y-70133482D01*
X146593253Y-70278299D01*
X146859985Y-70349879D01*
X147135557Y-70368047D01*
X147409378Y-70332104D01*
X147586747Y-70278299D01*
X147735980Y-70133482D01*
X147090000Y-69487502D01*
X146444020Y-70133482D01*
X142655980Y-70133482D01*
X142010000Y-69487502D01*
X141364020Y-70133482D01*
X139377000Y-70133482D01*
X139377000Y-69005557D01*
X140601953Y-69005557D01*
X140637896Y-69279378D01*
X140691701Y-69456747D01*
X140836518Y-69605980D01*
X141482498Y-68960000D01*
X142537502Y-68960000D01*
X143183482Y-69605980D01*
X143328299Y-69456747D01*
X143399879Y-69190015D01*
X143412040Y-69005557D01*
X145681953Y-69005557D01*
X145717896Y-69279378D01*
X145771701Y-69456747D01*
X145916518Y-69605980D01*
X146562498Y-68960000D01*
X147617502Y-68960000D01*
X148263482Y-69605980D01*
X148408299Y-69456747D01*
X148479879Y-69190015D01*
X148498047Y-68914443D01*
X148462104Y-68640622D01*
X148408299Y-68463253D01*
X148263482Y-68314020D01*
X147617502Y-68960000D01*
X146562498Y-68960000D01*
X145916518Y-68314020D01*
X145771701Y-68463253D01*
X145700121Y-68729985D01*
X145681953Y-69005557D01*
X143412040Y-69005557D01*
X143418047Y-68914443D01*
X143382104Y-68640622D01*
X143328299Y-68463253D01*
X143183482Y-68314020D01*
X142537502Y-68960000D01*
X141482498Y-68960000D01*
X140836518Y-68314020D01*
X140691701Y-68463253D01*
X140620121Y-68729985D01*
X140601953Y-69005557D01*
X139377000Y-69005557D01*
X139377000Y-67786518D01*
X141364020Y-67786518D01*
X142010000Y-68432498D01*
X142655980Y-67786518D01*
X146444020Y-67786518D01*
X147090000Y-68432498D01*
X147735980Y-67786518D01*
X147586747Y-67641701D01*
X147320015Y-67570121D01*
X147044443Y-67551953D01*
X146770622Y-67587896D01*
X146593253Y-67641701D01*
X146444020Y-67786518D01*
X142655980Y-67786518D01*
X142506747Y-67641701D01*
X142240015Y-67570121D01*
X141964443Y-67551953D01*
X141690622Y-67587896D01*
X141513253Y-67641701D01*
X141364020Y-67786518D01*
X139377000Y-67786518D01*
X139377000Y-64639001D01*
X139448185Y-64567816D01*
X139511331Y-64473312D01*
X139554826Y-64368305D01*
X139577000Y-64256830D01*
X139577000Y-64143170D01*
X139554826Y-64031695D01*
X139511331Y-63926688D01*
X139448185Y-63832184D01*
X139367816Y-63751815D01*
X139273312Y-63688669D01*
X139168305Y-63645174D01*
X139056830Y-63623000D01*
X138943170Y-63623000D01*
X138831695Y-63645174D01*
X138726688Y-63688669D01*
X138632184Y-63751815D01*
X138551815Y-63832184D01*
X138488669Y-63926688D01*
X138445174Y-64031695D01*
X138423000Y-64143170D01*
X138423000Y-64256830D01*
X138445174Y-64368305D01*
X138488669Y-64473312D01*
X138551815Y-64567816D01*
X138623000Y-64639001D01*
X138623000Y-64642782D01*
X138623001Y-64642792D01*
X138623000Y-76243841D01*
X134743842Y-80123000D01*
X131536427Y-80123000D01*
X131517918Y-80121177D01*
X131499409Y-80123000D01*
X131499400Y-80123000D01*
X131444014Y-80128455D01*
X131372949Y-80150012D01*
X131307456Y-80185019D01*
X131250050Y-80232131D01*
X131238247Y-80246513D01*
X129566514Y-81918247D01*
X129552132Y-81930050D01*
X129540329Y-81944432D01*
X129540326Y-81944435D01*
X129505020Y-81987456D01*
X129470012Y-82052950D01*
X129448455Y-82124014D01*
X129441177Y-82197919D01*
X129443001Y-82216441D01*
X129443001Y-82336302D01*
X129286165Y-82401266D01*
X129101579Y-82524602D01*
X128944602Y-82681579D01*
X128821266Y-82866165D01*
X128736310Y-83071266D01*
X128693000Y-83289000D01*
X110302000Y-83289000D01*
X110302000Y-76668898D01*
X119422990Y-76668898D01*
X119422990Y-76782558D01*
X119445164Y-76894033D01*
X119488659Y-76999040D01*
X119551805Y-77093544D01*
X119632174Y-77173913D01*
X119726678Y-77237059D01*
X119831685Y-77280554D01*
X119943160Y-77302728D01*
X120056820Y-77302728D01*
X120168295Y-77280554D01*
X120273302Y-77237059D01*
X120367806Y-77173913D01*
X120448175Y-77093544D01*
X120459235Y-77076992D01*
X122760999Y-77076992D01*
X122832184Y-77148177D01*
X122926688Y-77211323D01*
X123031695Y-77254818D01*
X123143170Y-77276992D01*
X123256830Y-77276992D01*
X123368305Y-77254818D01*
X123473312Y-77211323D01*
X123567816Y-77148177D01*
X123648185Y-77067808D01*
X123711331Y-76973304D01*
X123754826Y-76868297D01*
X123777000Y-76756822D01*
X123777000Y-76643162D01*
X123754826Y-76531687D01*
X123711331Y-76426680D01*
X123648185Y-76332176D01*
X123567816Y-76251807D01*
X123473312Y-76188661D01*
X123368305Y-76145166D01*
X123256830Y-76122992D01*
X123143170Y-76122992D01*
X123031695Y-76145166D01*
X122926688Y-76188661D01*
X122832184Y-76251807D01*
X122760999Y-76322992D01*
X120413255Y-76322992D01*
X120367806Y-76277543D01*
X120273302Y-76214397D01*
X120168295Y-76170902D01*
X120056820Y-76148728D01*
X119943160Y-76148728D01*
X119831685Y-76170902D01*
X119726678Y-76214397D01*
X119632174Y-76277543D01*
X119551805Y-76357912D01*
X119488659Y-76452416D01*
X119445164Y-76557423D01*
X119422990Y-76668898D01*
X110302000Y-76668898D01*
X110302000Y-74643170D01*
X119723000Y-74643170D01*
X119723000Y-74756830D01*
X119745174Y-74868305D01*
X119788669Y-74973312D01*
X119851815Y-75067816D01*
X119932184Y-75148185D01*
X120026688Y-75211331D01*
X120131695Y-75254826D01*
X120243170Y-75277000D01*
X120356830Y-75277000D01*
X120468305Y-75254826D01*
X120524293Y-75231635D01*
X120528456Y-75273905D01*
X120533482Y-75290474D01*
X120523000Y-75343170D01*
X120523000Y-75456830D01*
X120545174Y-75568305D01*
X120588669Y-75673312D01*
X120651815Y-75767816D01*
X120732184Y-75848185D01*
X120826688Y-75911331D01*
X120931695Y-75954826D01*
X121043170Y-75977000D01*
X121156830Y-75977000D01*
X121268305Y-75954826D01*
X121373312Y-75911331D01*
X121467816Y-75848185D01*
X121548185Y-75767816D01*
X121611331Y-75673312D01*
X121654826Y-75568305D01*
X121677000Y-75456830D01*
X121677000Y-75343170D01*
X121663571Y-75275659D01*
X121768305Y-75254826D01*
X121873312Y-75211331D01*
X121967816Y-75148185D01*
X122048185Y-75067816D01*
X122111331Y-74973312D01*
X122154826Y-74868305D01*
X122177000Y-74756830D01*
X122177000Y-74743170D01*
X122623000Y-74743170D01*
X122623000Y-74856830D01*
X122645174Y-74968305D01*
X122688669Y-75073312D01*
X122751815Y-75167816D01*
X122832184Y-75248185D01*
X122926688Y-75311331D01*
X123031695Y-75354826D01*
X123143170Y-75377000D01*
X123256830Y-75377000D01*
X123368305Y-75354826D01*
X123473312Y-75311331D01*
X123567816Y-75248185D01*
X123648185Y-75167816D01*
X123711331Y-75073312D01*
X123723816Y-75043170D01*
X130523000Y-75043170D01*
X130523000Y-75156830D01*
X130545174Y-75268305D01*
X130588669Y-75373312D01*
X130651815Y-75467816D01*
X130732184Y-75548185D01*
X130826688Y-75611331D01*
X130931695Y-75654826D01*
X131043170Y-75677000D01*
X131073132Y-75677000D01*
X133083241Y-77687111D01*
X133096605Y-77703395D01*
X133112889Y-77716759D01*
X133112898Y-77716768D01*
X133161623Y-77756755D01*
X133201273Y-77777948D01*
X133235804Y-77796405D01*
X133316293Y-77820822D01*
X133379022Y-77827000D01*
X133379032Y-77827000D01*
X133399999Y-77829065D01*
X133420966Y-77827000D01*
X133810999Y-77827000D01*
X133832184Y-77848185D01*
X133926688Y-77911331D01*
X134031695Y-77954826D01*
X134143170Y-77977000D01*
X134256830Y-77977000D01*
X134368305Y-77954826D01*
X134473312Y-77911331D01*
X134567816Y-77848185D01*
X134648185Y-77767816D01*
X134711331Y-77673312D01*
X134754826Y-77568305D01*
X134777000Y-77456830D01*
X134777000Y-77343170D01*
X134754826Y-77231695D01*
X134711331Y-77126688D01*
X134648185Y-77032184D01*
X134567816Y-76951815D01*
X134473312Y-76888669D01*
X134368305Y-76845174D01*
X134256830Y-76823000D01*
X134143170Y-76823000D01*
X134031695Y-76845174D01*
X133926688Y-76888669D01*
X133832184Y-76951815D01*
X133810999Y-76973000D01*
X133576870Y-76973000D01*
X131677000Y-75073132D01*
X131677000Y-75043170D01*
X131654826Y-74931695D01*
X131611331Y-74826688D01*
X131548185Y-74732184D01*
X131467816Y-74651815D01*
X131373312Y-74588669D01*
X131268305Y-74545174D01*
X131156830Y-74523000D01*
X131043170Y-74523000D01*
X130931695Y-74545174D01*
X130826688Y-74588669D01*
X130732184Y-74651815D01*
X130651815Y-74732184D01*
X130588669Y-74826688D01*
X130545174Y-74931695D01*
X130523000Y-75043170D01*
X123723816Y-75043170D01*
X123754826Y-74968305D01*
X123777000Y-74856830D01*
X123777000Y-74743170D01*
X123754826Y-74631695D01*
X123711331Y-74526688D01*
X123648185Y-74432184D01*
X123577000Y-74360999D01*
X123577000Y-73956158D01*
X123956159Y-73577000D01*
X124056830Y-73577000D01*
X124168305Y-73554826D01*
X124273312Y-73511331D01*
X124367816Y-73448185D01*
X124448185Y-73367816D01*
X124511331Y-73273312D01*
X124554826Y-73168305D01*
X124577000Y-73056830D01*
X124577000Y-72943170D01*
X124554826Y-72831695D01*
X124511331Y-72726688D01*
X124448185Y-72632184D01*
X124367816Y-72551815D01*
X124273312Y-72488669D01*
X124168305Y-72445174D01*
X124056830Y-72423000D01*
X123943170Y-72423000D01*
X123831695Y-72445174D01*
X123726688Y-72488669D01*
X123632184Y-72551815D01*
X123551815Y-72632184D01*
X123488669Y-72726688D01*
X123445174Y-72831695D01*
X123423000Y-72943170D01*
X123423000Y-73043841D01*
X122946514Y-73520328D01*
X122932132Y-73532131D01*
X122920329Y-73546513D01*
X122920326Y-73546516D01*
X122885020Y-73589537D01*
X122850012Y-73655031D01*
X122828455Y-73726095D01*
X122821177Y-73800000D01*
X122823001Y-73818522D01*
X122823000Y-74360999D01*
X122751815Y-74432184D01*
X122688669Y-74526688D01*
X122645174Y-74631695D01*
X122623000Y-74743170D01*
X122177000Y-74743170D01*
X122177000Y-74643170D01*
X122154826Y-74531695D01*
X122111331Y-74426688D01*
X122048185Y-74332184D01*
X121977000Y-74260999D01*
X121977000Y-73856158D01*
X124544158Y-71289000D01*
X128693000Y-71289000D01*
X128693000Y-71511000D01*
X128736310Y-71728734D01*
X128821266Y-71933835D01*
X128944602Y-72118421D01*
X129101579Y-72275398D01*
X129286165Y-72398734D01*
X129491266Y-72483690D01*
X129709000Y-72527000D01*
X129931000Y-72527000D01*
X130148734Y-72483690D01*
X130353835Y-72398734D01*
X130538421Y-72275398D01*
X130695398Y-72118421D01*
X130818734Y-71933835D01*
X130903690Y-71728734D01*
X130947000Y-71511000D01*
X130947000Y-71289000D01*
X131233000Y-71289000D01*
X131233000Y-71511000D01*
X131276310Y-71728734D01*
X131361266Y-71933835D01*
X131484602Y-72118421D01*
X131641579Y-72275398D01*
X131826165Y-72398734D01*
X132031266Y-72483690D01*
X132249000Y-72527000D01*
X132471000Y-72527000D01*
X132688734Y-72483690D01*
X132893835Y-72398734D01*
X133078421Y-72275398D01*
X133235398Y-72118421D01*
X133358734Y-71933835D01*
X133443690Y-71728734D01*
X133487000Y-71511000D01*
X133487000Y-71289000D01*
X133443690Y-71071266D01*
X133358734Y-70866165D01*
X133235398Y-70681579D01*
X133103819Y-70550000D01*
X133771660Y-70550000D01*
X133771660Y-72250000D01*
X133777008Y-72304301D01*
X133792847Y-72356516D01*
X133818569Y-72404637D01*
X133853184Y-72446816D01*
X133895363Y-72481431D01*
X133943484Y-72507153D01*
X133995699Y-72522992D01*
X134050000Y-72528340D01*
X135750000Y-72528340D01*
X135804301Y-72522992D01*
X135856516Y-72507153D01*
X135904637Y-72481431D01*
X135946816Y-72446816D01*
X135981431Y-72404637D01*
X136007153Y-72356516D01*
X136022992Y-72304301D01*
X136028340Y-72250000D01*
X136028340Y-70550000D01*
X136022992Y-70495699D01*
X136007153Y-70443484D01*
X135981431Y-70395363D01*
X135946816Y-70353184D01*
X135904637Y-70318569D01*
X135856516Y-70292847D01*
X135804301Y-70277008D01*
X135750000Y-70271660D01*
X134050000Y-70271660D01*
X133995699Y-70277008D01*
X133943484Y-70292847D01*
X133895363Y-70318569D01*
X133853184Y-70353184D01*
X133818569Y-70395363D01*
X133792847Y-70443484D01*
X133777008Y-70495699D01*
X133771660Y-70550000D01*
X133103819Y-70550000D01*
X133078421Y-70524602D01*
X132893835Y-70401266D01*
X132688734Y-70316310D01*
X132471000Y-70273000D01*
X132249000Y-70273000D01*
X132031266Y-70316310D01*
X131826165Y-70401266D01*
X131641579Y-70524602D01*
X131484602Y-70681579D01*
X131361266Y-70866165D01*
X131276310Y-71071266D01*
X131233000Y-71289000D01*
X130947000Y-71289000D01*
X130903690Y-71071266D01*
X130818734Y-70866165D01*
X130695398Y-70681579D01*
X130538421Y-70524602D01*
X130353835Y-70401266D01*
X130148734Y-70316310D01*
X129931000Y-70273000D01*
X129709000Y-70273000D01*
X129491266Y-70316310D01*
X129286165Y-70401266D01*
X129101579Y-70524602D01*
X128944602Y-70681579D01*
X128821266Y-70866165D01*
X128736310Y-71071266D01*
X128693000Y-71289000D01*
X124544158Y-71289000D01*
X127156158Y-68677000D01*
X127162629Y-68677000D01*
X127228464Y-68720990D01*
X127333471Y-68764485D01*
X127444946Y-68786659D01*
X127558606Y-68786659D01*
X127670081Y-68764485D01*
X127775088Y-68720990D01*
X127869592Y-68657844D01*
X127949961Y-68577475D01*
X128013107Y-68482971D01*
X128056602Y-68377964D01*
X128078776Y-68266489D01*
X128078776Y-68152829D01*
X128056602Y-68041354D01*
X128013107Y-67936347D01*
X127949961Y-67841843D01*
X127869592Y-67761474D01*
X127838611Y-67740773D01*
X127868427Y-67696150D01*
X127911922Y-67591143D01*
X127934096Y-67479668D01*
X127934096Y-67366008D01*
X127911922Y-67254533D01*
X127868427Y-67149526D01*
X127805281Y-67055022D01*
X127724912Y-66974653D01*
X127630408Y-66911507D01*
X127525401Y-66868012D01*
X127413926Y-66845838D01*
X127359295Y-66845838D01*
X127377000Y-66756830D01*
X127377000Y-66643170D01*
X127354826Y-66531695D01*
X127311331Y-66426688D01*
X127248185Y-66332184D01*
X127167816Y-66251815D01*
X127073312Y-66188669D01*
X126968305Y-66145174D01*
X126856830Y-66123000D01*
X126743170Y-66123000D01*
X126631695Y-66145174D01*
X126526688Y-66188669D01*
X126432184Y-66251815D01*
X126351815Y-66332184D01*
X126288669Y-66426688D01*
X126245174Y-66531695D01*
X126223000Y-66643170D01*
X126223000Y-66756830D01*
X126245174Y-66868305D01*
X126288669Y-66973312D01*
X126323001Y-67024693D01*
X126323000Y-67293841D01*
X120046514Y-73570328D01*
X120032132Y-73582131D01*
X120020329Y-73596513D01*
X120020326Y-73596516D01*
X119985020Y-73639537D01*
X119950012Y-73705031D01*
X119928455Y-73776095D01*
X119921177Y-73850000D01*
X119923001Y-73868522D01*
X119923001Y-74260998D01*
X119851815Y-74332184D01*
X119788669Y-74426688D01*
X119745174Y-74531695D01*
X119723000Y-74643170D01*
X110302000Y-74643170D01*
X110302000Y-69743170D01*
X112323000Y-69743170D01*
X112323000Y-69856830D01*
X112345174Y-69968305D01*
X112388669Y-70073312D01*
X112451815Y-70167816D01*
X112532184Y-70248185D01*
X112626688Y-70311331D01*
X112731695Y-70354826D01*
X112843170Y-70377000D01*
X112956830Y-70377000D01*
X113068305Y-70354826D01*
X113173312Y-70311331D01*
X113267816Y-70248185D01*
X113339001Y-70177000D01*
X118943842Y-70177000D01*
X119322996Y-70556154D01*
X119322996Y-70556830D01*
X119345170Y-70668305D01*
X119388665Y-70773312D01*
X119451811Y-70867816D01*
X119532180Y-70948185D01*
X119626684Y-71011331D01*
X119731691Y-71054826D01*
X119843166Y-71077000D01*
X119956826Y-71077000D01*
X120068301Y-71054826D01*
X120173308Y-71011331D01*
X120267812Y-70948185D01*
X120348181Y-70867816D01*
X120411327Y-70773312D01*
X120454822Y-70668305D01*
X120476996Y-70556830D01*
X120476996Y-70443170D01*
X120454822Y-70331695D01*
X120411327Y-70226688D01*
X120348181Y-70132184D01*
X120267812Y-70051815D01*
X120173308Y-69988669D01*
X120068301Y-69945174D01*
X119956826Y-69923000D01*
X119843166Y-69923000D01*
X119770594Y-69937436D01*
X119379677Y-69546519D01*
X119367869Y-69532131D01*
X119310463Y-69485019D01*
X119244970Y-69450012D01*
X119173905Y-69428455D01*
X119118519Y-69423000D01*
X119118512Y-69423000D01*
X119100000Y-69421177D01*
X119081488Y-69423000D01*
X113339001Y-69423000D01*
X113267816Y-69351815D01*
X113173312Y-69288669D01*
X113068305Y-69245174D01*
X112956830Y-69223000D01*
X112843170Y-69223000D01*
X112731695Y-69245174D01*
X112626688Y-69288669D01*
X112532184Y-69351815D01*
X112451815Y-69432184D01*
X112388669Y-69526688D01*
X112345174Y-69631695D01*
X112323000Y-69743170D01*
X110302000Y-69743170D01*
X110302000Y-63443170D01*
X112723000Y-63443170D01*
X112723000Y-63556830D01*
X112745174Y-63668305D01*
X112788669Y-63773312D01*
X112851815Y-63867816D01*
X112932184Y-63948185D01*
X113026688Y-64011331D01*
X113131695Y-64054826D01*
X113243170Y-64077000D01*
X113356830Y-64077000D01*
X113468305Y-64054826D01*
X113573312Y-64011331D01*
X113624692Y-63977000D01*
X114860999Y-63977000D01*
X114932184Y-64048185D01*
X115026688Y-64111331D01*
X115131695Y-64154826D01*
X115243170Y-64177000D01*
X115356830Y-64177000D01*
X115468305Y-64154826D01*
X115573312Y-64111331D01*
X115667816Y-64048185D01*
X115748185Y-63967816D01*
X115811331Y-63873312D01*
X115854826Y-63768305D01*
X115877000Y-63656830D01*
X115877000Y-63640185D01*
X118790240Y-63640185D01*
X118790240Y-63791815D01*
X118819821Y-63940531D01*
X118877847Y-64080618D01*
X118962088Y-64206694D01*
X119069306Y-64313912D01*
X119195382Y-64398153D01*
X119335469Y-64456179D01*
X119484185Y-64485760D01*
X119635815Y-64485760D01*
X119784531Y-64456179D01*
X119924618Y-64398153D01*
X120050694Y-64313912D01*
X120157912Y-64206694D01*
X120242153Y-64080618D01*
X120300179Y-63940531D01*
X120329760Y-63791815D01*
X120329760Y-63640185D01*
X120300179Y-63491469D01*
X120242153Y-63351382D01*
X120157912Y-63225306D01*
X120050694Y-63118088D01*
X119924618Y-63033847D01*
X119784531Y-62975821D01*
X119635815Y-62946240D01*
X119484185Y-62946240D01*
X119335469Y-62975821D01*
X119195382Y-63033847D01*
X119069306Y-63118088D01*
X118962088Y-63225306D01*
X118877847Y-63351382D01*
X118819821Y-63491469D01*
X118790240Y-63640185D01*
X115877000Y-63640185D01*
X115877000Y-63543170D01*
X115854826Y-63431695D01*
X115811331Y-63326688D01*
X115748185Y-63232184D01*
X115667816Y-63151815D01*
X115590519Y-63100166D01*
X115712000Y-63019120D01*
X115712000Y-62643000D01*
X116458000Y-62643000D01*
X116458000Y-63019120D01*
X116588200Y-63105983D01*
X116752191Y-63099050D01*
X116911679Y-63060257D01*
X117060534Y-62991095D01*
X117193036Y-62894222D01*
X117249874Y-62745036D01*
X117236482Y-62643000D01*
X116458000Y-62643000D01*
X115712000Y-62643000D01*
X114933518Y-62643000D01*
X114920126Y-62745036D01*
X114976964Y-62894222D01*
X115109466Y-62991095D01*
X115197630Y-63032059D01*
X115131695Y-63045174D01*
X115026688Y-63088669D01*
X114932184Y-63151815D01*
X114860999Y-63223000D01*
X113808867Y-63223000D01*
X113748185Y-63132184D01*
X113667816Y-63051815D01*
X113573312Y-62988669D01*
X113468305Y-62945174D01*
X113356830Y-62923000D01*
X113243170Y-62923000D01*
X113131695Y-62945174D01*
X113026688Y-62988669D01*
X112932184Y-63051815D01*
X112851815Y-63132184D01*
X112788669Y-63226688D01*
X112745174Y-63331695D01*
X112723000Y-63443170D01*
X110302000Y-63443170D01*
X110302000Y-62745036D01*
X110990126Y-62745036D01*
X111035994Y-62778005D01*
X111146034Y-62879251D01*
X111273712Y-62957084D01*
X111414121Y-63008513D01*
X111532000Y-62960031D01*
X111532000Y-62643000D01*
X112278000Y-62643000D01*
X112278000Y-62960031D01*
X112395879Y-63008513D01*
X112536288Y-62957084D01*
X112663966Y-62879251D01*
X112774006Y-62778005D01*
X112819874Y-62745036D01*
X112806482Y-62643000D01*
X112278000Y-62643000D01*
X111532000Y-62643000D01*
X111003518Y-62643000D01*
X110990126Y-62745036D01*
X110302000Y-62745036D01*
X110302000Y-62624060D01*
X123868970Y-62624060D01*
X123868970Y-62775940D01*
X123898600Y-62924901D01*
X123956722Y-63065220D01*
X124041102Y-63191503D01*
X124148497Y-63298898D01*
X124274780Y-63383278D01*
X124415099Y-63441400D01*
X124564060Y-63471030D01*
X124715940Y-63471030D01*
X124864901Y-63441400D01*
X125005220Y-63383278D01*
X125131503Y-63298898D01*
X125238898Y-63191503D01*
X125323278Y-63065220D01*
X125381400Y-62924901D01*
X125411030Y-62775940D01*
X125411030Y-62624060D01*
X125381400Y-62475099D01*
X125323278Y-62334780D01*
X125238898Y-62208497D01*
X125131503Y-62101102D01*
X125005220Y-62016722D01*
X124864901Y-61958600D01*
X124787329Y-61943170D01*
X127323000Y-61943170D01*
X127323000Y-62056830D01*
X127345174Y-62168305D01*
X127388669Y-62273312D01*
X127451815Y-62367816D01*
X127532184Y-62448185D01*
X127626688Y-62511331D01*
X127731695Y-62554826D01*
X127843170Y-62577000D01*
X127956830Y-62577000D01*
X128068305Y-62554826D01*
X128173312Y-62511331D01*
X128267816Y-62448185D01*
X128348185Y-62367816D01*
X128411331Y-62273312D01*
X128454826Y-62168305D01*
X128472988Y-62077001D01*
X129606998Y-62077001D01*
X129551815Y-62132184D01*
X129488669Y-62226688D01*
X129445174Y-62331695D01*
X129423000Y-62443170D01*
X129423000Y-62543841D01*
X128276226Y-63690616D01*
X128273312Y-63688669D01*
X128168305Y-63645174D01*
X128056830Y-63623000D01*
X127943170Y-63623000D01*
X127831695Y-63645174D01*
X127726688Y-63688669D01*
X127632184Y-63751815D01*
X127551815Y-63832184D01*
X127488669Y-63926688D01*
X127445174Y-64031695D01*
X127423000Y-64143170D01*
X127423000Y-64256830D01*
X127445174Y-64368305D01*
X127488669Y-64473312D01*
X127551815Y-64567816D01*
X127632184Y-64648185D01*
X127726688Y-64711331D01*
X127831695Y-64754826D01*
X127943170Y-64777000D01*
X128056830Y-64777000D01*
X128168305Y-64754826D01*
X128273312Y-64711331D01*
X128367816Y-64648185D01*
X128448185Y-64567816D01*
X128468502Y-64537410D01*
X128510463Y-64514981D01*
X128567869Y-64467869D01*
X128579677Y-64453481D01*
X129956159Y-63077000D01*
X130056830Y-63077000D01*
X130168305Y-63054826D01*
X130172214Y-63053207D01*
X129979271Y-63246150D01*
X129961080Y-63261079D01*
X129946151Y-63279270D01*
X129946148Y-63279273D01*
X129937725Y-63289537D01*
X129901472Y-63333711D01*
X129894628Y-63346516D01*
X129857178Y-63416578D01*
X129829903Y-63506493D01*
X129820694Y-63600000D01*
X129823001Y-63623425D01*
X129823000Y-64275308D01*
X129788669Y-64326688D01*
X129745174Y-64431695D01*
X129733118Y-64492303D01*
X129679271Y-64546150D01*
X129661080Y-64561079D01*
X129601472Y-64633711D01*
X129589115Y-64656830D01*
X129557178Y-64716578D01*
X129529903Y-64806493D01*
X129520694Y-64900000D01*
X129523001Y-64923425D01*
X129523000Y-68275308D01*
X129488669Y-68326688D01*
X129445174Y-68431695D01*
X129423000Y-68543170D01*
X129423000Y-68656830D01*
X129445174Y-68768305D01*
X129488669Y-68873312D01*
X129551815Y-68967816D01*
X129632184Y-69048185D01*
X129726688Y-69111331D01*
X129831695Y-69154826D01*
X129943170Y-69177000D01*
X130056830Y-69177000D01*
X130168305Y-69154826D01*
X130273312Y-69111331D01*
X130367816Y-69048185D01*
X130448185Y-68967816D01*
X130511331Y-68873312D01*
X130554826Y-68768305D01*
X130577000Y-68656830D01*
X130577000Y-68543170D01*
X130554826Y-68431695D01*
X130511331Y-68326688D01*
X130477000Y-68275308D01*
X130477000Y-65151224D01*
X130573312Y-65111331D01*
X130667816Y-65048185D01*
X130748185Y-64967816D01*
X130811331Y-64873312D01*
X130854826Y-64768305D01*
X130877000Y-64656830D01*
X130877000Y-64543170D01*
X130854826Y-64431695D01*
X130811331Y-64326688D01*
X130777000Y-64275308D01*
X130777000Y-63797579D01*
X131553852Y-63020728D01*
X131553857Y-63020722D01*
X131574579Y-63000000D01*
X144431660Y-63000000D01*
X144437008Y-63054301D01*
X144452847Y-63106516D01*
X144478569Y-63154637D01*
X144513184Y-63196816D01*
X144555363Y-63231431D01*
X144603484Y-63257153D01*
X144655699Y-63272992D01*
X144710000Y-63278340D01*
X146807750Y-63277000D01*
X146877000Y-63207750D01*
X146877000Y-62623000D01*
X144502250Y-62623000D01*
X144433000Y-62692250D01*
X144431660Y-63000000D01*
X131574579Y-63000000D01*
X133074579Y-61500000D01*
X144431660Y-61500000D01*
X144433000Y-61807750D01*
X144502250Y-61877000D01*
X146877000Y-61877000D01*
X146877000Y-61292250D01*
X146807750Y-61223000D01*
X144710000Y-61221660D01*
X144655699Y-61227008D01*
X144603484Y-61242847D01*
X144555363Y-61268569D01*
X144513184Y-61303184D01*
X144478569Y-61345363D01*
X144452847Y-61393484D01*
X144437008Y-61445699D01*
X144431660Y-61500000D01*
X133074579Y-61500000D01*
X135420729Y-59153850D01*
X135438921Y-59138921D01*
X135498529Y-59066289D01*
X135542822Y-58983423D01*
X135570097Y-58893508D01*
X135577000Y-58823423D01*
X135577000Y-58823415D01*
X135579306Y-58800000D01*
X135577000Y-58776585D01*
X135577000Y-58624692D01*
X135611331Y-58573312D01*
X135654826Y-58468305D01*
X135677000Y-58356830D01*
X135677000Y-58243170D01*
X135654826Y-58131695D01*
X135611331Y-58026688D01*
X135548185Y-57932184D01*
X135467816Y-57851815D01*
X135373312Y-57788669D01*
X135268305Y-57745174D01*
X135156830Y-57723000D01*
X135043170Y-57723000D01*
X134931695Y-57745174D01*
X134826688Y-57788669D01*
X134732184Y-57851815D01*
X134651815Y-57932184D01*
X134588669Y-58026688D01*
X134545174Y-58131695D01*
X134523000Y-58243170D01*
X134523000Y-58356830D01*
X134545174Y-58468305D01*
X134588669Y-58573312D01*
X134614079Y-58611341D01*
X131129290Y-62096131D01*
X130479678Y-61446520D01*
X130467870Y-61432132D01*
X130410464Y-61385020D01*
X130344971Y-61350013D01*
X130273906Y-61328456D01*
X130218520Y-61323001D01*
X130218513Y-61323001D01*
X130200001Y-61321178D01*
X130181489Y-61323001D01*
X128218518Y-61323001D01*
X128199999Y-61321177D01*
X128126093Y-61328456D01*
X128070358Y-61345363D01*
X128055029Y-61350013D01*
X127989536Y-61385020D01*
X127989534Y-61385021D01*
X127989535Y-61385021D01*
X127948295Y-61418866D01*
X127943257Y-61423000D01*
X127843170Y-61423000D01*
X127731695Y-61445174D01*
X127626688Y-61488669D01*
X127532184Y-61551815D01*
X127451815Y-61632184D01*
X127388669Y-61726688D01*
X127345174Y-61831695D01*
X127323000Y-61943170D01*
X124787329Y-61943170D01*
X124715940Y-61928970D01*
X124564060Y-61928970D01*
X124415099Y-61958600D01*
X124274780Y-62016722D01*
X124148497Y-62101102D01*
X124041102Y-62208497D01*
X123956722Y-62334780D01*
X123898600Y-62475099D01*
X123868970Y-62624060D01*
X110302000Y-62624060D01*
X110302000Y-61794964D01*
X110990126Y-61794964D01*
X111003518Y-61897000D01*
X111532000Y-61897000D01*
X111532000Y-61579969D01*
X112278000Y-61579969D01*
X112278000Y-61897000D01*
X112806482Y-61897000D01*
X112819874Y-61794964D01*
X114920126Y-61794964D01*
X114933518Y-61897000D01*
X115712000Y-61897000D01*
X115712000Y-61520880D01*
X116458000Y-61520880D01*
X116458000Y-61897000D01*
X117236482Y-61897000D01*
X117249874Y-61794964D01*
X117193036Y-61645778D01*
X117141617Y-61608185D01*
X118790240Y-61608185D01*
X118790240Y-61759815D01*
X118819821Y-61908531D01*
X118877847Y-62048618D01*
X118962088Y-62174694D01*
X119069306Y-62281912D01*
X119195382Y-62366153D01*
X119335469Y-62424179D01*
X119484185Y-62453760D01*
X119635815Y-62453760D01*
X119784531Y-62424179D01*
X119924618Y-62366153D01*
X120050694Y-62281912D01*
X120157912Y-62174694D01*
X120242153Y-62048618D01*
X120300179Y-61908531D01*
X120329760Y-61759815D01*
X120329760Y-61608185D01*
X120300179Y-61459469D01*
X120242153Y-61319382D01*
X120157912Y-61193306D01*
X120050694Y-61086088D01*
X119924618Y-61001847D01*
X119784531Y-60943821D01*
X119635815Y-60914240D01*
X119484185Y-60914240D01*
X119335469Y-60943821D01*
X119195382Y-61001847D01*
X119069306Y-61086088D01*
X118962088Y-61193306D01*
X118877847Y-61319382D01*
X118819821Y-61459469D01*
X118790240Y-61608185D01*
X117141617Y-61608185D01*
X117060534Y-61548905D01*
X116911679Y-61479743D01*
X116752191Y-61440950D01*
X116588200Y-61434017D01*
X116458000Y-61520880D01*
X115712000Y-61520880D01*
X115593766Y-61442000D01*
X115614292Y-61442000D01*
X115730597Y-61418866D01*
X115840154Y-61373486D01*
X115938753Y-61307604D01*
X116022604Y-61223753D01*
X116088486Y-61125154D01*
X116133866Y-61015597D01*
X116157000Y-60899292D01*
X116157000Y-60780708D01*
X116133866Y-60664403D01*
X116088486Y-60554846D01*
X116022604Y-60456247D01*
X115938753Y-60372396D01*
X115840154Y-60306514D01*
X115730597Y-60261134D01*
X115614292Y-60238000D01*
X115495708Y-60238000D01*
X115379403Y-60261134D01*
X115269846Y-60306514D01*
X115171247Y-60372396D01*
X115087396Y-60456247D01*
X115021514Y-60554846D01*
X114976134Y-60664403D01*
X114953000Y-60780708D01*
X114953000Y-60899292D01*
X114976134Y-61015597D01*
X115021514Y-61125154D01*
X115087396Y-61223753D01*
X115171247Y-61307604D01*
X115269846Y-61373486D01*
X115379403Y-61418866D01*
X115477700Y-61438418D01*
X115417809Y-61440950D01*
X115258321Y-61479743D01*
X115109466Y-61548905D01*
X114976964Y-61645778D01*
X114920126Y-61794964D01*
X112819874Y-61794964D01*
X112774006Y-61761995D01*
X112663966Y-61660749D01*
X112536288Y-61582916D01*
X112395879Y-61531487D01*
X112278000Y-61579969D01*
X111532000Y-61579969D01*
X111414121Y-61531487D01*
X111273712Y-61582916D01*
X111146034Y-61660749D01*
X111035994Y-61761995D01*
X110990126Y-61794964D01*
X110302000Y-61794964D01*
X110302000Y-58443170D01*
X112023000Y-58443170D01*
X112023000Y-58556830D01*
X112045174Y-58668305D01*
X112088669Y-58773312D01*
X112151815Y-58867816D01*
X112232184Y-58948185D01*
X112326688Y-59011331D01*
X112431695Y-59054826D01*
X112543170Y-59077000D01*
X112656830Y-59077000D01*
X112768305Y-59054826D01*
X112873312Y-59011331D01*
X112924692Y-58977000D01*
X114775308Y-58977000D01*
X114826688Y-59011331D01*
X114931695Y-59054826D01*
X115043170Y-59077000D01*
X115156830Y-59077000D01*
X115268305Y-59054826D01*
X115373312Y-59011331D01*
X115467816Y-58948185D01*
X115548185Y-58867816D01*
X115575458Y-58827000D01*
X120560999Y-58827000D01*
X120632184Y-58898185D01*
X120726688Y-58961331D01*
X120831695Y-59004826D01*
X120943170Y-59027000D01*
X121056830Y-59027000D01*
X121168305Y-59004826D01*
X121273312Y-58961331D01*
X121367816Y-58898185D01*
X121448185Y-58817816D01*
X121511331Y-58723312D01*
X121554826Y-58618305D01*
X121577000Y-58506830D01*
X121577000Y-58406158D01*
X122006159Y-57977000D01*
X127043842Y-57977000D01*
X127523000Y-58456159D01*
X127523000Y-58556830D01*
X127545174Y-58668305D01*
X127588669Y-58773312D01*
X127651815Y-58867816D01*
X127732184Y-58948185D01*
X127826688Y-59011331D01*
X127931695Y-59054826D01*
X128043170Y-59077000D01*
X128156830Y-59077000D01*
X128268305Y-59054826D01*
X128373312Y-59011331D01*
X128467816Y-58948185D01*
X128548185Y-58867816D01*
X128611331Y-58773312D01*
X128654826Y-58668305D01*
X128677000Y-58556830D01*
X128677000Y-58443170D01*
X128654826Y-58331695D01*
X128611331Y-58226688D01*
X128548185Y-58132184D01*
X128467816Y-58051815D01*
X128373312Y-57988669D01*
X128268305Y-57945174D01*
X128156830Y-57923000D01*
X128056159Y-57923000D01*
X127479677Y-57346519D01*
X127467869Y-57332131D01*
X127410463Y-57285019D01*
X127344970Y-57250012D01*
X127273905Y-57228455D01*
X127218519Y-57223000D01*
X127218512Y-57223000D01*
X127200000Y-57221177D01*
X127181488Y-57223000D01*
X121868519Y-57223000D01*
X121850000Y-57221176D01*
X121776094Y-57228455D01*
X121705030Y-57250012D01*
X121639537Y-57285019D01*
X121582131Y-57332131D01*
X121570328Y-57346513D01*
X121043842Y-57873000D01*
X120943170Y-57873000D01*
X120831695Y-57895174D01*
X120726688Y-57938669D01*
X120632184Y-58001815D01*
X120560999Y-58073000D01*
X115489001Y-58073000D01*
X115467816Y-58051815D01*
X115373312Y-57988669D01*
X115268305Y-57945174D01*
X115156830Y-57923000D01*
X115043170Y-57923000D01*
X114931695Y-57945174D01*
X114826688Y-57988669D01*
X114775308Y-58023000D01*
X112924692Y-58023000D01*
X112873312Y-57988669D01*
X112768305Y-57945174D01*
X112656830Y-57923000D01*
X112543170Y-57923000D01*
X112431695Y-57945174D01*
X112326688Y-57988669D01*
X112232184Y-58051815D01*
X112151815Y-58132184D01*
X112088669Y-58226688D01*
X112045174Y-58331695D01*
X112023000Y-58443170D01*
X110302000Y-58443170D01*
X110302000Y-54105036D01*
X110990126Y-54105036D01*
X111035994Y-54138005D01*
X111146034Y-54239251D01*
X111273712Y-54317084D01*
X111414121Y-54368513D01*
X111532000Y-54320031D01*
X111532000Y-54003000D01*
X112278000Y-54003000D01*
X112278000Y-54320031D01*
X112395879Y-54368513D01*
X112536288Y-54317084D01*
X112663966Y-54239251D01*
X112774006Y-54138005D01*
X112819874Y-54105036D01*
X114920126Y-54105036D01*
X114976964Y-54254222D01*
X115109466Y-54351095D01*
X115258321Y-54420257D01*
X115417809Y-54459050D01*
X115477700Y-54461582D01*
X115379403Y-54481134D01*
X115269846Y-54526514D01*
X115171247Y-54592396D01*
X115087396Y-54676247D01*
X115021514Y-54774846D01*
X114976134Y-54884403D01*
X114953000Y-55000708D01*
X114953000Y-55119292D01*
X114976134Y-55235597D01*
X115021514Y-55345154D01*
X115087396Y-55443753D01*
X115171247Y-55527604D01*
X115269846Y-55593486D01*
X115379403Y-55638866D01*
X115495708Y-55662000D01*
X115614292Y-55662000D01*
X115730597Y-55638866D01*
X115840154Y-55593486D01*
X115938753Y-55527604D01*
X116022604Y-55443753D01*
X116088486Y-55345154D01*
X116133866Y-55235597D01*
X116157000Y-55119292D01*
X116157000Y-55000708D01*
X116133866Y-54884403D01*
X116088486Y-54774846D01*
X116022604Y-54676247D01*
X115938753Y-54592396D01*
X115840154Y-54526514D01*
X115730597Y-54481134D01*
X115614292Y-54458000D01*
X115593766Y-54458000D01*
X115712000Y-54379120D01*
X115712000Y-54003000D01*
X116458000Y-54003000D01*
X116458000Y-54379120D01*
X116588200Y-54465983D01*
X116752191Y-54459050D01*
X116911679Y-54420257D01*
X117060534Y-54351095D01*
X117193036Y-54254222D01*
X117249874Y-54105036D01*
X117236482Y-54003000D01*
X116458000Y-54003000D01*
X115712000Y-54003000D01*
X114933518Y-54003000D01*
X114920126Y-54105036D01*
X112819874Y-54105036D01*
X112806482Y-54003000D01*
X112278000Y-54003000D01*
X111532000Y-54003000D01*
X111003518Y-54003000D01*
X110990126Y-54105036D01*
X110302000Y-54105036D01*
X110302000Y-53154964D01*
X110990126Y-53154964D01*
X111003518Y-53257000D01*
X111532000Y-53257000D01*
X111532000Y-52939969D01*
X112278000Y-52939969D01*
X112278000Y-53257000D01*
X112806482Y-53257000D01*
X112819874Y-53154964D01*
X114920126Y-53154964D01*
X114933518Y-53257000D01*
X115712000Y-53257000D01*
X115712000Y-52880880D01*
X116458000Y-52880880D01*
X116458000Y-53257000D01*
X117236482Y-53257000D01*
X117249874Y-53154964D01*
X117222046Y-53081921D01*
X121023000Y-53081921D01*
X121023000Y-53718078D01*
X121035690Y-53846921D01*
X121085838Y-54012236D01*
X121167273Y-54164591D01*
X121276867Y-54298133D01*
X121410408Y-54407727D01*
X121562763Y-54489162D01*
X121728078Y-54539310D01*
X121900000Y-54556243D01*
X122071921Y-54539310D01*
X122237236Y-54489162D01*
X122389591Y-54407727D01*
X122523133Y-54298133D01*
X122632727Y-54164592D01*
X122714162Y-54012237D01*
X122764310Y-53846922D01*
X122777000Y-53718079D01*
X122777000Y-53081921D01*
X123023000Y-53081921D01*
X123023000Y-53718078D01*
X123035690Y-53846921D01*
X123085838Y-54012236D01*
X123167273Y-54164591D01*
X123276867Y-54298133D01*
X123410408Y-54407727D01*
X123562763Y-54489162D01*
X123728078Y-54539310D01*
X123900000Y-54556243D01*
X124071921Y-54539310D01*
X124237236Y-54489162D01*
X124389591Y-54407727D01*
X124523133Y-54298133D01*
X124632727Y-54164592D01*
X124714162Y-54012237D01*
X124764310Y-53846922D01*
X124777000Y-53718079D01*
X124777000Y-53081921D01*
X125023000Y-53081921D01*
X125023000Y-53718078D01*
X125035690Y-53846921D01*
X125085838Y-54012236D01*
X125167273Y-54164591D01*
X125276867Y-54298133D01*
X125410408Y-54407727D01*
X125562763Y-54489162D01*
X125728078Y-54539310D01*
X125900000Y-54556243D01*
X126071921Y-54539310D01*
X126237236Y-54489162D01*
X126389591Y-54407727D01*
X126523133Y-54298133D01*
X126632727Y-54164592D01*
X126714162Y-54012237D01*
X126764310Y-53846922D01*
X126777000Y-53718079D01*
X126777000Y-53081921D01*
X127023000Y-53081921D01*
X127023000Y-53718078D01*
X127035690Y-53846921D01*
X127085838Y-54012236D01*
X127167273Y-54164591D01*
X127276867Y-54298133D01*
X127410408Y-54407727D01*
X127562763Y-54489162D01*
X127728078Y-54539310D01*
X127900000Y-54556243D01*
X128071921Y-54539310D01*
X128237236Y-54489162D01*
X128389591Y-54407727D01*
X128523133Y-54298133D01*
X128542117Y-54275000D01*
X129021660Y-54275000D01*
X129027008Y-54329301D01*
X129042847Y-54381516D01*
X129068569Y-54429637D01*
X129103184Y-54471816D01*
X129145363Y-54506431D01*
X129193484Y-54532153D01*
X129245699Y-54547992D01*
X129300000Y-54553340D01*
X129457750Y-54552000D01*
X129527000Y-54482750D01*
X129527000Y-53773000D01*
X130273000Y-53773000D01*
X130273000Y-54482750D01*
X130342250Y-54552000D01*
X130500000Y-54553340D01*
X130554301Y-54547992D01*
X130606516Y-54532153D01*
X130654637Y-54506431D01*
X130662473Y-54500000D01*
X144431660Y-54500000D01*
X144437008Y-54554301D01*
X144452847Y-54606516D01*
X144478569Y-54654637D01*
X144513184Y-54696816D01*
X144555363Y-54731431D01*
X144603484Y-54757153D01*
X144655699Y-54772992D01*
X144710000Y-54778340D01*
X146807750Y-54777000D01*
X146877000Y-54707750D01*
X146877000Y-54123000D01*
X144502250Y-54123000D01*
X144433000Y-54192250D01*
X144431660Y-54500000D01*
X130662473Y-54500000D01*
X130696816Y-54471816D01*
X130731431Y-54429637D01*
X130757153Y-54381516D01*
X130772992Y-54329301D01*
X130778340Y-54275000D01*
X130777000Y-53842250D01*
X130707750Y-53773000D01*
X130273000Y-53773000D01*
X129527000Y-53773000D01*
X129092250Y-53773000D01*
X129023000Y-53842250D01*
X129021660Y-54275000D01*
X128542117Y-54275000D01*
X128632727Y-54164592D01*
X128714162Y-54012237D01*
X128764310Y-53846922D01*
X128777000Y-53718079D01*
X128777000Y-53081921D01*
X128764310Y-52953078D01*
X128714162Y-52787763D01*
X128632727Y-52635408D01*
X128542118Y-52525000D01*
X129021660Y-52525000D01*
X129023000Y-52957750D01*
X129092250Y-53027000D01*
X129527000Y-53027000D01*
X129527000Y-52317250D01*
X130273000Y-52317250D01*
X130273000Y-53027000D01*
X130707750Y-53027000D01*
X130734750Y-53000000D01*
X144431660Y-53000000D01*
X144433000Y-53307750D01*
X144502250Y-53377000D01*
X146877000Y-53377000D01*
X146877000Y-52792250D01*
X146807750Y-52723000D01*
X144710000Y-52721660D01*
X144655699Y-52727008D01*
X144603484Y-52742847D01*
X144555363Y-52768569D01*
X144513184Y-52803184D01*
X144478569Y-52845363D01*
X144452847Y-52893484D01*
X144437008Y-52945699D01*
X144431660Y-53000000D01*
X130734750Y-53000000D01*
X130777000Y-52957750D01*
X130778340Y-52525000D01*
X130772992Y-52470699D01*
X130757153Y-52418484D01*
X130731431Y-52370363D01*
X130696816Y-52328184D01*
X130654637Y-52293569D01*
X130606516Y-52267847D01*
X130554301Y-52252008D01*
X130500000Y-52246660D01*
X130342250Y-52248000D01*
X130273000Y-52317250D01*
X129527000Y-52317250D01*
X129457750Y-52248000D01*
X129300000Y-52246660D01*
X129245699Y-52252008D01*
X129193484Y-52267847D01*
X129145363Y-52293569D01*
X129103184Y-52328184D01*
X129068569Y-52370363D01*
X129042847Y-52418484D01*
X129027008Y-52470699D01*
X129021660Y-52525000D01*
X128542118Y-52525000D01*
X128523133Y-52501867D01*
X128389592Y-52392273D01*
X128237237Y-52310838D01*
X128071922Y-52260690D01*
X127900000Y-52243757D01*
X127728079Y-52260690D01*
X127562764Y-52310838D01*
X127410409Y-52392273D01*
X127276868Y-52501867D01*
X127167274Y-52635408D01*
X127085838Y-52787763D01*
X127035690Y-52953078D01*
X127023000Y-53081921D01*
X126777000Y-53081921D01*
X126764310Y-52953078D01*
X126714162Y-52787763D01*
X126632727Y-52635408D01*
X126523133Y-52501867D01*
X126389592Y-52392273D01*
X126237237Y-52310838D01*
X126071922Y-52260690D01*
X125900000Y-52243757D01*
X125728079Y-52260690D01*
X125562764Y-52310838D01*
X125410409Y-52392273D01*
X125276868Y-52501867D01*
X125167274Y-52635408D01*
X125085838Y-52787763D01*
X125035690Y-52953078D01*
X125023000Y-53081921D01*
X124777000Y-53081921D01*
X124764310Y-52953078D01*
X124714162Y-52787763D01*
X124632727Y-52635408D01*
X124523133Y-52501867D01*
X124389592Y-52392273D01*
X124237237Y-52310838D01*
X124071922Y-52260690D01*
X123900000Y-52243757D01*
X123728079Y-52260690D01*
X123562764Y-52310838D01*
X123410409Y-52392273D01*
X123276868Y-52501867D01*
X123167274Y-52635408D01*
X123085838Y-52787763D01*
X123035690Y-52953078D01*
X123023000Y-53081921D01*
X122777000Y-53081921D01*
X122766812Y-52978478D01*
X123706134Y-52039157D01*
X123773312Y-52011331D01*
X123867816Y-51948185D01*
X123948185Y-51867816D01*
X124011331Y-51773312D01*
X124054826Y-51668305D01*
X124077000Y-51556830D01*
X124077000Y-51443170D01*
X124054826Y-51331695D01*
X124011331Y-51226688D01*
X123948185Y-51132184D01*
X123867816Y-51051815D01*
X123773312Y-50988669D01*
X123668305Y-50945174D01*
X123556830Y-50923000D01*
X123443170Y-50923000D01*
X123331695Y-50945174D01*
X123226688Y-50988669D01*
X123132184Y-51051815D01*
X123051815Y-51132184D01*
X122988669Y-51226688D01*
X122960843Y-51293866D01*
X122001005Y-52253705D01*
X121900000Y-52243757D01*
X121728079Y-52260690D01*
X121562764Y-52310838D01*
X121410409Y-52392273D01*
X121276868Y-52501867D01*
X121167274Y-52635408D01*
X121085838Y-52787763D01*
X121035690Y-52953078D01*
X121023000Y-53081921D01*
X117222046Y-53081921D01*
X117193036Y-53005778D01*
X117060534Y-52908905D01*
X116911679Y-52839743D01*
X116752191Y-52800950D01*
X116588200Y-52794017D01*
X116458000Y-52880880D01*
X115712000Y-52880880D01*
X115581800Y-52794017D01*
X115417809Y-52800950D01*
X115258321Y-52839743D01*
X115109466Y-52908905D01*
X114976964Y-53005778D01*
X114920126Y-53154964D01*
X112819874Y-53154964D01*
X112774006Y-53121995D01*
X112663966Y-53020749D01*
X112536288Y-52942916D01*
X112395879Y-52891487D01*
X112278000Y-52939969D01*
X111532000Y-52939969D01*
X111414121Y-52891487D01*
X111273712Y-52942916D01*
X111146034Y-53020749D01*
X111035994Y-53121995D01*
X110990126Y-53154964D01*
X110302000Y-53154964D01*
X110302000Y-53014774D01*
X110354805Y-52476237D01*
X110506914Y-51972424D01*
X110753984Y-51507752D01*
X111086606Y-51099917D01*
X111492107Y-50764457D01*
X111955043Y-50514149D01*
X112457782Y-50358525D01*
X112995413Y-50302018D01*
X113000478Y-50302000D01*
X146985226Y-50302000D01*
X147523763Y-50354805D01*
G37*
X147523763Y-50354805D02*
X148027576Y-50506914D01*
X148492248Y-50753984D01*
X148900083Y-51086606D01*
X149235543Y-51492107D01*
X149485851Y-51955043D01*
X149641475Y-52457782D01*
X149669218Y-52721737D01*
X147692250Y-52723000D01*
X147623000Y-52792250D01*
X147623000Y-53377000D01*
X147643000Y-53377000D01*
X147643000Y-54123000D01*
X147623000Y-54123000D01*
X147623000Y-54707750D01*
X147692250Y-54777000D01*
X149698001Y-54778281D01*
X149698001Y-61221719D01*
X147692250Y-61223000D01*
X147623000Y-61292250D01*
X147623000Y-61877000D01*
X147643000Y-61877000D01*
X147643000Y-62623000D01*
X147623000Y-62623000D01*
X147623000Y-63207750D01*
X147692250Y-63277000D01*
X149698001Y-63278281D01*
X149698000Y-101185226D01*
X149645196Y-101723763D01*
X149493085Y-102227579D01*
X149246016Y-102692248D01*
X148913394Y-103100083D01*
X148507893Y-103435543D01*
X148044957Y-103685851D01*
X147542219Y-103841475D01*
X147004586Y-103897982D01*
X146999521Y-103898000D01*
X113014774Y-103898000D01*
X112476237Y-103845196D01*
X111972421Y-103693085D01*
X111507752Y-103446016D01*
X111099917Y-103113394D01*
X110802172Y-102753482D01*
X111814020Y-102753482D01*
X111963253Y-102898299D01*
X112229985Y-102969879D01*
X112505557Y-102988047D01*
X112779378Y-102952104D01*
X112956747Y-102898299D01*
X113105980Y-102753482D01*
X116894020Y-102753482D01*
X117043253Y-102898299D01*
X117309985Y-102969879D01*
X117585557Y-102988047D01*
X117859378Y-102952104D01*
X118036747Y-102898299D01*
X118175675Y-102763482D01*
X121814020Y-102763482D01*
X121963253Y-102908299D01*
X122229985Y-102979879D01*
X122505557Y-102998047D01*
X122779378Y-102962104D01*
X122956747Y-102908299D01*
X123105980Y-102763482D01*
X126894020Y-102763482D01*
X127043253Y-102908299D01*
X127309985Y-102979879D01*
X127585557Y-102998047D01*
X127859378Y-102962104D01*
X128036747Y-102908299D01*
X128185980Y-102763482D01*
X131814020Y-102763482D01*
X131963253Y-102908299D01*
X132229985Y-102979879D01*
X132505557Y-102998047D01*
X132779378Y-102962104D01*
X132956747Y-102908299D01*
X133105980Y-102763482D01*
X136894020Y-102763482D01*
X137043253Y-102908299D01*
X137309985Y-102979879D01*
X137585557Y-102998047D01*
X137859378Y-102962104D01*
X138036747Y-102908299D01*
X138185980Y-102763482D01*
X141814020Y-102763482D01*
X141963253Y-102908299D01*
X142229985Y-102979879D01*
X142505557Y-102998047D01*
X142779378Y-102962104D01*
X142956747Y-102908299D01*
X143105980Y-102763482D01*
X146894020Y-102763482D01*
X147043253Y-102908299D01*
X147309985Y-102979879D01*
X147585557Y-102998047D01*
X147859378Y-102962104D01*
X148036747Y-102908299D01*
X148185980Y-102763482D01*
X147540000Y-102117502D01*
X146894020Y-102763482D01*
X143105980Y-102763482D01*
X142460000Y-102117502D01*
X141814020Y-102763482D01*
X138185980Y-102763482D01*
X137540000Y-102117502D01*
X136894020Y-102763482D01*
X133105980Y-102763482D01*
X132460000Y-102117502D01*
X131814020Y-102763482D01*
X128185980Y-102763482D01*
X127540000Y-102117502D01*
X126894020Y-102763482D01*
X123105980Y-102763482D01*
X122460000Y-102117502D01*
X121814020Y-102763482D01*
X118175675Y-102763482D01*
X118185980Y-102753482D01*
X117540000Y-102107502D01*
X116894020Y-102753482D01*
X113105980Y-102753482D01*
X112460000Y-102107502D01*
X111814020Y-102753482D01*
X110802172Y-102753482D01*
X110764457Y-102707893D01*
X110514149Y-102244957D01*
X110358525Y-101742219D01*
X110346264Y-101625557D01*
X111051953Y-101625557D01*
X111087896Y-101899378D01*
X111141701Y-102076747D01*
X111286518Y-102225980D01*
X111932498Y-101580000D01*
X112987502Y-101580000D01*
X113633482Y-102225980D01*
X113778299Y-102076747D01*
X113849879Y-101810015D01*
X113862040Y-101625557D01*
X116131953Y-101625557D01*
X116167896Y-101899378D01*
X116221701Y-102076747D01*
X116366518Y-102225980D01*
X117012498Y-101580000D01*
X118067502Y-101580000D01*
X118713482Y-102225980D01*
X118858299Y-102076747D01*
X118929879Y-101810015D01*
X118941380Y-101635557D01*
X121051953Y-101635557D01*
X121087896Y-101909378D01*
X121141701Y-102086747D01*
X121286518Y-102235980D01*
X121932498Y-101590000D01*
X122987502Y-101590000D01*
X123633482Y-102235980D01*
X123778299Y-102086747D01*
X123849879Y-101820015D01*
X123862040Y-101635557D01*
X126131953Y-101635557D01*
X126167896Y-101909378D01*
X126221701Y-102086747D01*
X126366518Y-102235980D01*
X127012498Y-101590000D01*
X128067502Y-101590000D01*
X128713482Y-102235980D01*
X128858299Y-102086747D01*
X128929879Y-101820015D01*
X128942040Y-101635557D01*
X131051953Y-101635557D01*
X131087896Y-101909378D01*
X131141701Y-102086747D01*
X131286518Y-102235980D01*
X131932498Y-101590000D01*
X132987502Y-101590000D01*
X133633482Y-102235980D01*
X133778299Y-102086747D01*
X133849879Y-101820015D01*
X133862040Y-101635557D01*
X136131953Y-101635557D01*
X136167896Y-101909378D01*
X136221701Y-102086747D01*
X136366518Y-102235980D01*
X137012498Y-101590000D01*
X138067502Y-101590000D01*
X138713482Y-102235980D01*
X138858299Y-102086747D01*
X138929879Y-101820015D01*
X138942040Y-101635557D01*
X141051953Y-101635557D01*
X141087896Y-101909378D01*
X141141701Y-102086747D01*
X141286518Y-102235980D01*
X141932498Y-101590000D01*
X142987502Y-101590000D01*
X143633482Y-102235980D01*
X143778299Y-102086747D01*
X143849879Y-101820015D01*
X143862040Y-101635557D01*
X146131953Y-101635557D01*
X146167896Y-101909378D01*
X146221701Y-102086747D01*
X146366518Y-102235980D01*
X147012498Y-101590000D01*
X148067502Y-101590000D01*
X148713482Y-102235980D01*
X148858299Y-102086747D01*
X148929879Y-101820015D01*
X148948047Y-101544443D01*
X148912104Y-101270622D01*
X148858299Y-101093253D01*
X148713482Y-100944020D01*
X148067502Y-101590000D01*
X147012498Y-101590000D01*
X146366518Y-100944020D01*
X146221701Y-101093253D01*
X146150121Y-101359985D01*
X146131953Y-101635557D01*
X143862040Y-101635557D01*
X143868047Y-101544443D01*
X143832104Y-101270622D01*
X143778299Y-101093253D01*
X143633482Y-100944020D01*
X142987502Y-101590000D01*
X141932498Y-101590000D01*
X141286518Y-100944020D01*
X141141701Y-101093253D01*
X141070121Y-101359985D01*
X141051953Y-101635557D01*
X138942040Y-101635557D01*
X138948047Y-101544443D01*
X138912104Y-101270622D01*
X138858299Y-101093253D01*
X138713482Y-100944020D01*
X138067502Y-101590000D01*
X137012498Y-101590000D01*
X136366518Y-100944020D01*
X136221701Y-101093253D01*
X136150121Y-101359985D01*
X136131953Y-101635557D01*
X133862040Y-101635557D01*
X133868047Y-101544443D01*
X133832104Y-101270622D01*
X133778299Y-101093253D01*
X133633482Y-100944020D01*
X132987502Y-101590000D01*
X131932498Y-101590000D01*
X131286518Y-100944020D01*
X131141701Y-101093253D01*
X131070121Y-101359985D01*
X131051953Y-101635557D01*
X128942040Y-101635557D01*
X128948047Y-101544443D01*
X128912104Y-101270622D01*
X128858299Y-101093253D01*
X128713482Y-100944020D01*
X128067502Y-101590000D01*
X127012498Y-101590000D01*
X126366518Y-100944020D01*
X126221701Y-101093253D01*
X126150121Y-101359985D01*
X126131953Y-101635557D01*
X123862040Y-101635557D01*
X123868047Y-101544443D01*
X123832104Y-101270622D01*
X123778299Y-101093253D01*
X123633482Y-100944020D01*
X122987502Y-101590000D01*
X121932498Y-101590000D01*
X121286518Y-100944020D01*
X121141701Y-101093253D01*
X121070121Y-101359985D01*
X121051953Y-101635557D01*
X118941380Y-101635557D01*
X118948047Y-101534443D01*
X118912104Y-101260622D01*
X118858299Y-101083253D01*
X118713482Y-100934020D01*
X118067502Y-101580000D01*
X117012498Y-101580000D01*
X116366518Y-100934020D01*
X116221701Y-101083253D01*
X116150121Y-101349985D01*
X116131953Y-101625557D01*
X113862040Y-101625557D01*
X113868047Y-101534443D01*
X113832104Y-101260622D01*
X113778299Y-101083253D01*
X113633482Y-100934020D01*
X112987502Y-101580000D01*
X111932498Y-101580000D01*
X111286518Y-100934020D01*
X111141701Y-101083253D01*
X111070121Y-101349985D01*
X111051953Y-101625557D01*
X110346264Y-101625557D01*
X110302018Y-101204586D01*
X110302000Y-101199521D01*
X110302000Y-100406518D01*
X111814020Y-100406518D01*
X112460000Y-101052498D01*
X113105980Y-100406518D01*
X116894020Y-100406518D01*
X117540000Y-101052498D01*
X118175980Y-100416518D01*
X121814020Y-100416518D01*
X122460000Y-101062498D01*
X123105980Y-100416518D01*
X126894020Y-100416518D01*
X127540000Y-101062498D01*
X128185980Y-100416518D01*
X131814020Y-100416518D01*
X132460000Y-101062498D01*
X133105980Y-100416518D01*
X136894020Y-100416518D01*
X137540000Y-101062498D01*
X138185980Y-100416518D01*
X141814020Y-100416518D01*
X142460000Y-101062498D01*
X143105980Y-100416518D01*
X146894020Y-100416518D01*
X147540000Y-101062498D01*
X148185980Y-100416518D01*
X148036747Y-100271701D01*
X147770015Y-100200121D01*
X147494443Y-100181953D01*
X147220622Y-100217896D01*
X147043253Y-100271701D01*
X146894020Y-100416518D01*
X143105980Y-100416518D01*
X142956747Y-100271701D01*
X142690015Y-100200121D01*
X142414443Y-100181953D01*
X142140622Y-100217896D01*
X141963253Y-100271701D01*
X141814020Y-100416518D01*
X138185980Y-100416518D01*
X138036747Y-100271701D01*
X137770015Y-100200121D01*
X137494443Y-100181953D01*
X137220622Y-100217896D01*
X137043253Y-100271701D01*
X136894020Y-100416518D01*
X133105980Y-100416518D01*
X132956747Y-100271701D01*
X132690015Y-100200121D01*
X132414443Y-100181953D01*
X132140622Y-100217896D01*
X131963253Y-100271701D01*
X131814020Y-100416518D01*
X128185980Y-100416518D01*
X128036747Y-100271701D01*
X127770015Y-100200121D01*
X127494443Y-100181953D01*
X127220622Y-100217896D01*
X127043253Y-100271701D01*
X126894020Y-100416518D01*
X123105980Y-100416518D01*
X122956747Y-100271701D01*
X122690015Y-100200121D01*
X122414443Y-100181953D01*
X122140622Y-100217896D01*
X121963253Y-100271701D01*
X121814020Y-100416518D01*
X118175980Y-100416518D01*
X118185980Y-100406518D01*
X118036747Y-100261701D01*
X117770015Y-100190121D01*
X117494443Y-100171953D01*
X117220622Y-100207896D01*
X117043253Y-100261701D01*
X116894020Y-100406518D01*
X113105980Y-100406518D01*
X112956747Y-100261701D01*
X112690015Y-100190121D01*
X112414443Y-100171953D01*
X112140622Y-100207896D01*
X111963253Y-100261701D01*
X111814020Y-100406518D01*
X110302000Y-100406518D01*
X110302000Y-98911764D01*
X113698000Y-98911764D01*
X113698000Y-99168236D01*
X113748035Y-99419779D01*
X113846182Y-99656728D01*
X113988670Y-99869977D01*
X114170023Y-100051330D01*
X114383272Y-100193818D01*
X114620221Y-100291965D01*
X114871764Y-100342000D01*
X115128236Y-100342000D01*
X115379779Y-100291965D01*
X115616728Y-100193818D01*
X115829977Y-100051330D01*
X116011330Y-99869977D01*
X116153818Y-99656728D01*
X116251965Y-99419779D01*
X116302000Y-99168236D01*
X116302000Y-98921764D01*
X123698000Y-98921764D01*
X123698000Y-99178236D01*
X123748035Y-99429779D01*
X123846182Y-99666728D01*
X123988670Y-99879977D01*
X124170023Y-100061330D01*
X124383272Y-100203818D01*
X124620221Y-100301965D01*
X124871764Y-100352000D01*
X125128236Y-100352000D01*
X125379779Y-100301965D01*
X125616728Y-100203818D01*
X125829977Y-100061330D01*
X126011330Y-99879977D01*
X126153818Y-99666728D01*
X126251965Y-99429779D01*
X126302000Y-99178236D01*
X126302000Y-98921764D01*
X133698000Y-98921764D01*
X133698000Y-99178236D01*
X133748035Y-99429779D01*
X133846182Y-99666728D01*
X133988670Y-99879977D01*
X134170023Y-100061330D01*
X134383272Y-100203818D01*
X134620221Y-100301965D01*
X134871764Y-100352000D01*
X135128236Y-100352000D01*
X135379779Y-100301965D01*
X135616728Y-100203818D01*
X135829977Y-100061330D01*
X136011330Y-99879977D01*
X136153818Y-99666728D01*
X136251965Y-99429779D01*
X136302000Y-99178236D01*
X136302000Y-98921764D01*
X143698000Y-98921764D01*
X143698000Y-99178236D01*
X143748035Y-99429779D01*
X143846182Y-99666728D01*
X143988670Y-99879977D01*
X144170023Y-100061330D01*
X144383272Y-100203818D01*
X144620221Y-100301965D01*
X144871764Y-100352000D01*
X145128236Y-100352000D01*
X145379779Y-100301965D01*
X145616728Y-100203818D01*
X145829977Y-100061330D01*
X146011330Y-99879977D01*
X146153818Y-99666728D01*
X146251965Y-99429779D01*
X146302000Y-99178236D01*
X146302000Y-98921764D01*
X146251965Y-98670221D01*
X146153818Y-98433272D01*
X146011330Y-98220023D01*
X145829977Y-98038670D01*
X145616728Y-97896182D01*
X145379779Y-97798035D01*
X145128236Y-97748000D01*
X144871764Y-97748000D01*
X144620221Y-97798035D01*
X144383272Y-97896182D01*
X144170023Y-98038670D01*
X143988670Y-98220023D01*
X143846182Y-98433272D01*
X143748035Y-98670221D01*
X143698000Y-98921764D01*
X136302000Y-98921764D01*
X136251965Y-98670221D01*
X136153818Y-98433272D01*
X136011330Y-98220023D01*
X135829977Y-98038670D01*
X135616728Y-97896182D01*
X135379779Y-97798035D01*
X135128236Y-97748000D01*
X134871764Y-97748000D01*
X134620221Y-97798035D01*
X134383272Y-97896182D01*
X134170023Y-98038670D01*
X133988670Y-98220023D01*
X133846182Y-98433272D01*
X133748035Y-98670221D01*
X133698000Y-98921764D01*
X126302000Y-98921764D01*
X126251965Y-98670221D01*
X126153818Y-98433272D01*
X126011330Y-98220023D01*
X125829977Y-98038670D01*
X125616728Y-97896182D01*
X125379779Y-97798035D01*
X125128236Y-97748000D01*
X124871764Y-97748000D01*
X124620221Y-97798035D01*
X124383272Y-97896182D01*
X124170023Y-98038670D01*
X123988670Y-98220023D01*
X123846182Y-98433272D01*
X123748035Y-98670221D01*
X123698000Y-98921764D01*
X116302000Y-98921764D01*
X116302000Y-98911764D01*
X116251965Y-98660221D01*
X116153818Y-98423272D01*
X116011330Y-98210023D01*
X115829977Y-98028670D01*
X115616728Y-97886182D01*
X115379779Y-97788035D01*
X115128236Y-97738000D01*
X114871764Y-97738000D01*
X114620221Y-97788035D01*
X114383272Y-97886182D01*
X114170023Y-98028670D01*
X113988670Y-98210023D01*
X113846182Y-98423272D01*
X113748035Y-98660221D01*
X113698000Y-98911764D01*
X110302000Y-98911764D01*
X110302000Y-97673482D01*
X111814020Y-97673482D01*
X111963253Y-97818299D01*
X112229985Y-97889879D01*
X112505557Y-97908047D01*
X112779378Y-97872104D01*
X112956747Y-97818299D01*
X113105980Y-97673482D01*
X116894020Y-97673482D01*
X117043253Y-97818299D01*
X117309985Y-97889879D01*
X117585557Y-97908047D01*
X117859378Y-97872104D01*
X118036747Y-97818299D01*
X118175675Y-97683482D01*
X121814020Y-97683482D01*
X121963253Y-97828299D01*
X122229985Y-97899879D01*
X122505557Y-97918047D01*
X122779378Y-97882104D01*
X122956747Y-97828299D01*
X123105980Y-97683482D01*
X126894020Y-97683482D01*
X127043253Y-97828299D01*
X127309985Y-97899879D01*
X127585557Y-97918047D01*
X127859378Y-97882104D01*
X128036747Y-97828299D01*
X128185980Y-97683482D01*
X131814020Y-97683482D01*
X131963253Y-97828299D01*
X132229985Y-97899879D01*
X132505557Y-97918047D01*
X132779378Y-97882104D01*
X132956747Y-97828299D01*
X133105980Y-97683482D01*
X136894020Y-97683482D01*
X137043253Y-97828299D01*
X137309985Y-97899879D01*
X137585557Y-97918047D01*
X137859378Y-97882104D01*
X138036747Y-97828299D01*
X138185980Y-97683482D01*
X141814020Y-97683482D01*
X141963253Y-97828299D01*
X142229985Y-97899879D01*
X142505557Y-97918047D01*
X142779378Y-97882104D01*
X142956747Y-97828299D01*
X143105980Y-97683482D01*
X146894020Y-97683482D01*
X147043253Y-97828299D01*
X147309985Y-97899879D01*
X147585557Y-97918047D01*
X147859378Y-97882104D01*
X148036747Y-97828299D01*
X148185980Y-97683482D01*
X147540000Y-97037502D01*
X146894020Y-97683482D01*
X143105980Y-97683482D01*
X142460000Y-97037502D01*
X141814020Y-97683482D01*
X138185980Y-97683482D01*
X137540000Y-97037502D01*
X136894020Y-97683482D01*
X133105980Y-97683482D01*
X132460000Y-97037502D01*
X131814020Y-97683482D01*
X128185980Y-97683482D01*
X127540000Y-97037502D01*
X126894020Y-97683482D01*
X123105980Y-97683482D01*
X122460000Y-97037502D01*
X121814020Y-97683482D01*
X118175675Y-97683482D01*
X118185980Y-97673482D01*
X117540000Y-97027502D01*
X116894020Y-97673482D01*
X113105980Y-97673482D01*
X112460000Y-97027502D01*
X111814020Y-97673482D01*
X110302000Y-97673482D01*
X110302000Y-96545557D01*
X111051953Y-96545557D01*
X111087896Y-96819378D01*
X111141701Y-96996747D01*
X111286518Y-97145980D01*
X111932498Y-96500000D01*
X112987502Y-96500000D01*
X113633482Y-97145980D01*
X113778299Y-96996747D01*
X113849879Y-96730015D01*
X113862040Y-96545557D01*
X116131953Y-96545557D01*
X116167896Y-96819378D01*
X116221701Y-96996747D01*
X116366518Y-97145980D01*
X117012498Y-96500000D01*
X118067502Y-96500000D01*
X118713482Y-97145980D01*
X118858299Y-96996747D01*
X118929879Y-96730015D01*
X118941380Y-96555557D01*
X121051953Y-96555557D01*
X121087896Y-96829378D01*
X121141701Y-97006747D01*
X121286518Y-97155980D01*
X121932498Y-96510000D01*
X122987502Y-96510000D01*
X123633482Y-97155980D01*
X123778299Y-97006747D01*
X123849879Y-96740015D01*
X123862040Y-96555557D01*
X126131953Y-96555557D01*
X126167896Y-96829378D01*
X126221701Y-97006747D01*
X126366518Y-97155980D01*
X127012498Y-96510000D01*
X128067502Y-96510000D01*
X128713482Y-97155980D01*
X128858299Y-97006747D01*
X128929879Y-96740015D01*
X128942040Y-96555557D01*
X131051953Y-96555557D01*
X131087896Y-96829378D01*
X131141701Y-97006747D01*
X131286518Y-97155980D01*
X131932498Y-96510000D01*
X132987502Y-96510000D01*
X133633482Y-97155980D01*
X133778299Y-97006747D01*
X133849879Y-96740015D01*
X133862040Y-96555557D01*
X136131953Y-96555557D01*
X136167896Y-96829378D01*
X136221701Y-97006747D01*
X136366518Y-97155980D01*
X137012498Y-96510000D01*
X138067502Y-96510000D01*
X138713482Y-97155980D01*
X138858299Y-97006747D01*
X138929879Y-96740015D01*
X138942040Y-96555557D01*
X141051953Y-96555557D01*
X141087896Y-96829378D01*
X141141701Y-97006747D01*
X141286518Y-97155980D01*
X141932498Y-96510000D01*
X142987502Y-96510000D01*
X143633482Y-97155980D01*
X143778299Y-97006747D01*
X143849879Y-96740015D01*
X143862040Y-96555557D01*
X146131953Y-96555557D01*
X146167896Y-96829378D01*
X146221701Y-97006747D01*
X146366518Y-97155980D01*
X147012498Y-96510000D01*
X148067502Y-96510000D01*
X148713482Y-97155980D01*
X148858299Y-97006747D01*
X148929879Y-96740015D01*
X148948047Y-96464443D01*
X148912104Y-96190622D01*
X148858299Y-96013253D01*
X148713482Y-95864020D01*
X148067502Y-96510000D01*
X147012498Y-96510000D01*
X146366518Y-95864020D01*
X146221701Y-96013253D01*
X146150121Y-96279985D01*
X146131953Y-96555557D01*
X143862040Y-96555557D01*
X143868047Y-96464443D01*
X143832104Y-96190622D01*
X143778299Y-96013253D01*
X143633482Y-95864020D01*
X142987502Y-96510000D01*
X141932498Y-96510000D01*
X141286518Y-95864020D01*
X141141701Y-96013253D01*
X141070121Y-96279985D01*
X141051953Y-96555557D01*
X138942040Y-96555557D01*
X138948047Y-96464443D01*
X138912104Y-96190622D01*
X138858299Y-96013253D01*
X138713482Y-95864020D01*
X138067502Y-96510000D01*
X137012498Y-96510000D01*
X136366518Y-95864020D01*
X136221701Y-96013253D01*
X136150121Y-96279985D01*
X136131953Y-96555557D01*
X133862040Y-96555557D01*
X133868047Y-96464443D01*
X133832104Y-96190622D01*
X133778299Y-96013253D01*
X133633482Y-95864020D01*
X132987502Y-96510000D01*
X131932498Y-96510000D01*
X131286518Y-95864020D01*
X131141701Y-96013253D01*
X131070121Y-96279985D01*
X131051953Y-96555557D01*
X128942040Y-96555557D01*
X128948047Y-96464443D01*
X128912104Y-96190622D01*
X128858299Y-96013253D01*
X128713482Y-95864020D01*
X128067502Y-96510000D01*
X127012498Y-96510000D01*
X126366518Y-95864020D01*
X126221701Y-96013253D01*
X126150121Y-96279985D01*
X126131953Y-96555557D01*
X123862040Y-96555557D01*
X123868047Y-96464443D01*
X123832104Y-96190622D01*
X123778299Y-96013253D01*
X123633482Y-95864020D01*
X122987502Y-96510000D01*
X121932498Y-96510000D01*
X121286518Y-95864020D01*
X121141701Y-96013253D01*
X121070121Y-96279985D01*
X121051953Y-96555557D01*
X118941380Y-96555557D01*
X118948047Y-96454443D01*
X118912104Y-96180622D01*
X118858299Y-96003253D01*
X118713482Y-95854020D01*
X118067502Y-96500000D01*
X117012498Y-96500000D01*
X116366518Y-95854020D01*
X116221701Y-96003253D01*
X116150121Y-96269985D01*
X116131953Y-96545557D01*
X113862040Y-96545557D01*
X113868047Y-96454443D01*
X113832104Y-96180622D01*
X113778299Y-96003253D01*
X113633482Y-95854020D01*
X112987502Y-96500000D01*
X111932498Y-96500000D01*
X111286518Y-95854020D01*
X111141701Y-96003253D01*
X111070121Y-96269985D01*
X111051953Y-96545557D01*
X110302000Y-96545557D01*
X110302000Y-95326518D01*
X111814020Y-95326518D01*
X112460000Y-95972498D01*
X113105980Y-95326518D01*
X116894020Y-95326518D01*
X117540000Y-95972498D01*
X118175980Y-95336518D01*
X121814020Y-95336518D01*
X122460000Y-95982498D01*
X123105980Y-95336518D01*
X126894020Y-95336518D01*
X127540000Y-95982498D01*
X128185980Y-95336518D01*
X131814020Y-95336518D01*
X132460000Y-95982498D01*
X133105980Y-95336518D01*
X136894020Y-95336518D01*
X137540000Y-95982498D01*
X138185980Y-95336518D01*
X141814020Y-95336518D01*
X142460000Y-95982498D01*
X143105980Y-95336518D01*
X146894020Y-95336518D01*
X147540000Y-95982498D01*
X148185980Y-95336518D01*
X148036747Y-95191701D01*
X147770015Y-95120121D01*
X147494443Y-95101953D01*
X147220622Y-95137896D01*
X147043253Y-95191701D01*
X146894020Y-95336518D01*
X143105980Y-95336518D01*
X142956747Y-95191701D01*
X142690015Y-95120121D01*
X142414443Y-95101953D01*
X142140622Y-95137896D01*
X141963253Y-95191701D01*
X141814020Y-95336518D01*
X138185980Y-95336518D01*
X138036747Y-95191701D01*
X137770015Y-95120121D01*
X137494443Y-95101953D01*
X137220622Y-95137896D01*
X137043253Y-95191701D01*
X136894020Y-95336518D01*
X133105980Y-95336518D01*
X132956747Y-95191701D01*
X132690015Y-95120121D01*
X132414443Y-95101953D01*
X132140622Y-95137896D01*
X131963253Y-95191701D01*
X131814020Y-95336518D01*
X128185980Y-95336518D01*
X128036747Y-95191701D01*
X127770015Y-95120121D01*
X127494443Y-95101953D01*
X127220622Y-95137896D01*
X127043253Y-95191701D01*
X126894020Y-95336518D01*
X123105980Y-95336518D01*
X122956747Y-95191701D01*
X122690015Y-95120121D01*
X122414443Y-95101953D01*
X122140622Y-95137896D01*
X121963253Y-95191701D01*
X121814020Y-95336518D01*
X118175980Y-95336518D01*
X118185980Y-95326518D01*
X118036747Y-95181701D01*
X117770015Y-95110121D01*
X117494443Y-95091953D01*
X117220622Y-95127896D01*
X117043253Y-95181701D01*
X116894020Y-95326518D01*
X113105980Y-95326518D01*
X112956747Y-95181701D01*
X112690015Y-95110121D01*
X112414443Y-95091953D01*
X112140622Y-95127896D01*
X111963253Y-95181701D01*
X111814020Y-95326518D01*
X110302000Y-95326518D01*
X110302000Y-92143170D01*
X113823000Y-92143170D01*
X113823000Y-92256830D01*
X113845174Y-92368305D01*
X113888669Y-92473312D01*
X113951815Y-92567816D01*
X114032184Y-92648185D01*
X114126688Y-92711331D01*
X114231695Y-92754826D01*
X114343170Y-92777000D01*
X114373131Y-92777000D01*
X114983241Y-93387111D01*
X114996605Y-93403395D01*
X115012889Y-93416759D01*
X115012898Y-93416768D01*
X115061623Y-93456755D01*
X115101273Y-93477948D01*
X115135804Y-93496405D01*
X115216293Y-93520822D01*
X115279022Y-93527000D01*
X115279032Y-93527000D01*
X115299999Y-93529065D01*
X115320966Y-93527000D01*
X117961130Y-93527000D01*
X118371235Y-93937106D01*
X118384604Y-93953396D01*
X118400894Y-93966765D01*
X118400898Y-93966769D01*
X118449622Y-94006756D01*
X118468354Y-94016768D01*
X118523803Y-94046406D01*
X118604292Y-94070823D01*
X118667021Y-94077001D01*
X118667032Y-94077001D01*
X118687999Y-94079066D01*
X118708966Y-94077001D01*
X119429032Y-94077001D01*
X119449999Y-94079066D01*
X119470966Y-94077001D01*
X119470977Y-94077001D01*
X119533706Y-94070823D01*
X119614195Y-94046406D01*
X119688375Y-94006756D01*
X119753394Y-93953396D01*
X119766767Y-93937101D01*
X120016769Y-93687100D01*
X120016773Y-93687095D01*
X120026868Y-93677000D01*
X120056830Y-93677000D01*
X120102121Y-93667991D01*
X120371235Y-93937106D01*
X120384604Y-93953396D01*
X120400894Y-93966765D01*
X120400898Y-93966769D01*
X120449622Y-94006756D01*
X120468354Y-94016768D01*
X120523803Y-94046406D01*
X120604292Y-94070823D01*
X120667021Y-94077001D01*
X120667032Y-94077001D01*
X120687999Y-94079066D01*
X120708966Y-94077001D01*
X121291034Y-94077001D01*
X121312001Y-94079066D01*
X121332968Y-94077001D01*
X121332979Y-94077001D01*
X121395708Y-94070823D01*
X121476197Y-94046406D01*
X121550377Y-94006756D01*
X121615396Y-93953396D01*
X121628769Y-93937101D01*
X122038871Y-93527000D01*
X125017031Y-93527000D01*
X125037998Y-93529065D01*
X125058965Y-93527000D01*
X125058976Y-93527000D01*
X125121705Y-93520822D01*
X125202194Y-93496405D01*
X125276374Y-93456755D01*
X125341393Y-93403395D01*
X125354766Y-93387100D01*
X125664868Y-93076999D01*
X134335133Y-93076999D01*
X134745238Y-93487105D01*
X134758607Y-93503395D01*
X134774897Y-93516764D01*
X134774901Y-93516768D01*
X134823625Y-93556755D01*
X134841472Y-93566294D01*
X134897806Y-93596405D01*
X134978295Y-93620822D01*
X135041024Y-93627000D01*
X135041035Y-93627000D01*
X135062002Y-93629065D01*
X135082969Y-93627000D01*
X138061130Y-93627000D01*
X138421234Y-93987105D01*
X138434603Y-94003395D01*
X138450893Y-94016764D01*
X138450897Y-94016768D01*
X138499621Y-94056756D01*
X138556536Y-94087176D01*
X138573802Y-94096405D01*
X138654291Y-94120822D01*
X138717020Y-94127000D01*
X138717031Y-94127000D01*
X138737998Y-94129065D01*
X138758965Y-94127000D01*
X139503297Y-94127000D01*
X139524264Y-94129065D01*
X139545231Y-94127000D01*
X139545242Y-94127000D01*
X139607971Y-94120822D01*
X139688460Y-94096405D01*
X139762640Y-94056755D01*
X139827659Y-94003395D01*
X139841032Y-93987100D01*
X140287110Y-93541024D01*
X140303395Y-93527659D01*
X140316759Y-93511375D01*
X140316768Y-93511366D01*
X140356755Y-93462641D01*
X140381274Y-93416768D01*
X140396405Y-93388460D01*
X140420822Y-93307971D01*
X140427000Y-93245242D01*
X140427000Y-93245230D01*
X140429065Y-93224265D01*
X140427000Y-93203300D01*
X140427000Y-93189001D01*
X140448185Y-93167816D01*
X140511331Y-93073312D01*
X140554826Y-92968305D01*
X140577000Y-92856830D01*
X140577000Y-92743170D01*
X140554826Y-92631695D01*
X140511331Y-92526688D01*
X140448185Y-92432184D01*
X140367816Y-92351815D01*
X140273312Y-92288669D01*
X140168305Y-92245174D01*
X140056830Y-92223000D01*
X139943170Y-92223000D01*
X139831695Y-92245174D01*
X139726688Y-92288669D01*
X139632184Y-92351815D01*
X139551815Y-92432184D01*
X139488669Y-92526688D01*
X139445174Y-92631695D01*
X139423000Y-92743170D01*
X139423000Y-92856830D01*
X139445174Y-92968305D01*
X139488669Y-93073312D01*
X139512066Y-93108328D01*
X139347395Y-93273000D01*
X138914867Y-93273000D01*
X138554765Y-92912899D01*
X138541393Y-92896605D01*
X138476374Y-92843245D01*
X138402194Y-92803595D01*
X138321705Y-92779178D01*
X138258976Y-92773000D01*
X138258965Y-92773000D01*
X138237998Y-92770935D01*
X138217031Y-92773000D01*
X135238871Y-92773000D01*
X134828769Y-92362899D01*
X134815396Y-92346604D01*
X134750377Y-92293244D01*
X134676197Y-92253594D01*
X134595708Y-92229177D01*
X134532979Y-92222999D01*
X134532968Y-92222999D01*
X134512001Y-92220934D01*
X134491034Y-92222999D01*
X125508966Y-92222999D01*
X125487999Y-92220934D01*
X125467032Y-92222999D01*
X125467021Y-92222999D01*
X125404292Y-92229177D01*
X125351559Y-92245174D01*
X125323802Y-92253594D01*
X125249623Y-92293243D01*
X125200898Y-92333231D01*
X125200894Y-92333235D01*
X125184604Y-92346604D01*
X125171235Y-92362894D01*
X124861130Y-92673000D01*
X121882969Y-92673000D01*
X121862002Y-92670935D01*
X121841035Y-92673000D01*
X121841024Y-92673000D01*
X121778295Y-92679178D01*
X121697806Y-92703595D01*
X121683333Y-92711331D01*
X121623625Y-92743245D01*
X121574901Y-92783232D01*
X121574897Y-92783236D01*
X121558607Y-92796605D01*
X121545238Y-92812895D01*
X121135133Y-93223001D01*
X120864868Y-93223001D01*
X120541578Y-92899712D01*
X120511331Y-92826688D01*
X120448185Y-92732184D01*
X120367816Y-92651815D01*
X120273312Y-92588669D01*
X120168305Y-92545174D01*
X120056830Y-92523000D01*
X119943170Y-92523000D01*
X119831695Y-92545174D01*
X119726688Y-92588669D01*
X119632184Y-92651815D01*
X119551815Y-92732184D01*
X119488669Y-92826688D01*
X119445174Y-92931695D01*
X119423000Y-93043170D01*
X119423000Y-93073132D01*
X119412905Y-93083227D01*
X119412900Y-93083231D01*
X119273130Y-93223001D01*
X118864868Y-93223001D01*
X118454764Y-92812898D01*
X118441393Y-92796605D01*
X118376374Y-92743245D01*
X118302194Y-92703595D01*
X118221705Y-92679178D01*
X118158976Y-92673000D01*
X118158965Y-92673000D01*
X118137998Y-92670935D01*
X118117031Y-92673000D01*
X115476870Y-92673000D01*
X114977000Y-92173131D01*
X114977000Y-92143170D01*
X114954826Y-92031695D01*
X114911331Y-91926688D01*
X114848185Y-91832184D01*
X114767816Y-91751815D01*
X114673312Y-91688669D01*
X114568305Y-91645174D01*
X114456830Y-91623000D01*
X114343170Y-91623000D01*
X114231695Y-91645174D01*
X114126688Y-91688669D01*
X114032184Y-91751815D01*
X113951815Y-91832184D01*
X113888669Y-91926688D01*
X113845174Y-92031695D01*
X113823000Y-92143170D01*
X110302000Y-92143170D01*
X110302000Y-87213482D01*
X141364020Y-87213482D01*
X141513253Y-87358299D01*
X141779985Y-87429879D01*
X142055557Y-87448047D01*
X142329378Y-87412104D01*
X142506747Y-87358299D01*
X142655980Y-87213482D01*
X146444020Y-87213482D01*
X146593253Y-87358299D01*
X146859985Y-87429879D01*
X147135557Y-87448047D01*
X147409378Y-87412104D01*
X147586747Y-87358299D01*
X147735980Y-87213482D01*
X147090000Y-86567502D01*
X146444020Y-87213482D01*
X142655980Y-87213482D01*
X142010000Y-86567502D01*
X141364020Y-87213482D01*
X110302000Y-87213482D01*
X110302000Y-86085557D01*
X140601953Y-86085557D01*
X140637896Y-86359378D01*
X140691701Y-86536747D01*
X140836518Y-86685980D01*
X141482498Y-86040000D01*
X142537502Y-86040000D01*
X143183482Y-86685980D01*
X143328299Y-86536747D01*
X143399879Y-86270015D01*
X143412040Y-86085557D01*
X145681953Y-86085557D01*
X145717896Y-86359378D01*
X145771701Y-86536747D01*
X145916518Y-86685980D01*
X146562498Y-86040000D01*
X147617502Y-86040000D01*
X148263482Y-86685980D01*
X148408299Y-86536747D01*
X148479879Y-86270015D01*
X148498047Y-85994443D01*
X148462104Y-85720622D01*
X148408299Y-85543253D01*
X148263482Y-85394020D01*
X147617502Y-86040000D01*
X146562498Y-86040000D01*
X145916518Y-85394020D01*
X145771701Y-85543253D01*
X145700121Y-85809985D01*
X145681953Y-86085557D01*
X143412040Y-86085557D01*
X143418047Y-85994443D01*
X143382104Y-85720622D01*
X143328299Y-85543253D01*
X143183482Y-85394020D01*
X142537502Y-86040000D01*
X141482498Y-86040000D01*
X140836518Y-85394020D01*
X140691701Y-85543253D01*
X140620121Y-85809985D01*
X140601953Y-86085557D01*
X110302000Y-86085557D01*
X110302000Y-84866518D01*
X141364020Y-84866518D01*
X142010000Y-85512498D01*
X142655980Y-84866518D01*
X146444020Y-84866518D01*
X147090000Y-85512498D01*
X147735980Y-84866518D01*
X147586747Y-84721701D01*
X147320015Y-84650121D01*
X147044443Y-84631953D01*
X146770622Y-84667896D01*
X146593253Y-84721701D01*
X146444020Y-84866518D01*
X142655980Y-84866518D01*
X142506747Y-84721701D01*
X142240015Y-84650121D01*
X141964443Y-84631953D01*
X141690622Y-84667896D01*
X141513253Y-84721701D01*
X141364020Y-84866518D01*
X110302000Y-84866518D01*
X110302000Y-83289000D01*
X128693000Y-83289000D01*
X128693000Y-83511000D01*
X128736310Y-83728734D01*
X128821266Y-83933835D01*
X128944602Y-84118421D01*
X129101579Y-84275398D01*
X129286165Y-84398734D01*
X129491266Y-84483690D01*
X129709000Y-84527000D01*
X129931000Y-84527000D01*
X130148734Y-84483690D01*
X130353835Y-84398734D01*
X130538421Y-84275398D01*
X130695398Y-84118421D01*
X130818734Y-83933835D01*
X130903690Y-83728734D01*
X130947000Y-83511000D01*
X130947000Y-83289000D01*
X131233000Y-83289000D01*
X131233000Y-83511000D01*
X131276310Y-83728734D01*
X131361266Y-83933835D01*
X131484602Y-84118421D01*
X131641579Y-84275398D01*
X131826165Y-84398734D01*
X132031266Y-84483690D01*
X132249000Y-84527000D01*
X132471000Y-84527000D01*
X132688734Y-84483690D01*
X132893835Y-84398734D01*
X133078421Y-84275398D01*
X133235398Y-84118421D01*
X133358734Y-83933835D01*
X133443690Y-83728734D01*
X133487000Y-83511000D01*
X133487000Y-83289000D01*
X133443690Y-83071266D01*
X133358734Y-82866165D01*
X133235398Y-82681579D01*
X133103819Y-82550000D01*
X133771660Y-82550000D01*
X133771660Y-84250000D01*
X133777008Y-84304301D01*
X133792847Y-84356516D01*
X133818569Y-84404637D01*
X133853184Y-84446816D01*
X133895363Y-84481431D01*
X133943484Y-84507153D01*
X133995699Y-84522992D01*
X134050000Y-84528340D01*
X135750000Y-84528340D01*
X135804301Y-84522992D01*
X135856516Y-84507153D01*
X135904637Y-84481431D01*
X135946816Y-84446816D01*
X135981431Y-84404637D01*
X136007153Y-84356516D01*
X136022992Y-84304301D01*
X136028340Y-84250000D01*
X136028340Y-83371764D01*
X143248000Y-83371764D01*
X143248000Y-83628236D01*
X143298035Y-83879779D01*
X143396182Y-84116728D01*
X143538670Y-84329977D01*
X143720023Y-84511330D01*
X143933272Y-84653818D01*
X144170221Y-84751965D01*
X144421764Y-84802000D01*
X144678236Y-84802000D01*
X144929779Y-84751965D01*
X145166728Y-84653818D01*
X145379977Y-84511330D01*
X145561330Y-84329977D01*
X145703818Y-84116728D01*
X145801965Y-83879779D01*
X145852000Y-83628236D01*
X145852000Y-83371764D01*
X145801965Y-83120221D01*
X145703818Y-82883272D01*
X145561330Y-82670023D01*
X145379977Y-82488670D01*
X145166728Y-82346182D01*
X144929779Y-82248035D01*
X144678236Y-82198000D01*
X144421764Y-82198000D01*
X144170221Y-82248035D01*
X143933272Y-82346182D01*
X143720023Y-82488670D01*
X143538670Y-82670023D01*
X143396182Y-82883272D01*
X143298035Y-83120221D01*
X143248000Y-83371764D01*
X136028340Y-83371764D01*
X136028340Y-82550000D01*
X136022992Y-82495699D01*
X136007153Y-82443484D01*
X135981431Y-82395363D01*
X135946816Y-82353184D01*
X135904637Y-82318569D01*
X135856516Y-82292847D01*
X135804301Y-82277008D01*
X135750000Y-82271660D01*
X134050000Y-82271660D01*
X133995699Y-82277008D01*
X133943484Y-82292847D01*
X133895363Y-82318569D01*
X133853184Y-82353184D01*
X133818569Y-82395363D01*
X133792847Y-82443484D01*
X133777008Y-82495699D01*
X133771660Y-82550000D01*
X133103819Y-82550000D01*
X133078421Y-82524602D01*
X132893835Y-82401266D01*
X132688734Y-82316310D01*
X132471000Y-82273000D01*
X132249000Y-82273000D01*
X132031266Y-82316310D01*
X131826165Y-82401266D01*
X131641579Y-82524602D01*
X131484602Y-82681579D01*
X131361266Y-82866165D01*
X131276310Y-83071266D01*
X131233000Y-83289000D01*
X130947000Y-83289000D01*
X130903690Y-83071266D01*
X130818734Y-82866165D01*
X130695398Y-82681579D01*
X130538421Y-82524602D01*
X130353835Y-82401266D01*
X130209568Y-82341509D01*
X130417595Y-82133482D01*
X141364020Y-82133482D01*
X141513253Y-82278299D01*
X141779985Y-82349879D01*
X142055557Y-82368047D01*
X142329378Y-82332104D01*
X142506747Y-82278299D01*
X142655980Y-82133482D01*
X146444020Y-82133482D01*
X146593253Y-82278299D01*
X146859985Y-82349879D01*
X147135557Y-82368047D01*
X147409378Y-82332104D01*
X147586747Y-82278299D01*
X147735980Y-82133482D01*
X147090000Y-81487502D01*
X146444020Y-82133482D01*
X142655980Y-82133482D01*
X142010000Y-81487502D01*
X141364020Y-82133482D01*
X130417595Y-82133482D01*
X131545520Y-81005557D01*
X140601953Y-81005557D01*
X140637896Y-81279378D01*
X140691701Y-81456747D01*
X140836518Y-81605980D01*
X141482498Y-80960000D01*
X142537502Y-80960000D01*
X143183482Y-81605980D01*
X143328299Y-81456747D01*
X143399879Y-81190015D01*
X143412040Y-81005557D01*
X145681953Y-81005557D01*
X145717896Y-81279378D01*
X145771701Y-81456747D01*
X145916518Y-81605980D01*
X146562498Y-80960000D01*
X147617502Y-80960000D01*
X148263482Y-81605980D01*
X148408299Y-81456747D01*
X148479879Y-81190015D01*
X148498047Y-80914443D01*
X148462104Y-80640622D01*
X148408299Y-80463253D01*
X148263482Y-80314020D01*
X147617502Y-80960000D01*
X146562498Y-80960000D01*
X145916518Y-80314020D01*
X145771701Y-80463253D01*
X145700121Y-80729985D01*
X145681953Y-81005557D01*
X143412040Y-81005557D01*
X143418047Y-80914443D01*
X143382104Y-80640622D01*
X143328299Y-80463253D01*
X143183482Y-80314020D01*
X142537502Y-80960000D01*
X141482498Y-80960000D01*
X140836518Y-80314020D01*
X140691701Y-80463253D01*
X140620121Y-80729985D01*
X140601953Y-81005557D01*
X131545520Y-81005557D01*
X131674078Y-80877000D01*
X134881488Y-80877000D01*
X134900000Y-80878823D01*
X134918512Y-80877000D01*
X134918519Y-80877000D01*
X134973905Y-80871545D01*
X135044970Y-80849988D01*
X135110463Y-80814981D01*
X135167869Y-80767869D01*
X135179677Y-80753481D01*
X136146640Y-79786518D01*
X141364020Y-79786518D01*
X142010000Y-80432498D01*
X142655980Y-79786518D01*
X146444020Y-79786518D01*
X147090000Y-80432498D01*
X147735980Y-79786518D01*
X147586747Y-79641701D01*
X147320015Y-79570121D01*
X147044443Y-79551953D01*
X146770622Y-79587896D01*
X146593253Y-79641701D01*
X146444020Y-79786518D01*
X142655980Y-79786518D01*
X142506747Y-79641701D01*
X142240015Y-79570121D01*
X141964443Y-79551953D01*
X141690622Y-79587896D01*
X141513253Y-79641701D01*
X141364020Y-79786518D01*
X136146640Y-79786518D01*
X139253488Y-76679671D01*
X139267869Y-76667869D01*
X139314981Y-76610463D01*
X139349988Y-76544970D01*
X139371545Y-76473905D01*
X139373662Y-76452416D01*
X139378824Y-76400000D01*
X139377000Y-76381481D01*
X139377000Y-75213482D01*
X141364020Y-75213482D01*
X141513253Y-75358299D01*
X141779985Y-75429879D01*
X142055557Y-75448047D01*
X142329378Y-75412104D01*
X142506747Y-75358299D01*
X142655980Y-75213482D01*
X146444020Y-75213482D01*
X146593253Y-75358299D01*
X146859985Y-75429879D01*
X147135557Y-75448047D01*
X147409378Y-75412104D01*
X147586747Y-75358299D01*
X147735980Y-75213482D01*
X147090000Y-74567502D01*
X146444020Y-75213482D01*
X142655980Y-75213482D01*
X142010000Y-74567502D01*
X141364020Y-75213482D01*
X139377000Y-75213482D01*
X139377000Y-74085557D01*
X140601953Y-74085557D01*
X140637896Y-74359378D01*
X140691701Y-74536747D01*
X140836518Y-74685980D01*
X141482498Y-74040000D01*
X142537502Y-74040000D01*
X143183482Y-74685980D01*
X143328299Y-74536747D01*
X143399879Y-74270015D01*
X143412040Y-74085557D01*
X145681953Y-74085557D01*
X145717896Y-74359378D01*
X145771701Y-74536747D01*
X145916518Y-74685980D01*
X146562498Y-74040000D01*
X147617502Y-74040000D01*
X148263482Y-74685980D01*
X148408299Y-74536747D01*
X148479879Y-74270015D01*
X148498047Y-73994443D01*
X148462104Y-73720622D01*
X148408299Y-73543253D01*
X148263482Y-73394020D01*
X147617502Y-74040000D01*
X146562498Y-74040000D01*
X145916518Y-73394020D01*
X145771701Y-73543253D01*
X145700121Y-73809985D01*
X145681953Y-74085557D01*
X143412040Y-74085557D01*
X143418047Y-73994443D01*
X143382104Y-73720622D01*
X143328299Y-73543253D01*
X143183482Y-73394020D01*
X142537502Y-74040000D01*
X141482498Y-74040000D01*
X140836518Y-73394020D01*
X140691701Y-73543253D01*
X140620121Y-73809985D01*
X140601953Y-74085557D01*
X139377000Y-74085557D01*
X139377000Y-72866518D01*
X141364020Y-72866518D01*
X142010000Y-73512498D01*
X142655980Y-72866518D01*
X146444020Y-72866518D01*
X147090000Y-73512498D01*
X147735980Y-72866518D01*
X147586747Y-72721701D01*
X147320015Y-72650121D01*
X147044443Y-72631953D01*
X146770622Y-72667896D01*
X146593253Y-72721701D01*
X146444020Y-72866518D01*
X142655980Y-72866518D01*
X142506747Y-72721701D01*
X142240015Y-72650121D01*
X141964443Y-72631953D01*
X141690622Y-72667896D01*
X141513253Y-72721701D01*
X141364020Y-72866518D01*
X139377000Y-72866518D01*
X139377000Y-71371764D01*
X143248000Y-71371764D01*
X143248000Y-71628236D01*
X143298035Y-71879779D01*
X143396182Y-72116728D01*
X143538670Y-72329977D01*
X143720023Y-72511330D01*
X143933272Y-72653818D01*
X144170221Y-72751965D01*
X144421764Y-72802000D01*
X144678236Y-72802000D01*
X144929779Y-72751965D01*
X145166728Y-72653818D01*
X145379977Y-72511330D01*
X145561330Y-72329977D01*
X145703818Y-72116728D01*
X145801965Y-71879779D01*
X145852000Y-71628236D01*
X145852000Y-71371764D01*
X145801965Y-71120221D01*
X145703818Y-70883272D01*
X145561330Y-70670023D01*
X145379977Y-70488670D01*
X145166728Y-70346182D01*
X144929779Y-70248035D01*
X144678236Y-70198000D01*
X144421764Y-70198000D01*
X144170221Y-70248035D01*
X143933272Y-70346182D01*
X143720023Y-70488670D01*
X143538670Y-70670023D01*
X143396182Y-70883272D01*
X143298035Y-71120221D01*
X143248000Y-71371764D01*
X139377000Y-71371764D01*
X139377000Y-70133482D01*
X141364020Y-70133482D01*
X141513253Y-70278299D01*
X141779985Y-70349879D01*
X142055557Y-70368047D01*
X142329378Y-70332104D01*
X142506747Y-70278299D01*
X142655980Y-70133482D01*
X146444020Y-70133482D01*
X146593253Y-70278299D01*
X146859985Y-70349879D01*
X147135557Y-70368047D01*
X147409378Y-70332104D01*
X147586747Y-70278299D01*
X147735980Y-70133482D01*
X147090000Y-69487502D01*
X146444020Y-70133482D01*
X142655980Y-70133482D01*
X142010000Y-69487502D01*
X141364020Y-70133482D01*
X139377000Y-70133482D01*
X139377000Y-69005557D01*
X140601953Y-69005557D01*
X140637896Y-69279378D01*
X140691701Y-69456747D01*
X140836518Y-69605980D01*
X141482498Y-68960000D01*
X142537502Y-68960000D01*
X143183482Y-69605980D01*
X143328299Y-69456747D01*
X143399879Y-69190015D01*
X143412040Y-69005557D01*
X145681953Y-69005557D01*
X145717896Y-69279378D01*
X145771701Y-69456747D01*
X145916518Y-69605980D01*
X146562498Y-68960000D01*
X147617502Y-68960000D01*
X148263482Y-69605980D01*
X148408299Y-69456747D01*
X148479879Y-69190015D01*
X148498047Y-68914443D01*
X148462104Y-68640622D01*
X148408299Y-68463253D01*
X148263482Y-68314020D01*
X147617502Y-68960000D01*
X146562498Y-68960000D01*
X145916518Y-68314020D01*
X145771701Y-68463253D01*
X145700121Y-68729985D01*
X145681953Y-69005557D01*
X143412040Y-69005557D01*
X143418047Y-68914443D01*
X143382104Y-68640622D01*
X143328299Y-68463253D01*
X143183482Y-68314020D01*
X142537502Y-68960000D01*
X141482498Y-68960000D01*
X140836518Y-68314020D01*
X140691701Y-68463253D01*
X140620121Y-68729985D01*
X140601953Y-69005557D01*
X139377000Y-69005557D01*
X139377000Y-67786518D01*
X141364020Y-67786518D01*
X142010000Y-68432498D01*
X142655980Y-67786518D01*
X146444020Y-67786518D01*
X147090000Y-68432498D01*
X147735980Y-67786518D01*
X147586747Y-67641701D01*
X147320015Y-67570121D01*
X147044443Y-67551953D01*
X146770622Y-67587896D01*
X146593253Y-67641701D01*
X146444020Y-67786518D01*
X142655980Y-67786518D01*
X142506747Y-67641701D01*
X142240015Y-67570121D01*
X141964443Y-67551953D01*
X141690622Y-67587896D01*
X141513253Y-67641701D01*
X141364020Y-67786518D01*
X139377000Y-67786518D01*
X139377000Y-64639001D01*
X139448185Y-64567816D01*
X139511331Y-64473312D01*
X139554826Y-64368305D01*
X139577000Y-64256830D01*
X139577000Y-64143170D01*
X139554826Y-64031695D01*
X139511331Y-63926688D01*
X139448185Y-63832184D01*
X139367816Y-63751815D01*
X139273312Y-63688669D01*
X139168305Y-63645174D01*
X139056830Y-63623000D01*
X138943170Y-63623000D01*
X138831695Y-63645174D01*
X138726688Y-63688669D01*
X138632184Y-63751815D01*
X138551815Y-63832184D01*
X138488669Y-63926688D01*
X138445174Y-64031695D01*
X138423000Y-64143170D01*
X138423000Y-64256830D01*
X138445174Y-64368305D01*
X138488669Y-64473312D01*
X138551815Y-64567816D01*
X138623000Y-64639001D01*
X138623000Y-64642782D01*
X138623001Y-64642792D01*
X138623000Y-76243841D01*
X134743842Y-80123000D01*
X131536427Y-80123000D01*
X131517918Y-80121177D01*
X131499409Y-80123000D01*
X131499400Y-80123000D01*
X131444014Y-80128455D01*
X131372949Y-80150012D01*
X131307456Y-80185019D01*
X131250050Y-80232131D01*
X131238247Y-80246513D01*
X129566514Y-81918247D01*
X129552132Y-81930050D01*
X129540329Y-81944432D01*
X129540326Y-81944435D01*
X129505020Y-81987456D01*
X129470012Y-82052950D01*
X129448455Y-82124014D01*
X129441177Y-82197919D01*
X129443001Y-82216441D01*
X129443001Y-82336302D01*
X129286165Y-82401266D01*
X129101579Y-82524602D01*
X128944602Y-82681579D01*
X128821266Y-82866165D01*
X128736310Y-83071266D01*
X128693000Y-83289000D01*
X110302000Y-83289000D01*
X110302000Y-76668898D01*
X119422990Y-76668898D01*
X119422990Y-76782558D01*
X119445164Y-76894033D01*
X119488659Y-76999040D01*
X119551805Y-77093544D01*
X119632174Y-77173913D01*
X119726678Y-77237059D01*
X119831685Y-77280554D01*
X119943160Y-77302728D01*
X120056820Y-77302728D01*
X120168295Y-77280554D01*
X120273302Y-77237059D01*
X120367806Y-77173913D01*
X120448175Y-77093544D01*
X120459235Y-77076992D01*
X122760999Y-77076992D01*
X122832184Y-77148177D01*
X122926688Y-77211323D01*
X123031695Y-77254818D01*
X123143170Y-77276992D01*
X123256830Y-77276992D01*
X123368305Y-77254818D01*
X123473312Y-77211323D01*
X123567816Y-77148177D01*
X123648185Y-77067808D01*
X123711331Y-76973304D01*
X123754826Y-76868297D01*
X123777000Y-76756822D01*
X123777000Y-76643162D01*
X123754826Y-76531687D01*
X123711331Y-76426680D01*
X123648185Y-76332176D01*
X123567816Y-76251807D01*
X123473312Y-76188661D01*
X123368305Y-76145166D01*
X123256830Y-76122992D01*
X123143170Y-76122992D01*
X123031695Y-76145166D01*
X122926688Y-76188661D01*
X122832184Y-76251807D01*
X122760999Y-76322992D01*
X120413255Y-76322992D01*
X120367806Y-76277543D01*
X120273302Y-76214397D01*
X120168295Y-76170902D01*
X120056820Y-76148728D01*
X119943160Y-76148728D01*
X119831685Y-76170902D01*
X119726678Y-76214397D01*
X119632174Y-76277543D01*
X119551805Y-76357912D01*
X119488659Y-76452416D01*
X119445164Y-76557423D01*
X119422990Y-76668898D01*
X110302000Y-76668898D01*
X110302000Y-74643170D01*
X119723000Y-74643170D01*
X119723000Y-74756830D01*
X119745174Y-74868305D01*
X119788669Y-74973312D01*
X119851815Y-75067816D01*
X119932184Y-75148185D01*
X120026688Y-75211331D01*
X120131695Y-75254826D01*
X120243170Y-75277000D01*
X120356830Y-75277000D01*
X120468305Y-75254826D01*
X120524293Y-75231635D01*
X120528456Y-75273905D01*
X120533482Y-75290474D01*
X120523000Y-75343170D01*
X120523000Y-75456830D01*
X120545174Y-75568305D01*
X120588669Y-75673312D01*
X120651815Y-75767816D01*
X120732184Y-75848185D01*
X120826688Y-75911331D01*
X120931695Y-75954826D01*
X121043170Y-75977000D01*
X121156830Y-75977000D01*
X121268305Y-75954826D01*
X121373312Y-75911331D01*
X121467816Y-75848185D01*
X121548185Y-75767816D01*
X121611331Y-75673312D01*
X121654826Y-75568305D01*
X121677000Y-75456830D01*
X121677000Y-75343170D01*
X121663571Y-75275659D01*
X121768305Y-75254826D01*
X121873312Y-75211331D01*
X121967816Y-75148185D01*
X122048185Y-75067816D01*
X122111331Y-74973312D01*
X122154826Y-74868305D01*
X122177000Y-74756830D01*
X122177000Y-74743170D01*
X122623000Y-74743170D01*
X122623000Y-74856830D01*
X122645174Y-74968305D01*
X122688669Y-75073312D01*
X122751815Y-75167816D01*
X122832184Y-75248185D01*
X122926688Y-75311331D01*
X123031695Y-75354826D01*
X123143170Y-75377000D01*
X123256830Y-75377000D01*
X123368305Y-75354826D01*
X123473312Y-75311331D01*
X123567816Y-75248185D01*
X123648185Y-75167816D01*
X123711331Y-75073312D01*
X123723816Y-75043170D01*
X130523000Y-75043170D01*
X130523000Y-75156830D01*
X130545174Y-75268305D01*
X130588669Y-75373312D01*
X130651815Y-75467816D01*
X130732184Y-75548185D01*
X130826688Y-75611331D01*
X130931695Y-75654826D01*
X131043170Y-75677000D01*
X131073132Y-75677000D01*
X133083241Y-77687111D01*
X133096605Y-77703395D01*
X133112889Y-77716759D01*
X133112898Y-77716768D01*
X133161623Y-77756755D01*
X133201273Y-77777948D01*
X133235804Y-77796405D01*
X133316293Y-77820822D01*
X133379022Y-77827000D01*
X133379032Y-77827000D01*
X133399999Y-77829065D01*
X133420966Y-77827000D01*
X133810999Y-77827000D01*
X133832184Y-77848185D01*
X133926688Y-77911331D01*
X134031695Y-77954826D01*
X134143170Y-77977000D01*
X134256830Y-77977000D01*
X134368305Y-77954826D01*
X134473312Y-77911331D01*
X134567816Y-77848185D01*
X134648185Y-77767816D01*
X134711331Y-77673312D01*
X134754826Y-77568305D01*
X134777000Y-77456830D01*
X134777000Y-77343170D01*
X134754826Y-77231695D01*
X134711331Y-77126688D01*
X134648185Y-77032184D01*
X134567816Y-76951815D01*
X134473312Y-76888669D01*
X134368305Y-76845174D01*
X134256830Y-76823000D01*
X134143170Y-76823000D01*
X134031695Y-76845174D01*
X133926688Y-76888669D01*
X133832184Y-76951815D01*
X133810999Y-76973000D01*
X133576870Y-76973000D01*
X131677000Y-75073132D01*
X131677000Y-75043170D01*
X131654826Y-74931695D01*
X131611331Y-74826688D01*
X131548185Y-74732184D01*
X131467816Y-74651815D01*
X131373312Y-74588669D01*
X131268305Y-74545174D01*
X131156830Y-74523000D01*
X131043170Y-74523000D01*
X130931695Y-74545174D01*
X130826688Y-74588669D01*
X130732184Y-74651815D01*
X130651815Y-74732184D01*
X130588669Y-74826688D01*
X130545174Y-74931695D01*
X130523000Y-75043170D01*
X123723816Y-75043170D01*
X123754826Y-74968305D01*
X123777000Y-74856830D01*
X123777000Y-74743170D01*
X123754826Y-74631695D01*
X123711331Y-74526688D01*
X123648185Y-74432184D01*
X123577000Y-74360999D01*
X123577000Y-73956158D01*
X123956159Y-73577000D01*
X124056830Y-73577000D01*
X124168305Y-73554826D01*
X124273312Y-73511331D01*
X124367816Y-73448185D01*
X124448185Y-73367816D01*
X124511331Y-73273312D01*
X124554826Y-73168305D01*
X124577000Y-73056830D01*
X124577000Y-72943170D01*
X124554826Y-72831695D01*
X124511331Y-72726688D01*
X124448185Y-72632184D01*
X124367816Y-72551815D01*
X124273312Y-72488669D01*
X124168305Y-72445174D01*
X124056830Y-72423000D01*
X123943170Y-72423000D01*
X123831695Y-72445174D01*
X123726688Y-72488669D01*
X123632184Y-72551815D01*
X123551815Y-72632184D01*
X123488669Y-72726688D01*
X123445174Y-72831695D01*
X123423000Y-72943170D01*
X123423000Y-73043841D01*
X122946514Y-73520328D01*
X122932132Y-73532131D01*
X122920329Y-73546513D01*
X122920326Y-73546516D01*
X122885020Y-73589537D01*
X122850012Y-73655031D01*
X122828455Y-73726095D01*
X122821177Y-73800000D01*
X122823001Y-73818522D01*
X122823000Y-74360999D01*
X122751815Y-74432184D01*
X122688669Y-74526688D01*
X122645174Y-74631695D01*
X122623000Y-74743170D01*
X122177000Y-74743170D01*
X122177000Y-74643170D01*
X122154826Y-74531695D01*
X122111331Y-74426688D01*
X122048185Y-74332184D01*
X121977000Y-74260999D01*
X121977000Y-73856158D01*
X124544158Y-71289000D01*
X128693000Y-71289000D01*
X128693000Y-71511000D01*
X128736310Y-71728734D01*
X128821266Y-71933835D01*
X128944602Y-72118421D01*
X129101579Y-72275398D01*
X129286165Y-72398734D01*
X129491266Y-72483690D01*
X129709000Y-72527000D01*
X129931000Y-72527000D01*
X130148734Y-72483690D01*
X130353835Y-72398734D01*
X130538421Y-72275398D01*
X130695398Y-72118421D01*
X130818734Y-71933835D01*
X130903690Y-71728734D01*
X130947000Y-71511000D01*
X130947000Y-71289000D01*
X131233000Y-71289000D01*
X131233000Y-71511000D01*
X131276310Y-71728734D01*
X131361266Y-71933835D01*
X131484602Y-72118421D01*
X131641579Y-72275398D01*
X131826165Y-72398734D01*
X132031266Y-72483690D01*
X132249000Y-72527000D01*
X132471000Y-72527000D01*
X132688734Y-72483690D01*
X132893835Y-72398734D01*
X133078421Y-72275398D01*
X133235398Y-72118421D01*
X133358734Y-71933835D01*
X133443690Y-71728734D01*
X133487000Y-71511000D01*
X133487000Y-71289000D01*
X133443690Y-71071266D01*
X133358734Y-70866165D01*
X133235398Y-70681579D01*
X133103819Y-70550000D01*
X133771660Y-70550000D01*
X133771660Y-72250000D01*
X133777008Y-72304301D01*
X133792847Y-72356516D01*
X133818569Y-72404637D01*
X133853184Y-72446816D01*
X133895363Y-72481431D01*
X133943484Y-72507153D01*
X133995699Y-72522992D01*
X134050000Y-72528340D01*
X135750000Y-72528340D01*
X135804301Y-72522992D01*
X135856516Y-72507153D01*
X135904637Y-72481431D01*
X135946816Y-72446816D01*
X135981431Y-72404637D01*
X136007153Y-72356516D01*
X136022992Y-72304301D01*
X136028340Y-72250000D01*
X136028340Y-70550000D01*
X136022992Y-70495699D01*
X136007153Y-70443484D01*
X135981431Y-70395363D01*
X135946816Y-70353184D01*
X135904637Y-70318569D01*
X135856516Y-70292847D01*
X135804301Y-70277008D01*
X135750000Y-70271660D01*
X134050000Y-70271660D01*
X133995699Y-70277008D01*
X133943484Y-70292847D01*
X133895363Y-70318569D01*
X133853184Y-70353184D01*
X133818569Y-70395363D01*
X133792847Y-70443484D01*
X133777008Y-70495699D01*
X133771660Y-70550000D01*
X133103819Y-70550000D01*
X133078421Y-70524602D01*
X132893835Y-70401266D01*
X132688734Y-70316310D01*
X132471000Y-70273000D01*
X132249000Y-70273000D01*
X132031266Y-70316310D01*
X131826165Y-70401266D01*
X131641579Y-70524602D01*
X131484602Y-70681579D01*
X131361266Y-70866165D01*
X131276310Y-71071266D01*
X131233000Y-71289000D01*
X130947000Y-71289000D01*
X130903690Y-71071266D01*
X130818734Y-70866165D01*
X130695398Y-70681579D01*
X130538421Y-70524602D01*
X130353835Y-70401266D01*
X130148734Y-70316310D01*
X129931000Y-70273000D01*
X129709000Y-70273000D01*
X129491266Y-70316310D01*
X129286165Y-70401266D01*
X129101579Y-70524602D01*
X128944602Y-70681579D01*
X128821266Y-70866165D01*
X128736310Y-71071266D01*
X128693000Y-71289000D01*
X124544158Y-71289000D01*
X127156158Y-68677000D01*
X127162629Y-68677000D01*
X127228464Y-68720990D01*
X127333471Y-68764485D01*
X127444946Y-68786659D01*
X127558606Y-68786659D01*
X127670081Y-68764485D01*
X127775088Y-68720990D01*
X127869592Y-68657844D01*
X127949961Y-68577475D01*
X128013107Y-68482971D01*
X128056602Y-68377964D01*
X128078776Y-68266489D01*
X128078776Y-68152829D01*
X128056602Y-68041354D01*
X128013107Y-67936347D01*
X127949961Y-67841843D01*
X127869592Y-67761474D01*
X127838611Y-67740773D01*
X127868427Y-67696150D01*
X127911922Y-67591143D01*
X127934096Y-67479668D01*
X127934096Y-67366008D01*
X127911922Y-67254533D01*
X127868427Y-67149526D01*
X127805281Y-67055022D01*
X127724912Y-66974653D01*
X127630408Y-66911507D01*
X127525401Y-66868012D01*
X127413926Y-66845838D01*
X127359295Y-66845838D01*
X127377000Y-66756830D01*
X127377000Y-66643170D01*
X127354826Y-66531695D01*
X127311331Y-66426688D01*
X127248185Y-66332184D01*
X127167816Y-66251815D01*
X127073312Y-66188669D01*
X126968305Y-66145174D01*
X126856830Y-66123000D01*
X126743170Y-66123000D01*
X126631695Y-66145174D01*
X126526688Y-66188669D01*
X126432184Y-66251815D01*
X126351815Y-66332184D01*
X126288669Y-66426688D01*
X126245174Y-66531695D01*
X126223000Y-66643170D01*
X126223000Y-66756830D01*
X126245174Y-66868305D01*
X126288669Y-66973312D01*
X126323001Y-67024693D01*
X126323000Y-67293841D01*
X120046514Y-73570328D01*
X120032132Y-73582131D01*
X120020329Y-73596513D01*
X120020326Y-73596516D01*
X119985020Y-73639537D01*
X119950012Y-73705031D01*
X119928455Y-73776095D01*
X119921177Y-73850000D01*
X119923001Y-73868522D01*
X119923001Y-74260998D01*
X119851815Y-74332184D01*
X119788669Y-74426688D01*
X119745174Y-74531695D01*
X119723000Y-74643170D01*
X110302000Y-74643170D01*
X110302000Y-69743170D01*
X112323000Y-69743170D01*
X112323000Y-69856830D01*
X112345174Y-69968305D01*
X112388669Y-70073312D01*
X112451815Y-70167816D01*
X112532184Y-70248185D01*
X112626688Y-70311331D01*
X112731695Y-70354826D01*
X112843170Y-70377000D01*
X112956830Y-70377000D01*
X113068305Y-70354826D01*
X113173312Y-70311331D01*
X113267816Y-70248185D01*
X113339001Y-70177000D01*
X118943842Y-70177000D01*
X119322996Y-70556154D01*
X119322996Y-70556830D01*
X119345170Y-70668305D01*
X119388665Y-70773312D01*
X119451811Y-70867816D01*
X119532180Y-70948185D01*
X119626684Y-71011331D01*
X119731691Y-71054826D01*
X119843166Y-71077000D01*
X119956826Y-71077000D01*
X120068301Y-71054826D01*
X120173308Y-71011331D01*
X120267812Y-70948185D01*
X120348181Y-70867816D01*
X120411327Y-70773312D01*
X120454822Y-70668305D01*
X120476996Y-70556830D01*
X120476996Y-70443170D01*
X120454822Y-70331695D01*
X120411327Y-70226688D01*
X120348181Y-70132184D01*
X120267812Y-70051815D01*
X120173308Y-69988669D01*
X120068301Y-69945174D01*
X119956826Y-69923000D01*
X119843166Y-69923000D01*
X119770594Y-69937436D01*
X119379677Y-69546519D01*
X119367869Y-69532131D01*
X119310463Y-69485019D01*
X119244970Y-69450012D01*
X119173905Y-69428455D01*
X119118519Y-69423000D01*
X119118512Y-69423000D01*
X119100000Y-69421177D01*
X119081488Y-69423000D01*
X113339001Y-69423000D01*
X113267816Y-69351815D01*
X113173312Y-69288669D01*
X113068305Y-69245174D01*
X112956830Y-69223000D01*
X112843170Y-69223000D01*
X112731695Y-69245174D01*
X112626688Y-69288669D01*
X112532184Y-69351815D01*
X112451815Y-69432184D01*
X112388669Y-69526688D01*
X112345174Y-69631695D01*
X112323000Y-69743170D01*
X110302000Y-69743170D01*
X110302000Y-63443170D01*
X112723000Y-63443170D01*
X112723000Y-63556830D01*
X112745174Y-63668305D01*
X112788669Y-63773312D01*
X112851815Y-63867816D01*
X112932184Y-63948185D01*
X113026688Y-64011331D01*
X113131695Y-64054826D01*
X113243170Y-64077000D01*
X113356830Y-64077000D01*
X113468305Y-64054826D01*
X113573312Y-64011331D01*
X113624692Y-63977000D01*
X114860999Y-63977000D01*
X114932184Y-64048185D01*
X115026688Y-64111331D01*
X115131695Y-64154826D01*
X115243170Y-64177000D01*
X115356830Y-64177000D01*
X115468305Y-64154826D01*
X115573312Y-64111331D01*
X115667816Y-64048185D01*
X115748185Y-63967816D01*
X115811331Y-63873312D01*
X115854826Y-63768305D01*
X115877000Y-63656830D01*
X115877000Y-63640185D01*
X118790240Y-63640185D01*
X118790240Y-63791815D01*
X118819821Y-63940531D01*
X118877847Y-64080618D01*
X118962088Y-64206694D01*
X119069306Y-64313912D01*
X119195382Y-64398153D01*
X119335469Y-64456179D01*
X119484185Y-64485760D01*
X119635815Y-64485760D01*
X119784531Y-64456179D01*
X119924618Y-64398153D01*
X120050694Y-64313912D01*
X120157912Y-64206694D01*
X120242153Y-64080618D01*
X120300179Y-63940531D01*
X120329760Y-63791815D01*
X120329760Y-63640185D01*
X120300179Y-63491469D01*
X120242153Y-63351382D01*
X120157912Y-63225306D01*
X120050694Y-63118088D01*
X119924618Y-63033847D01*
X119784531Y-62975821D01*
X119635815Y-62946240D01*
X119484185Y-62946240D01*
X119335469Y-62975821D01*
X119195382Y-63033847D01*
X119069306Y-63118088D01*
X118962088Y-63225306D01*
X118877847Y-63351382D01*
X118819821Y-63491469D01*
X118790240Y-63640185D01*
X115877000Y-63640185D01*
X115877000Y-63543170D01*
X115854826Y-63431695D01*
X115811331Y-63326688D01*
X115748185Y-63232184D01*
X115667816Y-63151815D01*
X115590519Y-63100166D01*
X115712000Y-63019120D01*
X115712000Y-62643000D01*
X116458000Y-62643000D01*
X116458000Y-63019120D01*
X116588200Y-63105983D01*
X116752191Y-63099050D01*
X116911679Y-63060257D01*
X117060534Y-62991095D01*
X117193036Y-62894222D01*
X117249874Y-62745036D01*
X117236482Y-62643000D01*
X116458000Y-62643000D01*
X115712000Y-62643000D01*
X114933518Y-62643000D01*
X114920126Y-62745036D01*
X114976964Y-62894222D01*
X115109466Y-62991095D01*
X115197630Y-63032059D01*
X115131695Y-63045174D01*
X115026688Y-63088669D01*
X114932184Y-63151815D01*
X114860999Y-63223000D01*
X113808867Y-63223000D01*
X113748185Y-63132184D01*
X113667816Y-63051815D01*
X113573312Y-62988669D01*
X113468305Y-62945174D01*
X113356830Y-62923000D01*
X113243170Y-62923000D01*
X113131695Y-62945174D01*
X113026688Y-62988669D01*
X112932184Y-63051815D01*
X112851815Y-63132184D01*
X112788669Y-63226688D01*
X112745174Y-63331695D01*
X112723000Y-63443170D01*
X110302000Y-63443170D01*
X110302000Y-62745036D01*
X110990126Y-62745036D01*
X111035994Y-62778005D01*
X111146034Y-62879251D01*
X111273712Y-62957084D01*
X111414121Y-63008513D01*
X111532000Y-62960031D01*
X111532000Y-62643000D01*
X112278000Y-62643000D01*
X112278000Y-62960031D01*
X112395879Y-63008513D01*
X112536288Y-62957084D01*
X112663966Y-62879251D01*
X112774006Y-62778005D01*
X112819874Y-62745036D01*
X112806482Y-62643000D01*
X112278000Y-62643000D01*
X111532000Y-62643000D01*
X111003518Y-62643000D01*
X110990126Y-62745036D01*
X110302000Y-62745036D01*
X110302000Y-62624060D01*
X123868970Y-62624060D01*
X123868970Y-62775940D01*
X123898600Y-62924901D01*
X123956722Y-63065220D01*
X124041102Y-63191503D01*
X124148497Y-63298898D01*
X124274780Y-63383278D01*
X124415099Y-63441400D01*
X124564060Y-63471030D01*
X124715940Y-63471030D01*
X124864901Y-63441400D01*
X125005220Y-63383278D01*
X125131503Y-63298898D01*
X125238898Y-63191503D01*
X125323278Y-63065220D01*
X125381400Y-62924901D01*
X125411030Y-62775940D01*
X125411030Y-62624060D01*
X125381400Y-62475099D01*
X125323278Y-62334780D01*
X125238898Y-62208497D01*
X125131503Y-62101102D01*
X125005220Y-62016722D01*
X124864901Y-61958600D01*
X124787329Y-61943170D01*
X127323000Y-61943170D01*
X127323000Y-62056830D01*
X127345174Y-62168305D01*
X127388669Y-62273312D01*
X127451815Y-62367816D01*
X127532184Y-62448185D01*
X127626688Y-62511331D01*
X127731695Y-62554826D01*
X127843170Y-62577000D01*
X127956830Y-62577000D01*
X128068305Y-62554826D01*
X128173312Y-62511331D01*
X128267816Y-62448185D01*
X128348185Y-62367816D01*
X128411331Y-62273312D01*
X128454826Y-62168305D01*
X128472988Y-62077001D01*
X129606998Y-62077001D01*
X129551815Y-62132184D01*
X129488669Y-62226688D01*
X129445174Y-62331695D01*
X129423000Y-62443170D01*
X129423000Y-62543841D01*
X128276226Y-63690616D01*
X128273312Y-63688669D01*
X128168305Y-63645174D01*
X128056830Y-63623000D01*
X127943170Y-63623000D01*
X127831695Y-63645174D01*
X127726688Y-63688669D01*
X127632184Y-63751815D01*
X127551815Y-63832184D01*
X127488669Y-63926688D01*
X127445174Y-64031695D01*
X127423000Y-64143170D01*
X127423000Y-64256830D01*
X127445174Y-64368305D01*
X127488669Y-64473312D01*
X127551815Y-64567816D01*
X127632184Y-64648185D01*
X127726688Y-64711331D01*
X127831695Y-64754826D01*
X127943170Y-64777000D01*
X128056830Y-64777000D01*
X128168305Y-64754826D01*
X128273312Y-64711331D01*
X128367816Y-64648185D01*
X128448185Y-64567816D01*
X128468502Y-64537410D01*
X128510463Y-64514981D01*
X128567869Y-64467869D01*
X128579677Y-64453481D01*
X129956159Y-63077000D01*
X130056830Y-63077000D01*
X130168305Y-63054826D01*
X130172214Y-63053207D01*
X129979271Y-63246150D01*
X129961080Y-63261079D01*
X129946151Y-63279270D01*
X129946148Y-63279273D01*
X129937725Y-63289537D01*
X129901472Y-63333711D01*
X129894628Y-63346516D01*
X129857178Y-63416578D01*
X129829903Y-63506493D01*
X129820694Y-63600000D01*
X129823001Y-63623425D01*
X129823000Y-64275308D01*
X129788669Y-64326688D01*
X129745174Y-64431695D01*
X129733118Y-64492303D01*
X129679271Y-64546150D01*
X129661080Y-64561079D01*
X129601472Y-64633711D01*
X129589115Y-64656830D01*
X129557178Y-64716578D01*
X129529903Y-64806493D01*
X129520694Y-64900000D01*
X129523001Y-64923425D01*
X129523000Y-68275308D01*
X129488669Y-68326688D01*
X129445174Y-68431695D01*
X129423000Y-68543170D01*
X129423000Y-68656830D01*
X129445174Y-68768305D01*
X129488669Y-68873312D01*
X129551815Y-68967816D01*
X129632184Y-69048185D01*
X129726688Y-69111331D01*
X129831695Y-69154826D01*
X129943170Y-69177000D01*
X130056830Y-69177000D01*
X130168305Y-69154826D01*
X130273312Y-69111331D01*
X130367816Y-69048185D01*
X130448185Y-68967816D01*
X130511331Y-68873312D01*
X130554826Y-68768305D01*
X130577000Y-68656830D01*
X130577000Y-68543170D01*
X130554826Y-68431695D01*
X130511331Y-68326688D01*
X130477000Y-68275308D01*
X130477000Y-65151224D01*
X130573312Y-65111331D01*
X130667816Y-65048185D01*
X130748185Y-64967816D01*
X130811331Y-64873312D01*
X130854826Y-64768305D01*
X130877000Y-64656830D01*
X130877000Y-64543170D01*
X130854826Y-64431695D01*
X130811331Y-64326688D01*
X130777000Y-64275308D01*
X130777000Y-63797579D01*
X131553852Y-63020728D01*
X131553857Y-63020722D01*
X131574579Y-63000000D01*
X144431660Y-63000000D01*
X144437008Y-63054301D01*
X144452847Y-63106516D01*
X144478569Y-63154637D01*
X144513184Y-63196816D01*
X144555363Y-63231431D01*
X144603484Y-63257153D01*
X144655699Y-63272992D01*
X144710000Y-63278340D01*
X146807750Y-63277000D01*
X146877000Y-63207750D01*
X146877000Y-62623000D01*
X144502250Y-62623000D01*
X144433000Y-62692250D01*
X144431660Y-63000000D01*
X131574579Y-63000000D01*
X133074579Y-61500000D01*
X144431660Y-61500000D01*
X144433000Y-61807750D01*
X144502250Y-61877000D01*
X146877000Y-61877000D01*
X146877000Y-61292250D01*
X146807750Y-61223000D01*
X144710000Y-61221660D01*
X144655699Y-61227008D01*
X144603484Y-61242847D01*
X144555363Y-61268569D01*
X144513184Y-61303184D01*
X144478569Y-61345363D01*
X144452847Y-61393484D01*
X144437008Y-61445699D01*
X144431660Y-61500000D01*
X133074579Y-61500000D01*
X135420729Y-59153850D01*
X135438921Y-59138921D01*
X135498529Y-59066289D01*
X135542822Y-58983423D01*
X135570097Y-58893508D01*
X135577000Y-58823423D01*
X135577000Y-58823415D01*
X135579306Y-58800000D01*
X135577000Y-58776585D01*
X135577000Y-58624692D01*
X135611331Y-58573312D01*
X135654826Y-58468305D01*
X135677000Y-58356830D01*
X135677000Y-58243170D01*
X135654826Y-58131695D01*
X135611331Y-58026688D01*
X135548185Y-57932184D01*
X135467816Y-57851815D01*
X135373312Y-57788669D01*
X135268305Y-57745174D01*
X135156830Y-57723000D01*
X135043170Y-57723000D01*
X134931695Y-57745174D01*
X134826688Y-57788669D01*
X134732184Y-57851815D01*
X134651815Y-57932184D01*
X134588669Y-58026688D01*
X134545174Y-58131695D01*
X134523000Y-58243170D01*
X134523000Y-58356830D01*
X134545174Y-58468305D01*
X134588669Y-58573312D01*
X134614079Y-58611341D01*
X131129290Y-62096131D01*
X130479678Y-61446520D01*
X130467870Y-61432132D01*
X130410464Y-61385020D01*
X130344971Y-61350013D01*
X130273906Y-61328456D01*
X130218520Y-61323001D01*
X130218513Y-61323001D01*
X130200001Y-61321178D01*
X130181489Y-61323001D01*
X128218518Y-61323001D01*
X128199999Y-61321177D01*
X128126093Y-61328456D01*
X128070358Y-61345363D01*
X128055029Y-61350013D01*
X127989536Y-61385020D01*
X127989534Y-61385021D01*
X127989535Y-61385021D01*
X127948295Y-61418866D01*
X127943257Y-61423000D01*
X127843170Y-61423000D01*
X127731695Y-61445174D01*
X127626688Y-61488669D01*
X127532184Y-61551815D01*
X127451815Y-61632184D01*
X127388669Y-61726688D01*
X127345174Y-61831695D01*
X127323000Y-61943170D01*
X124787329Y-61943170D01*
X124715940Y-61928970D01*
X124564060Y-61928970D01*
X124415099Y-61958600D01*
X124274780Y-62016722D01*
X124148497Y-62101102D01*
X124041102Y-62208497D01*
X123956722Y-62334780D01*
X123898600Y-62475099D01*
X123868970Y-62624060D01*
X110302000Y-62624060D01*
X110302000Y-61794964D01*
X110990126Y-61794964D01*
X111003518Y-61897000D01*
X111532000Y-61897000D01*
X111532000Y-61579969D01*
X112278000Y-61579969D01*
X112278000Y-61897000D01*
X112806482Y-61897000D01*
X112819874Y-61794964D01*
X114920126Y-61794964D01*
X114933518Y-61897000D01*
X115712000Y-61897000D01*
X115712000Y-61520880D01*
X116458000Y-61520880D01*
X116458000Y-61897000D01*
X117236482Y-61897000D01*
X117249874Y-61794964D01*
X117193036Y-61645778D01*
X117141617Y-61608185D01*
X118790240Y-61608185D01*
X118790240Y-61759815D01*
X118819821Y-61908531D01*
X118877847Y-62048618D01*
X118962088Y-62174694D01*
X119069306Y-62281912D01*
X119195382Y-62366153D01*
X119335469Y-62424179D01*
X119484185Y-62453760D01*
X119635815Y-62453760D01*
X119784531Y-62424179D01*
X119924618Y-62366153D01*
X120050694Y-62281912D01*
X120157912Y-62174694D01*
X120242153Y-62048618D01*
X120300179Y-61908531D01*
X120329760Y-61759815D01*
X120329760Y-61608185D01*
X120300179Y-61459469D01*
X120242153Y-61319382D01*
X120157912Y-61193306D01*
X120050694Y-61086088D01*
X119924618Y-61001847D01*
X119784531Y-60943821D01*
X119635815Y-60914240D01*
X119484185Y-60914240D01*
X119335469Y-60943821D01*
X119195382Y-61001847D01*
X119069306Y-61086088D01*
X118962088Y-61193306D01*
X118877847Y-61319382D01*
X118819821Y-61459469D01*
X118790240Y-61608185D01*
X117141617Y-61608185D01*
X117060534Y-61548905D01*
X116911679Y-61479743D01*
X116752191Y-61440950D01*
X116588200Y-61434017D01*
X116458000Y-61520880D01*
X115712000Y-61520880D01*
X115593766Y-61442000D01*
X115614292Y-61442000D01*
X115730597Y-61418866D01*
X115840154Y-61373486D01*
X115938753Y-61307604D01*
X116022604Y-61223753D01*
X116088486Y-61125154D01*
X116133866Y-61015597D01*
X116157000Y-60899292D01*
X116157000Y-60780708D01*
X116133866Y-60664403D01*
X116088486Y-60554846D01*
X116022604Y-60456247D01*
X115938753Y-60372396D01*
X115840154Y-60306514D01*
X115730597Y-60261134D01*
X115614292Y-60238000D01*
X115495708Y-60238000D01*
X115379403Y-60261134D01*
X115269846Y-60306514D01*
X115171247Y-60372396D01*
X115087396Y-60456247D01*
X115021514Y-60554846D01*
X114976134Y-60664403D01*
X114953000Y-60780708D01*
X114953000Y-60899292D01*
X114976134Y-61015597D01*
X115021514Y-61125154D01*
X115087396Y-61223753D01*
X115171247Y-61307604D01*
X115269846Y-61373486D01*
X115379403Y-61418866D01*
X115477700Y-61438418D01*
X115417809Y-61440950D01*
X115258321Y-61479743D01*
X115109466Y-61548905D01*
X114976964Y-61645778D01*
X114920126Y-61794964D01*
X112819874Y-61794964D01*
X112774006Y-61761995D01*
X112663966Y-61660749D01*
X112536288Y-61582916D01*
X112395879Y-61531487D01*
X112278000Y-61579969D01*
X111532000Y-61579969D01*
X111414121Y-61531487D01*
X111273712Y-61582916D01*
X111146034Y-61660749D01*
X111035994Y-61761995D01*
X110990126Y-61794964D01*
X110302000Y-61794964D01*
X110302000Y-58443170D01*
X112023000Y-58443170D01*
X112023000Y-58556830D01*
X112045174Y-58668305D01*
X112088669Y-58773312D01*
X112151815Y-58867816D01*
X112232184Y-58948185D01*
X112326688Y-59011331D01*
X112431695Y-59054826D01*
X112543170Y-59077000D01*
X112656830Y-59077000D01*
X112768305Y-59054826D01*
X112873312Y-59011331D01*
X112924692Y-58977000D01*
X114775308Y-58977000D01*
X114826688Y-59011331D01*
X114931695Y-59054826D01*
X115043170Y-59077000D01*
X115156830Y-59077000D01*
X115268305Y-59054826D01*
X115373312Y-59011331D01*
X115467816Y-58948185D01*
X115548185Y-58867816D01*
X115575458Y-58827000D01*
X120560999Y-58827000D01*
X120632184Y-58898185D01*
X120726688Y-58961331D01*
X120831695Y-59004826D01*
X120943170Y-59027000D01*
X121056830Y-59027000D01*
X121168305Y-59004826D01*
X121273312Y-58961331D01*
X121367816Y-58898185D01*
X121448185Y-58817816D01*
X121511331Y-58723312D01*
X121554826Y-58618305D01*
X121577000Y-58506830D01*
X121577000Y-58406158D01*
X122006159Y-57977000D01*
X127043842Y-57977000D01*
X127523000Y-58456159D01*
X127523000Y-58556830D01*
X127545174Y-58668305D01*
X127588669Y-58773312D01*
X127651815Y-58867816D01*
X127732184Y-58948185D01*
X127826688Y-59011331D01*
X127931695Y-59054826D01*
X128043170Y-59077000D01*
X128156830Y-59077000D01*
X128268305Y-59054826D01*
X128373312Y-59011331D01*
X128467816Y-58948185D01*
X128548185Y-58867816D01*
X128611331Y-58773312D01*
X128654826Y-58668305D01*
X128677000Y-58556830D01*
X128677000Y-58443170D01*
X128654826Y-58331695D01*
X128611331Y-58226688D01*
X128548185Y-58132184D01*
X128467816Y-58051815D01*
X128373312Y-57988669D01*
X128268305Y-57945174D01*
X128156830Y-57923000D01*
X128056159Y-57923000D01*
X127479677Y-57346519D01*
X127467869Y-57332131D01*
X127410463Y-57285019D01*
X127344970Y-57250012D01*
X127273905Y-57228455D01*
X127218519Y-57223000D01*
X127218512Y-57223000D01*
X127200000Y-57221177D01*
X127181488Y-57223000D01*
X121868519Y-57223000D01*
X121850000Y-57221176D01*
X121776094Y-57228455D01*
X121705030Y-57250012D01*
X121639537Y-57285019D01*
X121582131Y-57332131D01*
X121570328Y-57346513D01*
X121043842Y-57873000D01*
X120943170Y-57873000D01*
X120831695Y-57895174D01*
X120726688Y-57938669D01*
X120632184Y-58001815D01*
X120560999Y-58073000D01*
X115489001Y-58073000D01*
X115467816Y-58051815D01*
X115373312Y-57988669D01*
X115268305Y-57945174D01*
X115156830Y-57923000D01*
X115043170Y-57923000D01*
X114931695Y-57945174D01*
X114826688Y-57988669D01*
X114775308Y-58023000D01*
X112924692Y-58023000D01*
X112873312Y-57988669D01*
X112768305Y-57945174D01*
X112656830Y-57923000D01*
X112543170Y-57923000D01*
X112431695Y-57945174D01*
X112326688Y-57988669D01*
X112232184Y-58051815D01*
X112151815Y-58132184D01*
X112088669Y-58226688D01*
X112045174Y-58331695D01*
X112023000Y-58443170D01*
X110302000Y-58443170D01*
X110302000Y-54105036D01*
X110990126Y-54105036D01*
X111035994Y-54138005D01*
X111146034Y-54239251D01*
X111273712Y-54317084D01*
X111414121Y-54368513D01*
X111532000Y-54320031D01*
X111532000Y-54003000D01*
X112278000Y-54003000D01*
X112278000Y-54320031D01*
X112395879Y-54368513D01*
X112536288Y-54317084D01*
X112663966Y-54239251D01*
X112774006Y-54138005D01*
X112819874Y-54105036D01*
X114920126Y-54105036D01*
X114976964Y-54254222D01*
X115109466Y-54351095D01*
X115258321Y-54420257D01*
X115417809Y-54459050D01*
X115477700Y-54461582D01*
X115379403Y-54481134D01*
X115269846Y-54526514D01*
X115171247Y-54592396D01*
X115087396Y-54676247D01*
X115021514Y-54774846D01*
X114976134Y-54884403D01*
X114953000Y-55000708D01*
X114953000Y-55119292D01*
X114976134Y-55235597D01*
X115021514Y-55345154D01*
X115087396Y-55443753D01*
X115171247Y-55527604D01*
X115269846Y-55593486D01*
X115379403Y-55638866D01*
X115495708Y-55662000D01*
X115614292Y-55662000D01*
X115730597Y-55638866D01*
X115840154Y-55593486D01*
X115938753Y-55527604D01*
X116022604Y-55443753D01*
X116088486Y-55345154D01*
X116133866Y-55235597D01*
X116157000Y-55119292D01*
X116157000Y-55000708D01*
X116133866Y-54884403D01*
X116088486Y-54774846D01*
X116022604Y-54676247D01*
X115938753Y-54592396D01*
X115840154Y-54526514D01*
X115730597Y-54481134D01*
X115614292Y-54458000D01*
X115593766Y-54458000D01*
X115712000Y-54379120D01*
X115712000Y-54003000D01*
X116458000Y-54003000D01*
X116458000Y-54379120D01*
X116588200Y-54465983D01*
X116752191Y-54459050D01*
X116911679Y-54420257D01*
X117060534Y-54351095D01*
X117193036Y-54254222D01*
X117249874Y-54105036D01*
X117236482Y-54003000D01*
X116458000Y-54003000D01*
X115712000Y-54003000D01*
X114933518Y-54003000D01*
X114920126Y-54105036D01*
X112819874Y-54105036D01*
X112806482Y-54003000D01*
X112278000Y-54003000D01*
X111532000Y-54003000D01*
X111003518Y-54003000D01*
X110990126Y-54105036D01*
X110302000Y-54105036D01*
X110302000Y-53154964D01*
X110990126Y-53154964D01*
X111003518Y-53257000D01*
X111532000Y-53257000D01*
X111532000Y-52939969D01*
X112278000Y-52939969D01*
X112278000Y-53257000D01*
X112806482Y-53257000D01*
X112819874Y-53154964D01*
X114920126Y-53154964D01*
X114933518Y-53257000D01*
X115712000Y-53257000D01*
X115712000Y-52880880D01*
X116458000Y-52880880D01*
X116458000Y-53257000D01*
X117236482Y-53257000D01*
X117249874Y-53154964D01*
X117222046Y-53081921D01*
X121023000Y-53081921D01*
X121023000Y-53718078D01*
X121035690Y-53846921D01*
X121085838Y-54012236D01*
X121167273Y-54164591D01*
X121276867Y-54298133D01*
X121410408Y-54407727D01*
X121562763Y-54489162D01*
X121728078Y-54539310D01*
X121900000Y-54556243D01*
X122071921Y-54539310D01*
X122237236Y-54489162D01*
X122389591Y-54407727D01*
X122523133Y-54298133D01*
X122632727Y-54164592D01*
X122714162Y-54012237D01*
X122764310Y-53846922D01*
X122777000Y-53718079D01*
X122777000Y-53081921D01*
X123023000Y-53081921D01*
X123023000Y-53718078D01*
X123035690Y-53846921D01*
X123085838Y-54012236D01*
X123167273Y-54164591D01*
X123276867Y-54298133D01*
X123410408Y-54407727D01*
X123562763Y-54489162D01*
X123728078Y-54539310D01*
X123900000Y-54556243D01*
X124071921Y-54539310D01*
X124237236Y-54489162D01*
X124389591Y-54407727D01*
X124523133Y-54298133D01*
X124632727Y-54164592D01*
X124714162Y-54012237D01*
X124764310Y-53846922D01*
X124777000Y-53718079D01*
X124777000Y-53081921D01*
X125023000Y-53081921D01*
X125023000Y-53718078D01*
X125035690Y-53846921D01*
X125085838Y-54012236D01*
X125167273Y-54164591D01*
X125276867Y-54298133D01*
X125410408Y-54407727D01*
X125562763Y-54489162D01*
X125728078Y-54539310D01*
X125900000Y-54556243D01*
X126071921Y-54539310D01*
X126237236Y-54489162D01*
X126389591Y-54407727D01*
X126523133Y-54298133D01*
X126632727Y-54164592D01*
X126714162Y-54012237D01*
X126764310Y-53846922D01*
X126777000Y-53718079D01*
X126777000Y-53081921D01*
X127023000Y-53081921D01*
X127023000Y-53718078D01*
X127035690Y-53846921D01*
X127085838Y-54012236D01*
X127167273Y-54164591D01*
X127276867Y-54298133D01*
X127410408Y-54407727D01*
X127562763Y-54489162D01*
X127728078Y-54539310D01*
X127900000Y-54556243D01*
X128071921Y-54539310D01*
X128237236Y-54489162D01*
X128389591Y-54407727D01*
X128523133Y-54298133D01*
X128542117Y-54275000D01*
X129021660Y-54275000D01*
X129027008Y-54329301D01*
X129042847Y-54381516D01*
X129068569Y-54429637D01*
X129103184Y-54471816D01*
X129145363Y-54506431D01*
X129193484Y-54532153D01*
X129245699Y-54547992D01*
X129300000Y-54553340D01*
X129457750Y-54552000D01*
X129527000Y-54482750D01*
X129527000Y-53773000D01*
X130273000Y-53773000D01*
X130273000Y-54482750D01*
X130342250Y-54552000D01*
X130500000Y-54553340D01*
X130554301Y-54547992D01*
X130606516Y-54532153D01*
X130654637Y-54506431D01*
X130662473Y-54500000D01*
X144431660Y-54500000D01*
X144437008Y-54554301D01*
X144452847Y-54606516D01*
X144478569Y-54654637D01*
X144513184Y-54696816D01*
X144555363Y-54731431D01*
X144603484Y-54757153D01*
X144655699Y-54772992D01*
X144710000Y-54778340D01*
X146807750Y-54777000D01*
X146877000Y-54707750D01*
X146877000Y-54123000D01*
X144502250Y-54123000D01*
X144433000Y-54192250D01*
X144431660Y-54500000D01*
X130662473Y-54500000D01*
X130696816Y-54471816D01*
X130731431Y-54429637D01*
X130757153Y-54381516D01*
X130772992Y-54329301D01*
X130778340Y-54275000D01*
X130777000Y-53842250D01*
X130707750Y-53773000D01*
X130273000Y-53773000D01*
X129527000Y-53773000D01*
X129092250Y-53773000D01*
X129023000Y-53842250D01*
X129021660Y-54275000D01*
X128542117Y-54275000D01*
X128632727Y-54164592D01*
X128714162Y-54012237D01*
X128764310Y-53846922D01*
X128777000Y-53718079D01*
X128777000Y-53081921D01*
X128764310Y-52953078D01*
X128714162Y-52787763D01*
X128632727Y-52635408D01*
X128542118Y-52525000D01*
X129021660Y-52525000D01*
X129023000Y-52957750D01*
X129092250Y-53027000D01*
X129527000Y-53027000D01*
X129527000Y-52317250D01*
X130273000Y-52317250D01*
X130273000Y-53027000D01*
X130707750Y-53027000D01*
X130734750Y-53000000D01*
X144431660Y-53000000D01*
X144433000Y-53307750D01*
X144502250Y-53377000D01*
X146877000Y-53377000D01*
X146877000Y-52792250D01*
X146807750Y-52723000D01*
X144710000Y-52721660D01*
X144655699Y-52727008D01*
X144603484Y-52742847D01*
X144555363Y-52768569D01*
X144513184Y-52803184D01*
X144478569Y-52845363D01*
X144452847Y-52893484D01*
X144437008Y-52945699D01*
X144431660Y-53000000D01*
X130734750Y-53000000D01*
X130777000Y-52957750D01*
X130778340Y-52525000D01*
X130772992Y-52470699D01*
X130757153Y-52418484D01*
X130731431Y-52370363D01*
X130696816Y-52328184D01*
X130654637Y-52293569D01*
X130606516Y-52267847D01*
X130554301Y-52252008D01*
X130500000Y-52246660D01*
X130342250Y-52248000D01*
X130273000Y-52317250D01*
X129527000Y-52317250D01*
X129457750Y-52248000D01*
X129300000Y-52246660D01*
X129245699Y-52252008D01*
X129193484Y-52267847D01*
X129145363Y-52293569D01*
X129103184Y-52328184D01*
X129068569Y-52370363D01*
X129042847Y-52418484D01*
X129027008Y-52470699D01*
X129021660Y-52525000D01*
X128542118Y-52525000D01*
X128523133Y-52501867D01*
X128389592Y-52392273D01*
X128237237Y-52310838D01*
X128071922Y-52260690D01*
X127900000Y-52243757D01*
X127728079Y-52260690D01*
X127562764Y-52310838D01*
X127410409Y-52392273D01*
X127276868Y-52501867D01*
X127167274Y-52635408D01*
X127085838Y-52787763D01*
X127035690Y-52953078D01*
X127023000Y-53081921D01*
X126777000Y-53081921D01*
X126764310Y-52953078D01*
X126714162Y-52787763D01*
X126632727Y-52635408D01*
X126523133Y-52501867D01*
X126389592Y-52392273D01*
X126237237Y-52310838D01*
X126071922Y-52260690D01*
X125900000Y-52243757D01*
X125728079Y-52260690D01*
X125562764Y-52310838D01*
X125410409Y-52392273D01*
X125276868Y-52501867D01*
X125167274Y-52635408D01*
X125085838Y-52787763D01*
X125035690Y-52953078D01*
X125023000Y-53081921D01*
X124777000Y-53081921D01*
X124764310Y-52953078D01*
X124714162Y-52787763D01*
X124632727Y-52635408D01*
X124523133Y-52501867D01*
X124389592Y-52392273D01*
X124237237Y-52310838D01*
X124071922Y-52260690D01*
X123900000Y-52243757D01*
X123728079Y-52260690D01*
X123562764Y-52310838D01*
X123410409Y-52392273D01*
X123276868Y-52501867D01*
X123167274Y-52635408D01*
X123085838Y-52787763D01*
X123035690Y-52953078D01*
X123023000Y-53081921D01*
X122777000Y-53081921D01*
X122766812Y-52978478D01*
X123706134Y-52039157D01*
X123773312Y-52011331D01*
X123867816Y-51948185D01*
X123948185Y-51867816D01*
X124011331Y-51773312D01*
X124054826Y-51668305D01*
X124077000Y-51556830D01*
X124077000Y-51443170D01*
X124054826Y-51331695D01*
X124011331Y-51226688D01*
X123948185Y-51132184D01*
X123867816Y-51051815D01*
X123773312Y-50988669D01*
X123668305Y-50945174D01*
X123556830Y-50923000D01*
X123443170Y-50923000D01*
X123331695Y-50945174D01*
X123226688Y-50988669D01*
X123132184Y-51051815D01*
X123051815Y-51132184D01*
X122988669Y-51226688D01*
X122960843Y-51293866D01*
X122001005Y-52253705D01*
X121900000Y-52243757D01*
X121728079Y-52260690D01*
X121562764Y-52310838D01*
X121410409Y-52392273D01*
X121276868Y-52501867D01*
X121167274Y-52635408D01*
X121085838Y-52787763D01*
X121035690Y-52953078D01*
X121023000Y-53081921D01*
X117222046Y-53081921D01*
X117193036Y-53005778D01*
X117060534Y-52908905D01*
X116911679Y-52839743D01*
X116752191Y-52800950D01*
X116588200Y-52794017D01*
X116458000Y-52880880D01*
X115712000Y-52880880D01*
X115581800Y-52794017D01*
X115417809Y-52800950D01*
X115258321Y-52839743D01*
X115109466Y-52908905D01*
X114976964Y-53005778D01*
X114920126Y-53154964D01*
X112819874Y-53154964D01*
X112774006Y-53121995D01*
X112663966Y-53020749D01*
X112536288Y-52942916D01*
X112395879Y-52891487D01*
X112278000Y-52939969D01*
X111532000Y-52939969D01*
X111414121Y-52891487D01*
X111273712Y-52942916D01*
X111146034Y-53020749D01*
X111035994Y-53121995D01*
X110990126Y-53154964D01*
X110302000Y-53154964D01*
X110302000Y-53014774D01*
X110354805Y-52476237D01*
X110506914Y-51972424D01*
X110753984Y-51507752D01*
X111086606Y-51099917D01*
X111492107Y-50764457D01*
X111955043Y-50514149D01*
X112457782Y-50358525D01*
X112995413Y-50302018D01*
X113000478Y-50302000D01*
X146985226Y-50302000D01*
X147523763Y-50354805D01*
M02*
