M48
; DRILL file {KiCad 5.1.5+dfsg1-2build2} date Sun 27 Sep 2020 05:25:36 PM CEST
; FORMAT={-:-/ absolute / inch / decimal}
; #@! TF.CreationDate,2020-09-27T17:25:36+02:00
; #@! TF.GenerationSoftware,Kicad,Pcbnew,5.1.5+dfsg1-2build2
; #@! TF.FileFunction,Plated,1,2,PTH
FMAT,2
INCH
T1C0.0118
T2C0.0236
T3C0.0295
T4C0.0394
T5C0.0591
T6C0.0669
%
G90
G05
T1
X4.3701Y-3.5433
X4.3819Y-3.2992
X4.3858Y-3.1772
X4.3976Y-2.8307
X4.4094Y-3.4646
X4.4331Y-2.3031
X4.4409Y-2.7126
X4.4449Y-2.748
X4.4606Y-2.5
X4.4921Y-3.6693
X4.5039Y-3.6299
X4.5118Y-3.1181
X4.5157Y-2.8858
X4.5197Y-3.1929
X4.5315Y-2.3031
X4.5394Y-2.5039
X4.5433Y-2.626
X4.5433Y-2.6693
X4.5472Y-3.6181
X4.5709Y-3.7047
X4.622Y-2.7913
X4.622Y-3.0315
X4.622Y-3.1339
X4.626Y-2.9252
X4.6339Y-3.563
X4.6339Y-3.6181
X4.6457Y-3.7047
X4.6654Y-3.3307
X4.6654Y-3.4646
X4.685Y-3.6614
X4.689Y-3.3898
X4.7126Y-2.9882
X4.7205Y-2.7756
X4.7244Y-3.0207
X4.7244Y-3.5591
X4.7244Y-3.6654
X4.7362Y-2.622
X4.7362Y-2.6693
X4.7362Y-2.9409
X4.7362Y-3.1339
X4.7441Y-3.3346
X4.7638Y-2.3012
X4.7638Y-3.6614
X4.7677Y-2.9685
X4.7874Y-2.9409
X4.7874Y-3.0748
X4.7874Y-3.122
X4.7913Y-3.2953
X4.7992Y-2.622
X4.7992Y-2.6693
X4.7992Y-3.4331
X4.8031Y-3.7047
X4.815Y-3.563
X4.815Y-3.6181
X4.8189Y-3.5039
X4.8327Y-2.3012
X4.8425Y-2.9882
X4.8425Y-3.122
X4.8425Y-3.3228
X4.8504Y-2.9449
X4.8504Y-3.0197
X4.8543Y-3.0551
X4.8622Y-2.0276
X4.8661Y-3.5472
X4.874Y-3.7087
X4.8819Y-2.874
X4.8819Y-3.2598
X4.8819Y-3.3701
X4.8937Y-2.5236
X4.8937Y-3.622
X4.8976Y-2.7008
X4.9134Y-2.8228
X4.9213Y-2.5984
X4.9213Y-3.4252
X4.9213Y-3.5039
X4.9449Y-3.1496
X4.9528Y-3.6732
X4.9685Y-2.7598
X4.9685Y-2.9173
X4.9803Y-3.0315
X4.9921Y-2.626
X5.0Y-3.4252
X5.0118Y-3.4882
X5.0141Y-2.6544
X5.0198Y-2.6854
X5.0354Y-2.4409
X5.0394Y-2.3346
X5.0394Y-2.5276
X5.0394Y-2.9606
X5.0394Y-3.0433
X5.0433Y-2.3031
X5.0472Y-3.1496
X5.0472Y-3.2126
X5.0472Y-3.2795
X5.0551Y-3.4488
X5.1063Y-3.1772
X5.1181Y-2.4606
X5.1181Y-2.7008
X5.1181Y-2.9843
X5.1181Y-3.0472
X5.1181Y-3.1102
X5.1181Y-3.3661
X5.1181Y-3.4252
X5.1181Y-3.4803
X5.1181Y-3.622
X5.1181Y-3.7008
X5.1299Y-2.5433
X5.1496Y-2.3425
X5.1614Y-2.9567
X5.1732Y-2.5433
X5.189Y-2.4016
X5.1969Y-3.3661
X5.1969Y-3.4252
X5.1969Y-3.5079
X5.2087Y-2.8858
X5.2087Y-2.9646
X5.2087Y-3.0472
X5.2087Y-3.1299
X5.2087Y-3.2087
X5.2165Y-2.4606
X5.2559Y-2.7362
X5.2756Y-3.3661
X5.2756Y-3.5079
X5.2795Y-2.8858
X5.2795Y-2.9646
X5.2795Y-3.1299
X5.2795Y-3.2087
X5.2835Y-3.0472
X5.2835Y-3.6732
X5.2953Y-2.3898
X5.3189Y-2.2953
X5.3346Y-3.6181
X5.3543Y-3.0709
X5.3543Y-3.3622
X5.3543Y-3.4252
X5.3543Y-3.4803
X5.3543Y-3.7165
X5.3661Y-2.7362
X5.3661Y-2.8858
X5.3661Y-3.2087
X5.4134Y-3.1299
X5.4213Y-3.563
X5.4213Y-3.6181
X5.4291Y-2.6772
X5.4291Y-2.7677
X5.4291Y-2.8543
X5.4291Y-3.2402
X5.4291Y-3.3268
X5.4331Y-2.9921
X5.4331Y-3.4252
X5.4331Y-3.4803
X5.4331Y-3.7165
X5.437Y-2.5157
X5.4724Y-2.5276
X5.4724Y-3.3583
X5.4724Y-3.6614
X5.5079Y-2.6772
X5.5079Y-2.7677
X5.5079Y-2.8543
X5.5079Y-3.2402
X5.5079Y-3.3268
X5.5079Y-3.4685
X5.5118Y-2.9921
X5.5118Y-3.5591
X5.5118Y-3.6535
X5.5197Y-2.5276
X5.5512Y-3.6614
X5.5512Y-3.7165
X5.5866Y-2.5748
X5.6024Y-3.563
X5.6024Y-3.6181
X5.6693Y-3.7165
X5.689Y-3.622
X5.7402Y-3.6732
T3
X4.7992Y-2.1024
X4.878Y-2.1024
X4.9567Y-2.1024
X5.0354Y-2.1024
X5.1142Y-2.1024
T4
X5.111Y-2.811
X5.211Y-2.811
X5.311Y-2.811
X5.111Y-3.2835
X5.211Y-3.2835
X5.311Y-3.2835
T5
X5.6909Y-2.815
X5.7087Y-3.8996
X4.9213Y-3.8996
X5.6909Y-3.2874
X5.315Y-3.8996
X4.5276Y-3.8992
T6
X5.5909Y-2.715
X5.5909Y-2.915
X5.7909Y-2.715
X5.7909Y-2.915
X5.6087Y-3.7996
X5.6087Y-3.9996
X5.8087Y-3.7996
X5.8087Y-3.9996
X4.8213Y-3.7996
X4.8213Y-3.9996
X5.0213Y-3.7996
X5.0213Y-3.9996
X5.5909Y-3.1874
X5.5909Y-3.3874
X5.7909Y-3.1874
X5.7909Y-3.3874
X5.215Y-3.7996
X5.215Y-3.9996
X5.415Y-3.7996
X5.415Y-3.9996
X4.4276Y-3.7992
X4.4276Y-3.9992
X4.6276Y-3.7992
X4.6276Y-3.9992
T2
X4.4175Y-2.1114G85X4.3939Y-2.1114
G05
X4.4175Y-2.4516G85X4.3939Y-2.4516
G05
X4.5919Y-2.1114G85X4.5486Y-2.1114
G05
X4.5919Y-2.4516G85X4.5486Y-2.4516
G05
T0
M30
